G04 #@! TF.GenerationSoftware,KiCad,Pcbnew,(5.1.5)-3*
G04 #@! TF.CreationDate,2020-07-07T20:54:15-07:00*
G04 #@! TF.ProjectId,Miniscope-V4-Ephys-System,4d696e69-7363-46f7-9065-2d56342d4570,rev?*
G04 #@! TF.SameCoordinates,Original*
G04 #@! TF.FileFunction,Paste,Bot*
G04 #@! TF.FilePolarity,Positive*
%FSLAX46Y46*%
G04 Gerber Fmt 4.6, Leading zero omitted, Abs format (unit mm)*
G04 Created by KiCad (PCBNEW (5.1.5)-3) date 2020-07-07 20:54:15*
%MOMM*%
%LPD*%
G04 APERTURE LIST*
%ADD10C,0.370000*%
%ADD11R,0.610000X0.260000*%
%ADD12R,0.260000X0.610000*%
G04 APERTURE END LIST*
D10*
X131400000Y-120350000D03*
X132200000Y-120350000D03*
X133000000Y-120350000D03*
X133800000Y-120350000D03*
X134600000Y-120350000D03*
X135400000Y-120350000D03*
X136200000Y-120350000D03*
X137000000Y-120350000D03*
X137800000Y-120350000D03*
X138600000Y-120350000D03*
X131400000Y-119550000D03*
X132200000Y-119550000D03*
X133000000Y-119550000D03*
X133800000Y-119550000D03*
X134600000Y-119550000D03*
X135400000Y-119550000D03*
X136200000Y-119550000D03*
X137000000Y-119550000D03*
X137800000Y-119550000D03*
X138600000Y-119550000D03*
X131400000Y-118750000D03*
X132200000Y-118750000D03*
X133000000Y-118750000D03*
X133800000Y-118750000D03*
X134600000Y-118750000D03*
X135400000Y-118750000D03*
X136200000Y-118750000D03*
X137000000Y-118750000D03*
X137800000Y-118750000D03*
X138600000Y-118750000D03*
X131400000Y-117950000D03*
X132200000Y-117950000D03*
X133000000Y-117950000D03*
X133800000Y-117950000D03*
X134600000Y-117950000D03*
X135400000Y-117950000D03*
X136200000Y-117950000D03*
X137000000Y-117950000D03*
X137800000Y-117950000D03*
X138600000Y-117950000D03*
X131400000Y-117150000D03*
X132200000Y-117150000D03*
X133000000Y-117150000D03*
X133800000Y-117150000D03*
X134600000Y-117150000D03*
X135400000Y-117150000D03*
X136200000Y-117150000D03*
X137000000Y-117150000D03*
X137800000Y-117150000D03*
X138600000Y-117150000D03*
X131400000Y-116350000D03*
X132200000Y-116350000D03*
X133000000Y-116350000D03*
X133800000Y-116350000D03*
X134600000Y-116350000D03*
X135400000Y-116350000D03*
X136200000Y-116350000D03*
X137000000Y-116350000D03*
X137800000Y-116350000D03*
X138600000Y-116350000D03*
X131400000Y-115550000D03*
X132200000Y-115550000D03*
X133000000Y-115550000D03*
X133800000Y-115550000D03*
X134600000Y-115550000D03*
X135400000Y-115550000D03*
X136200000Y-115550000D03*
X137000000Y-115550000D03*
X137800000Y-115550000D03*
X138600000Y-115550000D03*
X131400000Y-114750000D03*
X132200000Y-114750000D03*
X133000000Y-114750000D03*
X133800000Y-114750000D03*
X134600000Y-114750000D03*
X135400000Y-114750000D03*
X136200000Y-114750000D03*
X137000000Y-114750000D03*
X137800000Y-114750000D03*
X138600000Y-114750000D03*
X131400000Y-113950000D03*
X132200000Y-113950000D03*
X133000000Y-113950000D03*
X133800000Y-113950000D03*
X134600000Y-113950000D03*
X135400000Y-113950000D03*
X136200000Y-113950000D03*
X137000000Y-113950000D03*
X137800000Y-113950000D03*
X138600000Y-113950000D03*
X131400000Y-113150000D03*
X132200000Y-113150000D03*
X133000000Y-113150000D03*
X133800000Y-113150000D03*
X134600000Y-113150000D03*
X135400000Y-113150000D03*
X136200000Y-113150000D03*
X137000000Y-113150000D03*
X137800000Y-113150000D03*
X138600000Y-113150000D03*
D11*
X115100000Y-127250000D03*
X115100000Y-127750000D03*
X115100000Y-128250000D03*
X115100000Y-128750000D03*
X115100000Y-129250000D03*
X115100000Y-129750000D03*
X115100000Y-130250000D03*
X115100000Y-130750000D03*
X115100000Y-131250000D03*
X115100000Y-131750000D03*
X115100000Y-132250000D03*
X115100000Y-132750000D03*
X115100000Y-133250000D03*
X115100000Y-133750000D03*
D12*
X114500000Y-134350000D03*
X114000000Y-134350000D03*
X113500000Y-134350000D03*
X113000000Y-134350000D03*
X112500000Y-134350000D03*
X112000000Y-134350000D03*
X111500000Y-134350000D03*
X111000000Y-134350000D03*
X110500000Y-134350000D03*
X110000000Y-134350000D03*
X109500000Y-134350000D03*
X109000000Y-134350000D03*
X108500000Y-134350000D03*
X108000000Y-134350000D03*
D11*
X107400000Y-133750000D03*
X107400000Y-133250000D03*
X107400000Y-132750000D03*
X107400000Y-132250000D03*
X107400000Y-131750000D03*
X107400000Y-131250000D03*
X107400000Y-130750000D03*
X107400000Y-130250000D03*
X107400000Y-129750000D03*
X107400000Y-129250000D03*
X107400000Y-128750000D03*
X107400000Y-128250000D03*
X107400000Y-127750000D03*
X107400000Y-127250000D03*
D12*
X108000000Y-126650000D03*
X108500000Y-126650000D03*
X109000000Y-126650000D03*
X109500000Y-126650000D03*
X110000000Y-126650000D03*
X110500000Y-126650000D03*
X111000000Y-126650000D03*
X111500000Y-126650000D03*
X112000000Y-126650000D03*
X112500000Y-126650000D03*
X113000000Y-126650000D03*
X113500000Y-126650000D03*
X114000000Y-126650000D03*
X114500000Y-126650000D03*
M02*
