M48
; DRILL file {KiCad (5.1.5)-3} date 7/15/2020 11:20:02 PM
; FORMAT={-:-/ absolute / inch / decimal}
; #@! TF.CreationDate,2020-07-15T23:20:02-07:00
; #@! TF.GenerationSoftware,Kicad,Pcbnew,(5.1.5)-3
FMAT,2
INCH
T1C0.0059
T2C0.0197
T3C0.0256
T4C0.0197
T5C0.0394
%
G90
G05
T1
X4.228Y-4.989
X4.2549Y-5.1894
X4.2549Y-5.2454
X4.2739Y-5.2624
X4.281Y-5.05
X4.281Y-5.068
X4.284Y-5.088
X4.2919Y-5.2624
X4.2953Y-5.1988
X4.297Y-5.125
X4.3Y-5.01
X4.302Y-5.05
X4.3105Y-5.1333
X4.3168Y-5.217
X4.3182Y-5.01
X4.325Y-5.125
X4.334Y-5.01
X4.338Y-5.134
X4.3449Y-5.2304
X4.3449Y-5.2484
X4.3449Y-5.2644
X4.3459Y-5.2124
X4.35Y-5.01
X4.352Y-5.125
X4.3579Y-5.1984
X4.366Y-5.134
X4.37Y-5.01
X4.38Y-5.126
X4.386Y-5.01
X4.394Y-5.135
X4.4021Y-5.01
X4.4039Y-5.2484
X4.408Y-5.125
X4.413Y-5.084
X4.4201Y-5.01
X4.421Y-5.05
X4.431Y-5.083
X4.435Y-5.06
X4.4473Y-5.0491
X4.449Y-5.082
X4.4569Y-5.1734
X4.4569Y-5.1954
X4.4569Y-5.2144
X4.4612Y-5.0567
X4.4779Y-5.0504
X4.479Y-5.068
X4.4909Y-5.1234
X4.4971Y-5.0501
X4.5279Y-4.9884
X5.1505Y-4.4337
X5.1512Y-4.5717
X5.1545Y-4.7657
X5.1572Y-4.6587
X5.1592Y-4.5967
X5.1772Y-5.187
X5.1895Y-4.5647
X5.1905Y-4.6607
X5.1915Y-4.4337
X5.2188Y-4.757
X5.2205Y-4.5017
X5.2515Y-4.5327
X5.2515Y-4.6597
X5.2525Y-4.5657
X5.2565Y-4.4387
X5.2657Y-4.7571
X5.2657Y-5.2953
X5.2825Y-4.5347
X5.2835Y-4.4707
X5.2835Y-4.5657
X5.2835Y-4.6277
X5.3135Y-4.5037
X5.3145Y-4.6597
X5.315Y-4.7571
X5.315Y-5.2559
X5.3165Y-4.5327
X5.3465Y-4.4717
X5.3465Y-4.5957
X5.3642Y-5.2756
X5.3642Y-4.7571
X5.3775Y-4.5327
X5.3785Y-4.5967
X5.3795Y-4.4717
X5.3795Y-4.5017
X5.4092Y-4.6267
X5.4118Y-4.757
X5.4134Y-5.2559
X5.4402Y-4.5647
X5.4415Y-4.5337
X5.4422Y-4.4667
X5.4565Y-4.4287
X5.4626Y-4.7571
X5.4626Y-5.2559
X5.4742Y-4.5357
X5.4815Y-4.4307
X5.4832Y-4.5887
T2
X4.4291Y-4.4685
X4.2323Y-4.5164
X4.2913Y-4.4488
X4.2323Y-4.5669
T3
X4.3799Y-4.5472
X4.4299Y-4.5472
X4.4799Y-4.5472
X4.5299Y-4.5472
T4
X4.2913Y-4.6949
X5.4675Y-5.315
X5.3199Y-5.315
X4.4094Y-5.4035
X4.4094Y-4.4094
X4.3799Y-5.4035
X4.2913Y-4.872
X4.3209Y-4.6063
X5.374Y-4.3996
X4.9902Y-5.2756
X5.2854Y-4.8031
X5.374Y-4.3209
X5.4232Y-5.4035
X5.3346Y-5.4035
X4.4685Y-5.4035
X4.439Y-4.9508
X5.2559Y-4.8031
X4.4094Y-4.3209
X4.3209Y-5.4035
X4.9902Y-5.2165
X4.3209Y-4.3209
X5.315Y-4.3209
X4.9016Y-5.2313
X5.374Y-4.8819
X4.3504Y-4.872
X4.3799Y-4.6949
X5.4085Y-5.315
X5.3789Y-5.315
X5.3642Y-5.4035
X4.3209Y-4.4094
X4.4094Y-4.9508
X5.2854Y-4.8819
X4.3799Y-4.3209
X4.3209Y-4.9508
X5.3445Y-4.8819
X4.4685Y-4.3209
X5.2854Y-4.3996
X4.9902Y-5.2461
X4.4094Y-4.872
X5.315Y-4.3996
X5.4823Y-5.4035
X4.4094Y-4.6949
X5.3051Y-5.4035
X4.439Y-4.6949
X4.9016Y-5.2904
X4.439Y-5.3248
X4.2913Y-4.3209
X4.3504Y-4.4094
X4.439Y-4.872
X5.3445Y-4.8031
X4.439Y-4.3209
X4.2913Y-5.4035
X4.3504Y-4.6949
X5.315Y-4.8819
X5.2264Y-4.3209
X5.3445Y-4.3996
X5.2559Y-4.3209
X5.4528Y-5.4035
X4.9902Y-5.187
X4.3799Y-5.3248
X4.3799Y-4.4094
X4.3799Y-4.872
X4.9016Y-5.2608
X4.439Y-4.4094
X4.3209Y-5.3248
X5.374Y-4.8031
X4.439Y-4.6063
X5.2854Y-4.3209
X5.2264Y-4.8819
X5.2559Y-4.8819
X4.9016Y-5.1722
X5.3937Y-5.4035
X4.3799Y-4.9508
X4.3209Y-4.6949
X4.439Y-5.4035
X5.4035Y-4.8819
X4.3799Y-4.6063
X4.3504Y-5.3248
X4.9016Y-5.2018
X4.4094Y-4.6063
X5.2559Y-4.3996
X4.3209Y-4.872
X4.4685Y-4.6949
X5.438Y-5.315
X5.3494Y-5.315
X4.3504Y-5.4035
X4.3504Y-4.3209
X4.3504Y-4.9508
X4.4685Y-4.872
X4.3504Y-4.6063
X4.4094Y-5.3248
X5.4035Y-4.3209
X5.3445Y-4.3209
X5.315Y-4.8031
T5
X5.5413Y-4.6358
X4.6063Y-4.4488
X4.1634Y-5.0689
X4.5965Y-5.0689
X4.1535Y-4.4488
X5.0886Y-4.6358
X5.5413Y-5.2756
T0
M30
