G04 #@! TF.GenerationSoftware,KiCad,Pcbnew,(5.1.5)-3*
G04 #@! TF.CreationDate,2020-07-15T23:20:01-07:00*
G04 #@! TF.ProjectId,Miniscope-V4-Ephys-System,4d696e69-7363-46f7-9065-2d56342d4570,rev?*
G04 #@! TF.SameCoordinates,Original*
G04 #@! TF.FileFunction,Soldermask,Bot*
G04 #@! TF.FilePolarity,Negative*
%FSLAX46Y46*%
G04 Gerber Fmt 4.6, Leading zero omitted, Abs format (unit mm)*
G04 Created by KiCad (PCBNEW (5.1.5)-3) date 2020-07-15 23:20:01*
%MOMM*%
%LPD*%
G04 APERTURE LIST*
%ADD10O,1.000000X1.000000*%
%ADD11R,1.000000X1.000000*%
%ADD12C,1.000000*%
%ADD13C,0.500000*%
%ADD14C,2.000000*%
%ADD15R,1.000000X2.000000*%
%ADD16C,0.370000*%
%ADD17R,0.610000X0.260000*%
%ADD18R,0.260000X0.610000*%
G04 APERTURE END LIST*
D10*
X115060000Y-115500000D03*
X113790000Y-115500000D03*
X112520000Y-115500000D03*
D11*
X111250000Y-115500000D03*
D12*
X112500000Y-113500000D03*
X109000000Y-113000000D03*
D13*
X112750000Y-119250000D03*
X112000000Y-119250000D03*
X109000000Y-119250000D03*
X113500000Y-119250000D03*
X111250000Y-119250000D03*
X110500000Y-119250000D03*
X109750000Y-119250000D03*
X109750000Y-117000000D03*
X113500000Y-109750000D03*
X110500000Y-117000000D03*
X112000000Y-117000000D03*
X112750000Y-117000000D03*
X111250000Y-117000000D03*
X109750000Y-109750000D03*
X112750000Y-112000000D03*
X110500000Y-112000000D03*
X112750000Y-109750000D03*
X111250000Y-109750000D03*
X112000000Y-109750000D03*
X112000000Y-112000000D03*
X110500000Y-109750000D03*
X109750000Y-112000000D03*
X111250000Y-112000000D03*
X109000000Y-109750000D03*
D12*
X105500000Y-113000000D03*
X117000000Y-113000000D03*
X107500000Y-114717400D03*
X107500000Y-116000000D03*
D14*
X100000000Y-142000000D03*
X100000000Y-105000000D03*
X148750000Y-105000000D03*
X148750000Y-142000000D03*
D13*
X138875000Y-135000000D03*
X139250000Y-137250000D03*
X134750000Y-137250000D03*
X137375000Y-135000000D03*
X136250000Y-137250000D03*
X135125000Y-135000000D03*
X138125000Y-135000000D03*
X137750000Y-137250000D03*
X138500000Y-137250000D03*
X137000000Y-137250000D03*
X136625000Y-135000000D03*
X135875000Y-135000000D03*
X135500000Y-137250000D03*
X124500000Y-131375000D03*
X124500000Y-134375000D03*
X126750000Y-131750000D03*
X113500000Y-137250000D03*
X109000000Y-137250000D03*
X109000000Y-123750000D03*
X113500000Y-123750000D03*
X132750000Y-109750000D03*
X137250000Y-109750000D03*
X137250000Y-124000000D03*
X132750000Y-124000000D03*
X124500000Y-132875000D03*
X126750000Y-132500000D03*
X124500000Y-133625000D03*
X126750000Y-134000000D03*
X126750000Y-133250000D03*
X124500000Y-132125000D03*
X135750000Y-122000000D03*
X134250000Y-124000000D03*
X133500000Y-122000000D03*
X136500000Y-122000000D03*
X135750000Y-124000000D03*
X136500000Y-124000000D03*
X135000000Y-124000000D03*
X135000000Y-122000000D03*
X134250000Y-122000000D03*
X133500000Y-124000000D03*
X134250000Y-111750000D03*
X135750000Y-109750000D03*
X136500000Y-111750000D03*
X133500000Y-111750000D03*
X134250000Y-109750000D03*
X133500000Y-109750000D03*
X135000000Y-109750000D03*
X135000000Y-111750000D03*
X135750000Y-111750000D03*
X136500000Y-109750000D03*
X110500000Y-123750000D03*
X109750000Y-123750000D03*
X112000000Y-123750000D03*
X112750000Y-123750000D03*
X111250000Y-123750000D03*
X110500000Y-125750000D03*
X109750000Y-125750000D03*
X112000000Y-125750000D03*
X112750000Y-125750000D03*
X111250000Y-125750000D03*
X110500000Y-137250000D03*
X109750000Y-137250000D03*
X112000000Y-137250000D03*
X112750000Y-137250000D03*
X111250000Y-137250000D03*
X112750000Y-135250000D03*
X112000000Y-135250000D03*
X111250000Y-135250000D03*
X110500000Y-135250000D03*
X109750000Y-135250000D03*
D12*
X140750000Y-134000000D03*
X105750000Y-128750000D03*
X116750000Y-128750000D03*
X140750000Y-117750000D03*
X129250000Y-117750000D03*
D15*
X132500000Y-132015800D03*
X137500000Y-132015800D03*
X135000000Y-132015800D03*
X133750000Y-132015800D03*
X136250000Y-132015800D03*
X138750000Y-132015800D03*
D16*
X131400000Y-120350000D03*
X132200000Y-120350000D03*
X133000000Y-120350000D03*
X133800000Y-120350000D03*
X134600000Y-120350000D03*
X135400000Y-120350000D03*
X136200000Y-120350000D03*
X137000000Y-120350000D03*
X137800000Y-120350000D03*
X138600000Y-120350000D03*
X131400000Y-119550000D03*
X132200000Y-119550000D03*
X133000000Y-119550000D03*
X133800000Y-119550000D03*
X134600000Y-119550000D03*
X135400000Y-119550000D03*
X136200000Y-119550000D03*
X137000000Y-119550000D03*
X137800000Y-119550000D03*
X138600000Y-119550000D03*
X131400000Y-118750000D03*
X132200000Y-118750000D03*
X133000000Y-118750000D03*
X133800000Y-118750000D03*
X134600000Y-118750000D03*
X135400000Y-118750000D03*
X136200000Y-118750000D03*
X137000000Y-118750000D03*
X137800000Y-118750000D03*
X138600000Y-118750000D03*
X131400000Y-117950000D03*
X132200000Y-117950000D03*
X133000000Y-117950000D03*
X133800000Y-117950000D03*
X134600000Y-117950000D03*
X135400000Y-117950000D03*
X136200000Y-117950000D03*
X137000000Y-117950000D03*
X137800000Y-117950000D03*
X138600000Y-117950000D03*
X131400000Y-117150000D03*
X132200000Y-117150000D03*
X133000000Y-117150000D03*
X133800000Y-117150000D03*
X134600000Y-117150000D03*
X135400000Y-117150000D03*
X136200000Y-117150000D03*
X137000000Y-117150000D03*
X137800000Y-117150000D03*
X138600000Y-117150000D03*
X131400000Y-116350000D03*
X132200000Y-116350000D03*
X133000000Y-116350000D03*
X133800000Y-116350000D03*
X134600000Y-116350000D03*
X135400000Y-116350000D03*
X136200000Y-116350000D03*
X137000000Y-116350000D03*
X137800000Y-116350000D03*
X138600000Y-116350000D03*
X131400000Y-115550000D03*
X132200000Y-115550000D03*
X133000000Y-115550000D03*
X133800000Y-115550000D03*
X134600000Y-115550000D03*
X135400000Y-115550000D03*
X136200000Y-115550000D03*
X137000000Y-115550000D03*
X137800000Y-115550000D03*
X138600000Y-115550000D03*
X131400000Y-114750000D03*
X132200000Y-114750000D03*
X133000000Y-114750000D03*
X133800000Y-114750000D03*
X134600000Y-114750000D03*
X135400000Y-114750000D03*
X136200000Y-114750000D03*
X137000000Y-114750000D03*
X137800000Y-114750000D03*
X138600000Y-114750000D03*
X131400000Y-113950000D03*
X132200000Y-113950000D03*
X133000000Y-113950000D03*
X133800000Y-113950000D03*
X134600000Y-113950000D03*
X135400000Y-113950000D03*
X136200000Y-113950000D03*
X137000000Y-113950000D03*
X137800000Y-113950000D03*
X138600000Y-113950000D03*
X131400000Y-113150000D03*
X132200000Y-113150000D03*
X133000000Y-113150000D03*
X133800000Y-113150000D03*
X134600000Y-113150000D03*
X135400000Y-113150000D03*
X136200000Y-113150000D03*
X137000000Y-113150000D03*
X137800000Y-113150000D03*
X138600000Y-113150000D03*
D17*
X115100000Y-127250000D03*
X115100000Y-127750000D03*
X115100000Y-128250000D03*
X115100000Y-128750000D03*
X115100000Y-129250000D03*
X115100000Y-129750000D03*
X115100000Y-130250000D03*
X115100000Y-130750000D03*
X115100000Y-131250000D03*
X115100000Y-131750000D03*
X115100000Y-132250000D03*
X115100000Y-132750000D03*
X115100000Y-133250000D03*
X115100000Y-133750000D03*
D18*
X114500000Y-134350000D03*
X114000000Y-134350000D03*
X113500000Y-134350000D03*
X113000000Y-134350000D03*
X112500000Y-134350000D03*
X112000000Y-134350000D03*
X111500000Y-134350000D03*
X111000000Y-134350000D03*
X110500000Y-134350000D03*
X110000000Y-134350000D03*
X109500000Y-134350000D03*
X109000000Y-134350000D03*
X108500000Y-134350000D03*
X108000000Y-134350000D03*
D17*
X107400000Y-133750000D03*
X107400000Y-133250000D03*
X107400000Y-132750000D03*
X107400000Y-132250000D03*
X107400000Y-131750000D03*
X107400000Y-131250000D03*
X107400000Y-130750000D03*
X107400000Y-130250000D03*
X107400000Y-129750000D03*
X107400000Y-129250000D03*
X107400000Y-128750000D03*
X107400000Y-128250000D03*
X107400000Y-127750000D03*
X107400000Y-127250000D03*
D18*
X108000000Y-126650000D03*
X108500000Y-126650000D03*
X109000000Y-126650000D03*
X109500000Y-126650000D03*
X110000000Y-126650000D03*
X110500000Y-126650000D03*
X111000000Y-126650000D03*
X111500000Y-126650000D03*
X112000000Y-126650000D03*
X112500000Y-126650000D03*
X113000000Y-126650000D03*
X113500000Y-126650000D03*
X114000000Y-126650000D03*
X114500000Y-126650000D03*
M02*
