G04 #@! TF.GenerationSoftware,KiCad,Pcbnew,(5.1.5)-3*
G04 #@! TF.CreationDate,2020-07-07T20:54:15-07:00*
G04 #@! TF.ProjectId,Miniscope-V4-Ephys-System,4d696e69-7363-46f7-9065-2d56342d4570,rev?*
G04 #@! TF.SameCoordinates,Original*
G04 #@! TF.FileFunction,Copper,L4,Bot*
G04 #@! TF.FilePolarity,Positive*
%FSLAX46Y46*%
G04 Gerber Fmt 4.6, Leading zero omitted, Abs format (unit mm)*
G04 Created by KiCad (PCBNEW (5.1.5)-3) date 2020-07-07 20:54:15*
%MOMM*%
%LPD*%
G04 APERTURE LIST*
%ADD10O,1.000000X1.000000*%
%ADD11R,1.000000X1.000000*%
%ADD12C,1.000000*%
%ADD13R,1.000000X2.000000*%
%ADD14C,0.370000*%
%ADD15R,0.610000X0.260000*%
%ADD16R,0.260000X0.610000*%
%ADD17C,0.300000*%
%ADD18C,0.152400*%
%ADD19C,0.304800*%
%ADD20C,0.203200*%
G04 APERTURE END LIST*
D10*
X115060000Y-115500000D03*
X113790000Y-115500000D03*
X112520000Y-115500000D03*
D11*
X111250000Y-115500000D03*
D12*
X112500000Y-113500000D03*
X109000000Y-113000000D03*
X107500000Y-114717400D03*
X107500000Y-116000000D03*
X100000000Y-142000000D03*
X100000000Y-105000000D03*
X148750000Y-105000000D03*
X148750000Y-142000000D03*
D13*
X132500000Y-132015800D03*
X137500000Y-132015800D03*
X135000000Y-132015800D03*
X133750000Y-132015800D03*
X136250000Y-132015800D03*
X138750000Y-132015800D03*
D14*
X131400000Y-120350000D03*
X132200000Y-120350000D03*
X133000000Y-120350000D03*
X133800000Y-120350000D03*
X134600000Y-120350000D03*
X135400000Y-120350000D03*
X136200000Y-120350000D03*
X137000000Y-120350000D03*
X137800000Y-120350000D03*
X138600000Y-120350000D03*
X131400000Y-119550000D03*
X132200000Y-119550000D03*
X133000000Y-119550000D03*
X133800000Y-119550000D03*
X134600000Y-119550000D03*
X135400000Y-119550000D03*
X136200000Y-119550000D03*
X137000000Y-119550000D03*
X137800000Y-119550000D03*
X138600000Y-119550000D03*
X131400000Y-118750000D03*
X132200000Y-118750000D03*
X133000000Y-118750000D03*
X133800000Y-118750000D03*
X134600000Y-118750000D03*
X135400000Y-118750000D03*
X136200000Y-118750000D03*
X137000000Y-118750000D03*
X137800000Y-118750000D03*
X138600000Y-118750000D03*
X131400000Y-117950000D03*
X132200000Y-117950000D03*
X133000000Y-117950000D03*
X133800000Y-117950000D03*
X134600000Y-117950000D03*
X135400000Y-117950000D03*
X136200000Y-117950000D03*
X137000000Y-117950000D03*
X137800000Y-117950000D03*
X138600000Y-117950000D03*
X131400000Y-117150000D03*
X132200000Y-117150000D03*
X133000000Y-117150000D03*
X133800000Y-117150000D03*
X134600000Y-117150000D03*
X135400000Y-117150000D03*
X136200000Y-117150000D03*
X137000000Y-117150000D03*
X137800000Y-117150000D03*
X138600000Y-117150000D03*
X131400000Y-116350000D03*
X132200000Y-116350000D03*
X133000000Y-116350000D03*
X133800000Y-116350000D03*
X134600000Y-116350000D03*
X135400000Y-116350000D03*
X136200000Y-116350000D03*
X137000000Y-116350000D03*
X137800000Y-116350000D03*
X138600000Y-116350000D03*
X131400000Y-115550000D03*
X132200000Y-115550000D03*
X133000000Y-115550000D03*
X133800000Y-115550000D03*
X134600000Y-115550000D03*
X135400000Y-115550000D03*
X136200000Y-115550000D03*
X137000000Y-115550000D03*
X137800000Y-115550000D03*
X138600000Y-115550000D03*
X131400000Y-114750000D03*
X132200000Y-114750000D03*
X133000000Y-114750000D03*
X133800000Y-114750000D03*
X134600000Y-114750000D03*
X135400000Y-114750000D03*
X136200000Y-114750000D03*
X137000000Y-114750000D03*
X137800000Y-114750000D03*
X138600000Y-114750000D03*
X131400000Y-113950000D03*
X132200000Y-113950000D03*
X133000000Y-113950000D03*
X133800000Y-113950000D03*
X134600000Y-113950000D03*
X135400000Y-113950000D03*
X136200000Y-113950000D03*
X137000000Y-113950000D03*
X137800000Y-113950000D03*
X138600000Y-113950000D03*
X131400000Y-113150000D03*
X132200000Y-113150000D03*
X133000000Y-113150000D03*
X133800000Y-113150000D03*
X134600000Y-113150000D03*
X135400000Y-113150000D03*
X136200000Y-113150000D03*
X137000000Y-113150000D03*
X137800000Y-113150000D03*
X138600000Y-113150000D03*
D15*
X115100000Y-127250000D03*
X115100000Y-127750000D03*
X115100000Y-128250000D03*
X115100000Y-128750000D03*
X115100000Y-129250000D03*
X115100000Y-129750000D03*
X115100000Y-130250000D03*
X115100000Y-130750000D03*
X115100000Y-131250000D03*
X115100000Y-131750000D03*
X115100000Y-132250000D03*
X115100000Y-132750000D03*
X115100000Y-133250000D03*
X115100000Y-133750000D03*
D16*
X114500000Y-134350000D03*
X114000000Y-134350000D03*
X113500000Y-134350000D03*
X113000000Y-134350000D03*
X112500000Y-134350000D03*
X112000000Y-134350000D03*
X111500000Y-134350000D03*
X111000000Y-134350000D03*
X110500000Y-134350000D03*
X110000000Y-134350000D03*
X109500000Y-134350000D03*
X109000000Y-134350000D03*
X108500000Y-134350000D03*
X108000000Y-134350000D03*
D15*
X107400000Y-133750000D03*
X107400000Y-133250000D03*
X107400000Y-132750000D03*
X107400000Y-132250000D03*
X107400000Y-131750000D03*
X107400000Y-131250000D03*
X107400000Y-130750000D03*
X107400000Y-130250000D03*
X107400000Y-129750000D03*
X107400000Y-129250000D03*
X107400000Y-128750000D03*
X107400000Y-128250000D03*
X107400000Y-127750000D03*
X107400000Y-127250000D03*
D16*
X108000000Y-126650000D03*
X108500000Y-126650000D03*
X109000000Y-126650000D03*
X109500000Y-126650000D03*
X110000000Y-126650000D03*
X110500000Y-126650000D03*
X111000000Y-126650000D03*
X111500000Y-126650000D03*
X112000000Y-126650000D03*
X112500000Y-126650000D03*
X113000000Y-126650000D03*
X113500000Y-126650000D03*
X114000000Y-126650000D03*
X114500000Y-126650000D03*
D17*
X138213800Y-115156600D03*
X135800800Y-113581800D03*
X135038800Y-115131200D03*
X133387800Y-118357000D03*
X134200600Y-115969400D03*
X136613600Y-116756800D03*
X131044800Y-116755800D03*
X132556400Y-120826800D03*
X133514800Y-112743596D03*
X132600400Y-114343800D03*
X130822400Y-112616600D03*
X136588200Y-115131200D03*
X135800800Y-116731400D03*
X133413200Y-115969400D03*
X134200600Y-117544200D03*
X114068200Y-130135200D03*
X115008000Y-126706200D03*
X113204600Y-131964000D03*
X108073800Y-131811600D03*
X111858400Y-133310200D03*
X108073800Y-133234000D03*
X109645600Y-132510806D03*
X131500012Y-131750000D03*
X138233000Y-113453800D03*
X137394800Y-117517800D03*
X138182200Y-115943000D03*
X109013600Y-133665800D03*
X110690000Y-132040200D03*
X113204600Y-132446600D03*
X109100000Y-132050000D03*
X138750000Y-133500000D03*
X139045800Y-115206400D03*
X138749984Y-120830016D03*
X108556400Y-133665800D03*
X136639000Y-114343800D03*
X134962600Y-114394600D03*
X134988000Y-118357000D03*
X130841600Y-116120800D03*
X134175200Y-115182000D03*
X136639000Y-113581800D03*
X131813000Y-115944000D03*
X114226990Y-128273190D03*
X113766594Y-128727200D03*
X113004608Y-129082800D03*
X112547400Y-129108200D03*
X112090200Y-129133600D03*
X111963200Y-130175000D03*
X111607600Y-130429000D03*
X111252000Y-130200400D03*
X110896400Y-130403600D03*
X110540800Y-130175000D03*
X110185200Y-130403600D03*
X109855000Y-130175000D03*
X109485827Y-130385478D03*
X109143800Y-130175000D03*
X108813600Y-129235200D03*
X108737400Y-128727200D03*
X113204600Y-131405200D03*
X107391200Y-126720600D03*
X108737400Y-128270000D03*
X109270800Y-128270000D03*
X109220000Y-127254000D03*
X109681997Y-127254000D03*
X110083600Y-127254000D03*
X110490000Y-127254000D03*
X110998000Y-127254000D03*
X111404400Y-127254000D03*
X111813314Y-127254773D03*
X112269339Y-127254929D03*
X112293400Y-128270000D03*
X112649000Y-128524000D03*
X112961327Y-128246308D03*
X113313595Y-128439179D03*
X113738000Y-128281000D03*
X136250000Y-134000000D03*
X133750000Y-134500000D03*
X135000000Y-133500000D03*
X137500000Y-133500000D03*
X130924000Y-121049400D03*
X131838400Y-118382400D03*
X130994000Y-118330602D03*
X136250005Y-120829995D03*
X133749974Y-120829974D03*
X135000000Y-120830024D03*
X137458600Y-120826800D03*
X110385200Y-132395800D03*
X110359800Y-132853000D03*
X110359800Y-133716600D03*
X110359800Y-133310200D03*
X139274400Y-116552600D03*
X139229800Y-112540400D03*
X138594800Y-112489600D03*
X133387800Y-115131200D03*
X134200600Y-113556400D03*
X131863800Y-112616600D03*
D18*
X137800000Y-114750000D02*
X137807200Y-114750000D01*
X137807200Y-114750000D02*
X138213800Y-115156600D01*
X135400000Y-114750000D02*
X135800800Y-114349200D01*
X135800800Y-114349200D02*
X135800800Y-113581800D01*
X133800000Y-117950000D02*
X133794800Y-117950000D01*
X133794800Y-117950000D02*
X133387800Y-118357000D01*
X134600000Y-116350000D02*
X134581200Y-116350000D01*
X134581200Y-116350000D02*
X134200600Y-115969400D01*
X137000000Y-117150000D02*
X137000000Y-117143200D01*
X137000000Y-117143200D02*
X136613600Y-116756800D01*
X135037199Y-115987199D02*
X135037199Y-115132801D01*
X135037199Y-115132801D02*
X135038800Y-115131200D01*
X135400000Y-116350000D02*
X135037199Y-115987199D01*
X133406404Y-112743596D02*
X133000000Y-113150000D01*
X133514800Y-112743596D02*
X133406404Y-112743596D01*
X136200000Y-114750000D02*
X136207000Y-114750000D01*
X136207000Y-114750000D02*
X136588200Y-115131200D01*
X136200000Y-115519400D02*
X136588200Y-115131200D01*
X136200000Y-115550000D02*
X136200000Y-115519400D01*
X137000000Y-115543000D02*
X136588200Y-115131200D01*
X137000000Y-115550000D02*
X137000000Y-115543000D01*
X136200000Y-116350000D02*
X136182200Y-116350000D01*
X136182200Y-116350000D02*
X135800800Y-116731400D01*
X136200000Y-117130600D02*
X135800800Y-116731400D01*
X136200000Y-117150000D02*
X136200000Y-117130600D01*
X135400000Y-117132200D02*
X135800800Y-116731400D01*
X135400000Y-117150000D02*
X135400000Y-117132200D01*
X133800000Y-116350000D02*
X133793800Y-116350000D01*
X133793800Y-116350000D02*
X133413200Y-115969400D01*
X134600000Y-117150000D02*
X134594800Y-117150000D01*
X134594800Y-117150000D02*
X134200600Y-117544200D01*
X115100000Y-132750000D02*
X115100000Y-132250000D01*
X114195200Y-131964000D02*
X113204600Y-131964000D01*
X115100000Y-132250000D02*
X114481200Y-132250000D01*
X114481200Y-132250000D02*
X114195200Y-131964000D01*
X107400000Y-133750000D02*
X107400000Y-133250000D01*
X108073800Y-131964000D02*
X108073800Y-131811600D01*
X107400000Y-132250000D02*
X107787800Y-132250000D01*
X107787800Y-132250000D02*
X108073800Y-131964000D01*
X113500000Y-134350000D02*
X113500000Y-133892600D01*
X112917600Y-133310200D02*
X111858400Y-133310200D01*
X113500000Y-133892600D02*
X112917600Y-133310200D01*
X107400000Y-133250000D02*
X108057800Y-133250000D01*
X108057800Y-133250000D02*
X108073800Y-133234000D01*
D19*
X131695200Y-132015800D02*
X131500012Y-131820612D01*
X131500012Y-131820612D02*
X131500012Y-131750000D01*
X132500000Y-132015800D02*
X131695200Y-132015800D01*
D18*
X138600000Y-115550000D02*
X138575200Y-115550000D01*
X138575200Y-115550000D02*
X138182200Y-115943000D01*
X109000000Y-134350000D02*
X109000000Y-133679400D01*
X109000000Y-133679400D02*
X109013600Y-133665800D01*
X109013600Y-133453668D02*
X109013600Y-133665800D01*
X108309932Y-132750000D02*
X109013600Y-133453668D01*
X107400000Y-132750000D02*
X108309932Y-132750000D01*
X112006824Y-132040200D02*
X110690000Y-132040200D01*
X115100000Y-133250000D02*
X113216624Y-133250000D01*
X113216624Y-133250000D02*
X112006824Y-132040200D01*
X109843200Y-132050000D02*
X109100000Y-132050000D01*
X113204600Y-132446600D02*
X112470399Y-131712399D01*
X110180801Y-131712399D02*
X109843200Y-132050000D01*
X112470399Y-131712399D02*
X110180801Y-131712399D01*
D19*
X138750000Y-132015800D02*
X138750000Y-133500000D01*
D18*
X108353200Y-133665800D02*
X108556400Y-133665800D01*
X108000000Y-134350000D02*
X108000000Y-134019000D01*
X108000000Y-134019000D02*
X108353200Y-133665800D01*
X137000000Y-114750000D02*
X137000000Y-114704800D01*
X137000000Y-114704800D02*
X136639000Y-114343800D01*
X134600000Y-114750000D02*
X134607200Y-114750000D01*
X134607200Y-114750000D02*
X134962600Y-114394600D01*
X134600000Y-115550000D02*
X134600000Y-114750000D01*
X134600000Y-117950000D02*
X134600000Y-117969000D01*
X134600000Y-117969000D02*
X134988000Y-118357000D01*
X133800000Y-115550000D02*
X133807200Y-115550000D01*
X133807200Y-115550000D02*
X134175200Y-115182000D01*
X137000000Y-113950000D02*
X137000000Y-113942800D01*
X137000000Y-113942800D02*
X136639000Y-113581800D01*
X131837199Y-115919801D02*
X131813000Y-115944000D01*
X132200000Y-113150000D02*
X131837199Y-113512801D01*
X131837199Y-113512801D02*
X131837199Y-115919801D01*
X115100000Y-127750000D02*
X114750180Y-127750000D01*
X114750180Y-127750000D02*
X114226990Y-128273190D01*
X114258126Y-128727200D02*
X113978726Y-128727200D01*
X113978726Y-128727200D02*
X113766594Y-128727200D01*
X114735326Y-128250000D02*
X114258126Y-128727200D01*
X115100000Y-128250000D02*
X114735326Y-128250000D01*
X115100000Y-128750000D02*
X114642600Y-128750000D01*
X114642600Y-128750000D02*
X114309800Y-129082800D01*
X114309800Y-129082800D02*
X113216740Y-129082800D01*
X113216740Y-129082800D02*
X113004608Y-129082800D01*
X112849801Y-129410601D02*
X112547400Y-129108200D01*
X114481999Y-129410601D02*
X112849801Y-129410601D01*
X115100000Y-129250000D02*
X114642600Y-129250000D01*
X114642600Y-129250000D02*
X114481999Y-129410601D01*
X112090200Y-129136146D02*
X112090200Y-129133600D01*
X115100000Y-129750000D02*
X112704054Y-129750000D01*
X112704054Y-129750000D02*
X112090200Y-129136146D01*
X115100000Y-130250000D02*
X114682200Y-130250000D01*
X114682200Y-130250000D02*
X114452400Y-130479800D01*
X112268000Y-130479800D02*
X111963200Y-130175000D01*
X114452400Y-130479800D02*
X112268000Y-130479800D01*
X111757599Y-130578999D02*
X111607600Y-130429000D01*
X115100000Y-130750000D02*
X115054400Y-130795600D01*
X111974200Y-130795600D02*
X111757599Y-130578999D01*
X115054400Y-130795600D02*
X111974200Y-130795600D01*
X111252000Y-130412532D02*
X111252000Y-130200400D01*
X114739773Y-131250000D02*
X114564773Y-131075000D01*
X115100000Y-131250000D02*
X114739773Y-131250000D01*
X114564773Y-131075000D02*
X111768454Y-131075000D01*
X111768454Y-131075000D02*
X111252000Y-130558546D01*
X111252000Y-130558546D02*
X111252000Y-130412532D01*
X107998176Y-131250000D02*
X108267017Y-131518839D01*
X107400000Y-131250000D02*
X107998176Y-131250000D01*
X108267017Y-131518839D02*
X109915285Y-131518838D01*
X110896400Y-130537723D02*
X110896400Y-130403600D01*
X109915285Y-131518838D02*
X110896400Y-130537723D01*
X107857400Y-130750000D02*
X108372230Y-131264830D01*
X107400000Y-130750000D02*
X107857400Y-130750000D01*
X109810070Y-131264829D02*
X110540800Y-130534099D01*
X110540800Y-130534099D02*
X110540800Y-130175000D01*
X108372230Y-131264830D02*
X109810070Y-131264829D01*
X108582620Y-131010820D02*
X109704855Y-131010820D01*
X110185200Y-130530475D02*
X110185200Y-130403600D01*
X109704855Y-131010820D02*
X110185200Y-130530475D01*
X107400000Y-130250000D02*
X107821800Y-130250000D01*
X107821800Y-130250000D02*
X108582620Y-131010820D01*
X109599640Y-130756811D02*
X109855000Y-130501451D01*
X109855000Y-130501451D02*
X109855000Y-130175000D01*
X108795426Y-130756811D02*
X109599640Y-130756811D01*
X107400000Y-129750000D02*
X107788615Y-129750000D01*
X107788615Y-129750000D02*
X108795426Y-130756811D01*
X109368504Y-130502801D02*
X109485827Y-130385478D01*
X108986455Y-130502801D02*
X109368504Y-130502801D01*
X107400000Y-129250000D02*
X107733654Y-129250000D01*
X107733654Y-129250000D02*
X108986455Y-130502801D01*
X107718800Y-128750000D02*
X109143800Y-130175000D01*
X107400000Y-128750000D02*
X107718800Y-128750000D01*
X107400000Y-128250000D02*
X107616268Y-128250000D01*
X107616268Y-128250000D02*
X108601468Y-129235200D01*
X108601468Y-129235200D02*
X108813600Y-129235200D01*
X107400000Y-127750000D02*
X107732254Y-127750000D01*
X108709454Y-128727200D02*
X108737400Y-128727200D01*
X107732254Y-127750000D02*
X108709454Y-128727200D01*
X113416732Y-131405200D02*
X113204600Y-131405200D01*
X114195200Y-131405200D02*
X113416732Y-131405200D01*
X115100000Y-131750000D02*
X114540000Y-131750000D01*
X114540000Y-131750000D02*
X114195200Y-131405200D01*
X107400000Y-127250000D02*
X107400000Y-126729400D01*
X107400000Y-126729400D02*
X107391200Y-126720600D01*
X108000000Y-127024600D02*
X108800000Y-127824600D01*
X108000000Y-126650000D02*
X108000000Y-127024600D01*
X108800000Y-127824600D02*
X108800000Y-128207400D01*
X108800000Y-128207400D02*
X108737400Y-128270000D01*
X108500000Y-127107400D02*
X109270800Y-127878200D01*
X109270800Y-128057868D02*
X109270800Y-128270000D01*
X108500000Y-126650000D02*
X108500000Y-127107400D01*
X109270800Y-127878200D02*
X109270800Y-128057868D01*
X109000000Y-127034000D02*
X109000000Y-126650000D01*
X109220000Y-127254000D02*
X109000000Y-127034000D01*
X109500000Y-127072003D02*
X109681997Y-127254000D01*
X109500000Y-126650000D02*
X109500000Y-127072003D01*
X110000000Y-127170400D02*
X110083600Y-127254000D01*
X110000000Y-126650000D02*
X110000000Y-127170400D01*
X110490000Y-126660000D02*
X110500000Y-126650000D01*
X110490000Y-127254000D02*
X110490000Y-126660000D01*
X110998000Y-126652000D02*
X111000000Y-126650000D01*
X110998000Y-127254000D02*
X110998000Y-126652000D01*
X111500000Y-127158400D02*
X111404400Y-127254000D01*
X111500000Y-126650000D02*
X111500000Y-127158400D01*
X112000000Y-127068087D02*
X111813314Y-127254773D01*
X112000000Y-126650000D02*
X112000000Y-127068087D01*
X112500000Y-127024268D02*
X112500000Y-126650000D01*
X112269339Y-127254929D02*
X112500000Y-127024268D01*
X112293400Y-127706300D02*
X112293400Y-128270000D01*
X113000000Y-126650000D02*
X113000000Y-126999700D01*
X113000000Y-126999700D02*
X112293400Y-127706300D01*
X112633525Y-128508525D02*
X112649000Y-128524000D01*
X112633525Y-127785275D02*
X112633525Y-128508525D01*
X113500000Y-126650000D02*
X113500000Y-126918800D01*
X113500000Y-126918800D02*
X112633525Y-127785275D01*
X112961327Y-127940073D02*
X112961327Y-128246308D01*
X114000000Y-126650000D02*
X114000000Y-126901400D01*
X114000000Y-126901400D02*
X112961327Y-127940073D01*
X113313595Y-128095805D02*
X113313595Y-128439179D01*
X114500000Y-126650000D02*
X114500000Y-126909400D01*
X114500000Y-126909400D02*
X113313595Y-128095805D01*
X113738000Y-128230200D02*
X113738000Y-128281000D01*
X115100000Y-127250000D02*
X114718200Y-127250000D01*
X114718200Y-127250000D02*
X113738000Y-128230200D01*
D19*
X136250000Y-132015800D02*
X136250000Y-134000000D01*
X133750000Y-132015800D02*
X133750000Y-134500000D01*
X135000000Y-132015800D02*
X135000000Y-133500000D01*
X137500000Y-132015800D02*
X137500000Y-133500000D01*
D18*
X133000000Y-117950000D02*
X132567600Y-118382400D01*
X132567600Y-118382400D02*
X131838400Y-118382400D01*
X130924000Y-120837268D02*
X130924000Y-121049400D01*
X130924000Y-119418327D02*
X130924000Y-120837268D01*
X131197927Y-119144400D02*
X130924000Y-119418327D01*
X131838400Y-118574654D02*
X131837199Y-118575855D01*
X131837199Y-118917001D02*
X131609800Y-119144400D01*
X131609800Y-119144400D02*
X131197927Y-119144400D01*
X131838400Y-118382400D02*
X131838400Y-118574654D01*
X131837199Y-118575855D02*
X131837199Y-118917001D01*
X131225855Y-117587199D02*
X130994000Y-117819054D01*
X131574145Y-117587199D02*
X131225855Y-117587199D01*
X130994000Y-118118470D02*
X130994000Y-118330602D01*
X132200000Y-116350000D02*
X131787600Y-116762400D01*
X131787600Y-117373744D02*
X131574145Y-117587199D01*
X130994000Y-117819054D02*
X130994000Y-118118470D01*
X131787600Y-116762400D02*
X131787600Y-117373744D01*
D20*
X137000000Y-120350000D02*
X137000000Y-120348800D01*
D18*
X137000000Y-120348800D02*
X136518805Y-120829995D01*
X136462137Y-120829995D02*
X136250005Y-120829995D01*
X136518805Y-120829995D02*
X136462137Y-120829995D01*
X134219800Y-119344437D02*
X134219800Y-119702200D01*
X135400000Y-118750000D02*
X135006600Y-119143400D01*
X134219800Y-119702200D02*
X133934801Y-119987199D01*
X133599975Y-120679975D02*
X133749974Y-120829974D01*
X133934801Y-119987199D02*
X133625855Y-119987199D01*
X133430306Y-120510306D02*
X133599975Y-120679975D01*
X133625855Y-119987199D02*
X133430306Y-120182748D01*
X134420837Y-119143400D02*
X134219800Y-119344437D01*
X135006600Y-119143400D02*
X134420837Y-119143400D01*
X133430306Y-120182748D02*
X133430306Y-120510306D01*
X135000000Y-120169992D02*
X135000000Y-120617892D01*
X135000000Y-120617892D02*
X135000000Y-120830024D01*
X135182793Y-119987199D02*
X135000000Y-120169992D01*
X136200000Y-119550000D02*
X135762801Y-119987199D01*
X135762801Y-119987199D02*
X135182793Y-119987199D01*
X138207600Y-119747447D02*
X137998847Y-119956200D01*
X138600000Y-118750000D02*
X138207600Y-119142400D01*
X138207600Y-119142400D02*
X138207600Y-119747447D01*
X137437199Y-120175855D02*
X137437199Y-120593267D01*
X137458600Y-120614668D02*
X137458600Y-120826800D01*
X137437199Y-120593267D02*
X137458600Y-120614668D01*
X137656854Y-119956200D02*
X137437199Y-120175855D01*
X137998847Y-119956200D02*
X137656854Y-119956200D01*
X111856599Y-133867199D02*
X110385200Y-132395800D01*
X112474599Y-133867199D02*
X111856599Y-133867199D01*
X112500000Y-134350000D02*
X112500000Y-133892600D01*
X112500000Y-133892600D02*
X112474599Y-133867199D01*
X110460400Y-132853000D02*
X110359800Y-132853000D01*
X111500000Y-134350000D02*
X111500000Y-133892600D01*
X111500000Y-133892600D02*
X110460400Y-132853000D01*
X110500000Y-134350000D02*
X110500000Y-133856800D01*
X110500000Y-133856800D02*
X110359800Y-133716600D01*
X110082400Y-133310200D02*
X110359800Y-133310200D01*
X109500000Y-134350000D02*
X109500000Y-133892600D01*
X109500000Y-133892600D02*
X110082400Y-133310200D01*
X139071200Y-116755800D02*
X139124401Y-116702599D01*
X137800000Y-116350000D02*
X138205800Y-116755800D01*
X139124401Y-116702599D02*
X139274400Y-116552600D01*
X138205800Y-116755800D02*
X139071200Y-116755800D01*
X139376000Y-115574000D02*
X138600000Y-116350000D01*
X139229800Y-112540400D02*
X139376000Y-112686600D01*
X139376000Y-112686600D02*
X139376000Y-115574000D01*
X132200000Y-114750000D02*
X132219200Y-114750000D01*
X132200000Y-114750000D02*
X132581200Y-115131200D01*
X132581200Y-115131200D02*
X133387800Y-115131200D01*
X137342800Y-112692800D02*
X135267400Y-112692800D01*
X134784800Y-113556400D02*
X134200600Y-113556400D01*
X135267400Y-112692800D02*
X135013400Y-112946800D01*
X137800000Y-113150000D02*
X137342800Y-112692800D01*
X135013400Y-112946800D02*
X135013400Y-113327800D01*
X135013400Y-113327800D02*
X134784800Y-113556400D01*
X132013799Y-112466601D02*
X131863800Y-112616600D01*
X132064605Y-112415795D02*
X132013799Y-112466601D01*
X137865795Y-112415795D02*
X132064605Y-112415795D01*
X138600000Y-113150000D02*
X137865795Y-112415795D01*
M02*
