G04 #@! TF.GenerationSoftware,KiCad,Pcbnew,(5.1.5)-3*
G04 #@! TF.CreationDate,2020-07-15T23:20:01-07:00*
G04 #@! TF.ProjectId,Miniscope-V4-Ephys-System,4d696e69-7363-46f7-9065-2d56342d4570,rev?*
G04 #@! TF.SameCoordinates,Original*
G04 #@! TF.FileFunction,Copper,L2,Inr*
G04 #@! TF.FilePolarity,Positive*
%FSLAX46Y46*%
G04 Gerber Fmt 4.6, Leading zero omitted, Abs format (unit mm)*
G04 Created by KiCad (PCBNEW (5.1.5)-3) date 2020-07-15 23:20:01*
%MOMM*%
%LPD*%
G04 APERTURE LIST*
%ADD10O,1.000000X1.000000*%
%ADD11R,1.000000X1.000000*%
%ADD12C,1.000000*%
%ADD13C,0.300000*%
%ADD14C,0.203200*%
%ADD15C,0.152400*%
G04 APERTURE END LIST*
D10*
X115060000Y-115500000D03*
X113790000Y-115500000D03*
X112520000Y-115500000D03*
D11*
X111250000Y-115500000D03*
D12*
X112500000Y-113500000D03*
X109000000Y-113000000D03*
X107500000Y-114717400D03*
X107500000Y-116000000D03*
D13*
X138213800Y-115156600D03*
X135800800Y-113581800D03*
X135038800Y-115131200D03*
X133387800Y-118357000D03*
X134200600Y-115969400D03*
X136613600Y-116756800D03*
X131044800Y-116755800D03*
X132556400Y-120826800D03*
X133514800Y-112743596D03*
X132600400Y-114343800D03*
X130822400Y-112616600D03*
X136588200Y-115131200D03*
X135800800Y-116731400D03*
X133413200Y-115969400D03*
X134200600Y-117544200D03*
X114068200Y-130135200D03*
X115008000Y-126706200D03*
X113204600Y-131964000D03*
X108073800Y-131811600D03*
X111858400Y-133310200D03*
X108073800Y-133234000D03*
X109645600Y-132510806D03*
X131500012Y-131750000D03*
X138233000Y-113453800D03*
X137394800Y-117517800D03*
X138182200Y-115943000D03*
X109013600Y-133665800D03*
X110690000Y-132040200D03*
X113204600Y-132446600D03*
X109100000Y-132050000D03*
X138750000Y-133500000D03*
X139045800Y-115206400D03*
X138749984Y-120830016D03*
X108556400Y-133665800D03*
X136639000Y-114343800D03*
X134962600Y-114394600D03*
X134988000Y-118357000D03*
X130841600Y-116120800D03*
X134175200Y-115182000D03*
X136639000Y-113581800D03*
X131813000Y-115944000D03*
X114226990Y-128273190D03*
X113766594Y-128727200D03*
X113004608Y-129082800D03*
X112547400Y-129108200D03*
X112090200Y-129133600D03*
X111963200Y-130175000D03*
X111607600Y-130429000D03*
X111252000Y-130200400D03*
X110896400Y-130403600D03*
X110540800Y-130175000D03*
X110185200Y-130403600D03*
X109855000Y-130175000D03*
X109485827Y-130385478D03*
X109143800Y-130175000D03*
X108813600Y-129235200D03*
X108737400Y-128727200D03*
X113204600Y-131405200D03*
X107391200Y-126720600D03*
X108737400Y-128270000D03*
X109270800Y-128270000D03*
X109220000Y-127254000D03*
X109681997Y-127254000D03*
X110083600Y-127254000D03*
X110490000Y-127254000D03*
X110998000Y-127254000D03*
X111404400Y-127254000D03*
X111813314Y-127254773D03*
X112269339Y-127254929D03*
X112293400Y-128270000D03*
X112649000Y-128524000D03*
X112961327Y-128246308D03*
X113313595Y-128439179D03*
X113738000Y-128281000D03*
X136250000Y-134000000D03*
X133750000Y-134500000D03*
X135000000Y-133500000D03*
X137500000Y-133500000D03*
X130924000Y-121049400D03*
X131838400Y-118382400D03*
X130994000Y-118330602D03*
X136250005Y-120829995D03*
X133749974Y-120829974D03*
X135000000Y-120830024D03*
X137458600Y-120826800D03*
X110385200Y-132395800D03*
X110359800Y-132853000D03*
X110359800Y-133716600D03*
X110359800Y-133310200D03*
X139274400Y-116552600D03*
X139229800Y-112540400D03*
X138594800Y-112489600D03*
X133387800Y-115131200D03*
X134200600Y-113556400D03*
X131863800Y-112616600D03*
D14*
X135013400Y-114343800D02*
X134962600Y-114394600D01*
X136639000Y-114343800D02*
X135013400Y-114343800D01*
X136029400Y-112489600D02*
X133387800Y-115131200D01*
X138594800Y-112489600D02*
X136029400Y-112489600D01*
D15*
G36*
X115423800Y-134673800D02*
G01*
X107076200Y-134673800D01*
X107076200Y-133628511D01*
X108177800Y-133628511D01*
X108177800Y-133703089D01*
X108192349Y-133776234D01*
X108220889Y-133845134D01*
X108262322Y-133907144D01*
X108315056Y-133959878D01*
X108377066Y-134001311D01*
X108445966Y-134029851D01*
X108519111Y-134044400D01*
X108593689Y-134044400D01*
X108666834Y-134029851D01*
X108735734Y-134001311D01*
X108785000Y-133968393D01*
X108834266Y-134001311D01*
X108903166Y-134029851D01*
X108976311Y-134044400D01*
X109050889Y-134044400D01*
X109124034Y-134029851D01*
X109192934Y-134001311D01*
X109254944Y-133959878D01*
X109307678Y-133907144D01*
X109349111Y-133845134D01*
X109377651Y-133776234D01*
X109392200Y-133703089D01*
X109392200Y-133628511D01*
X109377651Y-133555366D01*
X109349111Y-133486466D01*
X109307678Y-133424456D01*
X109254944Y-133371722D01*
X109192934Y-133330289D01*
X109124034Y-133301749D01*
X109050889Y-133287200D01*
X108976311Y-133287200D01*
X108903166Y-133301749D01*
X108834266Y-133330289D01*
X108785000Y-133363207D01*
X108735734Y-133330289D01*
X108666834Y-133301749D01*
X108593689Y-133287200D01*
X108519111Y-133287200D01*
X108445966Y-133301749D01*
X108377066Y-133330289D01*
X108315056Y-133371722D01*
X108262322Y-133424456D01*
X108220889Y-133486466D01*
X108192349Y-133555366D01*
X108177800Y-133628511D01*
X107076200Y-133628511D01*
X107076200Y-132815711D01*
X109981200Y-132815711D01*
X109981200Y-132890289D01*
X109995749Y-132963434D01*
X110024289Y-133032334D01*
X110057207Y-133081600D01*
X110024289Y-133130866D01*
X109995749Y-133199766D01*
X109981200Y-133272911D01*
X109981200Y-133347489D01*
X109995749Y-133420634D01*
X110024289Y-133489534D01*
X110040235Y-133513400D01*
X110024289Y-133537266D01*
X109995749Y-133606166D01*
X109981200Y-133679311D01*
X109981200Y-133753889D01*
X109995749Y-133827034D01*
X110024289Y-133895934D01*
X110065722Y-133957944D01*
X110118456Y-134010678D01*
X110180466Y-134052111D01*
X110249366Y-134080651D01*
X110322511Y-134095200D01*
X110397089Y-134095200D01*
X110470234Y-134080651D01*
X110539134Y-134052111D01*
X110601144Y-134010678D01*
X110653878Y-133957944D01*
X110695311Y-133895934D01*
X110723851Y-133827034D01*
X110738400Y-133753889D01*
X110738400Y-133679311D01*
X110723851Y-133606166D01*
X110695311Y-133537266D01*
X110679365Y-133513400D01*
X110695311Y-133489534D01*
X110723851Y-133420634D01*
X110738400Y-133347489D01*
X110738400Y-133272911D01*
X110723851Y-133199766D01*
X110695311Y-133130866D01*
X110662393Y-133081600D01*
X110695311Y-133032334D01*
X110723851Y-132963434D01*
X110738400Y-132890289D01*
X110738400Y-132815711D01*
X110723851Y-132742566D01*
X110695311Y-132673666D01*
X110674261Y-132642161D01*
X110679278Y-132637144D01*
X110720711Y-132575134D01*
X110749251Y-132506234D01*
X110763800Y-132433089D01*
X110763800Y-132411538D01*
X110774995Y-132409311D01*
X112826000Y-132409311D01*
X112826000Y-132483889D01*
X112840549Y-132557034D01*
X112869089Y-132625934D01*
X112910522Y-132687944D01*
X112963256Y-132740678D01*
X113025266Y-132782111D01*
X113094166Y-132810651D01*
X113167311Y-132825200D01*
X113241889Y-132825200D01*
X113315034Y-132810651D01*
X113383934Y-132782111D01*
X113445944Y-132740678D01*
X113498678Y-132687944D01*
X113540111Y-132625934D01*
X113568651Y-132557034D01*
X113583200Y-132483889D01*
X113583200Y-132409311D01*
X113568651Y-132336166D01*
X113540111Y-132267266D01*
X113498678Y-132205256D01*
X113445944Y-132152522D01*
X113383934Y-132111089D01*
X113315034Y-132082549D01*
X113241889Y-132068000D01*
X113167311Y-132068000D01*
X113094166Y-132082549D01*
X113025266Y-132111089D01*
X112963256Y-132152522D01*
X112910522Y-132205256D01*
X112869089Y-132267266D01*
X112840549Y-132336166D01*
X112826000Y-132409311D01*
X110774995Y-132409311D01*
X110800434Y-132404251D01*
X110869334Y-132375711D01*
X110931344Y-132334278D01*
X110984078Y-132281544D01*
X111025511Y-132219534D01*
X111054051Y-132150634D01*
X111068600Y-132077489D01*
X111068600Y-132002911D01*
X111054051Y-131929766D01*
X111025511Y-131860866D01*
X110984078Y-131798856D01*
X110931344Y-131746122D01*
X110869334Y-131704689D01*
X110800434Y-131676149D01*
X110727289Y-131661600D01*
X110652711Y-131661600D01*
X110579566Y-131676149D01*
X110510666Y-131704689D01*
X110448656Y-131746122D01*
X110395922Y-131798856D01*
X110354489Y-131860866D01*
X110325949Y-131929766D01*
X110311400Y-132002911D01*
X110311400Y-132024462D01*
X110274766Y-132031749D01*
X110205866Y-132060289D01*
X110143856Y-132101722D01*
X110091122Y-132154456D01*
X110049689Y-132216466D01*
X110021149Y-132285366D01*
X110006600Y-132358511D01*
X110006600Y-132433089D01*
X110021149Y-132506234D01*
X110049689Y-132575134D01*
X110070739Y-132606639D01*
X110065722Y-132611656D01*
X110024289Y-132673666D01*
X109995749Y-132742566D01*
X109981200Y-132815711D01*
X107076200Y-132815711D01*
X107076200Y-132012711D01*
X108721400Y-132012711D01*
X108721400Y-132087289D01*
X108735949Y-132160434D01*
X108764489Y-132229334D01*
X108805922Y-132291344D01*
X108858656Y-132344078D01*
X108920666Y-132385511D01*
X108989566Y-132414051D01*
X109062711Y-132428600D01*
X109137289Y-132428600D01*
X109210434Y-132414051D01*
X109279334Y-132385511D01*
X109341344Y-132344078D01*
X109394078Y-132291344D01*
X109435511Y-132229334D01*
X109464051Y-132160434D01*
X109478600Y-132087289D01*
X109478600Y-132012711D01*
X109464051Y-131939566D01*
X109435511Y-131870666D01*
X109394078Y-131808656D01*
X109341344Y-131755922D01*
X109279334Y-131714489D01*
X109210434Y-131685949D01*
X109137289Y-131671400D01*
X109062711Y-131671400D01*
X108989566Y-131685949D01*
X108920666Y-131714489D01*
X108858656Y-131755922D01*
X108805922Y-131808656D01*
X108764489Y-131870666D01*
X108735949Y-131939566D01*
X108721400Y-132012711D01*
X107076200Y-132012711D01*
X107076200Y-131367911D01*
X112826000Y-131367911D01*
X112826000Y-131442489D01*
X112840549Y-131515634D01*
X112869089Y-131584534D01*
X112910522Y-131646544D01*
X112963256Y-131699278D01*
X113025266Y-131740711D01*
X113094166Y-131769251D01*
X113167311Y-131783800D01*
X113241889Y-131783800D01*
X113315034Y-131769251D01*
X113383934Y-131740711D01*
X113445944Y-131699278D01*
X113498678Y-131646544D01*
X113540111Y-131584534D01*
X113568651Y-131515634D01*
X113583200Y-131442489D01*
X113583200Y-131367911D01*
X113568651Y-131294766D01*
X113540111Y-131225866D01*
X113498678Y-131163856D01*
X113445944Y-131111122D01*
X113383934Y-131069689D01*
X113315034Y-131041149D01*
X113241889Y-131026600D01*
X113167311Y-131026600D01*
X113094166Y-131041149D01*
X113025266Y-131069689D01*
X112963256Y-131111122D01*
X112910522Y-131163856D01*
X112869089Y-131225866D01*
X112840549Y-131294766D01*
X112826000Y-131367911D01*
X107076200Y-131367911D01*
X107076200Y-130137711D01*
X108765200Y-130137711D01*
X108765200Y-130212289D01*
X108779749Y-130285434D01*
X108808289Y-130354334D01*
X108849722Y-130416344D01*
X108902456Y-130469078D01*
X108964466Y-130510511D01*
X109033366Y-130539051D01*
X109106511Y-130553600D01*
X109145672Y-130553600D01*
X109150316Y-130564812D01*
X109191749Y-130626822D01*
X109244483Y-130679556D01*
X109306493Y-130720989D01*
X109375393Y-130749529D01*
X109448538Y-130764078D01*
X109523116Y-130764078D01*
X109596261Y-130749529D01*
X109665161Y-130720989D01*
X109727171Y-130679556D01*
X109779905Y-130626822D01*
X109821338Y-130564812D01*
X109825982Y-130553600D01*
X109837538Y-130553600D01*
X109849689Y-130582934D01*
X109891122Y-130644944D01*
X109943856Y-130697678D01*
X110005866Y-130739111D01*
X110074766Y-130767651D01*
X110147911Y-130782200D01*
X110222489Y-130782200D01*
X110295634Y-130767651D01*
X110364534Y-130739111D01*
X110426544Y-130697678D01*
X110479278Y-130644944D01*
X110520711Y-130582934D01*
X110532862Y-130553600D01*
X110548738Y-130553600D01*
X110560889Y-130582934D01*
X110602322Y-130644944D01*
X110655056Y-130697678D01*
X110717066Y-130739111D01*
X110785966Y-130767651D01*
X110859111Y-130782200D01*
X110933689Y-130782200D01*
X111006834Y-130767651D01*
X111075734Y-130739111D01*
X111137744Y-130697678D01*
X111190478Y-130644944D01*
X111231911Y-130582934D01*
X111233541Y-130579000D01*
X111259938Y-130579000D01*
X111272089Y-130608334D01*
X111313522Y-130670344D01*
X111366256Y-130723078D01*
X111428266Y-130764511D01*
X111497166Y-130793051D01*
X111570311Y-130807600D01*
X111644889Y-130807600D01*
X111718034Y-130793051D01*
X111786934Y-130764511D01*
X111848944Y-130723078D01*
X111901678Y-130670344D01*
X111943111Y-130608334D01*
X111965783Y-130553600D01*
X112000489Y-130553600D01*
X112073634Y-130539051D01*
X112142534Y-130510511D01*
X112204544Y-130469078D01*
X112257278Y-130416344D01*
X112298711Y-130354334D01*
X112327251Y-130285434D01*
X112341800Y-130212289D01*
X112341800Y-130137711D01*
X112327251Y-130064566D01*
X112298711Y-129995666D01*
X112257278Y-129933656D01*
X112204544Y-129880922D01*
X112142534Y-129839489D01*
X112073634Y-129810949D01*
X112000489Y-129796400D01*
X111925911Y-129796400D01*
X111852766Y-129810949D01*
X111783866Y-129839489D01*
X111721856Y-129880922D01*
X111669122Y-129933656D01*
X111627689Y-129995666D01*
X111605017Y-130050400D01*
X111599662Y-130050400D01*
X111587511Y-130021066D01*
X111546078Y-129959056D01*
X111493344Y-129906322D01*
X111431334Y-129864889D01*
X111362434Y-129836349D01*
X111289289Y-129821800D01*
X111214711Y-129821800D01*
X111141566Y-129836349D01*
X111072666Y-129864889D01*
X111010656Y-129906322D01*
X110957922Y-129959056D01*
X110916489Y-130021066D01*
X110914859Y-130025000D01*
X110888462Y-130025000D01*
X110876311Y-129995666D01*
X110834878Y-129933656D01*
X110782144Y-129880922D01*
X110720134Y-129839489D01*
X110651234Y-129810949D01*
X110578089Y-129796400D01*
X110503511Y-129796400D01*
X110430366Y-129810949D01*
X110361466Y-129839489D01*
X110299456Y-129880922D01*
X110246722Y-129933656D01*
X110205289Y-129995666D01*
X110197900Y-130013504D01*
X110190511Y-129995666D01*
X110149078Y-129933656D01*
X110096344Y-129880922D01*
X110034334Y-129839489D01*
X109965434Y-129810949D01*
X109892289Y-129796400D01*
X109817711Y-129796400D01*
X109744566Y-129810949D01*
X109675666Y-129839489D01*
X109613656Y-129880922D01*
X109560922Y-129933656D01*
X109519489Y-129995666D01*
X109514845Y-130006878D01*
X109483955Y-130006878D01*
X109479311Y-129995666D01*
X109437878Y-129933656D01*
X109385144Y-129880922D01*
X109323134Y-129839489D01*
X109254234Y-129810949D01*
X109181089Y-129796400D01*
X109106511Y-129796400D01*
X109033366Y-129810949D01*
X108964466Y-129839489D01*
X108902456Y-129880922D01*
X108849722Y-129933656D01*
X108808289Y-129995666D01*
X108779749Y-130064566D01*
X108765200Y-130137711D01*
X107076200Y-130137711D01*
X107076200Y-128232711D01*
X108358800Y-128232711D01*
X108358800Y-128307289D01*
X108373349Y-128380434D01*
X108401889Y-128449334D01*
X108434807Y-128498600D01*
X108401889Y-128547866D01*
X108373349Y-128616766D01*
X108358800Y-128689911D01*
X108358800Y-128764489D01*
X108373349Y-128837634D01*
X108401889Y-128906534D01*
X108443322Y-128968544D01*
X108496056Y-129021278D01*
X108499612Y-129023654D01*
X108478089Y-129055866D01*
X108449549Y-129124766D01*
X108435000Y-129197911D01*
X108435000Y-129272489D01*
X108449549Y-129345634D01*
X108478089Y-129414534D01*
X108519522Y-129476544D01*
X108572256Y-129529278D01*
X108634266Y-129570711D01*
X108703166Y-129599251D01*
X108776311Y-129613800D01*
X108850889Y-129613800D01*
X108924034Y-129599251D01*
X108992934Y-129570711D01*
X109054944Y-129529278D01*
X109107678Y-129476544D01*
X109149111Y-129414534D01*
X109177651Y-129345634D01*
X109192200Y-129272489D01*
X109192200Y-129197911D01*
X109177651Y-129124766D01*
X109165865Y-129096311D01*
X111711600Y-129096311D01*
X111711600Y-129170889D01*
X111726149Y-129244034D01*
X111754689Y-129312934D01*
X111796122Y-129374944D01*
X111848856Y-129427678D01*
X111910866Y-129469111D01*
X111979766Y-129497651D01*
X112052911Y-129512200D01*
X112127489Y-129512200D01*
X112200634Y-129497651D01*
X112269534Y-129469111D01*
X112331544Y-129427678D01*
X112336561Y-129422661D01*
X112368066Y-129443711D01*
X112436966Y-129472251D01*
X112510111Y-129486800D01*
X112584689Y-129486800D01*
X112657834Y-129472251D01*
X112726734Y-129443711D01*
X112788744Y-129402278D01*
X112793765Y-129397257D01*
X112825274Y-129418311D01*
X112894174Y-129446851D01*
X112967319Y-129461400D01*
X113041897Y-129461400D01*
X113115042Y-129446851D01*
X113183942Y-129418311D01*
X113245952Y-129376878D01*
X113298686Y-129324144D01*
X113340119Y-129262134D01*
X113368659Y-129193234D01*
X113383208Y-129120089D01*
X113383208Y-129045511D01*
X113368659Y-128972366D01*
X113340119Y-128903466D01*
X113298686Y-128841456D01*
X113274687Y-128817457D01*
X113276306Y-128817779D01*
X113350884Y-128817779D01*
X113396778Y-128808650D01*
X113402543Y-128837634D01*
X113431083Y-128906534D01*
X113472516Y-128968544D01*
X113525250Y-129021278D01*
X113587260Y-129062711D01*
X113656160Y-129091251D01*
X113729305Y-129105800D01*
X113803883Y-129105800D01*
X113877028Y-129091251D01*
X113945928Y-129062711D01*
X114007938Y-129021278D01*
X114060672Y-128968544D01*
X114102105Y-128906534D01*
X114130645Y-128837634D01*
X114145194Y-128764489D01*
X114145194Y-128689911D01*
X114135466Y-128641002D01*
X114189701Y-128651790D01*
X114264279Y-128651790D01*
X114337424Y-128637241D01*
X114406324Y-128608701D01*
X114468334Y-128567268D01*
X114521068Y-128514534D01*
X114562501Y-128452524D01*
X114591041Y-128383624D01*
X114605590Y-128310479D01*
X114605590Y-128235901D01*
X114591041Y-128162756D01*
X114562501Y-128093856D01*
X114521068Y-128031846D01*
X114468334Y-127979112D01*
X114406324Y-127937679D01*
X114337424Y-127909139D01*
X114264279Y-127894590D01*
X114189701Y-127894590D01*
X114116556Y-127909139D01*
X114047656Y-127937679D01*
X113985646Y-127979112D01*
X113978440Y-127986318D01*
X113917334Y-127945489D01*
X113848434Y-127916949D01*
X113775289Y-127902400D01*
X113700711Y-127902400D01*
X113627566Y-127916949D01*
X113558666Y-127945489D01*
X113496656Y-127986922D01*
X113443922Y-128039656D01*
X113420668Y-128074459D01*
X113350884Y-128060579D01*
X113292565Y-128060579D01*
X113255405Y-128004964D01*
X113202671Y-127952230D01*
X113140661Y-127910797D01*
X113071761Y-127882257D01*
X112998616Y-127867708D01*
X112924038Y-127867708D01*
X112850893Y-127882257D01*
X112781993Y-127910797D01*
X112719983Y-127952230D01*
X112667249Y-128004964D01*
X112625816Y-128066974D01*
X112620942Y-128078740D01*
X112587478Y-128028656D01*
X112534744Y-127975922D01*
X112472734Y-127934489D01*
X112403834Y-127905949D01*
X112330689Y-127891400D01*
X112256111Y-127891400D01*
X112182966Y-127905949D01*
X112114066Y-127934489D01*
X112052056Y-127975922D01*
X111999322Y-128028656D01*
X111957889Y-128090666D01*
X111929349Y-128159566D01*
X111914800Y-128232711D01*
X111914800Y-128307289D01*
X111929349Y-128380434D01*
X111957889Y-128449334D01*
X111999322Y-128511344D01*
X112052056Y-128564078D01*
X112114066Y-128605511D01*
X112182966Y-128634051D01*
X112256111Y-128648600D01*
X112290817Y-128648600D01*
X112313489Y-128703334D01*
X112354922Y-128765344D01*
X112364590Y-128775012D01*
X112306056Y-128814122D01*
X112301039Y-128819139D01*
X112269534Y-128798089D01*
X112200634Y-128769549D01*
X112127489Y-128755000D01*
X112052911Y-128755000D01*
X111979766Y-128769549D01*
X111910866Y-128798089D01*
X111848856Y-128839522D01*
X111796122Y-128892256D01*
X111754689Y-128954266D01*
X111726149Y-129023166D01*
X111711600Y-129096311D01*
X109165865Y-129096311D01*
X109149111Y-129055866D01*
X109107678Y-128993856D01*
X109054944Y-128941122D01*
X109051388Y-128938746D01*
X109072911Y-128906534D01*
X109101451Y-128837634D01*
X109116000Y-128764489D01*
X109116000Y-128689911D01*
X109101451Y-128616766D01*
X109097891Y-128608173D01*
X109160366Y-128634051D01*
X109233511Y-128648600D01*
X109308089Y-128648600D01*
X109381234Y-128634051D01*
X109450134Y-128605511D01*
X109512144Y-128564078D01*
X109564878Y-128511344D01*
X109606311Y-128449334D01*
X109634851Y-128380434D01*
X109649400Y-128307289D01*
X109649400Y-128232711D01*
X109634851Y-128159566D01*
X109606311Y-128090666D01*
X109564878Y-128028656D01*
X109512144Y-127975922D01*
X109450134Y-127934489D01*
X109381234Y-127905949D01*
X109308089Y-127891400D01*
X109233511Y-127891400D01*
X109160366Y-127905949D01*
X109091466Y-127934489D01*
X109029456Y-127975922D01*
X109004100Y-128001278D01*
X108978744Y-127975922D01*
X108916734Y-127934489D01*
X108847834Y-127905949D01*
X108774689Y-127891400D01*
X108700111Y-127891400D01*
X108626966Y-127905949D01*
X108558066Y-127934489D01*
X108496056Y-127975922D01*
X108443322Y-128028656D01*
X108401889Y-128090666D01*
X108373349Y-128159566D01*
X108358800Y-128232711D01*
X107076200Y-128232711D01*
X107076200Y-127216711D01*
X108841400Y-127216711D01*
X108841400Y-127291289D01*
X108855949Y-127364434D01*
X108884489Y-127433334D01*
X108925922Y-127495344D01*
X108978656Y-127548078D01*
X109040666Y-127589511D01*
X109109566Y-127618051D01*
X109182711Y-127632600D01*
X109257289Y-127632600D01*
X109330434Y-127618051D01*
X109399334Y-127589511D01*
X109450998Y-127554991D01*
X109502663Y-127589511D01*
X109571563Y-127618051D01*
X109644708Y-127632600D01*
X109719286Y-127632600D01*
X109792431Y-127618051D01*
X109861331Y-127589511D01*
X109882798Y-127575167D01*
X109904266Y-127589511D01*
X109973166Y-127618051D01*
X110046311Y-127632600D01*
X110120889Y-127632600D01*
X110194034Y-127618051D01*
X110262934Y-127589511D01*
X110286800Y-127573565D01*
X110310666Y-127589511D01*
X110379566Y-127618051D01*
X110452711Y-127632600D01*
X110527289Y-127632600D01*
X110600434Y-127618051D01*
X110669334Y-127589511D01*
X110731344Y-127548078D01*
X110744000Y-127535422D01*
X110756656Y-127548078D01*
X110818666Y-127589511D01*
X110887566Y-127618051D01*
X110960711Y-127632600D01*
X111035289Y-127632600D01*
X111108434Y-127618051D01*
X111177334Y-127589511D01*
X111201200Y-127573565D01*
X111225066Y-127589511D01*
X111293966Y-127618051D01*
X111367111Y-127632600D01*
X111441689Y-127632600D01*
X111514834Y-127618051D01*
X111583734Y-127589511D01*
X111608279Y-127573111D01*
X111633980Y-127590284D01*
X111702880Y-127618824D01*
X111776025Y-127633373D01*
X111850603Y-127633373D01*
X111923748Y-127618824D01*
X111992648Y-127590284D01*
X112041210Y-127557837D01*
X112090005Y-127590440D01*
X112158905Y-127618980D01*
X112232050Y-127633529D01*
X112306628Y-127633529D01*
X112379773Y-127618980D01*
X112448673Y-127590440D01*
X112510683Y-127549007D01*
X112563417Y-127496273D01*
X112604850Y-127434263D01*
X112633390Y-127365363D01*
X112647939Y-127292218D01*
X112647939Y-127217640D01*
X112633390Y-127144495D01*
X112604850Y-127075595D01*
X112563417Y-127013585D01*
X112510683Y-126960851D01*
X112448673Y-126919418D01*
X112379773Y-126890878D01*
X112306628Y-126876329D01*
X112232050Y-126876329D01*
X112158905Y-126890878D01*
X112090005Y-126919418D01*
X112041443Y-126951865D01*
X111992648Y-126919262D01*
X111923748Y-126890722D01*
X111850603Y-126876173D01*
X111776025Y-126876173D01*
X111702880Y-126890722D01*
X111633980Y-126919262D01*
X111609435Y-126935662D01*
X111583734Y-126918489D01*
X111514834Y-126889949D01*
X111441689Y-126875400D01*
X111367111Y-126875400D01*
X111293966Y-126889949D01*
X111225066Y-126918489D01*
X111201200Y-126934435D01*
X111177334Y-126918489D01*
X111108434Y-126889949D01*
X111035289Y-126875400D01*
X110960711Y-126875400D01*
X110887566Y-126889949D01*
X110818666Y-126918489D01*
X110756656Y-126959922D01*
X110744000Y-126972578D01*
X110731344Y-126959922D01*
X110669334Y-126918489D01*
X110600434Y-126889949D01*
X110527289Y-126875400D01*
X110452711Y-126875400D01*
X110379566Y-126889949D01*
X110310666Y-126918489D01*
X110286800Y-126934435D01*
X110262934Y-126918489D01*
X110194034Y-126889949D01*
X110120889Y-126875400D01*
X110046311Y-126875400D01*
X109973166Y-126889949D01*
X109904266Y-126918489D01*
X109882799Y-126932833D01*
X109861331Y-126918489D01*
X109792431Y-126889949D01*
X109719286Y-126875400D01*
X109644708Y-126875400D01*
X109571563Y-126889949D01*
X109502663Y-126918489D01*
X109450999Y-126953009D01*
X109399334Y-126918489D01*
X109330434Y-126889949D01*
X109257289Y-126875400D01*
X109182711Y-126875400D01*
X109109566Y-126889949D01*
X109040666Y-126918489D01*
X108978656Y-126959922D01*
X108925922Y-127012656D01*
X108884489Y-127074666D01*
X108855949Y-127143566D01*
X108841400Y-127216711D01*
X107076200Y-127216711D01*
X107076200Y-126930631D01*
X107097122Y-126961944D01*
X107149856Y-127014678D01*
X107211866Y-127056111D01*
X107280766Y-127084651D01*
X107353911Y-127099200D01*
X107428489Y-127099200D01*
X107501634Y-127084651D01*
X107570534Y-127056111D01*
X107632544Y-127014678D01*
X107685278Y-126961944D01*
X107726711Y-126899934D01*
X107755251Y-126831034D01*
X107769800Y-126757889D01*
X107769800Y-126683311D01*
X107755251Y-126610166D01*
X107726711Y-126541266D01*
X107685278Y-126479256D01*
X107632544Y-126426522D01*
X107570534Y-126385089D01*
X107501634Y-126356549D01*
X107428489Y-126342000D01*
X107353911Y-126342000D01*
X107280766Y-126356549D01*
X107211866Y-126385089D01*
X107149856Y-126426522D01*
X107097122Y-126479256D01*
X107076200Y-126510569D01*
X107076200Y-126326200D01*
X115423800Y-126326200D01*
X115423800Y-134673800D01*
G37*
X115423800Y-134673800D02*
X107076200Y-134673800D01*
X107076200Y-133628511D01*
X108177800Y-133628511D01*
X108177800Y-133703089D01*
X108192349Y-133776234D01*
X108220889Y-133845134D01*
X108262322Y-133907144D01*
X108315056Y-133959878D01*
X108377066Y-134001311D01*
X108445966Y-134029851D01*
X108519111Y-134044400D01*
X108593689Y-134044400D01*
X108666834Y-134029851D01*
X108735734Y-134001311D01*
X108785000Y-133968393D01*
X108834266Y-134001311D01*
X108903166Y-134029851D01*
X108976311Y-134044400D01*
X109050889Y-134044400D01*
X109124034Y-134029851D01*
X109192934Y-134001311D01*
X109254944Y-133959878D01*
X109307678Y-133907144D01*
X109349111Y-133845134D01*
X109377651Y-133776234D01*
X109392200Y-133703089D01*
X109392200Y-133628511D01*
X109377651Y-133555366D01*
X109349111Y-133486466D01*
X109307678Y-133424456D01*
X109254944Y-133371722D01*
X109192934Y-133330289D01*
X109124034Y-133301749D01*
X109050889Y-133287200D01*
X108976311Y-133287200D01*
X108903166Y-133301749D01*
X108834266Y-133330289D01*
X108785000Y-133363207D01*
X108735734Y-133330289D01*
X108666834Y-133301749D01*
X108593689Y-133287200D01*
X108519111Y-133287200D01*
X108445966Y-133301749D01*
X108377066Y-133330289D01*
X108315056Y-133371722D01*
X108262322Y-133424456D01*
X108220889Y-133486466D01*
X108192349Y-133555366D01*
X108177800Y-133628511D01*
X107076200Y-133628511D01*
X107076200Y-132815711D01*
X109981200Y-132815711D01*
X109981200Y-132890289D01*
X109995749Y-132963434D01*
X110024289Y-133032334D01*
X110057207Y-133081600D01*
X110024289Y-133130866D01*
X109995749Y-133199766D01*
X109981200Y-133272911D01*
X109981200Y-133347489D01*
X109995749Y-133420634D01*
X110024289Y-133489534D01*
X110040235Y-133513400D01*
X110024289Y-133537266D01*
X109995749Y-133606166D01*
X109981200Y-133679311D01*
X109981200Y-133753889D01*
X109995749Y-133827034D01*
X110024289Y-133895934D01*
X110065722Y-133957944D01*
X110118456Y-134010678D01*
X110180466Y-134052111D01*
X110249366Y-134080651D01*
X110322511Y-134095200D01*
X110397089Y-134095200D01*
X110470234Y-134080651D01*
X110539134Y-134052111D01*
X110601144Y-134010678D01*
X110653878Y-133957944D01*
X110695311Y-133895934D01*
X110723851Y-133827034D01*
X110738400Y-133753889D01*
X110738400Y-133679311D01*
X110723851Y-133606166D01*
X110695311Y-133537266D01*
X110679365Y-133513400D01*
X110695311Y-133489534D01*
X110723851Y-133420634D01*
X110738400Y-133347489D01*
X110738400Y-133272911D01*
X110723851Y-133199766D01*
X110695311Y-133130866D01*
X110662393Y-133081600D01*
X110695311Y-133032334D01*
X110723851Y-132963434D01*
X110738400Y-132890289D01*
X110738400Y-132815711D01*
X110723851Y-132742566D01*
X110695311Y-132673666D01*
X110674261Y-132642161D01*
X110679278Y-132637144D01*
X110720711Y-132575134D01*
X110749251Y-132506234D01*
X110763800Y-132433089D01*
X110763800Y-132411538D01*
X110774995Y-132409311D01*
X112826000Y-132409311D01*
X112826000Y-132483889D01*
X112840549Y-132557034D01*
X112869089Y-132625934D01*
X112910522Y-132687944D01*
X112963256Y-132740678D01*
X113025266Y-132782111D01*
X113094166Y-132810651D01*
X113167311Y-132825200D01*
X113241889Y-132825200D01*
X113315034Y-132810651D01*
X113383934Y-132782111D01*
X113445944Y-132740678D01*
X113498678Y-132687944D01*
X113540111Y-132625934D01*
X113568651Y-132557034D01*
X113583200Y-132483889D01*
X113583200Y-132409311D01*
X113568651Y-132336166D01*
X113540111Y-132267266D01*
X113498678Y-132205256D01*
X113445944Y-132152522D01*
X113383934Y-132111089D01*
X113315034Y-132082549D01*
X113241889Y-132068000D01*
X113167311Y-132068000D01*
X113094166Y-132082549D01*
X113025266Y-132111089D01*
X112963256Y-132152522D01*
X112910522Y-132205256D01*
X112869089Y-132267266D01*
X112840549Y-132336166D01*
X112826000Y-132409311D01*
X110774995Y-132409311D01*
X110800434Y-132404251D01*
X110869334Y-132375711D01*
X110931344Y-132334278D01*
X110984078Y-132281544D01*
X111025511Y-132219534D01*
X111054051Y-132150634D01*
X111068600Y-132077489D01*
X111068600Y-132002911D01*
X111054051Y-131929766D01*
X111025511Y-131860866D01*
X110984078Y-131798856D01*
X110931344Y-131746122D01*
X110869334Y-131704689D01*
X110800434Y-131676149D01*
X110727289Y-131661600D01*
X110652711Y-131661600D01*
X110579566Y-131676149D01*
X110510666Y-131704689D01*
X110448656Y-131746122D01*
X110395922Y-131798856D01*
X110354489Y-131860866D01*
X110325949Y-131929766D01*
X110311400Y-132002911D01*
X110311400Y-132024462D01*
X110274766Y-132031749D01*
X110205866Y-132060289D01*
X110143856Y-132101722D01*
X110091122Y-132154456D01*
X110049689Y-132216466D01*
X110021149Y-132285366D01*
X110006600Y-132358511D01*
X110006600Y-132433089D01*
X110021149Y-132506234D01*
X110049689Y-132575134D01*
X110070739Y-132606639D01*
X110065722Y-132611656D01*
X110024289Y-132673666D01*
X109995749Y-132742566D01*
X109981200Y-132815711D01*
X107076200Y-132815711D01*
X107076200Y-132012711D01*
X108721400Y-132012711D01*
X108721400Y-132087289D01*
X108735949Y-132160434D01*
X108764489Y-132229334D01*
X108805922Y-132291344D01*
X108858656Y-132344078D01*
X108920666Y-132385511D01*
X108989566Y-132414051D01*
X109062711Y-132428600D01*
X109137289Y-132428600D01*
X109210434Y-132414051D01*
X109279334Y-132385511D01*
X109341344Y-132344078D01*
X109394078Y-132291344D01*
X109435511Y-132229334D01*
X109464051Y-132160434D01*
X109478600Y-132087289D01*
X109478600Y-132012711D01*
X109464051Y-131939566D01*
X109435511Y-131870666D01*
X109394078Y-131808656D01*
X109341344Y-131755922D01*
X109279334Y-131714489D01*
X109210434Y-131685949D01*
X109137289Y-131671400D01*
X109062711Y-131671400D01*
X108989566Y-131685949D01*
X108920666Y-131714489D01*
X108858656Y-131755922D01*
X108805922Y-131808656D01*
X108764489Y-131870666D01*
X108735949Y-131939566D01*
X108721400Y-132012711D01*
X107076200Y-132012711D01*
X107076200Y-131367911D01*
X112826000Y-131367911D01*
X112826000Y-131442489D01*
X112840549Y-131515634D01*
X112869089Y-131584534D01*
X112910522Y-131646544D01*
X112963256Y-131699278D01*
X113025266Y-131740711D01*
X113094166Y-131769251D01*
X113167311Y-131783800D01*
X113241889Y-131783800D01*
X113315034Y-131769251D01*
X113383934Y-131740711D01*
X113445944Y-131699278D01*
X113498678Y-131646544D01*
X113540111Y-131584534D01*
X113568651Y-131515634D01*
X113583200Y-131442489D01*
X113583200Y-131367911D01*
X113568651Y-131294766D01*
X113540111Y-131225866D01*
X113498678Y-131163856D01*
X113445944Y-131111122D01*
X113383934Y-131069689D01*
X113315034Y-131041149D01*
X113241889Y-131026600D01*
X113167311Y-131026600D01*
X113094166Y-131041149D01*
X113025266Y-131069689D01*
X112963256Y-131111122D01*
X112910522Y-131163856D01*
X112869089Y-131225866D01*
X112840549Y-131294766D01*
X112826000Y-131367911D01*
X107076200Y-131367911D01*
X107076200Y-130137711D01*
X108765200Y-130137711D01*
X108765200Y-130212289D01*
X108779749Y-130285434D01*
X108808289Y-130354334D01*
X108849722Y-130416344D01*
X108902456Y-130469078D01*
X108964466Y-130510511D01*
X109033366Y-130539051D01*
X109106511Y-130553600D01*
X109145672Y-130553600D01*
X109150316Y-130564812D01*
X109191749Y-130626822D01*
X109244483Y-130679556D01*
X109306493Y-130720989D01*
X109375393Y-130749529D01*
X109448538Y-130764078D01*
X109523116Y-130764078D01*
X109596261Y-130749529D01*
X109665161Y-130720989D01*
X109727171Y-130679556D01*
X109779905Y-130626822D01*
X109821338Y-130564812D01*
X109825982Y-130553600D01*
X109837538Y-130553600D01*
X109849689Y-130582934D01*
X109891122Y-130644944D01*
X109943856Y-130697678D01*
X110005866Y-130739111D01*
X110074766Y-130767651D01*
X110147911Y-130782200D01*
X110222489Y-130782200D01*
X110295634Y-130767651D01*
X110364534Y-130739111D01*
X110426544Y-130697678D01*
X110479278Y-130644944D01*
X110520711Y-130582934D01*
X110532862Y-130553600D01*
X110548738Y-130553600D01*
X110560889Y-130582934D01*
X110602322Y-130644944D01*
X110655056Y-130697678D01*
X110717066Y-130739111D01*
X110785966Y-130767651D01*
X110859111Y-130782200D01*
X110933689Y-130782200D01*
X111006834Y-130767651D01*
X111075734Y-130739111D01*
X111137744Y-130697678D01*
X111190478Y-130644944D01*
X111231911Y-130582934D01*
X111233541Y-130579000D01*
X111259938Y-130579000D01*
X111272089Y-130608334D01*
X111313522Y-130670344D01*
X111366256Y-130723078D01*
X111428266Y-130764511D01*
X111497166Y-130793051D01*
X111570311Y-130807600D01*
X111644889Y-130807600D01*
X111718034Y-130793051D01*
X111786934Y-130764511D01*
X111848944Y-130723078D01*
X111901678Y-130670344D01*
X111943111Y-130608334D01*
X111965783Y-130553600D01*
X112000489Y-130553600D01*
X112073634Y-130539051D01*
X112142534Y-130510511D01*
X112204544Y-130469078D01*
X112257278Y-130416344D01*
X112298711Y-130354334D01*
X112327251Y-130285434D01*
X112341800Y-130212289D01*
X112341800Y-130137711D01*
X112327251Y-130064566D01*
X112298711Y-129995666D01*
X112257278Y-129933656D01*
X112204544Y-129880922D01*
X112142534Y-129839489D01*
X112073634Y-129810949D01*
X112000489Y-129796400D01*
X111925911Y-129796400D01*
X111852766Y-129810949D01*
X111783866Y-129839489D01*
X111721856Y-129880922D01*
X111669122Y-129933656D01*
X111627689Y-129995666D01*
X111605017Y-130050400D01*
X111599662Y-130050400D01*
X111587511Y-130021066D01*
X111546078Y-129959056D01*
X111493344Y-129906322D01*
X111431334Y-129864889D01*
X111362434Y-129836349D01*
X111289289Y-129821800D01*
X111214711Y-129821800D01*
X111141566Y-129836349D01*
X111072666Y-129864889D01*
X111010656Y-129906322D01*
X110957922Y-129959056D01*
X110916489Y-130021066D01*
X110914859Y-130025000D01*
X110888462Y-130025000D01*
X110876311Y-129995666D01*
X110834878Y-129933656D01*
X110782144Y-129880922D01*
X110720134Y-129839489D01*
X110651234Y-129810949D01*
X110578089Y-129796400D01*
X110503511Y-129796400D01*
X110430366Y-129810949D01*
X110361466Y-129839489D01*
X110299456Y-129880922D01*
X110246722Y-129933656D01*
X110205289Y-129995666D01*
X110197900Y-130013504D01*
X110190511Y-129995666D01*
X110149078Y-129933656D01*
X110096344Y-129880922D01*
X110034334Y-129839489D01*
X109965434Y-129810949D01*
X109892289Y-129796400D01*
X109817711Y-129796400D01*
X109744566Y-129810949D01*
X109675666Y-129839489D01*
X109613656Y-129880922D01*
X109560922Y-129933656D01*
X109519489Y-129995666D01*
X109514845Y-130006878D01*
X109483955Y-130006878D01*
X109479311Y-129995666D01*
X109437878Y-129933656D01*
X109385144Y-129880922D01*
X109323134Y-129839489D01*
X109254234Y-129810949D01*
X109181089Y-129796400D01*
X109106511Y-129796400D01*
X109033366Y-129810949D01*
X108964466Y-129839489D01*
X108902456Y-129880922D01*
X108849722Y-129933656D01*
X108808289Y-129995666D01*
X108779749Y-130064566D01*
X108765200Y-130137711D01*
X107076200Y-130137711D01*
X107076200Y-128232711D01*
X108358800Y-128232711D01*
X108358800Y-128307289D01*
X108373349Y-128380434D01*
X108401889Y-128449334D01*
X108434807Y-128498600D01*
X108401889Y-128547866D01*
X108373349Y-128616766D01*
X108358800Y-128689911D01*
X108358800Y-128764489D01*
X108373349Y-128837634D01*
X108401889Y-128906534D01*
X108443322Y-128968544D01*
X108496056Y-129021278D01*
X108499612Y-129023654D01*
X108478089Y-129055866D01*
X108449549Y-129124766D01*
X108435000Y-129197911D01*
X108435000Y-129272489D01*
X108449549Y-129345634D01*
X108478089Y-129414534D01*
X108519522Y-129476544D01*
X108572256Y-129529278D01*
X108634266Y-129570711D01*
X108703166Y-129599251D01*
X108776311Y-129613800D01*
X108850889Y-129613800D01*
X108924034Y-129599251D01*
X108992934Y-129570711D01*
X109054944Y-129529278D01*
X109107678Y-129476544D01*
X109149111Y-129414534D01*
X109177651Y-129345634D01*
X109192200Y-129272489D01*
X109192200Y-129197911D01*
X109177651Y-129124766D01*
X109165865Y-129096311D01*
X111711600Y-129096311D01*
X111711600Y-129170889D01*
X111726149Y-129244034D01*
X111754689Y-129312934D01*
X111796122Y-129374944D01*
X111848856Y-129427678D01*
X111910866Y-129469111D01*
X111979766Y-129497651D01*
X112052911Y-129512200D01*
X112127489Y-129512200D01*
X112200634Y-129497651D01*
X112269534Y-129469111D01*
X112331544Y-129427678D01*
X112336561Y-129422661D01*
X112368066Y-129443711D01*
X112436966Y-129472251D01*
X112510111Y-129486800D01*
X112584689Y-129486800D01*
X112657834Y-129472251D01*
X112726734Y-129443711D01*
X112788744Y-129402278D01*
X112793765Y-129397257D01*
X112825274Y-129418311D01*
X112894174Y-129446851D01*
X112967319Y-129461400D01*
X113041897Y-129461400D01*
X113115042Y-129446851D01*
X113183942Y-129418311D01*
X113245952Y-129376878D01*
X113298686Y-129324144D01*
X113340119Y-129262134D01*
X113368659Y-129193234D01*
X113383208Y-129120089D01*
X113383208Y-129045511D01*
X113368659Y-128972366D01*
X113340119Y-128903466D01*
X113298686Y-128841456D01*
X113274687Y-128817457D01*
X113276306Y-128817779D01*
X113350884Y-128817779D01*
X113396778Y-128808650D01*
X113402543Y-128837634D01*
X113431083Y-128906534D01*
X113472516Y-128968544D01*
X113525250Y-129021278D01*
X113587260Y-129062711D01*
X113656160Y-129091251D01*
X113729305Y-129105800D01*
X113803883Y-129105800D01*
X113877028Y-129091251D01*
X113945928Y-129062711D01*
X114007938Y-129021278D01*
X114060672Y-128968544D01*
X114102105Y-128906534D01*
X114130645Y-128837634D01*
X114145194Y-128764489D01*
X114145194Y-128689911D01*
X114135466Y-128641002D01*
X114189701Y-128651790D01*
X114264279Y-128651790D01*
X114337424Y-128637241D01*
X114406324Y-128608701D01*
X114468334Y-128567268D01*
X114521068Y-128514534D01*
X114562501Y-128452524D01*
X114591041Y-128383624D01*
X114605590Y-128310479D01*
X114605590Y-128235901D01*
X114591041Y-128162756D01*
X114562501Y-128093856D01*
X114521068Y-128031846D01*
X114468334Y-127979112D01*
X114406324Y-127937679D01*
X114337424Y-127909139D01*
X114264279Y-127894590D01*
X114189701Y-127894590D01*
X114116556Y-127909139D01*
X114047656Y-127937679D01*
X113985646Y-127979112D01*
X113978440Y-127986318D01*
X113917334Y-127945489D01*
X113848434Y-127916949D01*
X113775289Y-127902400D01*
X113700711Y-127902400D01*
X113627566Y-127916949D01*
X113558666Y-127945489D01*
X113496656Y-127986922D01*
X113443922Y-128039656D01*
X113420668Y-128074459D01*
X113350884Y-128060579D01*
X113292565Y-128060579D01*
X113255405Y-128004964D01*
X113202671Y-127952230D01*
X113140661Y-127910797D01*
X113071761Y-127882257D01*
X112998616Y-127867708D01*
X112924038Y-127867708D01*
X112850893Y-127882257D01*
X112781993Y-127910797D01*
X112719983Y-127952230D01*
X112667249Y-128004964D01*
X112625816Y-128066974D01*
X112620942Y-128078740D01*
X112587478Y-128028656D01*
X112534744Y-127975922D01*
X112472734Y-127934489D01*
X112403834Y-127905949D01*
X112330689Y-127891400D01*
X112256111Y-127891400D01*
X112182966Y-127905949D01*
X112114066Y-127934489D01*
X112052056Y-127975922D01*
X111999322Y-128028656D01*
X111957889Y-128090666D01*
X111929349Y-128159566D01*
X111914800Y-128232711D01*
X111914800Y-128307289D01*
X111929349Y-128380434D01*
X111957889Y-128449334D01*
X111999322Y-128511344D01*
X112052056Y-128564078D01*
X112114066Y-128605511D01*
X112182966Y-128634051D01*
X112256111Y-128648600D01*
X112290817Y-128648600D01*
X112313489Y-128703334D01*
X112354922Y-128765344D01*
X112364590Y-128775012D01*
X112306056Y-128814122D01*
X112301039Y-128819139D01*
X112269534Y-128798089D01*
X112200634Y-128769549D01*
X112127489Y-128755000D01*
X112052911Y-128755000D01*
X111979766Y-128769549D01*
X111910866Y-128798089D01*
X111848856Y-128839522D01*
X111796122Y-128892256D01*
X111754689Y-128954266D01*
X111726149Y-129023166D01*
X111711600Y-129096311D01*
X109165865Y-129096311D01*
X109149111Y-129055866D01*
X109107678Y-128993856D01*
X109054944Y-128941122D01*
X109051388Y-128938746D01*
X109072911Y-128906534D01*
X109101451Y-128837634D01*
X109116000Y-128764489D01*
X109116000Y-128689911D01*
X109101451Y-128616766D01*
X109097891Y-128608173D01*
X109160366Y-128634051D01*
X109233511Y-128648600D01*
X109308089Y-128648600D01*
X109381234Y-128634051D01*
X109450134Y-128605511D01*
X109512144Y-128564078D01*
X109564878Y-128511344D01*
X109606311Y-128449334D01*
X109634851Y-128380434D01*
X109649400Y-128307289D01*
X109649400Y-128232711D01*
X109634851Y-128159566D01*
X109606311Y-128090666D01*
X109564878Y-128028656D01*
X109512144Y-127975922D01*
X109450134Y-127934489D01*
X109381234Y-127905949D01*
X109308089Y-127891400D01*
X109233511Y-127891400D01*
X109160366Y-127905949D01*
X109091466Y-127934489D01*
X109029456Y-127975922D01*
X109004100Y-128001278D01*
X108978744Y-127975922D01*
X108916734Y-127934489D01*
X108847834Y-127905949D01*
X108774689Y-127891400D01*
X108700111Y-127891400D01*
X108626966Y-127905949D01*
X108558066Y-127934489D01*
X108496056Y-127975922D01*
X108443322Y-128028656D01*
X108401889Y-128090666D01*
X108373349Y-128159566D01*
X108358800Y-128232711D01*
X107076200Y-128232711D01*
X107076200Y-127216711D01*
X108841400Y-127216711D01*
X108841400Y-127291289D01*
X108855949Y-127364434D01*
X108884489Y-127433334D01*
X108925922Y-127495344D01*
X108978656Y-127548078D01*
X109040666Y-127589511D01*
X109109566Y-127618051D01*
X109182711Y-127632600D01*
X109257289Y-127632600D01*
X109330434Y-127618051D01*
X109399334Y-127589511D01*
X109450998Y-127554991D01*
X109502663Y-127589511D01*
X109571563Y-127618051D01*
X109644708Y-127632600D01*
X109719286Y-127632600D01*
X109792431Y-127618051D01*
X109861331Y-127589511D01*
X109882798Y-127575167D01*
X109904266Y-127589511D01*
X109973166Y-127618051D01*
X110046311Y-127632600D01*
X110120889Y-127632600D01*
X110194034Y-127618051D01*
X110262934Y-127589511D01*
X110286800Y-127573565D01*
X110310666Y-127589511D01*
X110379566Y-127618051D01*
X110452711Y-127632600D01*
X110527289Y-127632600D01*
X110600434Y-127618051D01*
X110669334Y-127589511D01*
X110731344Y-127548078D01*
X110744000Y-127535422D01*
X110756656Y-127548078D01*
X110818666Y-127589511D01*
X110887566Y-127618051D01*
X110960711Y-127632600D01*
X111035289Y-127632600D01*
X111108434Y-127618051D01*
X111177334Y-127589511D01*
X111201200Y-127573565D01*
X111225066Y-127589511D01*
X111293966Y-127618051D01*
X111367111Y-127632600D01*
X111441689Y-127632600D01*
X111514834Y-127618051D01*
X111583734Y-127589511D01*
X111608279Y-127573111D01*
X111633980Y-127590284D01*
X111702880Y-127618824D01*
X111776025Y-127633373D01*
X111850603Y-127633373D01*
X111923748Y-127618824D01*
X111992648Y-127590284D01*
X112041210Y-127557837D01*
X112090005Y-127590440D01*
X112158905Y-127618980D01*
X112232050Y-127633529D01*
X112306628Y-127633529D01*
X112379773Y-127618980D01*
X112448673Y-127590440D01*
X112510683Y-127549007D01*
X112563417Y-127496273D01*
X112604850Y-127434263D01*
X112633390Y-127365363D01*
X112647939Y-127292218D01*
X112647939Y-127217640D01*
X112633390Y-127144495D01*
X112604850Y-127075595D01*
X112563417Y-127013585D01*
X112510683Y-126960851D01*
X112448673Y-126919418D01*
X112379773Y-126890878D01*
X112306628Y-126876329D01*
X112232050Y-126876329D01*
X112158905Y-126890878D01*
X112090005Y-126919418D01*
X112041443Y-126951865D01*
X111992648Y-126919262D01*
X111923748Y-126890722D01*
X111850603Y-126876173D01*
X111776025Y-126876173D01*
X111702880Y-126890722D01*
X111633980Y-126919262D01*
X111609435Y-126935662D01*
X111583734Y-126918489D01*
X111514834Y-126889949D01*
X111441689Y-126875400D01*
X111367111Y-126875400D01*
X111293966Y-126889949D01*
X111225066Y-126918489D01*
X111201200Y-126934435D01*
X111177334Y-126918489D01*
X111108434Y-126889949D01*
X111035289Y-126875400D01*
X110960711Y-126875400D01*
X110887566Y-126889949D01*
X110818666Y-126918489D01*
X110756656Y-126959922D01*
X110744000Y-126972578D01*
X110731344Y-126959922D01*
X110669334Y-126918489D01*
X110600434Y-126889949D01*
X110527289Y-126875400D01*
X110452711Y-126875400D01*
X110379566Y-126889949D01*
X110310666Y-126918489D01*
X110286800Y-126934435D01*
X110262934Y-126918489D01*
X110194034Y-126889949D01*
X110120889Y-126875400D01*
X110046311Y-126875400D01*
X109973166Y-126889949D01*
X109904266Y-126918489D01*
X109882799Y-126932833D01*
X109861331Y-126918489D01*
X109792431Y-126889949D01*
X109719286Y-126875400D01*
X109644708Y-126875400D01*
X109571563Y-126889949D01*
X109502663Y-126918489D01*
X109450999Y-126953009D01*
X109399334Y-126918489D01*
X109330434Y-126889949D01*
X109257289Y-126875400D01*
X109182711Y-126875400D01*
X109109566Y-126889949D01*
X109040666Y-126918489D01*
X108978656Y-126959922D01*
X108925922Y-127012656D01*
X108884489Y-127074666D01*
X108855949Y-127143566D01*
X108841400Y-127216711D01*
X107076200Y-127216711D01*
X107076200Y-126930631D01*
X107097122Y-126961944D01*
X107149856Y-127014678D01*
X107211866Y-127056111D01*
X107280766Y-127084651D01*
X107353911Y-127099200D01*
X107428489Y-127099200D01*
X107501634Y-127084651D01*
X107570534Y-127056111D01*
X107632544Y-127014678D01*
X107685278Y-126961944D01*
X107726711Y-126899934D01*
X107755251Y-126831034D01*
X107769800Y-126757889D01*
X107769800Y-126683311D01*
X107755251Y-126610166D01*
X107726711Y-126541266D01*
X107685278Y-126479256D01*
X107632544Y-126426522D01*
X107570534Y-126385089D01*
X107501634Y-126356549D01*
X107428489Y-126342000D01*
X107353911Y-126342000D01*
X107280766Y-126356549D01*
X107211866Y-126385089D01*
X107149856Y-126426522D01*
X107097122Y-126479256D01*
X107076200Y-126510569D01*
X107076200Y-126326200D01*
X115423800Y-126326200D01*
X115423800Y-134673800D01*
G36*
X131569722Y-112375256D02*
G01*
X131528289Y-112437266D01*
X131499749Y-112506166D01*
X131485200Y-112579311D01*
X131485200Y-112653889D01*
X131499749Y-112727034D01*
X131528289Y-112795934D01*
X131569722Y-112857944D01*
X131622456Y-112910678D01*
X131684466Y-112952111D01*
X131753366Y-112980651D01*
X131826511Y-112995200D01*
X131901089Y-112995200D01*
X131974234Y-112980651D01*
X132043134Y-112952111D01*
X132105144Y-112910678D01*
X132157878Y-112857944D01*
X132199311Y-112795934D01*
X132227851Y-112727034D01*
X132242400Y-112653889D01*
X132242400Y-112579311D01*
X132227851Y-112506166D01*
X132199311Y-112437266D01*
X132157878Y-112375256D01*
X132108822Y-112326200D01*
X135725827Y-112326200D01*
X134571521Y-113480506D01*
X134564651Y-113445966D01*
X134536111Y-113377066D01*
X134494678Y-113315056D01*
X134441944Y-113262322D01*
X134379934Y-113220889D01*
X134311034Y-113192349D01*
X134237889Y-113177800D01*
X134163311Y-113177800D01*
X134090166Y-113192349D01*
X134021266Y-113220889D01*
X133959256Y-113262322D01*
X133906522Y-113315056D01*
X133865089Y-113377066D01*
X133836549Y-113445966D01*
X133822000Y-113519111D01*
X133822000Y-113593689D01*
X133836549Y-113666834D01*
X133865089Y-113735734D01*
X133906522Y-113797744D01*
X133959256Y-113850478D01*
X134021266Y-113891911D01*
X134090166Y-113920451D01*
X134124706Y-113927321D01*
X133286744Y-114765284D01*
X133277366Y-114767149D01*
X133208466Y-114795689D01*
X133146456Y-114837122D01*
X133093722Y-114889856D01*
X133052289Y-114951866D01*
X133023749Y-115020766D01*
X133009200Y-115093911D01*
X133009200Y-115168489D01*
X133023749Y-115241634D01*
X133052289Y-115310534D01*
X133093722Y-115372544D01*
X133146456Y-115425278D01*
X133208466Y-115466711D01*
X133277366Y-115495251D01*
X133350511Y-115509800D01*
X133425089Y-115509800D01*
X133498234Y-115495251D01*
X133567134Y-115466711D01*
X133629144Y-115425278D01*
X133681878Y-115372544D01*
X133723311Y-115310534D01*
X133751851Y-115241634D01*
X133753716Y-115232256D01*
X133796600Y-115189372D01*
X133796600Y-115219289D01*
X133811149Y-115292434D01*
X133839689Y-115361334D01*
X133881122Y-115423344D01*
X133933856Y-115476078D01*
X133995866Y-115517511D01*
X134064766Y-115546051D01*
X134137911Y-115560600D01*
X134212489Y-115560600D01*
X134285634Y-115546051D01*
X134354534Y-115517511D01*
X134416544Y-115476078D01*
X134469278Y-115423344D01*
X134510711Y-115361334D01*
X134539251Y-115292434D01*
X134553800Y-115219289D01*
X134553800Y-115144711D01*
X134539251Y-115071566D01*
X134510711Y-115002666D01*
X134469278Y-114940656D01*
X134416544Y-114887922D01*
X134354534Y-114846489D01*
X134285634Y-114817949D01*
X134212489Y-114803400D01*
X134182572Y-114803400D01*
X134584000Y-114401972D01*
X134584000Y-114431889D01*
X134598549Y-114505034D01*
X134627089Y-114573934D01*
X134668522Y-114635944D01*
X134721256Y-114688678D01*
X134783266Y-114730111D01*
X134852166Y-114758651D01*
X134917506Y-114771648D01*
X134859466Y-114795689D01*
X134797456Y-114837122D01*
X134744722Y-114889856D01*
X134703289Y-114951866D01*
X134674749Y-115020766D01*
X134660200Y-115093911D01*
X134660200Y-115168489D01*
X134674749Y-115241634D01*
X134703289Y-115310534D01*
X134744722Y-115372544D01*
X134797456Y-115425278D01*
X134859466Y-115466711D01*
X134928366Y-115495251D01*
X135001511Y-115509800D01*
X135076089Y-115509800D01*
X135149234Y-115495251D01*
X135218134Y-115466711D01*
X135280144Y-115425278D01*
X135332878Y-115372544D01*
X135374311Y-115310534D01*
X135402851Y-115241634D01*
X135417400Y-115168489D01*
X135417400Y-115119311D01*
X137835200Y-115119311D01*
X137835200Y-115193889D01*
X137849749Y-115267034D01*
X137878289Y-115335934D01*
X137919722Y-115397944D01*
X137972456Y-115450678D01*
X138034466Y-115492111D01*
X138103366Y-115520651D01*
X138176511Y-115535200D01*
X138251089Y-115535200D01*
X138324234Y-115520651D01*
X138393134Y-115492111D01*
X138455144Y-115450678D01*
X138507878Y-115397944D01*
X138549311Y-115335934D01*
X138577851Y-115267034D01*
X138592400Y-115193889D01*
X138592400Y-115119311D01*
X138577851Y-115046166D01*
X138549311Y-114977266D01*
X138507878Y-114915256D01*
X138455144Y-114862522D01*
X138393134Y-114821089D01*
X138324234Y-114792549D01*
X138251089Y-114778000D01*
X138176511Y-114778000D01*
X138103366Y-114792549D01*
X138034466Y-114821089D01*
X137972456Y-114862522D01*
X137919722Y-114915256D01*
X137878289Y-114977266D01*
X137849749Y-115046166D01*
X137835200Y-115119311D01*
X135417400Y-115119311D01*
X135417400Y-115093911D01*
X135402851Y-115020766D01*
X135374311Y-114951866D01*
X135332878Y-114889856D01*
X135280144Y-114837122D01*
X135218134Y-114795689D01*
X135149234Y-114767149D01*
X135083894Y-114754152D01*
X135141934Y-114730111D01*
X135203944Y-114688678D01*
X135218622Y-114674000D01*
X136451717Y-114674000D01*
X136459666Y-114679311D01*
X136528566Y-114707851D01*
X136601711Y-114722400D01*
X136676289Y-114722400D01*
X136749434Y-114707851D01*
X136818334Y-114679311D01*
X136880344Y-114637878D01*
X136933078Y-114585144D01*
X136974511Y-114523134D01*
X137003051Y-114454234D01*
X137017600Y-114381089D01*
X137017600Y-114306511D01*
X137003051Y-114233366D01*
X136974511Y-114164466D01*
X136933078Y-114102456D01*
X136880344Y-114049722D01*
X136818334Y-114008289D01*
X136749434Y-113979749D01*
X136676289Y-113965200D01*
X136601711Y-113965200D01*
X136528566Y-113979749D01*
X136459666Y-114008289D01*
X136451717Y-114013600D01*
X135029612Y-114013600D01*
X135013399Y-114012003D01*
X134997186Y-114013600D01*
X134997185Y-114013600D01*
X134972816Y-114016000D01*
X134969973Y-114016000D01*
X135422200Y-113563773D01*
X135422200Y-113619089D01*
X135436749Y-113692234D01*
X135465289Y-113761134D01*
X135506722Y-113823144D01*
X135559456Y-113875878D01*
X135621466Y-113917311D01*
X135690366Y-113945851D01*
X135763511Y-113960400D01*
X135838089Y-113960400D01*
X135911234Y-113945851D01*
X135980134Y-113917311D01*
X136042144Y-113875878D01*
X136094878Y-113823144D01*
X136136311Y-113761134D01*
X136164851Y-113692234D01*
X136179400Y-113619089D01*
X136179400Y-113544511D01*
X136260400Y-113544511D01*
X136260400Y-113619089D01*
X136274949Y-113692234D01*
X136303489Y-113761134D01*
X136344922Y-113823144D01*
X136397656Y-113875878D01*
X136459666Y-113917311D01*
X136528566Y-113945851D01*
X136601711Y-113960400D01*
X136676289Y-113960400D01*
X136749434Y-113945851D01*
X136818334Y-113917311D01*
X136880344Y-113875878D01*
X136933078Y-113823144D01*
X136974511Y-113761134D01*
X137003051Y-113692234D01*
X137017600Y-113619089D01*
X137017600Y-113544511D01*
X137003051Y-113471366D01*
X136974511Y-113402466D01*
X136933078Y-113340456D01*
X136880344Y-113287722D01*
X136818334Y-113246289D01*
X136749434Y-113217749D01*
X136676289Y-113203200D01*
X136601711Y-113203200D01*
X136528566Y-113217749D01*
X136459666Y-113246289D01*
X136397656Y-113287722D01*
X136344922Y-113340456D01*
X136303489Y-113402466D01*
X136274949Y-113471366D01*
X136260400Y-113544511D01*
X136179400Y-113544511D01*
X136164851Y-113471366D01*
X136136311Y-113402466D01*
X136094878Y-113340456D01*
X136042144Y-113287722D01*
X135980134Y-113246289D01*
X135911234Y-113217749D01*
X135838089Y-113203200D01*
X135782773Y-113203200D01*
X136166173Y-112819800D01*
X138407517Y-112819800D01*
X138415466Y-112825111D01*
X138484366Y-112853651D01*
X138557511Y-112868200D01*
X138632089Y-112868200D01*
X138705234Y-112853651D01*
X138774134Y-112825111D01*
X138836144Y-112783678D01*
X138888878Y-112730944D01*
X138895329Y-112721290D01*
X138935722Y-112781744D01*
X138988456Y-112834478D01*
X139050466Y-112875911D01*
X139119366Y-112904451D01*
X139192511Y-112919000D01*
X139267089Y-112919000D01*
X139340234Y-112904451D01*
X139409134Y-112875911D01*
X139423800Y-112866112D01*
X139423800Y-115166095D01*
X139409851Y-115095966D01*
X139381311Y-115027066D01*
X139339878Y-114965056D01*
X139287144Y-114912322D01*
X139225134Y-114870889D01*
X139156234Y-114842349D01*
X139083089Y-114827800D01*
X139008511Y-114827800D01*
X138935366Y-114842349D01*
X138866466Y-114870889D01*
X138804456Y-114912322D01*
X138751722Y-114965056D01*
X138710289Y-115027066D01*
X138681749Y-115095966D01*
X138667200Y-115169111D01*
X138667200Y-115243689D01*
X138681749Y-115316834D01*
X138710289Y-115385734D01*
X138751722Y-115447744D01*
X138804456Y-115500478D01*
X138866466Y-115541911D01*
X138935366Y-115570451D01*
X139008511Y-115585000D01*
X139083089Y-115585000D01*
X139156234Y-115570451D01*
X139225134Y-115541911D01*
X139287144Y-115500478D01*
X139339878Y-115447744D01*
X139381311Y-115385734D01*
X139409851Y-115316834D01*
X139423800Y-115246705D01*
X139423800Y-116204690D01*
X139384834Y-116188549D01*
X139311689Y-116174000D01*
X139237111Y-116174000D01*
X139163966Y-116188549D01*
X139095066Y-116217089D01*
X139033056Y-116258522D01*
X138980322Y-116311256D01*
X138938889Y-116373266D01*
X138910349Y-116442166D01*
X138895800Y-116515311D01*
X138895800Y-116589889D01*
X138910349Y-116663034D01*
X138938889Y-116731934D01*
X138980322Y-116793944D01*
X139033056Y-116846678D01*
X139095066Y-116888111D01*
X139163966Y-116916651D01*
X139237111Y-116931200D01*
X139311689Y-116931200D01*
X139384834Y-116916651D01*
X139423800Y-116900510D01*
X139423800Y-121423800D01*
X130982404Y-121423800D01*
X131034434Y-121413451D01*
X131103334Y-121384911D01*
X131165344Y-121343478D01*
X131218078Y-121290744D01*
X131259511Y-121228734D01*
X131288051Y-121159834D01*
X131302600Y-121086689D01*
X131302600Y-121012111D01*
X131288051Y-120938966D01*
X131259511Y-120870066D01*
X131218078Y-120808056D01*
X131202707Y-120792685D01*
X133371374Y-120792685D01*
X133371374Y-120867263D01*
X133385923Y-120940408D01*
X133414463Y-121009308D01*
X133455896Y-121071318D01*
X133508630Y-121124052D01*
X133570640Y-121165485D01*
X133639540Y-121194025D01*
X133712685Y-121208574D01*
X133787263Y-121208574D01*
X133860408Y-121194025D01*
X133929308Y-121165485D01*
X133991318Y-121124052D01*
X134044052Y-121071318D01*
X134085485Y-121009308D01*
X134114025Y-120940408D01*
X134128574Y-120867263D01*
X134128574Y-120792735D01*
X134621400Y-120792735D01*
X134621400Y-120867313D01*
X134635949Y-120940458D01*
X134664489Y-121009358D01*
X134705922Y-121071368D01*
X134758656Y-121124102D01*
X134820666Y-121165535D01*
X134889566Y-121194075D01*
X134962711Y-121208624D01*
X135037289Y-121208624D01*
X135110434Y-121194075D01*
X135179334Y-121165535D01*
X135241344Y-121124102D01*
X135294078Y-121071368D01*
X135335511Y-121009358D01*
X135364051Y-120940458D01*
X135378600Y-120867313D01*
X135378600Y-120792735D01*
X135378595Y-120792706D01*
X135871405Y-120792706D01*
X135871405Y-120867284D01*
X135885954Y-120940429D01*
X135914494Y-121009329D01*
X135955927Y-121071339D01*
X136008661Y-121124073D01*
X136070671Y-121165506D01*
X136139571Y-121194046D01*
X136212716Y-121208595D01*
X136287294Y-121208595D01*
X136360439Y-121194046D01*
X136429339Y-121165506D01*
X136491349Y-121124073D01*
X136544083Y-121071339D01*
X136585516Y-121009329D01*
X136614056Y-120940429D01*
X136628605Y-120867284D01*
X136628605Y-120792706D01*
X136627970Y-120789511D01*
X137080000Y-120789511D01*
X137080000Y-120864089D01*
X137094549Y-120937234D01*
X137123089Y-121006134D01*
X137164522Y-121068144D01*
X137217256Y-121120878D01*
X137279266Y-121162311D01*
X137348166Y-121190851D01*
X137421311Y-121205400D01*
X137495889Y-121205400D01*
X137569034Y-121190851D01*
X137637934Y-121162311D01*
X137699944Y-121120878D01*
X137752678Y-121068144D01*
X137794111Y-121006134D01*
X137822651Y-120937234D01*
X137837200Y-120864089D01*
X137837200Y-120792727D01*
X138371384Y-120792727D01*
X138371384Y-120867305D01*
X138385933Y-120940450D01*
X138414473Y-121009350D01*
X138455906Y-121071360D01*
X138508640Y-121124094D01*
X138570650Y-121165527D01*
X138639550Y-121194067D01*
X138712695Y-121208616D01*
X138787273Y-121208616D01*
X138860418Y-121194067D01*
X138929318Y-121165527D01*
X138991328Y-121124094D01*
X139044062Y-121071360D01*
X139085495Y-121009350D01*
X139114035Y-120940450D01*
X139128584Y-120867305D01*
X139128584Y-120792727D01*
X139114035Y-120719582D01*
X139085495Y-120650682D01*
X139044062Y-120588672D01*
X138991328Y-120535938D01*
X138929318Y-120494505D01*
X138860418Y-120465965D01*
X138787273Y-120451416D01*
X138712695Y-120451416D01*
X138639550Y-120465965D01*
X138570650Y-120494505D01*
X138508640Y-120535938D01*
X138455906Y-120588672D01*
X138414473Y-120650682D01*
X138385933Y-120719582D01*
X138371384Y-120792727D01*
X137837200Y-120792727D01*
X137837200Y-120789511D01*
X137822651Y-120716366D01*
X137794111Y-120647466D01*
X137752678Y-120585456D01*
X137699944Y-120532722D01*
X137637934Y-120491289D01*
X137569034Y-120462749D01*
X137495889Y-120448200D01*
X137421311Y-120448200D01*
X137348166Y-120462749D01*
X137279266Y-120491289D01*
X137217256Y-120532722D01*
X137164522Y-120585456D01*
X137123089Y-120647466D01*
X137094549Y-120716366D01*
X137080000Y-120789511D01*
X136627970Y-120789511D01*
X136614056Y-120719561D01*
X136585516Y-120650661D01*
X136544083Y-120588651D01*
X136491349Y-120535917D01*
X136429339Y-120494484D01*
X136360439Y-120465944D01*
X136287294Y-120451395D01*
X136212716Y-120451395D01*
X136139571Y-120465944D01*
X136070671Y-120494484D01*
X136008661Y-120535917D01*
X135955927Y-120588651D01*
X135914494Y-120650661D01*
X135885954Y-120719561D01*
X135871405Y-120792706D01*
X135378595Y-120792706D01*
X135364051Y-120719590D01*
X135335511Y-120650690D01*
X135294078Y-120588680D01*
X135241344Y-120535946D01*
X135179334Y-120494513D01*
X135110434Y-120465973D01*
X135037289Y-120451424D01*
X134962711Y-120451424D01*
X134889566Y-120465973D01*
X134820666Y-120494513D01*
X134758656Y-120535946D01*
X134705922Y-120588680D01*
X134664489Y-120650690D01*
X134635949Y-120719590D01*
X134621400Y-120792735D01*
X134128574Y-120792735D01*
X134128574Y-120792685D01*
X134114025Y-120719540D01*
X134085485Y-120650640D01*
X134044052Y-120588630D01*
X133991318Y-120535896D01*
X133929308Y-120494463D01*
X133860408Y-120465923D01*
X133787263Y-120451374D01*
X133712685Y-120451374D01*
X133639540Y-120465923D01*
X133570640Y-120494463D01*
X133508630Y-120535896D01*
X133455896Y-120588630D01*
X133414463Y-120650640D01*
X133385923Y-120719540D01*
X133371374Y-120792685D01*
X131202707Y-120792685D01*
X131165344Y-120755322D01*
X131103334Y-120713889D01*
X131034434Y-120685349D01*
X130961289Y-120670800D01*
X130886711Y-120670800D01*
X130813566Y-120685349D01*
X130744666Y-120713889D01*
X130682656Y-120755322D01*
X130629922Y-120808056D01*
X130588489Y-120870066D01*
X130576200Y-120899734D01*
X130576200Y-118293313D01*
X130615400Y-118293313D01*
X130615400Y-118367891D01*
X130629949Y-118441036D01*
X130658489Y-118509936D01*
X130699922Y-118571946D01*
X130752656Y-118624680D01*
X130814666Y-118666113D01*
X130883566Y-118694653D01*
X130956711Y-118709202D01*
X131031289Y-118709202D01*
X131104434Y-118694653D01*
X131173334Y-118666113D01*
X131235344Y-118624680D01*
X131288078Y-118571946D01*
X131329511Y-118509936D01*
X131358051Y-118441036D01*
X131372600Y-118367891D01*
X131372600Y-118345111D01*
X131459800Y-118345111D01*
X131459800Y-118419689D01*
X131474349Y-118492834D01*
X131502889Y-118561734D01*
X131544322Y-118623744D01*
X131597056Y-118676478D01*
X131659066Y-118717911D01*
X131727966Y-118746451D01*
X131801111Y-118761000D01*
X131875689Y-118761000D01*
X131948834Y-118746451D01*
X132017734Y-118717911D01*
X132079744Y-118676478D01*
X132132478Y-118623744D01*
X132173911Y-118561734D01*
X132202451Y-118492834D01*
X132217000Y-118419689D01*
X132217000Y-118345111D01*
X132211948Y-118319711D01*
X133009200Y-118319711D01*
X133009200Y-118394289D01*
X133023749Y-118467434D01*
X133052289Y-118536334D01*
X133093722Y-118598344D01*
X133146456Y-118651078D01*
X133208466Y-118692511D01*
X133277366Y-118721051D01*
X133350511Y-118735600D01*
X133425089Y-118735600D01*
X133498234Y-118721051D01*
X133567134Y-118692511D01*
X133629144Y-118651078D01*
X133681878Y-118598344D01*
X133723311Y-118536334D01*
X133751851Y-118467434D01*
X133766400Y-118394289D01*
X133766400Y-118319711D01*
X134609400Y-118319711D01*
X134609400Y-118394289D01*
X134623949Y-118467434D01*
X134652489Y-118536334D01*
X134693922Y-118598344D01*
X134746656Y-118651078D01*
X134808666Y-118692511D01*
X134877566Y-118721051D01*
X134950711Y-118735600D01*
X135025289Y-118735600D01*
X135098434Y-118721051D01*
X135167334Y-118692511D01*
X135229344Y-118651078D01*
X135282078Y-118598344D01*
X135323511Y-118536334D01*
X135352051Y-118467434D01*
X135366600Y-118394289D01*
X135366600Y-118319711D01*
X135352051Y-118246566D01*
X135323511Y-118177666D01*
X135282078Y-118115656D01*
X135229344Y-118062922D01*
X135167334Y-118021489D01*
X135098434Y-117992949D01*
X135025289Y-117978400D01*
X134950711Y-117978400D01*
X134877566Y-117992949D01*
X134808666Y-118021489D01*
X134746656Y-118062922D01*
X134693922Y-118115656D01*
X134652489Y-118177666D01*
X134623949Y-118246566D01*
X134609400Y-118319711D01*
X133766400Y-118319711D01*
X133751851Y-118246566D01*
X133723311Y-118177666D01*
X133681878Y-118115656D01*
X133629144Y-118062922D01*
X133567134Y-118021489D01*
X133498234Y-117992949D01*
X133425089Y-117978400D01*
X133350511Y-117978400D01*
X133277366Y-117992949D01*
X133208466Y-118021489D01*
X133146456Y-118062922D01*
X133093722Y-118115656D01*
X133052289Y-118177666D01*
X133023749Y-118246566D01*
X133009200Y-118319711D01*
X132211948Y-118319711D01*
X132202451Y-118271966D01*
X132173911Y-118203066D01*
X132132478Y-118141056D01*
X132079744Y-118088322D01*
X132017734Y-118046889D01*
X131948834Y-118018349D01*
X131875689Y-118003800D01*
X131801111Y-118003800D01*
X131727966Y-118018349D01*
X131659066Y-118046889D01*
X131597056Y-118088322D01*
X131544322Y-118141056D01*
X131502889Y-118203066D01*
X131474349Y-118271966D01*
X131459800Y-118345111D01*
X131372600Y-118345111D01*
X131372600Y-118293313D01*
X131358051Y-118220168D01*
X131329511Y-118151268D01*
X131288078Y-118089258D01*
X131235344Y-118036524D01*
X131173334Y-117995091D01*
X131104434Y-117966551D01*
X131031289Y-117952002D01*
X130956711Y-117952002D01*
X130883566Y-117966551D01*
X130814666Y-117995091D01*
X130752656Y-118036524D01*
X130699922Y-118089258D01*
X130658489Y-118151268D01*
X130629949Y-118220168D01*
X130615400Y-118293313D01*
X130576200Y-118293313D01*
X130576200Y-116390822D01*
X130600256Y-116414878D01*
X130662266Y-116456311D01*
X130731166Y-116484851D01*
X130772171Y-116493007D01*
X130750722Y-116514456D01*
X130709289Y-116576466D01*
X130680749Y-116645366D01*
X130666200Y-116718511D01*
X130666200Y-116793089D01*
X130680749Y-116866234D01*
X130709289Y-116935134D01*
X130750722Y-116997144D01*
X130803456Y-117049878D01*
X130865466Y-117091311D01*
X130934366Y-117119851D01*
X131007511Y-117134400D01*
X131082089Y-117134400D01*
X131155234Y-117119851D01*
X131224134Y-117091311D01*
X131286144Y-117049878D01*
X131338878Y-116997144D01*
X131380311Y-116935134D01*
X131408851Y-116866234D01*
X131423400Y-116793089D01*
X131423400Y-116719511D01*
X136235000Y-116719511D01*
X136235000Y-116794089D01*
X136249549Y-116867234D01*
X136278089Y-116936134D01*
X136319522Y-116998144D01*
X136372256Y-117050878D01*
X136434266Y-117092311D01*
X136503166Y-117120851D01*
X136576311Y-117135400D01*
X136650889Y-117135400D01*
X136724034Y-117120851D01*
X136792934Y-117092311D01*
X136854944Y-117050878D01*
X136907678Y-116998144D01*
X136949111Y-116936134D01*
X136977651Y-116867234D01*
X136992200Y-116794089D01*
X136992200Y-116719511D01*
X136977651Y-116646366D01*
X136949111Y-116577466D01*
X136907678Y-116515456D01*
X136854944Y-116462722D01*
X136792934Y-116421289D01*
X136724034Y-116392749D01*
X136650889Y-116378200D01*
X136576311Y-116378200D01*
X136503166Y-116392749D01*
X136434266Y-116421289D01*
X136372256Y-116462722D01*
X136319522Y-116515456D01*
X136278089Y-116577466D01*
X136249549Y-116646366D01*
X136235000Y-116719511D01*
X131423400Y-116719511D01*
X131423400Y-116718511D01*
X131408851Y-116645366D01*
X131380311Y-116576466D01*
X131338878Y-116514456D01*
X131286144Y-116461722D01*
X131224134Y-116420289D01*
X131155234Y-116391749D01*
X131114229Y-116383593D01*
X131135678Y-116362144D01*
X131177111Y-116300134D01*
X131205651Y-116231234D01*
X131220200Y-116158089D01*
X131220200Y-116083511D01*
X131205651Y-116010366D01*
X131177111Y-115941466D01*
X131153889Y-115906711D01*
X131434400Y-115906711D01*
X131434400Y-115981289D01*
X131448949Y-116054434D01*
X131477489Y-116123334D01*
X131518922Y-116185344D01*
X131571656Y-116238078D01*
X131633666Y-116279511D01*
X131702566Y-116308051D01*
X131775711Y-116322600D01*
X131850289Y-116322600D01*
X131923434Y-116308051D01*
X131992334Y-116279511D01*
X132054344Y-116238078D01*
X132107078Y-116185344D01*
X132148511Y-116123334D01*
X132177051Y-116054434D01*
X132191600Y-115981289D01*
X132191600Y-115932111D01*
X133822000Y-115932111D01*
X133822000Y-116006689D01*
X133836549Y-116079834D01*
X133865089Y-116148734D01*
X133906522Y-116210744D01*
X133959256Y-116263478D01*
X134021266Y-116304911D01*
X134090166Y-116333451D01*
X134163311Y-116348000D01*
X134237889Y-116348000D01*
X134311034Y-116333451D01*
X134379934Y-116304911D01*
X134441944Y-116263478D01*
X134494678Y-116210744D01*
X134536111Y-116148734D01*
X134564651Y-116079834D01*
X134579200Y-116006689D01*
X134579200Y-115932111D01*
X134564651Y-115858966D01*
X134536111Y-115790066D01*
X134494678Y-115728056D01*
X134441944Y-115675322D01*
X134379934Y-115633889D01*
X134311034Y-115605349D01*
X134237889Y-115590800D01*
X134163311Y-115590800D01*
X134090166Y-115605349D01*
X134021266Y-115633889D01*
X133959256Y-115675322D01*
X133906522Y-115728056D01*
X133865089Y-115790066D01*
X133836549Y-115858966D01*
X133822000Y-115932111D01*
X132191600Y-115932111D01*
X132191600Y-115906711D01*
X132177051Y-115833566D01*
X132148511Y-115764666D01*
X132107078Y-115702656D01*
X132054344Y-115649922D01*
X131992334Y-115608489D01*
X131923434Y-115579949D01*
X131850289Y-115565400D01*
X131775711Y-115565400D01*
X131702566Y-115579949D01*
X131633666Y-115608489D01*
X131571656Y-115649922D01*
X131518922Y-115702656D01*
X131477489Y-115764666D01*
X131448949Y-115833566D01*
X131434400Y-115906711D01*
X131153889Y-115906711D01*
X131135678Y-115879456D01*
X131082944Y-115826722D01*
X131020934Y-115785289D01*
X130952034Y-115756749D01*
X130878889Y-115742200D01*
X130804311Y-115742200D01*
X130731166Y-115756749D01*
X130662266Y-115785289D01*
X130600256Y-115826722D01*
X130576200Y-115850778D01*
X130576200Y-112326200D01*
X131618778Y-112326200D01*
X131569722Y-112375256D01*
G37*
X131569722Y-112375256D02*
X131528289Y-112437266D01*
X131499749Y-112506166D01*
X131485200Y-112579311D01*
X131485200Y-112653889D01*
X131499749Y-112727034D01*
X131528289Y-112795934D01*
X131569722Y-112857944D01*
X131622456Y-112910678D01*
X131684466Y-112952111D01*
X131753366Y-112980651D01*
X131826511Y-112995200D01*
X131901089Y-112995200D01*
X131974234Y-112980651D01*
X132043134Y-112952111D01*
X132105144Y-112910678D01*
X132157878Y-112857944D01*
X132199311Y-112795934D01*
X132227851Y-112727034D01*
X132242400Y-112653889D01*
X132242400Y-112579311D01*
X132227851Y-112506166D01*
X132199311Y-112437266D01*
X132157878Y-112375256D01*
X132108822Y-112326200D01*
X135725827Y-112326200D01*
X134571521Y-113480506D01*
X134564651Y-113445966D01*
X134536111Y-113377066D01*
X134494678Y-113315056D01*
X134441944Y-113262322D01*
X134379934Y-113220889D01*
X134311034Y-113192349D01*
X134237889Y-113177800D01*
X134163311Y-113177800D01*
X134090166Y-113192349D01*
X134021266Y-113220889D01*
X133959256Y-113262322D01*
X133906522Y-113315056D01*
X133865089Y-113377066D01*
X133836549Y-113445966D01*
X133822000Y-113519111D01*
X133822000Y-113593689D01*
X133836549Y-113666834D01*
X133865089Y-113735734D01*
X133906522Y-113797744D01*
X133959256Y-113850478D01*
X134021266Y-113891911D01*
X134090166Y-113920451D01*
X134124706Y-113927321D01*
X133286744Y-114765284D01*
X133277366Y-114767149D01*
X133208466Y-114795689D01*
X133146456Y-114837122D01*
X133093722Y-114889856D01*
X133052289Y-114951866D01*
X133023749Y-115020766D01*
X133009200Y-115093911D01*
X133009200Y-115168489D01*
X133023749Y-115241634D01*
X133052289Y-115310534D01*
X133093722Y-115372544D01*
X133146456Y-115425278D01*
X133208466Y-115466711D01*
X133277366Y-115495251D01*
X133350511Y-115509800D01*
X133425089Y-115509800D01*
X133498234Y-115495251D01*
X133567134Y-115466711D01*
X133629144Y-115425278D01*
X133681878Y-115372544D01*
X133723311Y-115310534D01*
X133751851Y-115241634D01*
X133753716Y-115232256D01*
X133796600Y-115189372D01*
X133796600Y-115219289D01*
X133811149Y-115292434D01*
X133839689Y-115361334D01*
X133881122Y-115423344D01*
X133933856Y-115476078D01*
X133995866Y-115517511D01*
X134064766Y-115546051D01*
X134137911Y-115560600D01*
X134212489Y-115560600D01*
X134285634Y-115546051D01*
X134354534Y-115517511D01*
X134416544Y-115476078D01*
X134469278Y-115423344D01*
X134510711Y-115361334D01*
X134539251Y-115292434D01*
X134553800Y-115219289D01*
X134553800Y-115144711D01*
X134539251Y-115071566D01*
X134510711Y-115002666D01*
X134469278Y-114940656D01*
X134416544Y-114887922D01*
X134354534Y-114846489D01*
X134285634Y-114817949D01*
X134212489Y-114803400D01*
X134182572Y-114803400D01*
X134584000Y-114401972D01*
X134584000Y-114431889D01*
X134598549Y-114505034D01*
X134627089Y-114573934D01*
X134668522Y-114635944D01*
X134721256Y-114688678D01*
X134783266Y-114730111D01*
X134852166Y-114758651D01*
X134917506Y-114771648D01*
X134859466Y-114795689D01*
X134797456Y-114837122D01*
X134744722Y-114889856D01*
X134703289Y-114951866D01*
X134674749Y-115020766D01*
X134660200Y-115093911D01*
X134660200Y-115168489D01*
X134674749Y-115241634D01*
X134703289Y-115310534D01*
X134744722Y-115372544D01*
X134797456Y-115425278D01*
X134859466Y-115466711D01*
X134928366Y-115495251D01*
X135001511Y-115509800D01*
X135076089Y-115509800D01*
X135149234Y-115495251D01*
X135218134Y-115466711D01*
X135280144Y-115425278D01*
X135332878Y-115372544D01*
X135374311Y-115310534D01*
X135402851Y-115241634D01*
X135417400Y-115168489D01*
X135417400Y-115119311D01*
X137835200Y-115119311D01*
X137835200Y-115193889D01*
X137849749Y-115267034D01*
X137878289Y-115335934D01*
X137919722Y-115397944D01*
X137972456Y-115450678D01*
X138034466Y-115492111D01*
X138103366Y-115520651D01*
X138176511Y-115535200D01*
X138251089Y-115535200D01*
X138324234Y-115520651D01*
X138393134Y-115492111D01*
X138455144Y-115450678D01*
X138507878Y-115397944D01*
X138549311Y-115335934D01*
X138577851Y-115267034D01*
X138592400Y-115193889D01*
X138592400Y-115119311D01*
X138577851Y-115046166D01*
X138549311Y-114977266D01*
X138507878Y-114915256D01*
X138455144Y-114862522D01*
X138393134Y-114821089D01*
X138324234Y-114792549D01*
X138251089Y-114778000D01*
X138176511Y-114778000D01*
X138103366Y-114792549D01*
X138034466Y-114821089D01*
X137972456Y-114862522D01*
X137919722Y-114915256D01*
X137878289Y-114977266D01*
X137849749Y-115046166D01*
X137835200Y-115119311D01*
X135417400Y-115119311D01*
X135417400Y-115093911D01*
X135402851Y-115020766D01*
X135374311Y-114951866D01*
X135332878Y-114889856D01*
X135280144Y-114837122D01*
X135218134Y-114795689D01*
X135149234Y-114767149D01*
X135083894Y-114754152D01*
X135141934Y-114730111D01*
X135203944Y-114688678D01*
X135218622Y-114674000D01*
X136451717Y-114674000D01*
X136459666Y-114679311D01*
X136528566Y-114707851D01*
X136601711Y-114722400D01*
X136676289Y-114722400D01*
X136749434Y-114707851D01*
X136818334Y-114679311D01*
X136880344Y-114637878D01*
X136933078Y-114585144D01*
X136974511Y-114523134D01*
X137003051Y-114454234D01*
X137017600Y-114381089D01*
X137017600Y-114306511D01*
X137003051Y-114233366D01*
X136974511Y-114164466D01*
X136933078Y-114102456D01*
X136880344Y-114049722D01*
X136818334Y-114008289D01*
X136749434Y-113979749D01*
X136676289Y-113965200D01*
X136601711Y-113965200D01*
X136528566Y-113979749D01*
X136459666Y-114008289D01*
X136451717Y-114013600D01*
X135029612Y-114013600D01*
X135013399Y-114012003D01*
X134997186Y-114013600D01*
X134997185Y-114013600D01*
X134972816Y-114016000D01*
X134969973Y-114016000D01*
X135422200Y-113563773D01*
X135422200Y-113619089D01*
X135436749Y-113692234D01*
X135465289Y-113761134D01*
X135506722Y-113823144D01*
X135559456Y-113875878D01*
X135621466Y-113917311D01*
X135690366Y-113945851D01*
X135763511Y-113960400D01*
X135838089Y-113960400D01*
X135911234Y-113945851D01*
X135980134Y-113917311D01*
X136042144Y-113875878D01*
X136094878Y-113823144D01*
X136136311Y-113761134D01*
X136164851Y-113692234D01*
X136179400Y-113619089D01*
X136179400Y-113544511D01*
X136260400Y-113544511D01*
X136260400Y-113619089D01*
X136274949Y-113692234D01*
X136303489Y-113761134D01*
X136344922Y-113823144D01*
X136397656Y-113875878D01*
X136459666Y-113917311D01*
X136528566Y-113945851D01*
X136601711Y-113960400D01*
X136676289Y-113960400D01*
X136749434Y-113945851D01*
X136818334Y-113917311D01*
X136880344Y-113875878D01*
X136933078Y-113823144D01*
X136974511Y-113761134D01*
X137003051Y-113692234D01*
X137017600Y-113619089D01*
X137017600Y-113544511D01*
X137003051Y-113471366D01*
X136974511Y-113402466D01*
X136933078Y-113340456D01*
X136880344Y-113287722D01*
X136818334Y-113246289D01*
X136749434Y-113217749D01*
X136676289Y-113203200D01*
X136601711Y-113203200D01*
X136528566Y-113217749D01*
X136459666Y-113246289D01*
X136397656Y-113287722D01*
X136344922Y-113340456D01*
X136303489Y-113402466D01*
X136274949Y-113471366D01*
X136260400Y-113544511D01*
X136179400Y-113544511D01*
X136164851Y-113471366D01*
X136136311Y-113402466D01*
X136094878Y-113340456D01*
X136042144Y-113287722D01*
X135980134Y-113246289D01*
X135911234Y-113217749D01*
X135838089Y-113203200D01*
X135782773Y-113203200D01*
X136166173Y-112819800D01*
X138407517Y-112819800D01*
X138415466Y-112825111D01*
X138484366Y-112853651D01*
X138557511Y-112868200D01*
X138632089Y-112868200D01*
X138705234Y-112853651D01*
X138774134Y-112825111D01*
X138836144Y-112783678D01*
X138888878Y-112730944D01*
X138895329Y-112721290D01*
X138935722Y-112781744D01*
X138988456Y-112834478D01*
X139050466Y-112875911D01*
X139119366Y-112904451D01*
X139192511Y-112919000D01*
X139267089Y-112919000D01*
X139340234Y-112904451D01*
X139409134Y-112875911D01*
X139423800Y-112866112D01*
X139423800Y-115166095D01*
X139409851Y-115095966D01*
X139381311Y-115027066D01*
X139339878Y-114965056D01*
X139287144Y-114912322D01*
X139225134Y-114870889D01*
X139156234Y-114842349D01*
X139083089Y-114827800D01*
X139008511Y-114827800D01*
X138935366Y-114842349D01*
X138866466Y-114870889D01*
X138804456Y-114912322D01*
X138751722Y-114965056D01*
X138710289Y-115027066D01*
X138681749Y-115095966D01*
X138667200Y-115169111D01*
X138667200Y-115243689D01*
X138681749Y-115316834D01*
X138710289Y-115385734D01*
X138751722Y-115447744D01*
X138804456Y-115500478D01*
X138866466Y-115541911D01*
X138935366Y-115570451D01*
X139008511Y-115585000D01*
X139083089Y-115585000D01*
X139156234Y-115570451D01*
X139225134Y-115541911D01*
X139287144Y-115500478D01*
X139339878Y-115447744D01*
X139381311Y-115385734D01*
X139409851Y-115316834D01*
X139423800Y-115246705D01*
X139423800Y-116204690D01*
X139384834Y-116188549D01*
X139311689Y-116174000D01*
X139237111Y-116174000D01*
X139163966Y-116188549D01*
X139095066Y-116217089D01*
X139033056Y-116258522D01*
X138980322Y-116311256D01*
X138938889Y-116373266D01*
X138910349Y-116442166D01*
X138895800Y-116515311D01*
X138895800Y-116589889D01*
X138910349Y-116663034D01*
X138938889Y-116731934D01*
X138980322Y-116793944D01*
X139033056Y-116846678D01*
X139095066Y-116888111D01*
X139163966Y-116916651D01*
X139237111Y-116931200D01*
X139311689Y-116931200D01*
X139384834Y-116916651D01*
X139423800Y-116900510D01*
X139423800Y-121423800D01*
X130982404Y-121423800D01*
X131034434Y-121413451D01*
X131103334Y-121384911D01*
X131165344Y-121343478D01*
X131218078Y-121290744D01*
X131259511Y-121228734D01*
X131288051Y-121159834D01*
X131302600Y-121086689D01*
X131302600Y-121012111D01*
X131288051Y-120938966D01*
X131259511Y-120870066D01*
X131218078Y-120808056D01*
X131202707Y-120792685D01*
X133371374Y-120792685D01*
X133371374Y-120867263D01*
X133385923Y-120940408D01*
X133414463Y-121009308D01*
X133455896Y-121071318D01*
X133508630Y-121124052D01*
X133570640Y-121165485D01*
X133639540Y-121194025D01*
X133712685Y-121208574D01*
X133787263Y-121208574D01*
X133860408Y-121194025D01*
X133929308Y-121165485D01*
X133991318Y-121124052D01*
X134044052Y-121071318D01*
X134085485Y-121009308D01*
X134114025Y-120940408D01*
X134128574Y-120867263D01*
X134128574Y-120792735D01*
X134621400Y-120792735D01*
X134621400Y-120867313D01*
X134635949Y-120940458D01*
X134664489Y-121009358D01*
X134705922Y-121071368D01*
X134758656Y-121124102D01*
X134820666Y-121165535D01*
X134889566Y-121194075D01*
X134962711Y-121208624D01*
X135037289Y-121208624D01*
X135110434Y-121194075D01*
X135179334Y-121165535D01*
X135241344Y-121124102D01*
X135294078Y-121071368D01*
X135335511Y-121009358D01*
X135364051Y-120940458D01*
X135378600Y-120867313D01*
X135378600Y-120792735D01*
X135378595Y-120792706D01*
X135871405Y-120792706D01*
X135871405Y-120867284D01*
X135885954Y-120940429D01*
X135914494Y-121009329D01*
X135955927Y-121071339D01*
X136008661Y-121124073D01*
X136070671Y-121165506D01*
X136139571Y-121194046D01*
X136212716Y-121208595D01*
X136287294Y-121208595D01*
X136360439Y-121194046D01*
X136429339Y-121165506D01*
X136491349Y-121124073D01*
X136544083Y-121071339D01*
X136585516Y-121009329D01*
X136614056Y-120940429D01*
X136628605Y-120867284D01*
X136628605Y-120792706D01*
X136627970Y-120789511D01*
X137080000Y-120789511D01*
X137080000Y-120864089D01*
X137094549Y-120937234D01*
X137123089Y-121006134D01*
X137164522Y-121068144D01*
X137217256Y-121120878D01*
X137279266Y-121162311D01*
X137348166Y-121190851D01*
X137421311Y-121205400D01*
X137495889Y-121205400D01*
X137569034Y-121190851D01*
X137637934Y-121162311D01*
X137699944Y-121120878D01*
X137752678Y-121068144D01*
X137794111Y-121006134D01*
X137822651Y-120937234D01*
X137837200Y-120864089D01*
X137837200Y-120792727D01*
X138371384Y-120792727D01*
X138371384Y-120867305D01*
X138385933Y-120940450D01*
X138414473Y-121009350D01*
X138455906Y-121071360D01*
X138508640Y-121124094D01*
X138570650Y-121165527D01*
X138639550Y-121194067D01*
X138712695Y-121208616D01*
X138787273Y-121208616D01*
X138860418Y-121194067D01*
X138929318Y-121165527D01*
X138991328Y-121124094D01*
X139044062Y-121071360D01*
X139085495Y-121009350D01*
X139114035Y-120940450D01*
X139128584Y-120867305D01*
X139128584Y-120792727D01*
X139114035Y-120719582D01*
X139085495Y-120650682D01*
X139044062Y-120588672D01*
X138991328Y-120535938D01*
X138929318Y-120494505D01*
X138860418Y-120465965D01*
X138787273Y-120451416D01*
X138712695Y-120451416D01*
X138639550Y-120465965D01*
X138570650Y-120494505D01*
X138508640Y-120535938D01*
X138455906Y-120588672D01*
X138414473Y-120650682D01*
X138385933Y-120719582D01*
X138371384Y-120792727D01*
X137837200Y-120792727D01*
X137837200Y-120789511D01*
X137822651Y-120716366D01*
X137794111Y-120647466D01*
X137752678Y-120585456D01*
X137699944Y-120532722D01*
X137637934Y-120491289D01*
X137569034Y-120462749D01*
X137495889Y-120448200D01*
X137421311Y-120448200D01*
X137348166Y-120462749D01*
X137279266Y-120491289D01*
X137217256Y-120532722D01*
X137164522Y-120585456D01*
X137123089Y-120647466D01*
X137094549Y-120716366D01*
X137080000Y-120789511D01*
X136627970Y-120789511D01*
X136614056Y-120719561D01*
X136585516Y-120650661D01*
X136544083Y-120588651D01*
X136491349Y-120535917D01*
X136429339Y-120494484D01*
X136360439Y-120465944D01*
X136287294Y-120451395D01*
X136212716Y-120451395D01*
X136139571Y-120465944D01*
X136070671Y-120494484D01*
X136008661Y-120535917D01*
X135955927Y-120588651D01*
X135914494Y-120650661D01*
X135885954Y-120719561D01*
X135871405Y-120792706D01*
X135378595Y-120792706D01*
X135364051Y-120719590D01*
X135335511Y-120650690D01*
X135294078Y-120588680D01*
X135241344Y-120535946D01*
X135179334Y-120494513D01*
X135110434Y-120465973D01*
X135037289Y-120451424D01*
X134962711Y-120451424D01*
X134889566Y-120465973D01*
X134820666Y-120494513D01*
X134758656Y-120535946D01*
X134705922Y-120588680D01*
X134664489Y-120650690D01*
X134635949Y-120719590D01*
X134621400Y-120792735D01*
X134128574Y-120792735D01*
X134128574Y-120792685D01*
X134114025Y-120719540D01*
X134085485Y-120650640D01*
X134044052Y-120588630D01*
X133991318Y-120535896D01*
X133929308Y-120494463D01*
X133860408Y-120465923D01*
X133787263Y-120451374D01*
X133712685Y-120451374D01*
X133639540Y-120465923D01*
X133570640Y-120494463D01*
X133508630Y-120535896D01*
X133455896Y-120588630D01*
X133414463Y-120650640D01*
X133385923Y-120719540D01*
X133371374Y-120792685D01*
X131202707Y-120792685D01*
X131165344Y-120755322D01*
X131103334Y-120713889D01*
X131034434Y-120685349D01*
X130961289Y-120670800D01*
X130886711Y-120670800D01*
X130813566Y-120685349D01*
X130744666Y-120713889D01*
X130682656Y-120755322D01*
X130629922Y-120808056D01*
X130588489Y-120870066D01*
X130576200Y-120899734D01*
X130576200Y-118293313D01*
X130615400Y-118293313D01*
X130615400Y-118367891D01*
X130629949Y-118441036D01*
X130658489Y-118509936D01*
X130699922Y-118571946D01*
X130752656Y-118624680D01*
X130814666Y-118666113D01*
X130883566Y-118694653D01*
X130956711Y-118709202D01*
X131031289Y-118709202D01*
X131104434Y-118694653D01*
X131173334Y-118666113D01*
X131235344Y-118624680D01*
X131288078Y-118571946D01*
X131329511Y-118509936D01*
X131358051Y-118441036D01*
X131372600Y-118367891D01*
X131372600Y-118345111D01*
X131459800Y-118345111D01*
X131459800Y-118419689D01*
X131474349Y-118492834D01*
X131502889Y-118561734D01*
X131544322Y-118623744D01*
X131597056Y-118676478D01*
X131659066Y-118717911D01*
X131727966Y-118746451D01*
X131801111Y-118761000D01*
X131875689Y-118761000D01*
X131948834Y-118746451D01*
X132017734Y-118717911D01*
X132079744Y-118676478D01*
X132132478Y-118623744D01*
X132173911Y-118561734D01*
X132202451Y-118492834D01*
X132217000Y-118419689D01*
X132217000Y-118345111D01*
X132211948Y-118319711D01*
X133009200Y-118319711D01*
X133009200Y-118394289D01*
X133023749Y-118467434D01*
X133052289Y-118536334D01*
X133093722Y-118598344D01*
X133146456Y-118651078D01*
X133208466Y-118692511D01*
X133277366Y-118721051D01*
X133350511Y-118735600D01*
X133425089Y-118735600D01*
X133498234Y-118721051D01*
X133567134Y-118692511D01*
X133629144Y-118651078D01*
X133681878Y-118598344D01*
X133723311Y-118536334D01*
X133751851Y-118467434D01*
X133766400Y-118394289D01*
X133766400Y-118319711D01*
X134609400Y-118319711D01*
X134609400Y-118394289D01*
X134623949Y-118467434D01*
X134652489Y-118536334D01*
X134693922Y-118598344D01*
X134746656Y-118651078D01*
X134808666Y-118692511D01*
X134877566Y-118721051D01*
X134950711Y-118735600D01*
X135025289Y-118735600D01*
X135098434Y-118721051D01*
X135167334Y-118692511D01*
X135229344Y-118651078D01*
X135282078Y-118598344D01*
X135323511Y-118536334D01*
X135352051Y-118467434D01*
X135366600Y-118394289D01*
X135366600Y-118319711D01*
X135352051Y-118246566D01*
X135323511Y-118177666D01*
X135282078Y-118115656D01*
X135229344Y-118062922D01*
X135167334Y-118021489D01*
X135098434Y-117992949D01*
X135025289Y-117978400D01*
X134950711Y-117978400D01*
X134877566Y-117992949D01*
X134808666Y-118021489D01*
X134746656Y-118062922D01*
X134693922Y-118115656D01*
X134652489Y-118177666D01*
X134623949Y-118246566D01*
X134609400Y-118319711D01*
X133766400Y-118319711D01*
X133751851Y-118246566D01*
X133723311Y-118177666D01*
X133681878Y-118115656D01*
X133629144Y-118062922D01*
X133567134Y-118021489D01*
X133498234Y-117992949D01*
X133425089Y-117978400D01*
X133350511Y-117978400D01*
X133277366Y-117992949D01*
X133208466Y-118021489D01*
X133146456Y-118062922D01*
X133093722Y-118115656D01*
X133052289Y-118177666D01*
X133023749Y-118246566D01*
X133009200Y-118319711D01*
X132211948Y-118319711D01*
X132202451Y-118271966D01*
X132173911Y-118203066D01*
X132132478Y-118141056D01*
X132079744Y-118088322D01*
X132017734Y-118046889D01*
X131948834Y-118018349D01*
X131875689Y-118003800D01*
X131801111Y-118003800D01*
X131727966Y-118018349D01*
X131659066Y-118046889D01*
X131597056Y-118088322D01*
X131544322Y-118141056D01*
X131502889Y-118203066D01*
X131474349Y-118271966D01*
X131459800Y-118345111D01*
X131372600Y-118345111D01*
X131372600Y-118293313D01*
X131358051Y-118220168D01*
X131329511Y-118151268D01*
X131288078Y-118089258D01*
X131235344Y-118036524D01*
X131173334Y-117995091D01*
X131104434Y-117966551D01*
X131031289Y-117952002D01*
X130956711Y-117952002D01*
X130883566Y-117966551D01*
X130814666Y-117995091D01*
X130752656Y-118036524D01*
X130699922Y-118089258D01*
X130658489Y-118151268D01*
X130629949Y-118220168D01*
X130615400Y-118293313D01*
X130576200Y-118293313D01*
X130576200Y-116390822D01*
X130600256Y-116414878D01*
X130662266Y-116456311D01*
X130731166Y-116484851D01*
X130772171Y-116493007D01*
X130750722Y-116514456D01*
X130709289Y-116576466D01*
X130680749Y-116645366D01*
X130666200Y-116718511D01*
X130666200Y-116793089D01*
X130680749Y-116866234D01*
X130709289Y-116935134D01*
X130750722Y-116997144D01*
X130803456Y-117049878D01*
X130865466Y-117091311D01*
X130934366Y-117119851D01*
X131007511Y-117134400D01*
X131082089Y-117134400D01*
X131155234Y-117119851D01*
X131224134Y-117091311D01*
X131286144Y-117049878D01*
X131338878Y-116997144D01*
X131380311Y-116935134D01*
X131408851Y-116866234D01*
X131423400Y-116793089D01*
X131423400Y-116719511D01*
X136235000Y-116719511D01*
X136235000Y-116794089D01*
X136249549Y-116867234D01*
X136278089Y-116936134D01*
X136319522Y-116998144D01*
X136372256Y-117050878D01*
X136434266Y-117092311D01*
X136503166Y-117120851D01*
X136576311Y-117135400D01*
X136650889Y-117135400D01*
X136724034Y-117120851D01*
X136792934Y-117092311D01*
X136854944Y-117050878D01*
X136907678Y-116998144D01*
X136949111Y-116936134D01*
X136977651Y-116867234D01*
X136992200Y-116794089D01*
X136992200Y-116719511D01*
X136977651Y-116646366D01*
X136949111Y-116577466D01*
X136907678Y-116515456D01*
X136854944Y-116462722D01*
X136792934Y-116421289D01*
X136724034Y-116392749D01*
X136650889Y-116378200D01*
X136576311Y-116378200D01*
X136503166Y-116392749D01*
X136434266Y-116421289D01*
X136372256Y-116462722D01*
X136319522Y-116515456D01*
X136278089Y-116577466D01*
X136249549Y-116646366D01*
X136235000Y-116719511D01*
X131423400Y-116719511D01*
X131423400Y-116718511D01*
X131408851Y-116645366D01*
X131380311Y-116576466D01*
X131338878Y-116514456D01*
X131286144Y-116461722D01*
X131224134Y-116420289D01*
X131155234Y-116391749D01*
X131114229Y-116383593D01*
X131135678Y-116362144D01*
X131177111Y-116300134D01*
X131205651Y-116231234D01*
X131220200Y-116158089D01*
X131220200Y-116083511D01*
X131205651Y-116010366D01*
X131177111Y-115941466D01*
X131153889Y-115906711D01*
X131434400Y-115906711D01*
X131434400Y-115981289D01*
X131448949Y-116054434D01*
X131477489Y-116123334D01*
X131518922Y-116185344D01*
X131571656Y-116238078D01*
X131633666Y-116279511D01*
X131702566Y-116308051D01*
X131775711Y-116322600D01*
X131850289Y-116322600D01*
X131923434Y-116308051D01*
X131992334Y-116279511D01*
X132054344Y-116238078D01*
X132107078Y-116185344D01*
X132148511Y-116123334D01*
X132177051Y-116054434D01*
X132191600Y-115981289D01*
X132191600Y-115932111D01*
X133822000Y-115932111D01*
X133822000Y-116006689D01*
X133836549Y-116079834D01*
X133865089Y-116148734D01*
X133906522Y-116210744D01*
X133959256Y-116263478D01*
X134021266Y-116304911D01*
X134090166Y-116333451D01*
X134163311Y-116348000D01*
X134237889Y-116348000D01*
X134311034Y-116333451D01*
X134379934Y-116304911D01*
X134441944Y-116263478D01*
X134494678Y-116210744D01*
X134536111Y-116148734D01*
X134564651Y-116079834D01*
X134579200Y-116006689D01*
X134579200Y-115932111D01*
X134564651Y-115858966D01*
X134536111Y-115790066D01*
X134494678Y-115728056D01*
X134441944Y-115675322D01*
X134379934Y-115633889D01*
X134311034Y-115605349D01*
X134237889Y-115590800D01*
X134163311Y-115590800D01*
X134090166Y-115605349D01*
X134021266Y-115633889D01*
X133959256Y-115675322D01*
X133906522Y-115728056D01*
X133865089Y-115790066D01*
X133836549Y-115858966D01*
X133822000Y-115932111D01*
X132191600Y-115932111D01*
X132191600Y-115906711D01*
X132177051Y-115833566D01*
X132148511Y-115764666D01*
X132107078Y-115702656D01*
X132054344Y-115649922D01*
X131992334Y-115608489D01*
X131923434Y-115579949D01*
X131850289Y-115565400D01*
X131775711Y-115565400D01*
X131702566Y-115579949D01*
X131633666Y-115608489D01*
X131571656Y-115649922D01*
X131518922Y-115702656D01*
X131477489Y-115764666D01*
X131448949Y-115833566D01*
X131434400Y-115906711D01*
X131153889Y-115906711D01*
X131135678Y-115879456D01*
X131082944Y-115826722D01*
X131020934Y-115785289D01*
X130952034Y-115756749D01*
X130878889Y-115742200D01*
X130804311Y-115742200D01*
X130731166Y-115756749D01*
X130662266Y-115785289D01*
X130600256Y-115826722D01*
X130576200Y-115850778D01*
X130576200Y-112326200D01*
X131618778Y-112326200D01*
X131569722Y-112375256D01*
M02*
