M48
;DRILL file {KiCad (5.0.1)-3} date 1/5/2019 6:42:15 PM
;FORMAT={-:-/ absolute / inch / decimal}
FMAT,2
INCH,TZ
T1C0.0079
T2C0.0394
T3C0.1181
%
G90
G05
M72
T1
X5.1255Y-3.8475
X5.128Y-4.387
X5.129Y-4.181
X5.167Y-4.31
X5.168Y-3.748
X5.168Y-3.986
X5.168Y-4.099
X5.25Y-3.528
X5.268Y-3.59
X5.2734Y-3.8386
X5.283Y-3.879
X5.2851Y-3.53
X5.346Y-4.592
X5.39Y-3.589
X5.4156Y-3.697
X5.416Y-4.426
X5.435Y-3.3744
X5.47Y-4.594
X5.488Y-4.54
X5.514Y-3.589
X5.602Y-3.022
X5.6185Y-2.8835
X5.621Y-3.526
X5.632Y-3.697
X5.656Y-3.528
X5.6667Y-2.88
X5.6835Y-3.038
X5.688Y-3.588
X5.694Y-2.86
X5.719Y-2.88
X5.743Y-4.543
X5.755Y-3.0131
X5.7883Y-3.9226
X5.799Y-4.595
X5.805Y-3.588
X5.8093Y-4.4353
X5.8401Y-3.5259
X5.869Y-4.435
X5.8751Y-3.5279
X5.921Y-3.704
X5.928Y-3.587
X5.962Y-3.695
X5.966Y-4.434
X5.977Y-4.369
X6.052Y-4.538
X6.0581Y-3.528
X6.093Y-3.527
X6.1021Y-4.7
X6.13Y-4.183
X6.152Y-3.922
X6.1525Y-3.7605
X6.155Y-3.7255
X6.155Y-4.454
X6.1555Y-3.8755
X6.1575Y-3.8355
X6.1615Y-4.3235
X6.162Y-3.8
X6.1634Y-4.2906
X6.18Y-4.491
X6.192Y-4.095
X6.335Y-3.88
X6.335Y-4.28
X6.354Y-4.078
T2
X5.3785Y-3.4944
X6.283Y-3.574
X5.7465Y-3.4973
X6.285Y-3.98
X6.286Y-4.177
X5.9654Y-3.495
X5.5282Y-3.4939
X5.5Y-2.92
X5.477Y-4.888
X5.577Y-4.888
X5.677Y-4.888
X5.777Y-4.888
X5.877Y-4.888
X4.7736Y-3.9429
X4.7736Y-4.0429
X4.7736Y-4.1429
X4.7736Y-4.2429
X6.282Y-3.781
X6.279Y-4.381
T3
X6.3789Y-4.8281
X4.9222Y-4.8281
X4.9222Y-2.9777
X6.3789Y-2.9777
T0
M30
