G04 #@! TF.GenerationSoftware,KiCad,Pcbnew,(5.0.1)-3*
G04 #@! TF.CreationDate,2019-01-05T18:42:13-08:00*
G04 #@! TF.ProjectId,EScope-MSDAQ-2-INTANDAQ,4553636F70652D4D534441512D322D49,rev?*
G04 #@! TF.SameCoordinates,Original*
G04 #@! TF.FileFunction,Legend,Top*
G04 #@! TF.FilePolarity,Positive*
%FSLAX46Y46*%
G04 Gerber Fmt 4.6, Leading zero omitted, Abs format (unit mm)*
G04 Created by KiCad (PCBNEW (5.0.1)-3) date 1/5/2019 6:42:13 PM*
%MOMM*%
%LPD*%
G01*
G04 APERTURE LIST*
%ADD10C,0.300000*%
%ADD11C,0.120000*%
%ADD12C,0.150000*%
%ADD13C,0.100000*%
%ADD14C,0.050000*%
%ADD15C,0.200000*%
G04 APERTURE END LIST*
D10*
X162585542Y-89902600D02*
X162442685Y-89831171D01*
X162228400Y-89831171D01*
X162014114Y-89902600D01*
X161871257Y-90045457D01*
X161799828Y-90188314D01*
X161728400Y-90474028D01*
X161728400Y-90688314D01*
X161799828Y-90974028D01*
X161871257Y-91116885D01*
X162014114Y-91259742D01*
X162228400Y-91331171D01*
X162371257Y-91331171D01*
X162585542Y-91259742D01*
X162656971Y-91188314D01*
X162656971Y-90688314D01*
X162371257Y-90688314D01*
X163299828Y-91331171D02*
X163299828Y-89831171D01*
X164156971Y-91331171D01*
X164156971Y-89831171D01*
X164871257Y-91331171D02*
X164871257Y-89831171D01*
X165228400Y-89831171D01*
X165442685Y-89902600D01*
X165585542Y-90045457D01*
X165656971Y-90188314D01*
X165728400Y-90474028D01*
X165728400Y-90688314D01*
X165656971Y-90974028D01*
X165585542Y-91116885D01*
X165442685Y-91259742D01*
X165228400Y-91331171D01*
X164871257Y-91331171D01*
X150565028Y-77187457D02*
X150565028Y-77987457D01*
X150565028Y-77301742D02*
X150622171Y-77244600D01*
X150736457Y-77187457D01*
X150907885Y-77187457D01*
X151022171Y-77244600D01*
X151079314Y-77358885D01*
X151079314Y-77987457D01*
X152336457Y-77873171D02*
X152279314Y-77930314D01*
X152107885Y-77987457D01*
X151993600Y-77987457D01*
X151822171Y-77930314D01*
X151707885Y-77816028D01*
X151650742Y-77701742D01*
X151593600Y-77473171D01*
X151593600Y-77301742D01*
X151650742Y-77073171D01*
X151707885Y-76958885D01*
X151822171Y-76844600D01*
X151993600Y-76787457D01*
X152107885Y-76787457D01*
X152279314Y-76844600D01*
X152336457Y-76901742D01*
X152793600Y-77930314D02*
X152965028Y-77987457D01*
X153250742Y-77987457D01*
X153365028Y-77930314D01*
X153422171Y-77873171D01*
X153479314Y-77758885D01*
X153479314Y-77644600D01*
X153422171Y-77530314D01*
X153365028Y-77473171D01*
X153250742Y-77416028D01*
X153022171Y-77358885D01*
X152907885Y-77301742D01*
X152850742Y-77244600D01*
X152793600Y-77130314D01*
X152793600Y-77016028D01*
X152850742Y-76901742D01*
X152907885Y-76844600D01*
X153022171Y-76787457D01*
X153307885Y-76787457D01*
X153479314Y-76844600D01*
X144326228Y-77930314D02*
X144497657Y-77987457D01*
X144783371Y-77987457D01*
X144897657Y-77930314D01*
X144954800Y-77873171D01*
X145011942Y-77758885D01*
X145011942Y-77644600D01*
X144954800Y-77530314D01*
X144897657Y-77473171D01*
X144783371Y-77416028D01*
X144554800Y-77358885D01*
X144440514Y-77301742D01*
X144383371Y-77244600D01*
X144326228Y-77130314D01*
X144326228Y-77016028D01*
X144383371Y-76901742D01*
X144440514Y-76844600D01*
X144554800Y-76787457D01*
X144840514Y-76787457D01*
X145011942Y-76844600D01*
X146211942Y-77873171D02*
X146154800Y-77930314D01*
X145983371Y-77987457D01*
X145869085Y-77987457D01*
X145697657Y-77930314D01*
X145583371Y-77816028D01*
X145526228Y-77701742D01*
X145469085Y-77473171D01*
X145469085Y-77301742D01*
X145526228Y-77073171D01*
X145583371Y-76958885D01*
X145697657Y-76844600D01*
X145869085Y-76787457D01*
X145983371Y-76787457D01*
X146154800Y-76844600D01*
X146211942Y-76901742D01*
X147297657Y-77987457D02*
X146726228Y-77987457D01*
X146726228Y-76787457D01*
X147697657Y-77987457D02*
X147697657Y-76787457D01*
X148383371Y-77987457D02*
X147869085Y-77301742D01*
X148383371Y-76787457D02*
X147697657Y-77473171D01*
X139135085Y-77987457D02*
X139135085Y-76787457D01*
X139535085Y-77644600D01*
X139935085Y-76787457D01*
X139935085Y-77987457D01*
X140735085Y-76787457D02*
X140963657Y-76787457D01*
X141077942Y-76844600D01*
X141192228Y-76958885D01*
X141249371Y-77187457D01*
X141249371Y-77587457D01*
X141192228Y-77816028D01*
X141077942Y-77930314D01*
X140963657Y-77987457D01*
X140735085Y-77987457D01*
X140620800Y-77930314D01*
X140506514Y-77816028D01*
X140449371Y-77587457D01*
X140449371Y-77187457D01*
X140506514Y-76958885D01*
X140620800Y-76844600D01*
X140735085Y-76787457D01*
X141706514Y-77930314D02*
X141877942Y-77987457D01*
X142163657Y-77987457D01*
X142277942Y-77930314D01*
X142335085Y-77873171D01*
X142392228Y-77758885D01*
X142392228Y-77644600D01*
X142335085Y-77530314D01*
X142277942Y-77473171D01*
X142163657Y-77416028D01*
X141935085Y-77358885D01*
X141820800Y-77301742D01*
X141763657Y-77244600D01*
X141706514Y-77130314D01*
X141706514Y-77016028D01*
X141763657Y-76901742D01*
X141820800Y-76844600D01*
X141935085Y-76787457D01*
X142220800Y-76787457D01*
X142392228Y-76844600D01*
X142906514Y-77987457D02*
X142906514Y-76787457D01*
X133674085Y-77987457D02*
X133674085Y-76787457D01*
X134074085Y-77644600D01*
X134474085Y-76787457D01*
X134474085Y-77987457D01*
X135045514Y-77987457D02*
X135045514Y-76787457D01*
X135559800Y-77930314D02*
X135731228Y-77987457D01*
X136016942Y-77987457D01*
X136131228Y-77930314D01*
X136188371Y-77873171D01*
X136245514Y-77758885D01*
X136245514Y-77644600D01*
X136188371Y-77530314D01*
X136131228Y-77473171D01*
X136016942Y-77416028D01*
X135788371Y-77358885D01*
X135674085Y-77301742D01*
X135616942Y-77244600D01*
X135559800Y-77130314D01*
X135559800Y-77016028D01*
X135616942Y-76901742D01*
X135674085Y-76844600D01*
X135788371Y-76787457D01*
X136074085Y-76787457D01*
X136245514Y-76844600D01*
X136988371Y-76787457D02*
X137216942Y-76787457D01*
X137331228Y-76844600D01*
X137445514Y-76958885D01*
X137502657Y-77187457D01*
X137502657Y-77587457D01*
X137445514Y-77816028D01*
X137331228Y-77930314D01*
X137216942Y-77987457D01*
X136988371Y-77987457D01*
X136874085Y-77930314D01*
X136759800Y-77816028D01*
X136702657Y-77587457D01*
X136702657Y-77187457D01*
X136759800Y-76958885D01*
X136874085Y-76844600D01*
X136988371Y-76787457D01*
X138274371Y-122120314D02*
X138274371Y-121191742D01*
X138845800Y-121691742D01*
X138845800Y-121477457D01*
X138917228Y-121334600D01*
X138988657Y-121263171D01*
X139131514Y-121191742D01*
X139488657Y-121191742D01*
X139631514Y-121263171D01*
X139702942Y-121334600D01*
X139774371Y-121477457D01*
X139774371Y-121906028D01*
X139702942Y-122048885D01*
X139631514Y-122120314D01*
X139631514Y-120548885D02*
X139702942Y-120477457D01*
X139774371Y-120548885D01*
X139702942Y-120620314D01*
X139631514Y-120548885D01*
X139774371Y-120548885D01*
X138274371Y-119977457D02*
X138274371Y-119048885D01*
X138845800Y-119548885D01*
X138845800Y-119334600D01*
X138917228Y-119191742D01*
X138988657Y-119120314D01*
X139131514Y-119048885D01*
X139488657Y-119048885D01*
X139631514Y-119120314D01*
X139702942Y-119191742D01*
X139774371Y-119334600D01*
X139774371Y-119763171D01*
X139702942Y-119906028D01*
X139631514Y-119977457D01*
X138274371Y-118620314D02*
X139774371Y-118120314D01*
X138274371Y-117620314D01*
X142324371Y-121120314D02*
X141610085Y-121620314D01*
X142324371Y-121977457D02*
X140824371Y-121977457D01*
X140824371Y-121406028D01*
X140895800Y-121263171D01*
X140967228Y-121191742D01*
X141110085Y-121120314D01*
X141324371Y-121120314D01*
X141467228Y-121191742D01*
X141538657Y-121263171D01*
X141610085Y-121406028D01*
X141610085Y-121977457D01*
X142324371Y-120477457D02*
X140824371Y-120477457D01*
X142324371Y-119620314D02*
X141467228Y-120263171D01*
X140824371Y-119620314D02*
X141681514Y-120477457D01*
X144874371Y-121120314D02*
X144160085Y-121620314D01*
X144874371Y-121977457D02*
X143374371Y-121977457D01*
X143374371Y-121406028D01*
X143445800Y-121263171D01*
X143517228Y-121191742D01*
X143660085Y-121120314D01*
X143874371Y-121120314D01*
X144017228Y-121191742D01*
X144088657Y-121263171D01*
X144160085Y-121406028D01*
X144160085Y-121977457D01*
X144874371Y-120477457D02*
X143374371Y-120477457D01*
X143374371Y-120120314D01*
X143445800Y-119906028D01*
X143588657Y-119763171D01*
X143731514Y-119691742D01*
X144017228Y-119620314D01*
X144231514Y-119620314D01*
X144517228Y-119691742D01*
X144660085Y-119763171D01*
X144802942Y-119906028D01*
X144874371Y-120120314D01*
X144874371Y-120477457D01*
X147424371Y-121120314D02*
X146710085Y-121620314D01*
X147424371Y-121977457D02*
X145924371Y-121977457D01*
X145924371Y-121406028D01*
X145995800Y-121263171D01*
X146067228Y-121191742D01*
X146210085Y-121120314D01*
X146424371Y-121120314D01*
X146567228Y-121191742D01*
X146638657Y-121263171D01*
X146710085Y-121406028D01*
X146710085Y-121977457D01*
X146638657Y-119977457D02*
X146638657Y-120477457D01*
X147424371Y-120477457D02*
X145924371Y-120477457D01*
X145924371Y-119763171D01*
X148545800Y-121191742D02*
X148474371Y-121334600D01*
X148474371Y-121548885D01*
X148545800Y-121763171D01*
X148688657Y-121906028D01*
X148831514Y-121977457D01*
X149117228Y-122048885D01*
X149331514Y-122048885D01*
X149617228Y-121977457D01*
X149760085Y-121906028D01*
X149902942Y-121763171D01*
X149974371Y-121548885D01*
X149974371Y-121406028D01*
X149902942Y-121191742D01*
X149831514Y-121120314D01*
X149331514Y-121120314D01*
X149331514Y-121406028D01*
X149974371Y-120477457D02*
X148474371Y-120477457D01*
X149974371Y-119620314D01*
X148474371Y-119620314D01*
X149974371Y-118906028D02*
X148474371Y-118906028D01*
X148474371Y-118548885D01*
X148545800Y-118334600D01*
X148688657Y-118191742D01*
X148831514Y-118120314D01*
X149117228Y-118048885D01*
X149331514Y-118048885D01*
X149617228Y-118120314D01*
X149760085Y-118191742D01*
X149902942Y-118334600D01*
X149974371Y-118548885D01*
X149974371Y-118906028D01*
X139899771Y-127907171D02*
X139899771Y-126407171D01*
X140399771Y-127478600D01*
X140899771Y-126407171D01*
X140899771Y-127907171D01*
X141542628Y-127835742D02*
X141756914Y-127907171D01*
X142114057Y-127907171D01*
X142256914Y-127835742D01*
X142328342Y-127764314D01*
X142399771Y-127621457D01*
X142399771Y-127478600D01*
X142328342Y-127335742D01*
X142256914Y-127264314D01*
X142114057Y-127192885D01*
X141828342Y-127121457D01*
X141685485Y-127050028D01*
X141614057Y-126978600D01*
X141542628Y-126835742D01*
X141542628Y-126692885D01*
X141614057Y-126550028D01*
X141685485Y-126478600D01*
X141828342Y-126407171D01*
X142185485Y-126407171D01*
X142399771Y-126478600D01*
X143042628Y-127335742D02*
X144185485Y-127335742D01*
X144899771Y-127907171D02*
X144899771Y-126407171D01*
X145256914Y-126407171D01*
X145471200Y-126478600D01*
X145614057Y-126621457D01*
X145685485Y-126764314D01*
X145756914Y-127050028D01*
X145756914Y-127264314D01*
X145685485Y-127550028D01*
X145614057Y-127692885D01*
X145471200Y-127835742D01*
X145256914Y-127907171D01*
X144899771Y-127907171D01*
X146328342Y-127478600D02*
X147042628Y-127478600D01*
X146185485Y-127907171D02*
X146685485Y-126407171D01*
X147185485Y-127907171D01*
X148685485Y-128050028D02*
X148542628Y-127978600D01*
X148399771Y-127835742D01*
X148185485Y-127621457D01*
X148042628Y-127550028D01*
X147899771Y-127550028D01*
X147971200Y-127907171D02*
X147828342Y-127835742D01*
X147685485Y-127692885D01*
X147614057Y-127407171D01*
X147614057Y-126907171D01*
X147685485Y-126621457D01*
X147828342Y-126478600D01*
X147971200Y-126407171D01*
X148256914Y-126407171D01*
X148399771Y-126478600D01*
X148542628Y-126621457D01*
X148614057Y-126907171D01*
X148614057Y-127407171D01*
X148542628Y-127692885D01*
X148399771Y-127835742D01*
X148256914Y-127907171D01*
X147971200Y-127907171D01*
X119579485Y-94683742D02*
X119793771Y-94755171D01*
X120150914Y-94755171D01*
X120293771Y-94683742D01*
X120365200Y-94612314D01*
X120436628Y-94469457D01*
X120436628Y-94326600D01*
X120365200Y-94183742D01*
X120293771Y-94112314D01*
X120150914Y-94040885D01*
X119865200Y-93969457D01*
X119722342Y-93898028D01*
X119650914Y-93826600D01*
X119579485Y-93683742D01*
X119579485Y-93540885D01*
X119650914Y-93398028D01*
X119722342Y-93326600D01*
X119865200Y-93255171D01*
X120222342Y-93255171D01*
X120436628Y-93326600D01*
X120936628Y-93255171D02*
X121293771Y-94755171D01*
X121579485Y-93683742D01*
X121865200Y-94755171D01*
X122222342Y-93255171D01*
X122793771Y-94755171D02*
X122793771Y-93255171D01*
X123150914Y-93255171D01*
X123365200Y-93326600D01*
X123508057Y-93469457D01*
X123579485Y-93612314D01*
X123650914Y-93898028D01*
X123650914Y-94112314D01*
X123579485Y-94398028D01*
X123508057Y-94540885D01*
X123365200Y-94683742D01*
X123150914Y-94755171D01*
X122793771Y-94755171D01*
X118936628Y-97305171D02*
X118936628Y-95805171D01*
X119508057Y-95805171D01*
X119650914Y-95876600D01*
X119722342Y-95948028D01*
X119793771Y-96090885D01*
X119793771Y-96305171D01*
X119722342Y-96448028D01*
X119650914Y-96519457D01*
X119508057Y-96590885D01*
X118936628Y-96590885D01*
X121293771Y-97305171D02*
X120793771Y-96590885D01*
X120436628Y-97305171D02*
X120436628Y-95805171D01*
X121008057Y-95805171D01*
X121150914Y-95876600D01*
X121222342Y-95948028D01*
X121293771Y-96090885D01*
X121293771Y-96305171D01*
X121222342Y-96448028D01*
X121150914Y-96519457D01*
X121008057Y-96590885D01*
X120436628Y-96590885D01*
X122222342Y-95805171D02*
X122508057Y-95805171D01*
X122650914Y-95876600D01*
X122793771Y-96019457D01*
X122865200Y-96305171D01*
X122865200Y-96805171D01*
X122793771Y-97090885D01*
X122650914Y-97233742D01*
X122508057Y-97305171D01*
X122222342Y-97305171D01*
X122079485Y-97233742D01*
X121936628Y-97090885D01*
X121865200Y-96805171D01*
X121865200Y-96305171D01*
X121936628Y-96019457D01*
X122079485Y-95876600D01*
X122222342Y-95805171D01*
X124293771Y-95876600D02*
X124150914Y-95805171D01*
X123936628Y-95805171D01*
X123722342Y-95876600D01*
X123579485Y-96019457D01*
X123508057Y-96162314D01*
X123436628Y-96448028D01*
X123436628Y-96662314D01*
X123508057Y-96948028D01*
X123579485Y-97090885D01*
X123722342Y-97233742D01*
X123936628Y-97305171D01*
X124079485Y-97305171D01*
X124293771Y-97233742D01*
X124365200Y-97162314D01*
X124365200Y-96662314D01*
X124079485Y-96662314D01*
X123451657Y-99290371D02*
X123951657Y-100790371D01*
X124451657Y-99290371D01*
X124737371Y-99290371D02*
X125594514Y-99290371D01*
X125165942Y-100790371D02*
X125165942Y-99290371D01*
X126880228Y-99361800D02*
X126737371Y-99290371D01*
X126523085Y-99290371D01*
X126308800Y-99361800D01*
X126165942Y-99504657D01*
X126094514Y-99647514D01*
X126023085Y-99933228D01*
X126023085Y-100147514D01*
X126094514Y-100433228D01*
X126165942Y-100576085D01*
X126308800Y-100718942D01*
X126523085Y-100790371D01*
X126665942Y-100790371D01*
X126880228Y-100718942D01*
X126951657Y-100647514D01*
X126951657Y-100147514D01*
X126665942Y-100147514D01*
X123594514Y-103268942D02*
X123808800Y-103340371D01*
X124165942Y-103340371D01*
X124308800Y-103268942D01*
X124380228Y-103197514D01*
X124451657Y-103054657D01*
X124451657Y-102911800D01*
X124380228Y-102768942D01*
X124308800Y-102697514D01*
X124165942Y-102626085D01*
X123880228Y-102554657D01*
X123737371Y-102483228D01*
X123665942Y-102411800D01*
X123594514Y-102268942D01*
X123594514Y-102126085D01*
X123665942Y-101983228D01*
X123737371Y-101911800D01*
X123880228Y-101840371D01*
X124237371Y-101840371D01*
X124451657Y-101911800D01*
X124951657Y-101840371D02*
X125308800Y-103340371D01*
X125594514Y-102268942D01*
X125880228Y-103340371D01*
X126237371Y-101840371D01*
X126808800Y-103340371D02*
X126808800Y-101840371D01*
X127165942Y-101840371D01*
X127380228Y-101911800D01*
X127523085Y-102054657D01*
X127594514Y-102197514D01*
X127665942Y-102483228D01*
X127665942Y-102697514D01*
X127594514Y-102983228D01*
X127523085Y-103126085D01*
X127380228Y-103268942D01*
X127165942Y-103340371D01*
X126808800Y-103340371D01*
X128308800Y-103340371D02*
X128308800Y-101840371D01*
X129308800Y-101840371D02*
X129594514Y-101840371D01*
X129737371Y-101911800D01*
X129880228Y-102054657D01*
X129951657Y-102340371D01*
X129951657Y-102840371D01*
X129880228Y-103126085D01*
X129737371Y-103268942D01*
X129594514Y-103340371D01*
X129308800Y-103340371D01*
X129165942Y-103268942D01*
X129023085Y-103126085D01*
X128951657Y-102840371D01*
X128951657Y-102340371D01*
X129023085Y-102054657D01*
X129165942Y-101911800D01*
X129308800Y-101840371D01*
X123594514Y-105818942D02*
X123808800Y-105890371D01*
X124165942Y-105890371D01*
X124308800Y-105818942D01*
X124380228Y-105747514D01*
X124451657Y-105604657D01*
X124451657Y-105461800D01*
X124380228Y-105318942D01*
X124308800Y-105247514D01*
X124165942Y-105176085D01*
X123880228Y-105104657D01*
X123737371Y-105033228D01*
X123665942Y-104961800D01*
X123594514Y-104818942D01*
X123594514Y-104676085D01*
X123665942Y-104533228D01*
X123737371Y-104461800D01*
X123880228Y-104390371D01*
X124237371Y-104390371D01*
X124451657Y-104461800D01*
X124951657Y-104390371D02*
X125308800Y-105890371D01*
X125594514Y-104818942D01*
X125880228Y-105890371D01*
X126237371Y-104390371D01*
X127665942Y-105747514D02*
X127594514Y-105818942D01*
X127380228Y-105890371D01*
X127237371Y-105890371D01*
X127023085Y-105818942D01*
X126880228Y-105676085D01*
X126808800Y-105533228D01*
X126737371Y-105247514D01*
X126737371Y-105033228D01*
X126808800Y-104747514D01*
X126880228Y-104604657D01*
X127023085Y-104461800D01*
X127237371Y-104390371D01*
X127380228Y-104390371D01*
X127594514Y-104461800D01*
X127665942Y-104533228D01*
X129023085Y-105890371D02*
X128308800Y-105890371D01*
X128308800Y-104390371D01*
X129523085Y-105890371D02*
X129523085Y-104390371D01*
X130380228Y-105890371D02*
X129737371Y-105033228D01*
X130380228Y-104390371D02*
X129523085Y-105247514D01*
X124451657Y-107011800D02*
X124308800Y-106940371D01*
X124094514Y-106940371D01*
X123880228Y-107011800D01*
X123737371Y-107154657D01*
X123665942Y-107297514D01*
X123594514Y-107583228D01*
X123594514Y-107797514D01*
X123665942Y-108083228D01*
X123737371Y-108226085D01*
X123880228Y-108368942D01*
X124094514Y-108440371D01*
X124237371Y-108440371D01*
X124451657Y-108368942D01*
X124523085Y-108297514D01*
X124523085Y-107797514D01*
X124237371Y-107797514D01*
X125165942Y-108440371D02*
X125165942Y-106940371D01*
X126023085Y-108440371D01*
X126023085Y-106940371D01*
X126737371Y-108440371D02*
X126737371Y-106940371D01*
X127094514Y-106940371D01*
X127308800Y-107011800D01*
X127451657Y-107154657D01*
X127523085Y-107297514D01*
X127594514Y-107583228D01*
X127594514Y-107797514D01*
X127523085Y-108083228D01*
X127451657Y-108226085D01*
X127308800Y-108368942D01*
X127094514Y-108440371D01*
X126737371Y-108440371D01*
D11*
G04 #@! TO.C,J13*
X158258200Y-89449600D02*
X159588200Y-89449600D01*
X158258200Y-90779600D02*
X158258200Y-89449600D01*
X158258200Y-92049600D02*
X160918200Y-92049600D01*
X160918200Y-92049600D02*
X160918200Y-92109600D01*
X158258200Y-92049600D02*
X158258200Y-92109600D01*
X158258200Y-92109600D02*
X160918200Y-92109600D01*
G04 #@! TO.C,J12*
X158232800Y-97367400D02*
X160892800Y-97367400D01*
X158232800Y-97307400D02*
X158232800Y-97367400D01*
X160892800Y-97307400D02*
X160892800Y-97367400D01*
X158232800Y-97307400D02*
X160892800Y-97307400D01*
X158232800Y-96037400D02*
X158232800Y-94707400D01*
X158232800Y-94707400D02*
X159562800Y-94707400D01*
G04 #@! TO.C,J10*
X158334400Y-107425800D02*
X160994400Y-107425800D01*
X158334400Y-107365800D02*
X158334400Y-107425800D01*
X160994400Y-107365800D02*
X160994400Y-107425800D01*
X158334400Y-107365800D02*
X160994400Y-107365800D01*
X158334400Y-106095800D02*
X158334400Y-104765800D01*
X158334400Y-104765800D02*
X159664400Y-104765800D01*
G04 #@! TO.C,J9*
X158309000Y-99762000D02*
X159639000Y-99762000D01*
X158309000Y-101092000D02*
X158309000Y-99762000D01*
X158309000Y-102362000D02*
X160969000Y-102362000D01*
X160969000Y-102362000D02*
X160969000Y-102422000D01*
X158309000Y-102362000D02*
X158309000Y-102422000D01*
X158309000Y-102422000D02*
X160969000Y-102422000D01*
G04 #@! TO.C,J11*
X158156600Y-112607400D02*
X160816600Y-112607400D01*
X158156600Y-112547400D02*
X158156600Y-112607400D01*
X160816600Y-112547400D02*
X160816600Y-112607400D01*
X158156600Y-112547400D02*
X160816600Y-112547400D01*
X158156600Y-111277400D02*
X158156600Y-109947400D01*
X158156600Y-109947400D02*
X159486600Y-109947400D01*
G04 #@! TO.C,J8*
X135283900Y-87427760D02*
X136613900Y-87427760D01*
X135283900Y-88757760D02*
X135283900Y-87427760D01*
X135283900Y-90027760D02*
X137943900Y-90027760D01*
X137943900Y-90027760D02*
X137943900Y-90087760D01*
X135283900Y-90027760D02*
X135283900Y-90087760D01*
X135283900Y-90087760D02*
X137943900Y-90087760D01*
G04 #@! TO.C,J7*
X144631100Y-90161420D02*
X147291100Y-90161420D01*
X144631100Y-90101420D02*
X144631100Y-90161420D01*
X147291100Y-90101420D02*
X147291100Y-90161420D01*
X144631100Y-90101420D02*
X147291100Y-90101420D01*
X144631100Y-88831420D02*
X144631100Y-87501420D01*
X144631100Y-87501420D02*
X145961100Y-87501420D01*
G04 #@! TO.C,J6*
X150191160Y-87443000D02*
X151521160Y-87443000D01*
X150191160Y-88773000D02*
X150191160Y-87443000D01*
X150191160Y-90043000D02*
X152851160Y-90043000D01*
X152851160Y-90043000D02*
X152851160Y-90103000D01*
X150191160Y-90043000D02*
X150191160Y-90103000D01*
X150191160Y-90103000D02*
X152851160Y-90103000D01*
G04 #@! TO.C,J5*
X139086280Y-90075060D02*
X141746280Y-90075060D01*
X139086280Y-90015060D02*
X139086280Y-90075060D01*
X141746280Y-90015060D02*
X141746280Y-90075060D01*
X139086280Y-90015060D02*
X141746280Y-90015060D01*
X139086280Y-88745060D02*
X139086280Y-87415060D01*
X139086280Y-87415060D02*
X140416280Y-87415060D01*
G04 #@! TO.C,D2*
X162252000Y-101827000D02*
X164537000Y-101827000D01*
X164537000Y-101827000D02*
X164537000Y-100357000D01*
X164537000Y-100357000D02*
X162252000Y-100357000D01*
G04 #@! TO.C,D3*
X164537000Y-105437000D02*
X162252000Y-105437000D01*
X164537000Y-106907000D02*
X164537000Y-105437000D01*
X162252000Y-106907000D02*
X164537000Y-106907000D01*
G04 #@! TO.C,D4*
X162252000Y-111987000D02*
X164537000Y-111987000D01*
X164537000Y-111987000D02*
X164537000Y-110517000D01*
X164537000Y-110517000D02*
X162252000Y-110517000D01*
D12*
G04 #@! TO.C,J4*
X146522400Y-69084800D02*
X142072400Y-69084800D01*
X142047400Y-69084800D02*
X142047400Y-73404800D01*
X146522400Y-69084800D02*
X146522400Y-73404800D01*
D11*
G04 #@! TO.C,J3*
X138370000Y-75498000D02*
X141030000Y-75498000D01*
X138370000Y-75438000D02*
X138370000Y-75498000D01*
X141030000Y-75438000D02*
X141030000Y-75498000D01*
X138370000Y-75438000D02*
X141030000Y-75438000D01*
X138370000Y-74168000D02*
X138370000Y-72838000D01*
X138370000Y-72838000D02*
X139700000Y-72838000D01*
G04 #@! TO.C,J1*
X119918201Y-109098401D02*
X122578201Y-109098401D01*
X119918201Y-101418401D02*
X119918201Y-109098401D01*
X122578201Y-101418401D02*
X122578201Y-109098401D01*
X119918201Y-101418401D02*
X122578201Y-101418401D01*
X119918201Y-100148401D02*
X119918201Y-98818401D01*
X119918201Y-98818401D02*
X121248201Y-98818401D01*
G04 #@! TO.C,J2*
X150605800Y-125485200D02*
X150605800Y-122825200D01*
X140385800Y-125485200D02*
X150605800Y-125485200D01*
X140385800Y-122825200D02*
X150605800Y-122825200D01*
X140385800Y-125485200D02*
X140385800Y-122825200D01*
X139115800Y-125485200D02*
X137785800Y-125485200D01*
X137785800Y-125485200D02*
X137785800Y-124155200D01*
D12*
G04 #@! TO.C,Y1*
X156438600Y-118999000D02*
X157937200Y-118999000D01*
X157937200Y-118999000D02*
X157937200Y-117170200D01*
D11*
G04 #@! TO.C,D1*
X162252000Y-96747000D02*
X164537000Y-96747000D01*
X164537000Y-96747000D02*
X164537000Y-95277000D01*
X164537000Y-95277000D02*
X162252000Y-95277000D01*
G04 #@! TO.C,U1*
X153306800Y-112331000D02*
X153306800Y-113251000D01*
X153306800Y-113251000D02*
X152386800Y-113251000D01*
X153306800Y-94171000D02*
X153306800Y-93251000D01*
X153306800Y-93251000D02*
X152386800Y-93251000D01*
X133306800Y-94171000D02*
X133306800Y-93251000D01*
X133306800Y-93251000D02*
X134226800Y-93251000D01*
X133306800Y-112331000D02*
X133306800Y-113251000D01*
X133306800Y-113251000D02*
X134226800Y-113251000D01*
D12*
G36*
X153289000Y-113233200D02*
X152400000Y-113233200D01*
X152400000Y-112318800D01*
X153289000Y-112318800D01*
X153289000Y-113233200D01*
G37*
X153289000Y-113233200D02*
X152400000Y-113233200D01*
X152400000Y-112318800D01*
X153289000Y-112318800D01*
X153289000Y-113233200D01*
G04 #@! TO.C,U5*
G36*
X148877866Y-81864200D02*
X147633266Y-81864200D01*
X147633266Y-82702400D01*
X148877866Y-82702400D01*
X148877866Y-81864200D01*
G37*
X148877866Y-81864200D02*
X147633266Y-81864200D01*
X147633266Y-82702400D01*
X148877866Y-82702400D01*
X148877866Y-81864200D01*
D13*
X148888666Y-85185000D02*
X148763666Y-85185000D01*
X148888666Y-81185000D02*
X148888666Y-85185000D01*
X148763666Y-81185000D02*
X148888666Y-81185000D01*
X143888666Y-85185000D02*
X144013666Y-85185000D01*
X143888666Y-81185000D02*
X143888666Y-85185000D01*
X144013666Y-81185000D02*
X143888666Y-81185000D01*
G04 #@! TO.C,U4*
X149567800Y-81185000D02*
X149442800Y-81185000D01*
X149442800Y-81185000D02*
X149442800Y-85185000D01*
X149442800Y-85185000D02*
X149567800Y-85185000D01*
X154317800Y-81185000D02*
X154442800Y-81185000D01*
X154442800Y-81185000D02*
X154442800Y-85185000D01*
X154442800Y-85185000D02*
X154317800Y-85185000D01*
D12*
G36*
X154432000Y-81864200D02*
X153187400Y-81864200D01*
X153187400Y-82702400D01*
X154432000Y-82702400D01*
X154432000Y-81864200D01*
G37*
X154432000Y-81864200D02*
X153187400Y-81864200D01*
X153187400Y-82702400D01*
X154432000Y-82702400D01*
X154432000Y-81864200D01*
G04 #@! TO.C,U3*
G36*
X143323733Y-81864200D02*
X142079133Y-81864200D01*
X142079133Y-82702400D01*
X143323733Y-82702400D01*
X143323733Y-81864200D01*
G37*
X143323733Y-81864200D02*
X142079133Y-81864200D01*
X142079133Y-82702400D01*
X143323733Y-82702400D01*
X143323733Y-81864200D01*
D13*
X143334533Y-85185000D02*
X143209533Y-85185000D01*
X143334533Y-81185000D02*
X143334533Y-85185000D01*
X143209533Y-81185000D02*
X143334533Y-81185000D01*
X138334533Y-85185000D02*
X138459533Y-85185000D01*
X138334533Y-81185000D02*
X138334533Y-85185000D01*
X138459533Y-81185000D02*
X138334533Y-81185000D01*
G04 #@! TO.C,U2*
X137655400Y-85185000D02*
X137780400Y-85185000D01*
X137780400Y-85185000D02*
X137780400Y-81185000D01*
X137780400Y-81185000D02*
X137655400Y-81185000D01*
X132905400Y-85185000D02*
X132780400Y-85185000D01*
X132780400Y-85185000D02*
X132780400Y-81185000D01*
X132780400Y-81185000D02*
X132905400Y-81185000D01*
D12*
G36*
X132791200Y-84505800D02*
X134035800Y-84505800D01*
X134035800Y-83667600D01*
X132791200Y-83667600D01*
X132791200Y-84505800D01*
G37*
X132791200Y-84505800D02*
X134035800Y-84505800D01*
X134035800Y-83667600D01*
X132791200Y-83667600D01*
X132791200Y-84505800D01*
G04 #@! TO.C,J13*
X158778676Y-87901980D02*
X158778676Y-88616266D01*
X158731057Y-88759123D01*
X158635819Y-88854361D01*
X158492961Y-88901980D01*
X158397723Y-88901980D01*
X159778676Y-88901980D02*
X159207247Y-88901980D01*
X159492961Y-88901980D02*
X159492961Y-87901980D01*
X159397723Y-88044838D01*
X159302485Y-88140076D01*
X159207247Y-88187695D01*
X160112009Y-87901980D02*
X160731057Y-87901980D01*
X160397723Y-88282933D01*
X160540580Y-88282933D01*
X160635819Y-88330552D01*
X160683438Y-88378171D01*
X160731057Y-88473409D01*
X160731057Y-88711504D01*
X160683438Y-88806742D01*
X160635819Y-88854361D01*
X160540580Y-88901980D01*
X160254866Y-88901980D01*
X160159628Y-88854361D01*
X160112009Y-88806742D01*
G04 #@! TO.C,J12*
X158753276Y-93159780D02*
X158753276Y-93874066D01*
X158705657Y-94016923D01*
X158610419Y-94112161D01*
X158467561Y-94159780D01*
X158372323Y-94159780D01*
X159753276Y-94159780D02*
X159181847Y-94159780D01*
X159467561Y-94159780D02*
X159467561Y-93159780D01*
X159372323Y-93302638D01*
X159277085Y-93397876D01*
X159181847Y-93445495D01*
X160134228Y-93255019D02*
X160181847Y-93207400D01*
X160277085Y-93159780D01*
X160515180Y-93159780D01*
X160610419Y-93207400D01*
X160658038Y-93255019D01*
X160705657Y-93350257D01*
X160705657Y-93445495D01*
X160658038Y-93588352D01*
X160086609Y-94159780D01*
X160705657Y-94159780D01*
G04 #@! TO.C,J10*
X158854876Y-103218180D02*
X158854876Y-103932466D01*
X158807257Y-104075323D01*
X158712019Y-104170561D01*
X158569161Y-104218180D01*
X158473923Y-104218180D01*
X159854876Y-104218180D02*
X159283447Y-104218180D01*
X159569161Y-104218180D02*
X159569161Y-103218180D01*
X159473923Y-103361038D01*
X159378685Y-103456276D01*
X159283447Y-103503895D01*
X160473923Y-103218180D02*
X160569161Y-103218180D01*
X160664400Y-103265800D01*
X160712019Y-103313419D01*
X160759638Y-103408657D01*
X160807257Y-103599133D01*
X160807257Y-103837228D01*
X160759638Y-104027704D01*
X160712019Y-104122942D01*
X160664400Y-104170561D01*
X160569161Y-104218180D01*
X160473923Y-104218180D01*
X160378685Y-104170561D01*
X160331066Y-104122942D01*
X160283447Y-104027704D01*
X160235828Y-103837228D01*
X160235828Y-103599133D01*
X160283447Y-103408657D01*
X160331066Y-103313419D01*
X160378685Y-103265800D01*
X160473923Y-103218180D01*
G04 #@! TO.C,J9*
X159305666Y-98214380D02*
X159305666Y-98928666D01*
X159258047Y-99071523D01*
X159162809Y-99166761D01*
X159019952Y-99214380D01*
X158924714Y-99214380D01*
X159829476Y-99214380D02*
X160019952Y-99214380D01*
X160115190Y-99166761D01*
X160162809Y-99119142D01*
X160258047Y-98976285D01*
X160305666Y-98785809D01*
X160305666Y-98404857D01*
X160258047Y-98309619D01*
X160210428Y-98262000D01*
X160115190Y-98214380D01*
X159924714Y-98214380D01*
X159829476Y-98262000D01*
X159781857Y-98309619D01*
X159734238Y-98404857D01*
X159734238Y-98642952D01*
X159781857Y-98738190D01*
X159829476Y-98785809D01*
X159924714Y-98833428D01*
X160115190Y-98833428D01*
X160210428Y-98785809D01*
X160258047Y-98738190D01*
X160305666Y-98642952D01*
G04 #@! TO.C,J11*
X158677076Y-108399780D02*
X158677076Y-109114066D01*
X158629457Y-109256923D01*
X158534219Y-109352161D01*
X158391361Y-109399780D01*
X158296123Y-109399780D01*
X159677076Y-109399780D02*
X159105647Y-109399780D01*
X159391361Y-109399780D02*
X159391361Y-108399780D01*
X159296123Y-108542638D01*
X159200885Y-108637876D01*
X159105647Y-108685495D01*
X160629457Y-109399780D02*
X160058028Y-109399780D01*
X160343742Y-109399780D02*
X160343742Y-108399780D01*
X160248504Y-108542638D01*
X160153266Y-108637876D01*
X160058028Y-108685495D01*
G04 #@! TO.C,R6*
D14*
X161373546Y-98874710D02*
X161206880Y-98636615D01*
X161087832Y-98874710D02*
X161087832Y-98374710D01*
X161278308Y-98374710D01*
X161325927Y-98398520D01*
X161349737Y-98422329D01*
X161373546Y-98469948D01*
X161373546Y-98541377D01*
X161349737Y-98588996D01*
X161325927Y-98612805D01*
X161278308Y-98636615D01*
X161087832Y-98636615D01*
X161802118Y-98374710D02*
X161706880Y-98374710D01*
X161659260Y-98398520D01*
X161635451Y-98422329D01*
X161587832Y-98493758D01*
X161564022Y-98588996D01*
X161564022Y-98779472D01*
X161587832Y-98827091D01*
X161611641Y-98850900D01*
X161659260Y-98874710D01*
X161754499Y-98874710D01*
X161802118Y-98850900D01*
X161825927Y-98827091D01*
X161849737Y-98779472D01*
X161849737Y-98660424D01*
X161825927Y-98612805D01*
X161802118Y-98588996D01*
X161754499Y-98565186D01*
X161659260Y-98565186D01*
X161611641Y-98588996D01*
X161587832Y-98612805D01*
X161564022Y-98660424D01*
G04 #@! TO.C,R7*
X161354265Y-103931009D02*
X161187599Y-103692914D01*
X161068551Y-103931009D02*
X161068551Y-103431009D01*
X161259027Y-103431009D01*
X161306646Y-103454819D01*
X161330456Y-103478628D01*
X161354265Y-103526247D01*
X161354265Y-103597676D01*
X161330456Y-103645295D01*
X161306646Y-103669104D01*
X161259027Y-103692914D01*
X161068551Y-103692914D01*
X161520932Y-103431009D02*
X161854265Y-103431009D01*
X161639979Y-103931009D01*
G04 #@! TO.C,R8*
X161435545Y-109000589D02*
X161268879Y-108762494D01*
X161149831Y-109000589D02*
X161149831Y-108500589D01*
X161340307Y-108500589D01*
X161387926Y-108524399D01*
X161411736Y-108548208D01*
X161435545Y-108595827D01*
X161435545Y-108667256D01*
X161411736Y-108714875D01*
X161387926Y-108738684D01*
X161340307Y-108762494D01*
X161149831Y-108762494D01*
X161721259Y-108714875D02*
X161673640Y-108691065D01*
X161649831Y-108667256D01*
X161626021Y-108619637D01*
X161626021Y-108595827D01*
X161649831Y-108548208D01*
X161673640Y-108524399D01*
X161721259Y-108500589D01*
X161816498Y-108500589D01*
X161864117Y-108524399D01*
X161887926Y-108548208D01*
X161911736Y-108595827D01*
X161911736Y-108619637D01*
X161887926Y-108667256D01*
X161864117Y-108691065D01*
X161816498Y-108714875D01*
X161721259Y-108714875D01*
X161673640Y-108738684D01*
X161649831Y-108762494D01*
X161626021Y-108810113D01*
X161626021Y-108905351D01*
X161649831Y-108952970D01*
X161673640Y-108976779D01*
X161721259Y-109000589D01*
X161816498Y-109000589D01*
X161864117Y-108976779D01*
X161887926Y-108952970D01*
X161911736Y-108905351D01*
X161911736Y-108810113D01*
X161887926Y-108762494D01*
X161864117Y-108738684D01*
X161816498Y-108714875D01*
G04 #@! TO.C,D2*
D12*
X165361904Y-101508801D02*
X165361904Y-100508801D01*
X165600000Y-100508801D01*
X165742857Y-100556421D01*
X165838095Y-100651659D01*
X165885714Y-100746897D01*
X165933333Y-100937373D01*
X165933333Y-101080230D01*
X165885714Y-101270706D01*
X165838095Y-101365944D01*
X165742857Y-101461182D01*
X165600000Y-101508801D01*
X165361904Y-101508801D01*
X166314285Y-100604040D02*
X166361904Y-100556421D01*
X166457142Y-100508801D01*
X166695238Y-100508801D01*
X166790476Y-100556421D01*
X166838095Y-100604040D01*
X166885714Y-100699278D01*
X166885714Y-100794516D01*
X166838095Y-100937373D01*
X166266666Y-101508801D01*
X166885714Y-101508801D01*
G04 #@! TO.C,D3*
X165361904Y-106609140D02*
X165361904Y-105609140D01*
X165600000Y-105609140D01*
X165742857Y-105656760D01*
X165838095Y-105751998D01*
X165885714Y-105847236D01*
X165933333Y-106037712D01*
X165933333Y-106180569D01*
X165885714Y-106371045D01*
X165838095Y-106466283D01*
X165742857Y-106561521D01*
X165600000Y-106609140D01*
X165361904Y-106609140D01*
X166266666Y-105609140D02*
X166885714Y-105609140D01*
X166552380Y-105990093D01*
X166695238Y-105990093D01*
X166790476Y-106037712D01*
X166838095Y-106085331D01*
X166885714Y-106180569D01*
X166885714Y-106418664D01*
X166838095Y-106513902D01*
X166790476Y-106561521D01*
X166695238Y-106609140D01*
X166409523Y-106609140D01*
X166314285Y-106561521D01*
X166266666Y-106513902D01*
G04 #@! TO.C,D4*
X165361904Y-111653561D02*
X165361904Y-110653561D01*
X165600000Y-110653561D01*
X165742857Y-110701181D01*
X165838095Y-110796419D01*
X165885714Y-110891657D01*
X165933333Y-111082133D01*
X165933333Y-111224990D01*
X165885714Y-111415466D01*
X165838095Y-111510704D01*
X165742857Y-111605942D01*
X165600000Y-111653561D01*
X165361904Y-111653561D01*
X166790476Y-110986895D02*
X166790476Y-111653561D01*
X166552380Y-110605942D02*
X166314285Y-111320228D01*
X166933333Y-111320228D01*
G04 #@! TO.C,J4*
X146859666Y-74026780D02*
X146859666Y-74741066D01*
X146812047Y-74883923D01*
X146716809Y-74979161D01*
X146573952Y-75026780D01*
X146478714Y-75026780D01*
X147764428Y-74360114D02*
X147764428Y-75026780D01*
X147526333Y-73979161D02*
X147288238Y-74693447D01*
X147907285Y-74693447D01*
G04 #@! TO.C,R2*
D14*
X147541466Y-78198991D02*
X147374800Y-77960896D01*
X147255752Y-78198991D02*
X147255752Y-77698991D01*
X147446228Y-77698991D01*
X147493847Y-77722801D01*
X147517657Y-77746610D01*
X147541466Y-77794229D01*
X147541466Y-77865658D01*
X147517657Y-77913277D01*
X147493847Y-77937086D01*
X147446228Y-77960896D01*
X147255752Y-77960896D01*
X147731942Y-77746610D02*
X147755752Y-77722801D01*
X147803371Y-77698991D01*
X147922419Y-77698991D01*
X147970038Y-77722801D01*
X147993847Y-77746610D01*
X148017657Y-77794229D01*
X148017657Y-77841848D01*
X147993847Y-77913277D01*
X147708133Y-78198991D01*
X148017657Y-78198991D01*
G04 #@! TO.C,R3*
X153154866Y-79067790D02*
X152988200Y-78829695D01*
X152869152Y-79067790D02*
X152869152Y-78567790D01*
X153059628Y-78567790D01*
X153107247Y-78591600D01*
X153131057Y-78615409D01*
X153154866Y-78663028D01*
X153154866Y-78734457D01*
X153131057Y-78782076D01*
X153107247Y-78805885D01*
X153059628Y-78829695D01*
X152869152Y-78829695D01*
X153321533Y-78567790D02*
X153631057Y-78567790D01*
X153464390Y-78758266D01*
X153535819Y-78758266D01*
X153583438Y-78782076D01*
X153607247Y-78805885D01*
X153631057Y-78853504D01*
X153631057Y-78972552D01*
X153607247Y-79020171D01*
X153583438Y-79043980D01*
X153535819Y-79067790D01*
X153392961Y-79067790D01*
X153345342Y-79043980D01*
X153321533Y-79020171D01*
G04 #@! TO.C,R4*
X142105866Y-79143990D02*
X141939200Y-78905895D01*
X141820152Y-79143990D02*
X141820152Y-78643990D01*
X142010628Y-78643990D01*
X142058247Y-78667800D01*
X142082057Y-78691609D01*
X142105866Y-78739228D01*
X142105866Y-78810657D01*
X142082057Y-78858276D01*
X142058247Y-78882085D01*
X142010628Y-78905895D01*
X141820152Y-78905895D01*
X142534438Y-78810657D02*
X142534438Y-79143990D01*
X142415390Y-78620180D02*
X142296342Y-78977323D01*
X142605866Y-78977323D01*
G04 #@! TO.C,R5*
X134028666Y-79118590D02*
X133862000Y-78880495D01*
X133742952Y-79118590D02*
X133742952Y-78618590D01*
X133933428Y-78618590D01*
X133981047Y-78642400D01*
X134004857Y-78666209D01*
X134028666Y-78713828D01*
X134028666Y-78785257D01*
X134004857Y-78832876D01*
X133981047Y-78856685D01*
X133933428Y-78880495D01*
X133742952Y-78880495D01*
X134481047Y-78618590D02*
X134242952Y-78618590D01*
X134219142Y-78856685D01*
X134242952Y-78832876D01*
X134290571Y-78809066D01*
X134409619Y-78809066D01*
X134457238Y-78832876D01*
X134481047Y-78856685D01*
X134504857Y-78904304D01*
X134504857Y-79023352D01*
X134481047Y-79070971D01*
X134457238Y-79094780D01*
X134409619Y-79118590D01*
X134290571Y-79118590D01*
X134242952Y-79094780D01*
X134219142Y-79070971D01*
G04 #@! TO.C,J3*
D12*
X139366666Y-71290380D02*
X139366666Y-72004666D01*
X139319047Y-72147523D01*
X139223809Y-72242761D01*
X139080952Y-72290380D01*
X138985714Y-72290380D01*
X139747619Y-71290380D02*
X140366666Y-71290380D01*
X140033333Y-71671333D01*
X140176190Y-71671333D01*
X140271428Y-71718952D01*
X140319047Y-71766571D01*
X140366666Y-71861809D01*
X140366666Y-72099904D01*
X140319047Y-72195142D01*
X140271428Y-72242761D01*
X140176190Y-72290380D01*
X139890476Y-72290380D01*
X139795238Y-72242761D01*
X139747619Y-72195142D01*
G04 #@! TO.C,J1*
X120316666Y-110323380D02*
X120316666Y-111037666D01*
X120269047Y-111180523D01*
X120173809Y-111275761D01*
X120030952Y-111323380D01*
X119935714Y-111323380D01*
X121316666Y-111323380D02*
X120745238Y-111323380D01*
X121030952Y-111323380D02*
X121030952Y-110323380D01*
X120935714Y-110466238D01*
X120840476Y-110561476D01*
X120745238Y-110609095D01*
G04 #@! TO.C,J2*
X135937666Y-123505980D02*
X135937666Y-124220266D01*
X135890047Y-124363123D01*
X135794809Y-124458361D01*
X135651952Y-124505980D01*
X135556714Y-124505980D01*
X136366238Y-123601219D02*
X136413857Y-123553600D01*
X136509095Y-123505980D01*
X136747190Y-123505980D01*
X136842428Y-123553600D01*
X136890047Y-123601219D01*
X136937666Y-123696457D01*
X136937666Y-123791695D01*
X136890047Y-123934552D01*
X136318619Y-124505980D01*
X136937666Y-124505980D01*
G04 #@! TO.C,C6*
D14*
X156253666Y-95301571D02*
X156229857Y-95325380D01*
X156158428Y-95349190D01*
X156110809Y-95349190D01*
X156039380Y-95325380D01*
X155991761Y-95277761D01*
X155967952Y-95230142D01*
X155944142Y-95134904D01*
X155944142Y-95063476D01*
X155967952Y-94968238D01*
X155991761Y-94920619D01*
X156039380Y-94873000D01*
X156110809Y-94849190D01*
X156158428Y-94849190D01*
X156229857Y-94873000D01*
X156253666Y-94896809D01*
X156682238Y-94849190D02*
X156587000Y-94849190D01*
X156539380Y-94873000D01*
X156515571Y-94896809D01*
X156467952Y-94968238D01*
X156444142Y-95063476D01*
X156444142Y-95253952D01*
X156467952Y-95301571D01*
X156491761Y-95325380D01*
X156539380Y-95349190D01*
X156634619Y-95349190D01*
X156682238Y-95325380D01*
X156706047Y-95301571D01*
X156729857Y-95253952D01*
X156729857Y-95134904D01*
X156706047Y-95087285D01*
X156682238Y-95063476D01*
X156634619Y-95039666D01*
X156539380Y-95039666D01*
X156491761Y-95063476D01*
X156467952Y-95087285D01*
X156444142Y-95134904D01*
G04 #@! TO.C,C19*
X136457571Y-91415371D02*
X136433761Y-91439180D01*
X136362333Y-91462990D01*
X136314714Y-91462990D01*
X136243285Y-91439180D01*
X136195666Y-91391561D01*
X136171857Y-91343942D01*
X136148047Y-91248704D01*
X136148047Y-91177276D01*
X136171857Y-91082038D01*
X136195666Y-91034419D01*
X136243285Y-90986800D01*
X136314714Y-90962990D01*
X136362333Y-90962990D01*
X136433761Y-90986800D01*
X136457571Y-91010609D01*
X136933761Y-91462990D02*
X136648047Y-91462990D01*
X136790904Y-91462990D02*
X136790904Y-90962990D01*
X136743285Y-91034419D01*
X136695666Y-91082038D01*
X136648047Y-91105847D01*
X137171857Y-91462990D02*
X137267095Y-91462990D01*
X137314714Y-91439180D01*
X137338523Y-91415371D01*
X137386142Y-91343942D01*
X137409952Y-91248704D01*
X137409952Y-91058228D01*
X137386142Y-91010609D01*
X137362333Y-90986800D01*
X137314714Y-90962990D01*
X137219476Y-90962990D01*
X137171857Y-90986800D01*
X137148047Y-91010609D01*
X137124238Y-91058228D01*
X137124238Y-91177276D01*
X137148047Y-91224895D01*
X137171857Y-91248704D01*
X137219476Y-91272514D01*
X137314714Y-91272514D01*
X137362333Y-91248704D01*
X137386142Y-91224895D01*
X137409952Y-91177276D01*
G04 #@! TO.C,C7*
X155263066Y-113106971D02*
X155239257Y-113130780D01*
X155167828Y-113154590D01*
X155120209Y-113154590D01*
X155048780Y-113130780D01*
X155001161Y-113083161D01*
X154977352Y-113035542D01*
X154953542Y-112940304D01*
X154953542Y-112868876D01*
X154977352Y-112773638D01*
X155001161Y-112726019D01*
X155048780Y-112678400D01*
X155120209Y-112654590D01*
X155167828Y-112654590D01*
X155239257Y-112678400D01*
X155263066Y-112702209D01*
X155429733Y-112654590D02*
X155763066Y-112654590D01*
X155548780Y-113154590D01*
G04 #@! TO.C,C8*
X131183866Y-107239571D02*
X131160057Y-107263380D01*
X131088628Y-107287190D01*
X131041009Y-107287190D01*
X130969580Y-107263380D01*
X130921961Y-107215761D01*
X130898152Y-107168142D01*
X130874342Y-107072904D01*
X130874342Y-107001476D01*
X130898152Y-106906238D01*
X130921961Y-106858619D01*
X130969580Y-106811000D01*
X131041009Y-106787190D01*
X131088628Y-106787190D01*
X131160057Y-106811000D01*
X131183866Y-106834809D01*
X131469580Y-107001476D02*
X131421961Y-106977666D01*
X131398152Y-106953857D01*
X131374342Y-106906238D01*
X131374342Y-106882428D01*
X131398152Y-106834809D01*
X131421961Y-106811000D01*
X131469580Y-106787190D01*
X131564819Y-106787190D01*
X131612438Y-106811000D01*
X131636247Y-106834809D01*
X131660057Y-106882428D01*
X131660057Y-106906238D01*
X131636247Y-106953857D01*
X131612438Y-106977666D01*
X131564819Y-107001476D01*
X131469580Y-107001476D01*
X131421961Y-107025285D01*
X131398152Y-107049095D01*
X131374342Y-107096714D01*
X131374342Y-107191952D01*
X131398152Y-107239571D01*
X131421961Y-107263380D01*
X131469580Y-107287190D01*
X131564819Y-107287190D01*
X131612438Y-107263380D01*
X131636247Y-107239571D01*
X131660057Y-107191952D01*
X131660057Y-107096714D01*
X131636247Y-107049095D01*
X131612438Y-107025285D01*
X131564819Y-107001476D01*
G04 #@! TO.C,C9*
X131158466Y-100813371D02*
X131134657Y-100837180D01*
X131063228Y-100860990D01*
X131015609Y-100860990D01*
X130944180Y-100837180D01*
X130896561Y-100789561D01*
X130872752Y-100741942D01*
X130848942Y-100646704D01*
X130848942Y-100575276D01*
X130872752Y-100480038D01*
X130896561Y-100432419D01*
X130944180Y-100384800D01*
X131015609Y-100360990D01*
X131063228Y-100360990D01*
X131134657Y-100384800D01*
X131158466Y-100408609D01*
X131396561Y-100860990D02*
X131491800Y-100860990D01*
X131539419Y-100837180D01*
X131563228Y-100813371D01*
X131610847Y-100741942D01*
X131634657Y-100646704D01*
X131634657Y-100456228D01*
X131610847Y-100408609D01*
X131587038Y-100384800D01*
X131539419Y-100360990D01*
X131444180Y-100360990D01*
X131396561Y-100384800D01*
X131372752Y-100408609D01*
X131348942Y-100456228D01*
X131348942Y-100575276D01*
X131372752Y-100622895D01*
X131396561Y-100646704D01*
X131444180Y-100670514D01*
X131539419Y-100670514D01*
X131587038Y-100646704D01*
X131610847Y-100622895D01*
X131634657Y-100575276D01*
G04 #@! TO.C,C10*
X142426571Y-115519971D02*
X142402761Y-115543780D01*
X142331333Y-115567590D01*
X142283714Y-115567590D01*
X142212285Y-115543780D01*
X142164666Y-115496161D01*
X142140857Y-115448542D01*
X142117047Y-115353304D01*
X142117047Y-115281876D01*
X142140857Y-115186638D01*
X142164666Y-115139019D01*
X142212285Y-115091400D01*
X142283714Y-115067590D01*
X142331333Y-115067590D01*
X142402761Y-115091400D01*
X142426571Y-115115209D01*
X142902761Y-115567590D02*
X142617047Y-115567590D01*
X142759904Y-115567590D02*
X142759904Y-115067590D01*
X142712285Y-115139019D01*
X142664666Y-115186638D01*
X142617047Y-115210447D01*
X143212285Y-115067590D02*
X143259904Y-115067590D01*
X143307523Y-115091400D01*
X143331333Y-115115209D01*
X143355142Y-115162828D01*
X143378952Y-115258066D01*
X143378952Y-115377114D01*
X143355142Y-115472352D01*
X143331333Y-115519971D01*
X143307523Y-115543780D01*
X143259904Y-115567590D01*
X143212285Y-115567590D01*
X143164666Y-115543780D01*
X143140857Y-115519971D01*
X143117047Y-115472352D01*
X143093238Y-115377114D01*
X143093238Y-115258066D01*
X143117047Y-115162828D01*
X143140857Y-115115209D01*
X143164666Y-115091400D01*
X143212285Y-115067590D01*
G04 #@! TO.C,C1*
X138739866Y-116840771D02*
X138716057Y-116864580D01*
X138644628Y-116888390D01*
X138597009Y-116888390D01*
X138525580Y-116864580D01*
X138477961Y-116816961D01*
X138454152Y-116769342D01*
X138430342Y-116674104D01*
X138430342Y-116602676D01*
X138454152Y-116507438D01*
X138477961Y-116459819D01*
X138525580Y-116412200D01*
X138597009Y-116388390D01*
X138644628Y-116388390D01*
X138716057Y-116412200D01*
X138739866Y-116436009D01*
X139216057Y-116888390D02*
X138930342Y-116888390D01*
X139073200Y-116888390D02*
X139073200Y-116388390D01*
X139025580Y-116459819D01*
X138977961Y-116507438D01*
X138930342Y-116531247D01*
G04 #@! TO.C,C12*
X155202771Y-108230171D02*
X155178961Y-108253980D01*
X155107533Y-108277790D01*
X155059914Y-108277790D01*
X154988485Y-108253980D01*
X154940866Y-108206361D01*
X154917057Y-108158742D01*
X154893247Y-108063504D01*
X154893247Y-107992076D01*
X154917057Y-107896838D01*
X154940866Y-107849219D01*
X154988485Y-107801600D01*
X155059914Y-107777790D01*
X155107533Y-107777790D01*
X155178961Y-107801600D01*
X155202771Y-107825409D01*
X155678961Y-108277790D02*
X155393247Y-108277790D01*
X155536104Y-108277790D02*
X155536104Y-107777790D01*
X155488485Y-107849219D01*
X155440866Y-107896838D01*
X155393247Y-107920647D01*
X155869438Y-107825409D02*
X155893247Y-107801600D01*
X155940866Y-107777790D01*
X156059914Y-107777790D01*
X156107533Y-107801600D01*
X156131342Y-107825409D01*
X156155152Y-107873028D01*
X156155152Y-107920647D01*
X156131342Y-107992076D01*
X155845628Y-108277790D01*
X156155152Y-108277790D01*
G04 #@! TO.C,C13*
X156294971Y-99111571D02*
X156271161Y-99135380D01*
X156199733Y-99159190D01*
X156152114Y-99159190D01*
X156080685Y-99135380D01*
X156033066Y-99087761D01*
X156009257Y-99040142D01*
X155985447Y-98944904D01*
X155985447Y-98873476D01*
X156009257Y-98778238D01*
X156033066Y-98730619D01*
X156080685Y-98683000D01*
X156152114Y-98659190D01*
X156199733Y-98659190D01*
X156271161Y-98683000D01*
X156294971Y-98706809D01*
X156771161Y-99159190D02*
X156485447Y-99159190D01*
X156628304Y-99159190D02*
X156628304Y-98659190D01*
X156580685Y-98730619D01*
X156533066Y-98778238D01*
X156485447Y-98802047D01*
X156937828Y-98659190D02*
X157247352Y-98659190D01*
X157080685Y-98849666D01*
X157152114Y-98849666D01*
X157199733Y-98873476D01*
X157223542Y-98897285D01*
X157247352Y-98944904D01*
X157247352Y-99063952D01*
X157223542Y-99111571D01*
X157199733Y-99135380D01*
X157152114Y-99159190D01*
X157009257Y-99159190D01*
X156961638Y-99135380D01*
X156937828Y-99111571D01*
G04 #@! TO.C,C14*
X156345771Y-97206571D02*
X156321961Y-97230380D01*
X156250533Y-97254190D01*
X156202914Y-97254190D01*
X156131485Y-97230380D01*
X156083866Y-97182761D01*
X156060057Y-97135142D01*
X156036247Y-97039904D01*
X156036247Y-96968476D01*
X156060057Y-96873238D01*
X156083866Y-96825619D01*
X156131485Y-96778000D01*
X156202914Y-96754190D01*
X156250533Y-96754190D01*
X156321961Y-96778000D01*
X156345771Y-96801809D01*
X156821961Y-97254190D02*
X156536247Y-97254190D01*
X156679104Y-97254190D02*
X156679104Y-96754190D01*
X156631485Y-96825619D01*
X156583866Y-96873238D01*
X156536247Y-96897047D01*
X157250533Y-96920857D02*
X157250533Y-97254190D01*
X157131485Y-96730380D02*
X157012438Y-97087523D01*
X157321961Y-97087523D01*
G04 #@! TO.C,C15*
X130590171Y-112471971D02*
X130566361Y-112495780D01*
X130494933Y-112519590D01*
X130447314Y-112519590D01*
X130375885Y-112495780D01*
X130328266Y-112448161D01*
X130304457Y-112400542D01*
X130280647Y-112305304D01*
X130280647Y-112233876D01*
X130304457Y-112138638D01*
X130328266Y-112091019D01*
X130375885Y-112043400D01*
X130447314Y-112019590D01*
X130494933Y-112019590D01*
X130566361Y-112043400D01*
X130590171Y-112067209D01*
X131066361Y-112519590D02*
X130780647Y-112519590D01*
X130923504Y-112519590D02*
X130923504Y-112019590D01*
X130875885Y-112091019D01*
X130828266Y-112138638D01*
X130780647Y-112162447D01*
X131518742Y-112019590D02*
X131280647Y-112019590D01*
X131256838Y-112257685D01*
X131280647Y-112233876D01*
X131328266Y-112210066D01*
X131447314Y-112210066D01*
X131494933Y-112233876D01*
X131518742Y-112257685D01*
X131542552Y-112305304D01*
X131542552Y-112424352D01*
X131518742Y-112471971D01*
X131494933Y-112495780D01*
X131447314Y-112519590D01*
X131328266Y-112519590D01*
X131280647Y-112495780D01*
X131256838Y-112471971D01*
G04 #@! TO.C,C16*
X152865971Y-114656371D02*
X152842161Y-114680180D01*
X152770733Y-114703990D01*
X152723114Y-114703990D01*
X152651685Y-114680180D01*
X152604066Y-114632561D01*
X152580257Y-114584942D01*
X152556447Y-114489704D01*
X152556447Y-114418276D01*
X152580257Y-114323038D01*
X152604066Y-114275419D01*
X152651685Y-114227800D01*
X152723114Y-114203990D01*
X152770733Y-114203990D01*
X152842161Y-114227800D01*
X152865971Y-114251609D01*
X153342161Y-114703990D02*
X153056447Y-114703990D01*
X153199304Y-114703990D02*
X153199304Y-114203990D01*
X153151685Y-114275419D01*
X153104066Y-114323038D01*
X153056447Y-114346847D01*
X153770733Y-114203990D02*
X153675495Y-114203990D01*
X153627876Y-114227800D01*
X153604066Y-114251609D01*
X153556447Y-114323038D01*
X153532638Y-114418276D01*
X153532638Y-114608752D01*
X153556447Y-114656371D01*
X153580257Y-114680180D01*
X153627876Y-114703990D01*
X153723114Y-114703990D01*
X153770733Y-114680180D01*
X153794542Y-114656371D01*
X153818352Y-114608752D01*
X153818352Y-114489704D01*
X153794542Y-114442085D01*
X153770733Y-114418276D01*
X153723114Y-114394466D01*
X153627876Y-114394466D01*
X153580257Y-114418276D01*
X153556447Y-114442085D01*
X153532638Y-114489704D01*
G04 #@! TO.C,C17*
X154339171Y-119939571D02*
X154315361Y-119963380D01*
X154243933Y-119987190D01*
X154196314Y-119987190D01*
X154124885Y-119963380D01*
X154077266Y-119915761D01*
X154053457Y-119868142D01*
X154029647Y-119772904D01*
X154029647Y-119701476D01*
X154053457Y-119606238D01*
X154077266Y-119558619D01*
X154124885Y-119511000D01*
X154196314Y-119487190D01*
X154243933Y-119487190D01*
X154315361Y-119511000D01*
X154339171Y-119534809D01*
X154815361Y-119987190D02*
X154529647Y-119987190D01*
X154672504Y-119987190D02*
X154672504Y-119487190D01*
X154624885Y-119558619D01*
X154577266Y-119606238D01*
X154529647Y-119630047D01*
X154982028Y-119487190D02*
X155315361Y-119487190D01*
X155101076Y-119987190D01*
G04 #@! TO.C,C18*
X150122771Y-91339171D02*
X150098961Y-91362980D01*
X150027533Y-91386790D01*
X149979914Y-91386790D01*
X149908485Y-91362980D01*
X149860866Y-91315361D01*
X149837057Y-91267742D01*
X149813247Y-91172504D01*
X149813247Y-91101076D01*
X149837057Y-91005838D01*
X149860866Y-90958219D01*
X149908485Y-90910600D01*
X149979914Y-90886790D01*
X150027533Y-90886790D01*
X150098961Y-90910600D01*
X150122771Y-90934409D01*
X150598961Y-91386790D02*
X150313247Y-91386790D01*
X150456104Y-91386790D02*
X150456104Y-90886790D01*
X150408485Y-90958219D01*
X150360866Y-91005838D01*
X150313247Y-91029647D01*
X150884676Y-91101076D02*
X150837057Y-91077266D01*
X150813247Y-91053457D01*
X150789438Y-91005838D01*
X150789438Y-90982028D01*
X150813247Y-90934409D01*
X150837057Y-90910600D01*
X150884676Y-90886790D01*
X150979914Y-90886790D01*
X151027533Y-90910600D01*
X151051342Y-90934409D01*
X151075152Y-90982028D01*
X151075152Y-91005838D01*
X151051342Y-91053457D01*
X151027533Y-91077266D01*
X150979914Y-91101076D01*
X150884676Y-91101076D01*
X150837057Y-91124885D01*
X150813247Y-91148695D01*
X150789438Y-91196314D01*
X150789438Y-91291552D01*
X150813247Y-91339171D01*
X150837057Y-91362980D01*
X150884676Y-91386790D01*
X150979914Y-91386790D01*
X151027533Y-91362980D01*
X151051342Y-91339171D01*
X151075152Y-91291552D01*
X151075152Y-91196314D01*
X151051342Y-91148695D01*
X151027533Y-91124885D01*
X150979914Y-91101076D01*
G04 #@! TO.C,C28*
X148306671Y-89647531D02*
X148282861Y-89671340D01*
X148211433Y-89695150D01*
X148163814Y-89695150D01*
X148092385Y-89671340D01*
X148044766Y-89623721D01*
X148020957Y-89576102D01*
X147997147Y-89480864D01*
X147997147Y-89409436D01*
X148020957Y-89314198D01*
X148044766Y-89266579D01*
X148092385Y-89218960D01*
X148163814Y-89195150D01*
X148211433Y-89195150D01*
X148282861Y-89218960D01*
X148306671Y-89242769D01*
X148497147Y-89242769D02*
X148520957Y-89218960D01*
X148568576Y-89195150D01*
X148687623Y-89195150D01*
X148735242Y-89218960D01*
X148759052Y-89242769D01*
X148782861Y-89290388D01*
X148782861Y-89338007D01*
X148759052Y-89409436D01*
X148473338Y-89695150D01*
X148782861Y-89695150D01*
X149068576Y-89409436D02*
X149020957Y-89385626D01*
X148997147Y-89361817D01*
X148973338Y-89314198D01*
X148973338Y-89290388D01*
X148997147Y-89242769D01*
X149020957Y-89218960D01*
X149068576Y-89195150D01*
X149163814Y-89195150D01*
X149211433Y-89218960D01*
X149235242Y-89242769D01*
X149259052Y-89290388D01*
X149259052Y-89314198D01*
X149235242Y-89361817D01*
X149211433Y-89385626D01*
X149163814Y-89409436D01*
X149068576Y-89409436D01*
X149020957Y-89433245D01*
X148997147Y-89457055D01*
X148973338Y-89504674D01*
X148973338Y-89599912D01*
X148997147Y-89647531D01*
X149020957Y-89671340D01*
X149068576Y-89695150D01*
X149163814Y-89695150D01*
X149211433Y-89671340D01*
X149235242Y-89647531D01*
X149259052Y-89599912D01*
X149259052Y-89504674D01*
X149235242Y-89457055D01*
X149211433Y-89433245D01*
X149163814Y-89409436D01*
G04 #@! TO.C,C27*
X155692991Y-87673951D02*
X155669181Y-87697760D01*
X155597753Y-87721570D01*
X155550134Y-87721570D01*
X155478705Y-87697760D01*
X155431086Y-87650141D01*
X155407277Y-87602522D01*
X155383467Y-87507284D01*
X155383467Y-87435856D01*
X155407277Y-87340618D01*
X155431086Y-87292999D01*
X155478705Y-87245380D01*
X155550134Y-87221570D01*
X155597753Y-87221570D01*
X155669181Y-87245380D01*
X155692991Y-87269189D01*
X155883467Y-87269189D02*
X155907277Y-87245380D01*
X155954896Y-87221570D01*
X156073943Y-87221570D01*
X156121562Y-87245380D01*
X156145372Y-87269189D01*
X156169181Y-87316808D01*
X156169181Y-87364427D01*
X156145372Y-87435856D01*
X155859658Y-87721570D01*
X156169181Y-87721570D01*
X156335848Y-87221570D02*
X156669181Y-87221570D01*
X156454896Y-87721570D01*
G04 #@! TO.C,C26*
X142787251Y-90412071D02*
X142763441Y-90435880D01*
X142692013Y-90459690D01*
X142644394Y-90459690D01*
X142572965Y-90435880D01*
X142525346Y-90388261D01*
X142501537Y-90340642D01*
X142477727Y-90245404D01*
X142477727Y-90173976D01*
X142501537Y-90078738D01*
X142525346Y-90031119D01*
X142572965Y-89983500D01*
X142644394Y-89959690D01*
X142692013Y-89959690D01*
X142763441Y-89983500D01*
X142787251Y-90007309D01*
X142977727Y-90007309D02*
X143001537Y-89983500D01*
X143049156Y-89959690D01*
X143168203Y-89959690D01*
X143215822Y-89983500D01*
X143239632Y-90007309D01*
X143263441Y-90054928D01*
X143263441Y-90102547D01*
X143239632Y-90173976D01*
X142953918Y-90459690D01*
X143263441Y-90459690D01*
X143692013Y-89959690D02*
X143596775Y-89959690D01*
X143549156Y-89983500D01*
X143525346Y-90007309D01*
X143477727Y-90078738D01*
X143453918Y-90173976D01*
X143453918Y-90364452D01*
X143477727Y-90412071D01*
X143501537Y-90435880D01*
X143549156Y-90459690D01*
X143644394Y-90459690D01*
X143692013Y-90435880D01*
X143715822Y-90412071D01*
X143739632Y-90364452D01*
X143739632Y-90245404D01*
X143715822Y-90197785D01*
X143692013Y-90173976D01*
X143644394Y-90150166D01*
X143549156Y-90150166D01*
X143501537Y-90173976D01*
X143477727Y-90197785D01*
X143453918Y-90245404D01*
G04 #@! TO.C,C25*
X131641731Y-88738211D02*
X131617921Y-88762020D01*
X131546493Y-88785830D01*
X131498874Y-88785830D01*
X131427445Y-88762020D01*
X131379826Y-88714401D01*
X131356017Y-88666782D01*
X131332207Y-88571544D01*
X131332207Y-88500116D01*
X131356017Y-88404878D01*
X131379826Y-88357259D01*
X131427445Y-88309640D01*
X131498874Y-88285830D01*
X131546493Y-88285830D01*
X131617921Y-88309640D01*
X131641731Y-88333449D01*
X131832207Y-88333449D02*
X131856017Y-88309640D01*
X131903636Y-88285830D01*
X132022683Y-88285830D01*
X132070302Y-88309640D01*
X132094112Y-88333449D01*
X132117921Y-88381068D01*
X132117921Y-88428687D01*
X132094112Y-88500116D01*
X131808398Y-88785830D01*
X132117921Y-88785830D01*
X132570302Y-88285830D02*
X132332207Y-88285830D01*
X132308398Y-88523925D01*
X132332207Y-88500116D01*
X132379826Y-88476306D01*
X132498874Y-88476306D01*
X132546493Y-88500116D01*
X132570302Y-88523925D01*
X132594112Y-88571544D01*
X132594112Y-88690592D01*
X132570302Y-88738211D01*
X132546493Y-88762020D01*
X132498874Y-88785830D01*
X132379826Y-88785830D01*
X132332207Y-88762020D01*
X132308398Y-88738211D01*
G04 #@! TO.C,C24*
X148365091Y-90340951D02*
X148341281Y-90364760D01*
X148269853Y-90388570D01*
X148222234Y-90388570D01*
X148150805Y-90364760D01*
X148103186Y-90317141D01*
X148079377Y-90269522D01*
X148055567Y-90174284D01*
X148055567Y-90102856D01*
X148079377Y-90007618D01*
X148103186Y-89959999D01*
X148150805Y-89912380D01*
X148222234Y-89888570D01*
X148269853Y-89888570D01*
X148341281Y-89912380D01*
X148365091Y-89936189D01*
X148555567Y-89936189D02*
X148579377Y-89912380D01*
X148626996Y-89888570D01*
X148746043Y-89888570D01*
X148793662Y-89912380D01*
X148817472Y-89936189D01*
X148841281Y-89983808D01*
X148841281Y-90031427D01*
X148817472Y-90102856D01*
X148531758Y-90388570D01*
X148841281Y-90388570D01*
X149269853Y-90055237D02*
X149269853Y-90388570D01*
X149150805Y-89864760D02*
X149031758Y-90221903D01*
X149341281Y-90221903D01*
G04 #@! TO.C,C23*
X155723471Y-88662011D02*
X155699661Y-88685820D01*
X155628233Y-88709630D01*
X155580614Y-88709630D01*
X155509185Y-88685820D01*
X155461566Y-88638201D01*
X155437757Y-88590582D01*
X155413947Y-88495344D01*
X155413947Y-88423916D01*
X155437757Y-88328678D01*
X155461566Y-88281059D01*
X155509185Y-88233440D01*
X155580614Y-88209630D01*
X155628233Y-88209630D01*
X155699661Y-88233440D01*
X155723471Y-88257249D01*
X155913947Y-88257249D02*
X155937757Y-88233440D01*
X155985376Y-88209630D01*
X156104423Y-88209630D01*
X156152042Y-88233440D01*
X156175852Y-88257249D01*
X156199661Y-88304868D01*
X156199661Y-88352487D01*
X156175852Y-88423916D01*
X155890138Y-88709630D01*
X156199661Y-88709630D01*
X156366328Y-88209630D02*
X156675852Y-88209630D01*
X156509185Y-88400106D01*
X156580614Y-88400106D01*
X156628233Y-88423916D01*
X156652042Y-88447725D01*
X156675852Y-88495344D01*
X156675852Y-88614392D01*
X156652042Y-88662011D01*
X156628233Y-88685820D01*
X156580614Y-88709630D01*
X156437757Y-88709630D01*
X156390138Y-88685820D01*
X156366328Y-88662011D01*
G04 #@! TO.C,C22*
X142787251Y-89718651D02*
X142763441Y-89742460D01*
X142692013Y-89766270D01*
X142644394Y-89766270D01*
X142572965Y-89742460D01*
X142525346Y-89694841D01*
X142501537Y-89647222D01*
X142477727Y-89551984D01*
X142477727Y-89480556D01*
X142501537Y-89385318D01*
X142525346Y-89337699D01*
X142572965Y-89290080D01*
X142644394Y-89266270D01*
X142692013Y-89266270D01*
X142763441Y-89290080D01*
X142787251Y-89313889D01*
X142977727Y-89313889D02*
X143001537Y-89290080D01*
X143049156Y-89266270D01*
X143168203Y-89266270D01*
X143215822Y-89290080D01*
X143239632Y-89313889D01*
X143263441Y-89361508D01*
X143263441Y-89409127D01*
X143239632Y-89480556D01*
X142953918Y-89766270D01*
X143263441Y-89766270D01*
X143453918Y-89313889D02*
X143477727Y-89290080D01*
X143525346Y-89266270D01*
X143644394Y-89266270D01*
X143692013Y-89290080D01*
X143715822Y-89313889D01*
X143739632Y-89361508D01*
X143739632Y-89409127D01*
X143715822Y-89480556D01*
X143430108Y-89766270D01*
X143739632Y-89766270D01*
G04 #@! TO.C,C21*
X131827151Y-87668871D02*
X131803341Y-87692680D01*
X131731913Y-87716490D01*
X131684294Y-87716490D01*
X131612865Y-87692680D01*
X131565246Y-87645061D01*
X131541437Y-87597442D01*
X131517627Y-87502204D01*
X131517627Y-87430776D01*
X131541437Y-87335538D01*
X131565246Y-87287919D01*
X131612865Y-87240300D01*
X131684294Y-87216490D01*
X131731913Y-87216490D01*
X131803341Y-87240300D01*
X131827151Y-87264109D01*
X132017627Y-87264109D02*
X132041437Y-87240300D01*
X132089056Y-87216490D01*
X132208103Y-87216490D01*
X132255722Y-87240300D01*
X132279532Y-87264109D01*
X132303341Y-87311728D01*
X132303341Y-87359347D01*
X132279532Y-87430776D01*
X131993818Y-87716490D01*
X132303341Y-87716490D01*
X132779532Y-87716490D02*
X132493818Y-87716490D01*
X132636675Y-87716490D02*
X132636675Y-87216490D01*
X132589056Y-87287919D01*
X132541437Y-87335538D01*
X132493818Y-87359347D01*
G04 #@! TO.C,C11*
X150402171Y-115519971D02*
X150378361Y-115543780D01*
X150306933Y-115567590D01*
X150259314Y-115567590D01*
X150187885Y-115543780D01*
X150140266Y-115496161D01*
X150116457Y-115448542D01*
X150092647Y-115353304D01*
X150092647Y-115281876D01*
X150116457Y-115186638D01*
X150140266Y-115139019D01*
X150187885Y-115091400D01*
X150259314Y-115067590D01*
X150306933Y-115067590D01*
X150378361Y-115091400D01*
X150402171Y-115115209D01*
X150878361Y-115567590D02*
X150592647Y-115567590D01*
X150735504Y-115567590D02*
X150735504Y-115067590D01*
X150687885Y-115139019D01*
X150640266Y-115186638D01*
X150592647Y-115210447D01*
X151354552Y-115567590D02*
X151068838Y-115567590D01*
X151211695Y-115567590D02*
X151211695Y-115067590D01*
X151164076Y-115139019D01*
X151116457Y-115186638D01*
X151068838Y-115210447D01*
G04 #@! TO.C,C2*
X131133066Y-96114371D02*
X131109257Y-96138180D01*
X131037828Y-96161990D01*
X130990209Y-96161990D01*
X130918780Y-96138180D01*
X130871161Y-96090561D01*
X130847352Y-96042942D01*
X130823542Y-95947704D01*
X130823542Y-95876276D01*
X130847352Y-95781038D01*
X130871161Y-95733419D01*
X130918780Y-95685800D01*
X130990209Y-95661990D01*
X131037828Y-95661990D01*
X131109257Y-95685800D01*
X131133066Y-95709609D01*
X131323542Y-95709609D02*
X131347352Y-95685800D01*
X131394971Y-95661990D01*
X131514019Y-95661990D01*
X131561638Y-95685800D01*
X131585447Y-95709609D01*
X131609257Y-95757228D01*
X131609257Y-95804847D01*
X131585447Y-95876276D01*
X131299733Y-96161990D01*
X131609257Y-96161990D01*
G04 #@! TO.C,C3*
X144468066Y-91339171D02*
X144444257Y-91362980D01*
X144372828Y-91386790D01*
X144325209Y-91386790D01*
X144253780Y-91362980D01*
X144206161Y-91315361D01*
X144182352Y-91267742D01*
X144158542Y-91172504D01*
X144158542Y-91101076D01*
X144182352Y-91005838D01*
X144206161Y-90958219D01*
X144253780Y-90910600D01*
X144325209Y-90886790D01*
X144372828Y-90886790D01*
X144444257Y-90910600D01*
X144468066Y-90934409D01*
X144634733Y-90886790D02*
X144944257Y-90886790D01*
X144777590Y-91077266D01*
X144849019Y-91077266D01*
X144896638Y-91101076D01*
X144920447Y-91124885D01*
X144944257Y-91172504D01*
X144944257Y-91291552D01*
X144920447Y-91339171D01*
X144896638Y-91362980D01*
X144849019Y-91386790D01*
X144706161Y-91386790D01*
X144658542Y-91362980D01*
X144634733Y-91339171D01*
G04 #@! TO.C,C4*
X156380666Y-113081571D02*
X156356857Y-113105380D01*
X156285428Y-113129190D01*
X156237809Y-113129190D01*
X156166380Y-113105380D01*
X156118761Y-113057761D01*
X156094952Y-113010142D01*
X156071142Y-112914904D01*
X156071142Y-112843476D01*
X156094952Y-112748238D01*
X156118761Y-112700619D01*
X156166380Y-112653000D01*
X156237809Y-112629190D01*
X156285428Y-112629190D01*
X156356857Y-112653000D01*
X156380666Y-112676809D01*
X156809238Y-112795857D02*
X156809238Y-113129190D01*
X156690190Y-112605380D02*
X156571142Y-112962523D01*
X156880666Y-112962523D01*
G04 #@! TO.C,C20*
X152967571Y-118364771D02*
X152943761Y-118388580D01*
X152872333Y-118412390D01*
X152824714Y-118412390D01*
X152753285Y-118388580D01*
X152705666Y-118340961D01*
X152681857Y-118293342D01*
X152658047Y-118198104D01*
X152658047Y-118126676D01*
X152681857Y-118031438D01*
X152705666Y-117983819D01*
X152753285Y-117936200D01*
X152824714Y-117912390D01*
X152872333Y-117912390D01*
X152943761Y-117936200D01*
X152967571Y-117960009D01*
X153158047Y-117960009D02*
X153181857Y-117936200D01*
X153229476Y-117912390D01*
X153348523Y-117912390D01*
X153396142Y-117936200D01*
X153419952Y-117960009D01*
X153443761Y-118007628D01*
X153443761Y-118055247D01*
X153419952Y-118126676D01*
X153134238Y-118412390D01*
X153443761Y-118412390D01*
X153753285Y-117912390D02*
X153800904Y-117912390D01*
X153848523Y-117936200D01*
X153872333Y-117960009D01*
X153896142Y-118007628D01*
X153919952Y-118102866D01*
X153919952Y-118221914D01*
X153896142Y-118317152D01*
X153872333Y-118364771D01*
X153848523Y-118388580D01*
X153800904Y-118412390D01*
X153753285Y-118412390D01*
X153705666Y-118388580D01*
X153681857Y-118364771D01*
X153658047Y-118317152D01*
X153634238Y-118221914D01*
X153634238Y-118102866D01*
X153658047Y-118007628D01*
X153681857Y-117960009D01*
X153705666Y-117936200D01*
X153753285Y-117912390D01*
G04 #@! TO.C,C5*
X145814266Y-115621571D02*
X145790457Y-115645380D01*
X145719028Y-115669190D01*
X145671409Y-115669190D01*
X145599980Y-115645380D01*
X145552361Y-115597761D01*
X145528552Y-115550142D01*
X145504742Y-115454904D01*
X145504742Y-115383476D01*
X145528552Y-115288238D01*
X145552361Y-115240619D01*
X145599980Y-115193000D01*
X145671409Y-115169190D01*
X145719028Y-115169190D01*
X145790457Y-115193000D01*
X145814266Y-115216809D01*
X146266647Y-115169190D02*
X146028552Y-115169190D01*
X146004742Y-115407285D01*
X146028552Y-115383476D01*
X146076171Y-115359666D01*
X146195219Y-115359666D01*
X146242838Y-115383476D01*
X146266647Y-115407285D01*
X146290457Y-115454904D01*
X146290457Y-115573952D01*
X146266647Y-115621571D01*
X146242838Y-115645380D01*
X146195219Y-115669190D01*
X146076171Y-115669190D01*
X146028552Y-115645380D01*
X146004742Y-115621571D01*
G04 #@! TO.C,L2*
X150636933Y-116999038D02*
X150389314Y-116999038D01*
X150389314Y-116479038D01*
X150785504Y-116528561D02*
X150810266Y-116503800D01*
X150859790Y-116479038D01*
X150983600Y-116479038D01*
X151033123Y-116503800D01*
X151057885Y-116528561D01*
X151082647Y-116578085D01*
X151082647Y-116627609D01*
X151057885Y-116701895D01*
X150760742Y-116999038D01*
X151082647Y-116999038D01*
G04 #@! TO.C,L1*
X142381933Y-116973638D02*
X142134314Y-116973638D01*
X142134314Y-116453638D01*
X142827647Y-116973638D02*
X142530504Y-116973638D01*
X142679076Y-116973638D02*
X142679076Y-116453638D01*
X142629552Y-116527923D01*
X142580028Y-116577447D01*
X142530504Y-116602209D01*
G04 #@! TO.C,Y1*
D15*
X158864419Y-116868580D02*
X158864419Y-117820961D01*
X158197752Y-115820961D02*
X158864419Y-116868580D01*
X159531085Y-115820961D01*
X161245371Y-117820961D02*
X160102514Y-117820961D01*
X160673942Y-117820961D02*
X160673942Y-115820961D01*
X160483466Y-116106676D01*
X160292990Y-116297152D01*
X160102514Y-116392390D01*
G04 #@! TO.C,R1*
D14*
X161508166Y-93723590D02*
X161341500Y-93485495D01*
X161222452Y-93723590D02*
X161222452Y-93223590D01*
X161412928Y-93223590D01*
X161460547Y-93247400D01*
X161484357Y-93271209D01*
X161508166Y-93318828D01*
X161508166Y-93390257D01*
X161484357Y-93437876D01*
X161460547Y-93461685D01*
X161412928Y-93485495D01*
X161222452Y-93485495D01*
X161984357Y-93723590D02*
X161698642Y-93723590D01*
X161841500Y-93723590D02*
X161841500Y-93223590D01*
X161793880Y-93295019D01*
X161746261Y-93342638D01*
X161698642Y-93366447D01*
G04 #@! TO.C,D1*
D12*
X165361904Y-96436440D02*
X165361904Y-95436440D01*
X165600000Y-95436440D01*
X165742857Y-95484060D01*
X165838095Y-95579298D01*
X165885714Y-95674536D01*
X165933333Y-95865012D01*
X165933333Y-96007869D01*
X165885714Y-96198345D01*
X165838095Y-96293583D01*
X165742857Y-96388821D01*
X165600000Y-96436440D01*
X165361904Y-96436440D01*
X166885714Y-96436440D02*
X166314285Y-96436440D01*
X166600000Y-96436440D02*
X166600000Y-95436440D01*
X166504761Y-95579298D01*
X166409523Y-95674536D01*
X166314285Y-95722155D01*
G04 #@! TO.C,U1*
D15*
X141782990Y-102155761D02*
X141782990Y-103774809D01*
X141878228Y-103965285D01*
X141973466Y-104060523D01*
X142163942Y-104155761D01*
X142544895Y-104155761D01*
X142735371Y-104060523D01*
X142830609Y-103965285D01*
X142925847Y-103774809D01*
X142925847Y-102155761D01*
X144925847Y-104155761D02*
X143782990Y-104155761D01*
X144354419Y-104155761D02*
X144354419Y-102155761D01*
X144163942Y-102441476D01*
X143973466Y-102631952D01*
X143782990Y-102727190D01*
G04 #@! TO.C,U5*
X144280656Y-82089761D02*
X144280656Y-83708809D01*
X144375894Y-83899285D01*
X144471132Y-83994523D01*
X144661608Y-84089761D01*
X145042561Y-84089761D01*
X145233037Y-83994523D01*
X145328275Y-83899285D01*
X145423513Y-83708809D01*
X145423513Y-82089761D01*
X147328275Y-82089761D02*
X146375894Y-82089761D01*
X146280656Y-83042142D01*
X146375894Y-82946904D01*
X146566370Y-82851666D01*
X147042561Y-82851666D01*
X147233037Y-82946904D01*
X147328275Y-83042142D01*
X147423513Y-83232619D01*
X147423513Y-83708809D01*
X147328275Y-83899285D01*
X147233037Y-83994523D01*
X147042561Y-84089761D01*
X146566370Y-84089761D01*
X146375894Y-83994523D01*
X146280656Y-83899285D01*
G04 #@! TO.C,U4*
X149860190Y-82064361D02*
X149860190Y-83683409D01*
X149955428Y-83873885D01*
X150050666Y-83969123D01*
X150241142Y-84064361D01*
X150622095Y-84064361D01*
X150812571Y-83969123D01*
X150907809Y-83873885D01*
X151003047Y-83683409D01*
X151003047Y-82064361D01*
X152812571Y-82731028D02*
X152812571Y-84064361D01*
X152336380Y-81969123D02*
X151860190Y-83397695D01*
X153098285Y-83397695D01*
G04 #@! TO.C,U3*
X138675723Y-82150961D02*
X138675723Y-83770009D01*
X138770961Y-83960485D01*
X138866199Y-84055723D01*
X139056675Y-84150961D01*
X139437628Y-84150961D01*
X139628104Y-84055723D01*
X139723342Y-83960485D01*
X139818580Y-83770009D01*
X139818580Y-82150961D01*
X140580485Y-82150961D02*
X141818580Y-82150961D01*
X141151913Y-82912866D01*
X141437628Y-82912866D01*
X141628104Y-83008104D01*
X141723342Y-83103342D01*
X141818580Y-83293819D01*
X141818580Y-83770009D01*
X141723342Y-83960485D01*
X141628104Y-84055723D01*
X141437628Y-84150961D01*
X140866199Y-84150961D01*
X140675723Y-84055723D01*
X140580485Y-83960485D01*
G04 #@! TO.C,U2*
X134340790Y-82115161D02*
X134340790Y-83734209D01*
X134436028Y-83924685D01*
X134531266Y-84019923D01*
X134721742Y-84115161D01*
X135102695Y-84115161D01*
X135293171Y-84019923D01*
X135388409Y-83924685D01*
X135483647Y-83734209D01*
X135483647Y-82115161D01*
X136340790Y-82305638D02*
X136436028Y-82210400D01*
X136626504Y-82115161D01*
X137102695Y-82115161D01*
X137293171Y-82210400D01*
X137388409Y-82305638D01*
X137483647Y-82496114D01*
X137483647Y-82686590D01*
X137388409Y-82972304D01*
X136245552Y-84115161D01*
X137483647Y-84115161D01*
G04 #@! TD*
M02*
