G04 #@! TF.GenerationSoftware,KiCad,Pcbnew,(5.0.1)-3*
G04 #@! TF.CreationDate,2019-01-05T18:42:13-08:00*
G04 #@! TF.ProjectId,EScope-MSDAQ-2-INTANDAQ,4553636F70652D4D534441512D322D49,rev?*
G04 #@! TF.SameCoordinates,Original*
G04 #@! TF.FileFunction,Soldermask,Top*
G04 #@! TF.FilePolarity,Negative*
%FSLAX46Y46*%
G04 Gerber Fmt 4.6, Leading zero omitted, Abs format (unit mm)*
G04 Created by KiCad (PCBNEW (5.0.1)-3) date 1/5/2019 6:42:13 PM*
%MOMM*%
%LPD*%
G01*
G04 APERTURE LIST*
%ADD10C,0.100000*%
G04 APERTURE END LIST*
D10*
G36*
X162404752Y-119624945D02*
X162906077Y-119724664D01*
X163456664Y-119952725D01*
X163952180Y-120283818D01*
X164373582Y-120705220D01*
X164704675Y-121200736D01*
X164932736Y-121751323D01*
X165049000Y-122335824D01*
X165049000Y-122931776D01*
X164932736Y-123516277D01*
X164704675Y-124066864D01*
X164373582Y-124562380D01*
X163952180Y-124983782D01*
X163456664Y-125314875D01*
X162906077Y-125542936D01*
X162404752Y-125642655D01*
X162321577Y-125659200D01*
X161725623Y-125659200D01*
X161642448Y-125642655D01*
X161141123Y-125542936D01*
X160590536Y-125314875D01*
X160095020Y-124983782D01*
X159673618Y-124562380D01*
X159342525Y-124066864D01*
X159114464Y-123516277D01*
X158998200Y-122931776D01*
X158998200Y-122335824D01*
X159114464Y-121751323D01*
X159342525Y-121200736D01*
X159673618Y-120705220D01*
X160095020Y-120283818D01*
X160590536Y-119952725D01*
X161141123Y-119724664D01*
X161642448Y-119624945D01*
X161725623Y-119608400D01*
X162321577Y-119608400D01*
X162404752Y-119624945D01*
X162404752Y-119624945D01*
G37*
G36*
X125404752Y-119624945D02*
X125906077Y-119724664D01*
X126456664Y-119952725D01*
X126952180Y-120283818D01*
X127373582Y-120705220D01*
X127704675Y-121200736D01*
X127932736Y-121751323D01*
X128049000Y-122335824D01*
X128049000Y-122931776D01*
X127932736Y-123516277D01*
X127704675Y-124066864D01*
X127373582Y-124562380D01*
X126952180Y-124983782D01*
X126456664Y-125314875D01*
X125906077Y-125542936D01*
X125404752Y-125642655D01*
X125321577Y-125659200D01*
X124725623Y-125659200D01*
X124642448Y-125642655D01*
X124141123Y-125542936D01*
X123590536Y-125314875D01*
X123095020Y-124983782D01*
X122673618Y-124562380D01*
X122342525Y-124066864D01*
X122114464Y-123516277D01*
X121998200Y-122931776D01*
X121998200Y-122335824D01*
X122114464Y-121751323D01*
X122342525Y-121200736D01*
X122673618Y-120705220D01*
X123095020Y-120283818D01*
X123590536Y-119952725D01*
X124141123Y-119724664D01*
X124642448Y-119624945D01*
X124725623Y-119608400D01*
X125321577Y-119608400D01*
X125404752Y-119624945D01*
X125404752Y-119624945D01*
G37*
G36*
X144367405Y-123292466D02*
X144367408Y-123292467D01*
X144532422Y-123342523D01*
X144684499Y-123423810D01*
X144684501Y-123423811D01*
X144684500Y-123423811D01*
X144817796Y-123533204D01*
X144927189Y-123666500D01*
X145008476Y-123818576D01*
X145058534Y-123983595D01*
X145075435Y-124155200D01*
X145058534Y-124326805D01*
X145058533Y-124326808D01*
X145008477Y-124491822D01*
X144927190Y-124643899D01*
X144817796Y-124777196D01*
X144684499Y-124886590D01*
X144532422Y-124967877D01*
X144398125Y-125008615D01*
X144367405Y-125017934D01*
X144238802Y-125030600D01*
X144152798Y-125030600D01*
X144024195Y-125017934D01*
X143993475Y-125008615D01*
X143859178Y-124967877D01*
X143707101Y-124886590D01*
X143573804Y-124777196D01*
X143464410Y-124643899D01*
X143383123Y-124491822D01*
X143333067Y-124326808D01*
X143333066Y-124326805D01*
X143316165Y-124155200D01*
X143333066Y-123983595D01*
X143383124Y-123818576D01*
X143464411Y-123666500D01*
X143573804Y-123533204D01*
X143707100Y-123423811D01*
X143707099Y-123423811D01*
X143707101Y-123423810D01*
X143859178Y-123342523D01*
X144024192Y-123292467D01*
X144024195Y-123292466D01*
X144152798Y-123279800D01*
X144238802Y-123279800D01*
X144367405Y-123292466D01*
X144367405Y-123292466D01*
G37*
G36*
X141827405Y-123292466D02*
X141827408Y-123292467D01*
X141992422Y-123342523D01*
X142144499Y-123423810D01*
X142144501Y-123423811D01*
X142144500Y-123423811D01*
X142277796Y-123533204D01*
X142387189Y-123666500D01*
X142468476Y-123818576D01*
X142518534Y-123983595D01*
X142535435Y-124155200D01*
X142518534Y-124326805D01*
X142518533Y-124326808D01*
X142468477Y-124491822D01*
X142387190Y-124643899D01*
X142277796Y-124777196D01*
X142144499Y-124886590D01*
X141992422Y-124967877D01*
X141858125Y-125008615D01*
X141827405Y-125017934D01*
X141698802Y-125030600D01*
X141612798Y-125030600D01*
X141484195Y-125017934D01*
X141453475Y-125008615D01*
X141319178Y-124967877D01*
X141167101Y-124886590D01*
X141033804Y-124777196D01*
X140924410Y-124643899D01*
X140843123Y-124491822D01*
X140793067Y-124326808D01*
X140793066Y-124326805D01*
X140776165Y-124155200D01*
X140793066Y-123983595D01*
X140843124Y-123818576D01*
X140924411Y-123666500D01*
X141033804Y-123533204D01*
X141167100Y-123423811D01*
X141167099Y-123423811D01*
X141167101Y-123423810D01*
X141319178Y-123342523D01*
X141484192Y-123292467D01*
X141484195Y-123292466D01*
X141612798Y-123279800D01*
X141698802Y-123279800D01*
X141827405Y-123292466D01*
X141827405Y-123292466D01*
G37*
G36*
X146907405Y-123292466D02*
X146907408Y-123292467D01*
X147072422Y-123342523D01*
X147224499Y-123423810D01*
X147224501Y-123423811D01*
X147224500Y-123423811D01*
X147357796Y-123533204D01*
X147467189Y-123666500D01*
X147548476Y-123818576D01*
X147598534Y-123983595D01*
X147615435Y-124155200D01*
X147598534Y-124326805D01*
X147598533Y-124326808D01*
X147548477Y-124491822D01*
X147467190Y-124643899D01*
X147357796Y-124777196D01*
X147224499Y-124886590D01*
X147072422Y-124967877D01*
X146938125Y-125008615D01*
X146907405Y-125017934D01*
X146778802Y-125030600D01*
X146692798Y-125030600D01*
X146564195Y-125017934D01*
X146533475Y-125008615D01*
X146399178Y-124967877D01*
X146247101Y-124886590D01*
X146113804Y-124777196D01*
X146004410Y-124643899D01*
X145923123Y-124491822D01*
X145873067Y-124326808D01*
X145873066Y-124326805D01*
X145856165Y-124155200D01*
X145873066Y-123983595D01*
X145923124Y-123818576D01*
X146004411Y-123666500D01*
X146113804Y-123533204D01*
X146247100Y-123423811D01*
X146247099Y-123423811D01*
X146247101Y-123423810D01*
X146399178Y-123342523D01*
X146564192Y-123292467D01*
X146564195Y-123292466D01*
X146692798Y-123279800D01*
X146778802Y-123279800D01*
X146907405Y-123292466D01*
X146907405Y-123292466D01*
G37*
G36*
X149447405Y-123292466D02*
X149447408Y-123292467D01*
X149612422Y-123342523D01*
X149764499Y-123423810D01*
X149764501Y-123423811D01*
X149764500Y-123423811D01*
X149897796Y-123533204D01*
X150007189Y-123666500D01*
X150088476Y-123818576D01*
X150138534Y-123983595D01*
X150155435Y-124155200D01*
X150138534Y-124326805D01*
X150138533Y-124326808D01*
X150088477Y-124491822D01*
X150007190Y-124643899D01*
X149897796Y-124777196D01*
X149764499Y-124886590D01*
X149612422Y-124967877D01*
X149478125Y-125008615D01*
X149447405Y-125017934D01*
X149318802Y-125030600D01*
X149232798Y-125030600D01*
X149104195Y-125017934D01*
X149073475Y-125008615D01*
X148939178Y-124967877D01*
X148787101Y-124886590D01*
X148653804Y-124777196D01*
X148544410Y-124643899D01*
X148463123Y-124491822D01*
X148413067Y-124326808D01*
X148413066Y-124326805D01*
X148396165Y-124155200D01*
X148413066Y-123983595D01*
X148463124Y-123818576D01*
X148544411Y-123666500D01*
X148653804Y-123533204D01*
X148787100Y-123423811D01*
X148787099Y-123423811D01*
X148787101Y-123423810D01*
X148939178Y-123342523D01*
X149104192Y-123292467D01*
X149104195Y-123292466D01*
X149232798Y-123279800D01*
X149318802Y-123279800D01*
X149447405Y-123292466D01*
X149447405Y-123292466D01*
G37*
G36*
X139991200Y-125030600D02*
X138240400Y-125030600D01*
X138240400Y-123279800D01*
X139991200Y-123279800D01*
X139991200Y-125030600D01*
X139991200Y-125030600D01*
G37*
G36*
X157046600Y-120076000D02*
X156415800Y-120076000D01*
X156415800Y-119395200D01*
X157046600Y-119395200D01*
X157046600Y-120076000D01*
X157046600Y-120076000D01*
G37*
G36*
X156156600Y-120076000D02*
X155525800Y-120076000D01*
X155525800Y-119395200D01*
X156156600Y-119395200D01*
X156156600Y-120076000D01*
X156156600Y-120076000D01*
G37*
G36*
X157583800Y-118614600D02*
X156333000Y-118614600D01*
X156333000Y-117163800D01*
X157583800Y-117163800D01*
X157583800Y-118614600D01*
X157583800Y-118614600D01*
G37*
G36*
X155883800Y-118614600D02*
X154633000Y-118614600D01*
X154633000Y-117163800D01*
X155883800Y-117163800D01*
X155883800Y-118614600D01*
X155883800Y-118614600D01*
G37*
G36*
X153985000Y-117625800D02*
X153304200Y-117625800D01*
X153304200Y-116995000D01*
X153985000Y-116995000D01*
X153985000Y-117625800D01*
X153985000Y-117625800D01*
G37*
G36*
X150131800Y-117198400D02*
X149191000Y-117198400D01*
X149191000Y-116227600D01*
X150131800Y-116227600D01*
X150131800Y-117198400D01*
X150131800Y-117198400D01*
G37*
G36*
X148801800Y-117198400D02*
X147861000Y-117198400D01*
X147861000Y-116227600D01*
X148801800Y-116227600D01*
X148801800Y-117198400D01*
X148801800Y-117198400D01*
G37*
G36*
X141876800Y-117173000D02*
X140936000Y-117173000D01*
X140936000Y-116202200D01*
X141876800Y-116202200D01*
X141876800Y-117173000D01*
X141876800Y-117173000D01*
G37*
G36*
X140546800Y-117173000D02*
X139606000Y-117173000D01*
X139606000Y-116202200D01*
X140546800Y-116202200D01*
X140546800Y-117173000D01*
X140546800Y-117173000D01*
G37*
G36*
X138022000Y-116977200D02*
X137391200Y-116977200D01*
X137391200Y-116296400D01*
X138022000Y-116296400D01*
X138022000Y-116977200D01*
X138022000Y-116977200D01*
G37*
G36*
X137132000Y-116977200D02*
X136501200Y-116977200D01*
X136501200Y-116296400D01*
X137132000Y-116296400D01*
X137132000Y-116977200D01*
X137132000Y-116977200D01*
G37*
G36*
X153985000Y-116735800D02*
X153304200Y-116735800D01*
X153304200Y-116105000D01*
X153985000Y-116105000D01*
X153985000Y-116735800D01*
X153985000Y-116735800D01*
G37*
G36*
X155883800Y-116414600D02*
X154633000Y-116414600D01*
X154633000Y-114963800D01*
X155883800Y-114963800D01*
X155883800Y-116414600D01*
X155883800Y-116414600D01*
G37*
G36*
X157583800Y-116414600D02*
X156333000Y-116414600D01*
X156333000Y-114963800D01*
X157583800Y-114963800D01*
X157583800Y-116414600D01*
X157583800Y-116414600D01*
G37*
G36*
X147215800Y-115732600D02*
X146585000Y-115732600D01*
X146585000Y-115051800D01*
X147215800Y-115051800D01*
X147215800Y-115732600D01*
X147215800Y-115732600D01*
G37*
G36*
X148105800Y-115732600D02*
X147475000Y-115732600D01*
X147475000Y-115051800D01*
X148105800Y-115051800D01*
X148105800Y-115732600D01*
X148105800Y-115732600D01*
G37*
G36*
X149934600Y-115707200D02*
X149303800Y-115707200D01*
X149303800Y-115026400D01*
X149934600Y-115026400D01*
X149934600Y-115707200D01*
X149934600Y-115707200D01*
G37*
G36*
X149044600Y-115707200D02*
X148413800Y-115707200D01*
X148413800Y-115026400D01*
X149044600Y-115026400D01*
X149044600Y-115707200D01*
X149044600Y-115707200D01*
G37*
G36*
X140942000Y-115656400D02*
X140311200Y-115656400D01*
X140311200Y-114975600D01*
X140942000Y-114975600D01*
X140942000Y-115656400D01*
X140942000Y-115656400D01*
G37*
G36*
X141832000Y-115656400D02*
X141201200Y-115656400D01*
X141201200Y-114975600D01*
X141832000Y-114975600D01*
X141832000Y-115656400D01*
X141832000Y-115656400D01*
G37*
G36*
X152118000Y-115605600D02*
X151487200Y-115605600D01*
X151487200Y-114924800D01*
X152118000Y-114924800D01*
X152118000Y-115605600D01*
X152118000Y-115605600D01*
G37*
G36*
X153008000Y-115605600D02*
X152377200Y-115605600D01*
X152377200Y-114924800D01*
X153008000Y-114924800D01*
X153008000Y-115605600D01*
X153008000Y-115605600D01*
G37*
G36*
X152232200Y-114481400D02*
X134381400Y-114481400D01*
X134381400Y-113260600D01*
X152232200Y-113260600D01*
X152232200Y-114481400D01*
X152232200Y-114481400D01*
G37*
G36*
X132803592Y-113485987D02*
X132876460Y-113516170D01*
X132876461Y-113516171D01*
X132942043Y-113559991D01*
X132997809Y-113615757D01*
X132997811Y-113615760D01*
X133041630Y-113681340D01*
X133071813Y-113754208D01*
X133087200Y-113831564D01*
X133087200Y-113910436D01*
X133071813Y-113987792D01*
X133041630Y-114060660D01*
X133041629Y-114060661D01*
X132997809Y-114126243D01*
X132942043Y-114182009D01*
X132942040Y-114182011D01*
X132876460Y-114225830D01*
X132803592Y-114256013D01*
X132726236Y-114271400D01*
X132647364Y-114271400D01*
X132570008Y-114256013D01*
X132497140Y-114225830D01*
X132431560Y-114182011D01*
X132431557Y-114182009D01*
X132375791Y-114126243D01*
X132331971Y-114060661D01*
X132331970Y-114060660D01*
X132301787Y-113987792D01*
X132286400Y-113910436D01*
X132286400Y-113831564D01*
X132301787Y-113754208D01*
X132331970Y-113681340D01*
X132375789Y-113615760D01*
X132375791Y-113615757D01*
X132431557Y-113559991D01*
X132497139Y-113516171D01*
X132497140Y-113516170D01*
X132570008Y-113485987D01*
X132647364Y-113470600D01*
X132726236Y-113470600D01*
X132803592Y-113485987D01*
X132803592Y-113485987D01*
G37*
G36*
X155686800Y-112304000D02*
X155006000Y-112304000D01*
X155006000Y-111673200D01*
X155686800Y-111673200D01*
X155686800Y-112304000D01*
X155686800Y-112304000D01*
G37*
G36*
X156677400Y-112291800D02*
X155996600Y-112291800D01*
X155996600Y-111661000D01*
X156677400Y-111661000D01*
X156677400Y-112291800D01*
X156677400Y-112291800D01*
G37*
G36*
X154537200Y-112176400D02*
X153316400Y-112176400D01*
X153316400Y-94325600D01*
X154537200Y-94325600D01*
X154537200Y-112176400D01*
X154537200Y-112176400D01*
G37*
G36*
X133297200Y-112176400D02*
X132076400Y-112176400D01*
X132076400Y-94325600D01*
X133297200Y-94325600D01*
X133297200Y-112176400D01*
X133297200Y-112176400D01*
G37*
G36*
X160362000Y-112152800D02*
X158611200Y-112152800D01*
X158611200Y-110402000D01*
X160362000Y-110402000D01*
X160362000Y-112152800D01*
X160362000Y-112152800D01*
G37*
G36*
X162591292Y-110755439D02*
X162622872Y-110765019D01*
X162651976Y-110780576D01*
X162677488Y-110801512D01*
X162698424Y-110827024D01*
X162713981Y-110856128D01*
X162723561Y-110887708D01*
X162727400Y-110926690D01*
X162727400Y-111577310D01*
X162723561Y-111616292D01*
X162713981Y-111647872D01*
X162698424Y-111676976D01*
X162677488Y-111702488D01*
X162651976Y-111723424D01*
X162622872Y-111738981D01*
X162591292Y-111748561D01*
X162552310Y-111752400D01*
X161976690Y-111752400D01*
X161937708Y-111748561D01*
X161906128Y-111738981D01*
X161877024Y-111723424D01*
X161851512Y-111702488D01*
X161830576Y-111676976D01*
X161815019Y-111647872D01*
X161805439Y-111616292D01*
X161801600Y-111577310D01*
X161801600Y-110926690D01*
X161805439Y-110887708D01*
X161815019Y-110856128D01*
X161830576Y-110827024D01*
X161851512Y-110801512D01*
X161877024Y-110780576D01*
X161906128Y-110765019D01*
X161937708Y-110755439D01*
X161976690Y-110751600D01*
X162552310Y-110751600D01*
X162591292Y-110755439D01*
X162591292Y-110755439D01*
G37*
G36*
X164166292Y-110755439D02*
X164197872Y-110765019D01*
X164226976Y-110780576D01*
X164252488Y-110801512D01*
X164273424Y-110827024D01*
X164288981Y-110856128D01*
X164298561Y-110887708D01*
X164302400Y-110926690D01*
X164302400Y-111577310D01*
X164298561Y-111616292D01*
X164288981Y-111647872D01*
X164273424Y-111676976D01*
X164252488Y-111702488D01*
X164226976Y-111723424D01*
X164197872Y-111738981D01*
X164166292Y-111748561D01*
X164127310Y-111752400D01*
X163551690Y-111752400D01*
X163512708Y-111748561D01*
X163481128Y-111738981D01*
X163452024Y-111723424D01*
X163426512Y-111702488D01*
X163405576Y-111676976D01*
X163390019Y-111647872D01*
X163380439Y-111616292D01*
X163376600Y-111577310D01*
X163376600Y-110926690D01*
X163380439Y-110887708D01*
X163390019Y-110856128D01*
X163405576Y-110827024D01*
X163426512Y-110801512D01*
X163452024Y-110780576D01*
X163481128Y-110765019D01*
X163512708Y-110755439D01*
X163551690Y-110751600D01*
X164127310Y-110751600D01*
X164166292Y-110755439D01*
X164166292Y-110755439D01*
G37*
G36*
X131582200Y-111733000D02*
X130901400Y-111733000D01*
X130901400Y-111102200D01*
X131582200Y-111102200D01*
X131582200Y-111733000D01*
X131582200Y-111733000D01*
G37*
G36*
X155686800Y-111414000D02*
X155006000Y-111414000D01*
X155006000Y-110783200D01*
X155686800Y-110783200D01*
X155686800Y-111414000D01*
X155686800Y-111414000D01*
G37*
G36*
X156677400Y-111401800D02*
X155996600Y-111401800D01*
X155996600Y-110771000D01*
X156677400Y-110771000D01*
X156677400Y-111401800D01*
X156677400Y-111401800D01*
G37*
G36*
X131582200Y-110843000D02*
X130901400Y-110843000D01*
X130901400Y-110212200D01*
X131582200Y-110212200D01*
X131582200Y-110843000D01*
X131582200Y-110843000D01*
G37*
G36*
X155712200Y-110132800D02*
X155031400Y-110132800D01*
X155031400Y-109502000D01*
X155712200Y-109502000D01*
X155712200Y-110132800D01*
X155712200Y-110132800D01*
G37*
G36*
X155712200Y-109242800D02*
X155031400Y-109242800D01*
X155031400Y-108612000D01*
X155712200Y-108612000D01*
X155712200Y-109242800D01*
X155712200Y-109242800D01*
G37*
G36*
X163777400Y-109017400D02*
X163236600Y-109017400D01*
X163236600Y-108406600D01*
X163777400Y-108406600D01*
X163777400Y-109017400D01*
X163777400Y-109017400D01*
G37*
G36*
X162867400Y-109017400D02*
X162326600Y-109017400D01*
X162326600Y-108406600D01*
X162867400Y-108406600D01*
X162867400Y-109017400D01*
X162867400Y-109017400D01*
G37*
G36*
X121419806Y-106905667D02*
X121419809Y-106905668D01*
X121584823Y-106955724D01*
X121736900Y-107037011D01*
X121736902Y-107037012D01*
X121736901Y-107037012D01*
X121870197Y-107146405D01*
X121979590Y-107279701D01*
X122060877Y-107431777D01*
X122110935Y-107596796D01*
X122127836Y-107768401D01*
X122110935Y-107940006D01*
X122110934Y-107940009D01*
X122060878Y-108105023D01*
X121979591Y-108257100D01*
X121870197Y-108390397D01*
X121736900Y-108499791D01*
X121584823Y-108581078D01*
X121482886Y-108612000D01*
X121419806Y-108631135D01*
X121291203Y-108643801D01*
X121205199Y-108643801D01*
X121076596Y-108631135D01*
X121013516Y-108612000D01*
X120911579Y-108581078D01*
X120759502Y-108499791D01*
X120626205Y-108390397D01*
X120516811Y-108257100D01*
X120435524Y-108105023D01*
X120385468Y-107940009D01*
X120385467Y-107940006D01*
X120368566Y-107768401D01*
X120385467Y-107596796D01*
X120435525Y-107431777D01*
X120516812Y-107279701D01*
X120626205Y-107146405D01*
X120759501Y-107037012D01*
X120759500Y-107037012D01*
X120759502Y-107037011D01*
X120911579Y-106955724D01*
X121076593Y-106905668D01*
X121076596Y-106905667D01*
X121205199Y-106893001D01*
X121291203Y-106893001D01*
X121419806Y-106905667D01*
X121419806Y-106905667D01*
G37*
G36*
X160539800Y-106971200D02*
X158789000Y-106971200D01*
X158789000Y-105220400D01*
X160539800Y-105220400D01*
X160539800Y-106971200D01*
X160539800Y-106971200D01*
G37*
G36*
X164166292Y-105675439D02*
X164197872Y-105685019D01*
X164226976Y-105700576D01*
X164252488Y-105721512D01*
X164273424Y-105747024D01*
X164288981Y-105776128D01*
X164298561Y-105807708D01*
X164302400Y-105846690D01*
X164302400Y-106497310D01*
X164298561Y-106536292D01*
X164288981Y-106567872D01*
X164273424Y-106596976D01*
X164252488Y-106622488D01*
X164226976Y-106643424D01*
X164197872Y-106658981D01*
X164166292Y-106668561D01*
X164127310Y-106672400D01*
X163551690Y-106672400D01*
X163512708Y-106668561D01*
X163481128Y-106658981D01*
X163452024Y-106643424D01*
X163426512Y-106622488D01*
X163405576Y-106596976D01*
X163390019Y-106567872D01*
X163380439Y-106536292D01*
X163376600Y-106497310D01*
X163376600Y-105846690D01*
X163380439Y-105807708D01*
X163390019Y-105776128D01*
X163405576Y-105747024D01*
X163426512Y-105721512D01*
X163452024Y-105700576D01*
X163481128Y-105685019D01*
X163512708Y-105675439D01*
X163551690Y-105671600D01*
X164127310Y-105671600D01*
X164166292Y-105675439D01*
X164166292Y-105675439D01*
G37*
G36*
X162591292Y-105675439D02*
X162622872Y-105685019D01*
X162651976Y-105700576D01*
X162677488Y-105721512D01*
X162698424Y-105747024D01*
X162713981Y-105776128D01*
X162723561Y-105807708D01*
X162727400Y-105846690D01*
X162727400Y-106497310D01*
X162723561Y-106536292D01*
X162713981Y-106567872D01*
X162698424Y-106596976D01*
X162677488Y-106622488D01*
X162651976Y-106643424D01*
X162622872Y-106658981D01*
X162591292Y-106668561D01*
X162552310Y-106672400D01*
X161976690Y-106672400D01*
X161937708Y-106668561D01*
X161906128Y-106658981D01*
X161877024Y-106643424D01*
X161851512Y-106622488D01*
X161830576Y-106596976D01*
X161815019Y-106567872D01*
X161805439Y-106536292D01*
X161801600Y-106497310D01*
X161801600Y-105846690D01*
X161805439Y-105807708D01*
X161815019Y-105776128D01*
X161830576Y-105747024D01*
X161851512Y-105721512D01*
X161877024Y-105700576D01*
X161906128Y-105685019D01*
X161937708Y-105675439D01*
X161976690Y-105671600D01*
X162552310Y-105671600D01*
X162591292Y-105675439D01*
X162591292Y-105675439D01*
G37*
G36*
X131607600Y-106500600D02*
X130926800Y-106500600D01*
X130926800Y-105869800D01*
X131607600Y-105869800D01*
X131607600Y-106500600D01*
X131607600Y-106500600D01*
G37*
G36*
X121419806Y-104365667D02*
X121419809Y-104365668D01*
X121584823Y-104415724D01*
X121736900Y-104497011D01*
X121870197Y-104606405D01*
X121979591Y-104739702D01*
X122050380Y-104872139D01*
X122060877Y-104891777D01*
X122110935Y-105056796D01*
X122127836Y-105228401D01*
X122110935Y-105400006D01*
X122110934Y-105400009D01*
X122060878Y-105565023D01*
X121979591Y-105717100D01*
X121870197Y-105850397D01*
X121736900Y-105959791D01*
X121584823Y-106041078D01*
X121450526Y-106081816D01*
X121419806Y-106091135D01*
X121291203Y-106103801D01*
X121205199Y-106103801D01*
X121076596Y-106091135D01*
X121045876Y-106081816D01*
X120911579Y-106041078D01*
X120759502Y-105959791D01*
X120626205Y-105850397D01*
X120516811Y-105717100D01*
X120435524Y-105565023D01*
X120385468Y-105400009D01*
X120385467Y-105400006D01*
X120368566Y-105228401D01*
X120385467Y-105056796D01*
X120435525Y-104891777D01*
X120446022Y-104872139D01*
X120516811Y-104739702D01*
X120626205Y-104606405D01*
X120759502Y-104497011D01*
X120911579Y-104415724D01*
X121076593Y-104365668D01*
X121076596Y-104365667D01*
X121205199Y-104353001D01*
X121291203Y-104353001D01*
X121419806Y-104365667D01*
X121419806Y-104365667D01*
G37*
G36*
X131607600Y-105610600D02*
X130926800Y-105610600D01*
X130926800Y-104979800D01*
X131607600Y-104979800D01*
X131607600Y-105610600D01*
X131607600Y-105610600D01*
G37*
G36*
X163777400Y-103937400D02*
X163236600Y-103937400D01*
X163236600Y-103326600D01*
X163777400Y-103326600D01*
X163777400Y-103937400D01*
X163777400Y-103937400D01*
G37*
G36*
X162867400Y-103937400D02*
X162326600Y-103937400D01*
X162326600Y-103326600D01*
X162867400Y-103326600D01*
X162867400Y-103937400D01*
X162867400Y-103937400D01*
G37*
G36*
X121419806Y-101825667D02*
X121419809Y-101825668D01*
X121584823Y-101875724D01*
X121736900Y-101957011D01*
X121870197Y-102066405D01*
X121960468Y-102176400D01*
X121979590Y-102199701D01*
X122060877Y-102351777D01*
X122110935Y-102516796D01*
X122127836Y-102688401D01*
X122110935Y-102860006D01*
X122110934Y-102860009D01*
X122060878Y-103025023D01*
X121979591Y-103177100D01*
X121870197Y-103310397D01*
X121736900Y-103419791D01*
X121584823Y-103501078D01*
X121450526Y-103541816D01*
X121419806Y-103551135D01*
X121291203Y-103563801D01*
X121205199Y-103563801D01*
X121076596Y-103551135D01*
X121045876Y-103541816D01*
X120911579Y-103501078D01*
X120759502Y-103419791D01*
X120626205Y-103310397D01*
X120516811Y-103177100D01*
X120435524Y-103025023D01*
X120385468Y-102860009D01*
X120385467Y-102860006D01*
X120368566Y-102688401D01*
X120385467Y-102516796D01*
X120435525Y-102351777D01*
X120516812Y-102199701D01*
X120535935Y-102176400D01*
X120626205Y-102066405D01*
X120759502Y-101957011D01*
X120911579Y-101875724D01*
X121076593Y-101825668D01*
X121076596Y-101825667D01*
X121205199Y-101813001D01*
X121291203Y-101813001D01*
X121419806Y-101825667D01*
X121419806Y-101825667D01*
G37*
G36*
X160514400Y-101967400D02*
X158763600Y-101967400D01*
X158763600Y-100216600D01*
X160514400Y-100216600D01*
X160514400Y-101967400D01*
X160514400Y-101967400D01*
G37*
G36*
X162591292Y-100595439D02*
X162622872Y-100605019D01*
X162651976Y-100620576D01*
X162677488Y-100641512D01*
X162698424Y-100667024D01*
X162713981Y-100696128D01*
X162723561Y-100727708D01*
X162727400Y-100766690D01*
X162727400Y-101417310D01*
X162723561Y-101456292D01*
X162713981Y-101487872D01*
X162698424Y-101516976D01*
X162677488Y-101542488D01*
X162651976Y-101563424D01*
X162622872Y-101578981D01*
X162591292Y-101588561D01*
X162552310Y-101592400D01*
X161976690Y-101592400D01*
X161937708Y-101588561D01*
X161906128Y-101578981D01*
X161877024Y-101563424D01*
X161851512Y-101542488D01*
X161830576Y-101516976D01*
X161815019Y-101487872D01*
X161805439Y-101456292D01*
X161801600Y-101417310D01*
X161801600Y-100766690D01*
X161805439Y-100727708D01*
X161815019Y-100696128D01*
X161830576Y-100667024D01*
X161851512Y-100641512D01*
X161877024Y-100620576D01*
X161906128Y-100605019D01*
X161937708Y-100595439D01*
X161976690Y-100591600D01*
X162552310Y-100591600D01*
X162591292Y-100595439D01*
X162591292Y-100595439D01*
G37*
G36*
X164166292Y-100595439D02*
X164197872Y-100605019D01*
X164226976Y-100620576D01*
X164252488Y-100641512D01*
X164273424Y-100667024D01*
X164288981Y-100696128D01*
X164298561Y-100727708D01*
X164302400Y-100766690D01*
X164302400Y-101417310D01*
X164298561Y-101456292D01*
X164288981Y-101487872D01*
X164273424Y-101516976D01*
X164252488Y-101542488D01*
X164226976Y-101563424D01*
X164197872Y-101578981D01*
X164166292Y-101588561D01*
X164127310Y-101592400D01*
X163551690Y-101592400D01*
X163512708Y-101588561D01*
X163481128Y-101578981D01*
X163452024Y-101563424D01*
X163426512Y-101542488D01*
X163405576Y-101516976D01*
X163390019Y-101487872D01*
X163380439Y-101456292D01*
X163376600Y-101417310D01*
X163376600Y-100766690D01*
X163380439Y-100727708D01*
X163390019Y-100696128D01*
X163405576Y-100667024D01*
X163426512Y-100641512D01*
X163452024Y-100620576D01*
X163481128Y-100605019D01*
X163512708Y-100595439D01*
X163551690Y-100591600D01*
X164127310Y-100591600D01*
X164166292Y-100595439D01*
X164166292Y-100595439D01*
G37*
G36*
X122123601Y-101023801D02*
X120372801Y-101023801D01*
X120372801Y-99273001D01*
X122123601Y-99273001D01*
X122123601Y-101023801D01*
X122123601Y-101023801D01*
G37*
G36*
X131607600Y-100011400D02*
X130926800Y-100011400D01*
X130926800Y-99380600D01*
X131607600Y-99380600D01*
X131607600Y-100011400D01*
X131607600Y-100011400D01*
G37*
G36*
X155712200Y-99642600D02*
X155031400Y-99642600D01*
X155031400Y-99011800D01*
X155712200Y-99011800D01*
X155712200Y-99642600D01*
X155712200Y-99642600D01*
G37*
G36*
X131607600Y-99121400D02*
X130926800Y-99121400D01*
X130926800Y-98490600D01*
X131607600Y-98490600D01*
X131607600Y-99121400D01*
X131607600Y-99121400D01*
G37*
G36*
X162867400Y-98857400D02*
X162326600Y-98857400D01*
X162326600Y-98246600D01*
X162867400Y-98246600D01*
X162867400Y-98857400D01*
X162867400Y-98857400D01*
G37*
G36*
X163777400Y-98857400D02*
X163236600Y-98857400D01*
X163236600Y-98246600D01*
X163777400Y-98246600D01*
X163777400Y-98857400D01*
X163777400Y-98857400D01*
G37*
G36*
X155712200Y-98752600D02*
X155031400Y-98752600D01*
X155031400Y-98121800D01*
X155712200Y-98121800D01*
X155712200Y-98752600D01*
X155712200Y-98752600D01*
G37*
G36*
X131607600Y-98042400D02*
X130926800Y-98042400D01*
X130926800Y-97411600D01*
X131607600Y-97411600D01*
X131607600Y-98042400D01*
X131607600Y-98042400D01*
G37*
G36*
X155712200Y-97737600D02*
X155031400Y-97737600D01*
X155031400Y-97106800D01*
X155712200Y-97106800D01*
X155712200Y-97737600D01*
X155712200Y-97737600D01*
G37*
G36*
X131607600Y-97152400D02*
X130926800Y-97152400D01*
X130926800Y-96521600D01*
X131607600Y-96521600D01*
X131607600Y-97152400D01*
X131607600Y-97152400D01*
G37*
G36*
X160438200Y-96912800D02*
X158687400Y-96912800D01*
X158687400Y-95162000D01*
X160438200Y-95162000D01*
X160438200Y-96912800D01*
X160438200Y-96912800D01*
G37*
G36*
X155712200Y-96847600D02*
X155031400Y-96847600D01*
X155031400Y-96216800D01*
X155712200Y-96216800D01*
X155712200Y-96847600D01*
X155712200Y-96847600D01*
G37*
G36*
X162591292Y-95515439D02*
X162622872Y-95525019D01*
X162651976Y-95540576D01*
X162677488Y-95561512D01*
X162698424Y-95587024D01*
X162713981Y-95616128D01*
X162723561Y-95647708D01*
X162727400Y-95686690D01*
X162727400Y-96337310D01*
X162723561Y-96376292D01*
X162713981Y-96407872D01*
X162698424Y-96436976D01*
X162677488Y-96462488D01*
X162651976Y-96483424D01*
X162622872Y-96498981D01*
X162591292Y-96508561D01*
X162552310Y-96512400D01*
X161976690Y-96512400D01*
X161937708Y-96508561D01*
X161906128Y-96498981D01*
X161877024Y-96483424D01*
X161851512Y-96462488D01*
X161830576Y-96436976D01*
X161815019Y-96407872D01*
X161805439Y-96376292D01*
X161801600Y-96337310D01*
X161801600Y-95686690D01*
X161805439Y-95647708D01*
X161815019Y-95616128D01*
X161830576Y-95587024D01*
X161851512Y-95561512D01*
X161877024Y-95540576D01*
X161906128Y-95525019D01*
X161937708Y-95515439D01*
X161976690Y-95511600D01*
X162552310Y-95511600D01*
X162591292Y-95515439D01*
X162591292Y-95515439D01*
G37*
G36*
X164166292Y-95515439D02*
X164197872Y-95525019D01*
X164226976Y-95540576D01*
X164252488Y-95561512D01*
X164273424Y-95587024D01*
X164288981Y-95616128D01*
X164298561Y-95647708D01*
X164302400Y-95686690D01*
X164302400Y-96337310D01*
X164298561Y-96376292D01*
X164288981Y-96407872D01*
X164273424Y-96436976D01*
X164252488Y-96462488D01*
X164226976Y-96483424D01*
X164197872Y-96498981D01*
X164166292Y-96508561D01*
X164127310Y-96512400D01*
X163551690Y-96512400D01*
X163512708Y-96508561D01*
X163481128Y-96498981D01*
X163452024Y-96483424D01*
X163426512Y-96462488D01*
X163405576Y-96436976D01*
X163390019Y-96407872D01*
X163380439Y-96376292D01*
X163376600Y-96337310D01*
X163376600Y-95686690D01*
X163380439Y-95647708D01*
X163390019Y-95616128D01*
X163405576Y-95587024D01*
X163426512Y-95561512D01*
X163452024Y-95540576D01*
X163481128Y-95525019D01*
X163512708Y-95515439D01*
X163551690Y-95511600D01*
X164127310Y-95511600D01*
X164166292Y-95515439D01*
X164166292Y-95515439D01*
G37*
G36*
X155712200Y-95832600D02*
X155031400Y-95832600D01*
X155031400Y-95201800D01*
X155712200Y-95201800D01*
X155712200Y-95832600D01*
X155712200Y-95832600D01*
G37*
G36*
X155712200Y-94942600D02*
X155031400Y-94942600D01*
X155031400Y-94311800D01*
X155712200Y-94311800D01*
X155712200Y-94942600D01*
X155712200Y-94942600D01*
G37*
G36*
X162867400Y-93777400D02*
X162326600Y-93777400D01*
X162326600Y-93166600D01*
X162867400Y-93166600D01*
X162867400Y-93777400D01*
X162867400Y-93777400D01*
G37*
G36*
X163777400Y-93777400D02*
X163236600Y-93777400D01*
X163236600Y-93166600D01*
X163777400Y-93166600D01*
X163777400Y-93777400D01*
X163777400Y-93777400D01*
G37*
G36*
X152232200Y-93241400D02*
X134381400Y-93241400D01*
X134381400Y-92020600D01*
X152232200Y-92020600D01*
X152232200Y-93241400D01*
X152232200Y-93241400D01*
G37*
G36*
X154043592Y-92245987D02*
X154116460Y-92276170D01*
X154116461Y-92276171D01*
X154182043Y-92319991D01*
X154237809Y-92375757D01*
X154237811Y-92375760D01*
X154281630Y-92441340D01*
X154311813Y-92514208D01*
X154327200Y-92591564D01*
X154327200Y-92670436D01*
X154311813Y-92747792D01*
X154281630Y-92820660D01*
X154281629Y-92820661D01*
X154237809Y-92886243D01*
X154182043Y-92942009D01*
X154182040Y-92942011D01*
X154116460Y-92985830D01*
X154043592Y-93016013D01*
X153966236Y-93031400D01*
X153887364Y-93031400D01*
X153810008Y-93016013D01*
X153737140Y-92985830D01*
X153671560Y-92942011D01*
X153671557Y-92942009D01*
X153615791Y-92886243D01*
X153571971Y-92820661D01*
X153571970Y-92820660D01*
X153541787Y-92747792D01*
X153526400Y-92670436D01*
X153526400Y-92591564D01*
X153541787Y-92514208D01*
X153571970Y-92441340D01*
X153615789Y-92375760D01*
X153615791Y-92375757D01*
X153671557Y-92319991D01*
X153737139Y-92276171D01*
X153737140Y-92276170D01*
X153810008Y-92245987D01*
X153887364Y-92230600D01*
X153966236Y-92230600D01*
X154043592Y-92245987D01*
X154043592Y-92245987D01*
G37*
G36*
X160463600Y-91655000D02*
X158712800Y-91655000D01*
X158712800Y-89904200D01*
X160463600Y-89904200D01*
X160463600Y-91655000D01*
X160463600Y-91655000D01*
G37*
G36*
X134973000Y-91526400D02*
X134342200Y-91526400D01*
X134342200Y-90845600D01*
X134973000Y-90845600D01*
X134973000Y-91526400D01*
X134973000Y-91526400D01*
G37*
G36*
X135863000Y-91526400D02*
X135232200Y-91526400D01*
X135232200Y-90845600D01*
X135863000Y-90845600D01*
X135863000Y-91526400D01*
X135863000Y-91526400D01*
G37*
G36*
X146835800Y-91475600D02*
X146205000Y-91475600D01*
X146205000Y-90794800D01*
X146835800Y-90794800D01*
X146835800Y-91475600D01*
X146835800Y-91475600D01*
G37*
G36*
X145945800Y-91475600D02*
X145315000Y-91475600D01*
X145315000Y-90794800D01*
X145945800Y-90794800D01*
X145945800Y-91475600D01*
X145945800Y-91475600D01*
G37*
G36*
X149553600Y-91450200D02*
X148922800Y-91450200D01*
X148922800Y-90769400D01*
X149553600Y-90769400D01*
X149553600Y-91450200D01*
X149553600Y-91450200D01*
G37*
G36*
X148663600Y-91450200D02*
X148032800Y-91450200D01*
X148032800Y-90769400D01*
X148663600Y-90769400D01*
X148663600Y-91450200D01*
X148663600Y-91450200D01*
G37*
G36*
X146836500Y-89706820D02*
X145085700Y-89706820D01*
X145085700Y-87956020D01*
X146836500Y-87956020D01*
X146836500Y-89706820D01*
X146836500Y-89706820D01*
G37*
G36*
X152396560Y-89648400D02*
X150645760Y-89648400D01*
X150645760Y-87897600D01*
X152396560Y-87897600D01*
X152396560Y-89648400D01*
X152396560Y-89648400D01*
G37*
G36*
X137489300Y-89633160D02*
X135738500Y-89633160D01*
X135738500Y-87882360D01*
X137489300Y-87882360D01*
X137489300Y-89633160D01*
X137489300Y-89633160D01*
G37*
G36*
X141291680Y-89620460D02*
X139540880Y-89620460D01*
X139540880Y-87869660D01*
X141291680Y-87869660D01*
X141291680Y-89620460D01*
X141291680Y-89620460D01*
G37*
G36*
X143085760Y-88894960D02*
X142454960Y-88894960D01*
X142454960Y-88214160D01*
X143085760Y-88214160D01*
X143085760Y-88894960D01*
X143085760Y-88894960D01*
G37*
G36*
X143975760Y-88894960D02*
X143344960Y-88894960D01*
X143344960Y-88214160D01*
X143975760Y-88214160D01*
X143975760Y-88894960D01*
X143975760Y-88894960D01*
G37*
G36*
X134557440Y-88894960D02*
X133926640Y-88894960D01*
X133926640Y-88214160D01*
X134557440Y-88214160D01*
X134557440Y-88894960D01*
X134557440Y-88894960D01*
G37*
G36*
X133667440Y-88894960D02*
X133036640Y-88894960D01*
X133036640Y-88214160D01*
X133667440Y-88214160D01*
X133667440Y-88894960D01*
X133667440Y-88894960D01*
G37*
G36*
X148652940Y-88894960D02*
X148022140Y-88894960D01*
X148022140Y-88214160D01*
X148652940Y-88214160D01*
X148652940Y-88894960D01*
X148652940Y-88894960D01*
G37*
G36*
X155080640Y-88894960D02*
X154449840Y-88894960D01*
X154449840Y-88214160D01*
X155080640Y-88214160D01*
X155080640Y-88894960D01*
X155080640Y-88894960D01*
G37*
G36*
X154190640Y-88894960D02*
X153559840Y-88894960D01*
X153559840Y-88214160D01*
X154190640Y-88214160D01*
X154190640Y-88894960D01*
X154190640Y-88894960D01*
G37*
G36*
X149542940Y-88894960D02*
X148912140Y-88894960D01*
X148912140Y-88214160D01*
X149542940Y-88214160D01*
X149542940Y-88894960D01*
X149542940Y-88894960D01*
G37*
G36*
X155065400Y-87818000D02*
X154434600Y-87818000D01*
X154434600Y-87137200D01*
X155065400Y-87137200D01*
X155065400Y-87818000D01*
X155065400Y-87818000D01*
G37*
G36*
X154175400Y-87818000D02*
X153544600Y-87818000D01*
X153544600Y-87137200D01*
X154175400Y-87137200D01*
X154175400Y-87818000D01*
X154175400Y-87818000D01*
G37*
G36*
X133677600Y-87818000D02*
X133046800Y-87818000D01*
X133046800Y-87137200D01*
X133677600Y-87137200D01*
X133677600Y-87818000D01*
X133677600Y-87818000D01*
G37*
G36*
X134567600Y-87818000D02*
X133936800Y-87818000D01*
X133936800Y-87137200D01*
X134567600Y-87137200D01*
X134567600Y-87818000D01*
X134567600Y-87818000D01*
G37*
G36*
X143070520Y-87818000D02*
X142439720Y-87818000D01*
X142439720Y-87137200D01*
X143070520Y-87137200D01*
X143070520Y-87818000D01*
X143070520Y-87818000D01*
G37*
G36*
X143960520Y-87818000D02*
X143329720Y-87818000D01*
X143329720Y-87137200D01*
X143960520Y-87137200D01*
X143960520Y-87818000D01*
X143960520Y-87818000D01*
G37*
G36*
X149490100Y-87818000D02*
X148859300Y-87818000D01*
X148859300Y-87137200D01*
X149490100Y-87137200D01*
X149490100Y-87818000D01*
X149490100Y-87818000D01*
G37*
G36*
X148600100Y-87818000D02*
X147969300Y-87818000D01*
X147969300Y-87137200D01*
X148600100Y-87137200D01*
X148600100Y-87818000D01*
X148600100Y-87818000D01*
G37*
G36*
X146099066Y-86620400D02*
X145408266Y-86620400D01*
X145408266Y-84799600D01*
X146099066Y-84799600D01*
X146099066Y-86620400D01*
X146099066Y-86620400D01*
G37*
G36*
X147369066Y-86620400D02*
X146678266Y-86620400D01*
X146678266Y-84799600D01*
X147369066Y-84799600D01*
X147369066Y-86620400D01*
X147369066Y-86620400D01*
G37*
G36*
X148639066Y-86620400D02*
X147948266Y-86620400D01*
X147948266Y-84799600D01*
X148639066Y-84799600D01*
X148639066Y-86620400D01*
X148639066Y-86620400D01*
G37*
G36*
X139274933Y-86620400D02*
X138584133Y-86620400D01*
X138584133Y-84799600D01*
X139274933Y-84799600D01*
X139274933Y-86620400D01*
X139274933Y-86620400D01*
G37*
G36*
X140544933Y-86620400D02*
X139854133Y-86620400D01*
X139854133Y-84799600D01*
X140544933Y-84799600D01*
X140544933Y-86620400D01*
X140544933Y-86620400D01*
G37*
G36*
X141814933Y-86620400D02*
X141124133Y-86620400D01*
X141124133Y-84799600D01*
X141814933Y-84799600D01*
X141814933Y-86620400D01*
X141814933Y-86620400D01*
G37*
G36*
X154193200Y-86620400D02*
X153502400Y-86620400D01*
X153502400Y-84799600D01*
X154193200Y-84799600D01*
X154193200Y-86620400D01*
X154193200Y-86620400D01*
G37*
G36*
X151653200Y-86620400D02*
X150962400Y-86620400D01*
X150962400Y-84799600D01*
X151653200Y-84799600D01*
X151653200Y-86620400D01*
X151653200Y-86620400D01*
G37*
G36*
X150383200Y-86620400D02*
X149692400Y-86620400D01*
X149692400Y-84799600D01*
X150383200Y-84799600D01*
X150383200Y-86620400D01*
X150383200Y-86620400D01*
G37*
G36*
X144829066Y-86620400D02*
X144138266Y-86620400D01*
X144138266Y-84799600D01*
X144829066Y-84799600D01*
X144829066Y-86620400D01*
X144829066Y-86620400D01*
G37*
G36*
X137530800Y-86620400D02*
X136840000Y-86620400D01*
X136840000Y-84799600D01*
X137530800Y-84799600D01*
X137530800Y-86620400D01*
X137530800Y-86620400D01*
G37*
G36*
X136260800Y-86620400D02*
X135570000Y-86620400D01*
X135570000Y-84799600D01*
X136260800Y-84799600D01*
X136260800Y-86620400D01*
X136260800Y-86620400D01*
G37*
G36*
X134990800Y-86620400D02*
X134300000Y-86620400D01*
X134300000Y-84799600D01*
X134990800Y-84799600D01*
X134990800Y-86620400D01*
X134990800Y-86620400D01*
G37*
G36*
X143084933Y-86620400D02*
X142394133Y-86620400D01*
X142394133Y-84799600D01*
X143084933Y-84799600D01*
X143084933Y-86620400D01*
X143084933Y-86620400D01*
G37*
G36*
X133720800Y-86620400D02*
X133030000Y-86620400D01*
X133030000Y-84799600D01*
X133720800Y-84799600D01*
X133720800Y-86620400D01*
X133720800Y-86620400D01*
G37*
G36*
X152923200Y-86620400D02*
X152232400Y-86620400D01*
X152232400Y-84799600D01*
X152923200Y-84799600D01*
X152923200Y-86620400D01*
X152923200Y-86620400D01*
G37*
G36*
X152923200Y-81570400D02*
X152232400Y-81570400D01*
X152232400Y-79749600D01*
X152923200Y-79749600D01*
X152923200Y-81570400D01*
X152923200Y-81570400D01*
G37*
G36*
X133720800Y-81570400D02*
X133030000Y-81570400D01*
X133030000Y-79749600D01*
X133720800Y-79749600D01*
X133720800Y-81570400D01*
X133720800Y-81570400D01*
G37*
G36*
X144829066Y-81570400D02*
X144138266Y-81570400D01*
X144138266Y-79749600D01*
X144829066Y-79749600D01*
X144829066Y-81570400D01*
X144829066Y-81570400D01*
G37*
G36*
X146099066Y-81570400D02*
X145408266Y-81570400D01*
X145408266Y-79749600D01*
X146099066Y-79749600D01*
X146099066Y-81570400D01*
X146099066Y-81570400D01*
G37*
G36*
X147369066Y-81570400D02*
X146678266Y-81570400D01*
X146678266Y-79749600D01*
X147369066Y-79749600D01*
X147369066Y-81570400D01*
X147369066Y-81570400D01*
G37*
G36*
X148639066Y-81570400D02*
X147948266Y-81570400D01*
X147948266Y-79749600D01*
X148639066Y-79749600D01*
X148639066Y-81570400D01*
X148639066Y-81570400D01*
G37*
G36*
X151653200Y-81570400D02*
X150962400Y-81570400D01*
X150962400Y-79749600D01*
X151653200Y-79749600D01*
X151653200Y-81570400D01*
X151653200Y-81570400D01*
G37*
G36*
X150383200Y-81570400D02*
X149692400Y-81570400D01*
X149692400Y-79749600D01*
X150383200Y-79749600D01*
X150383200Y-81570400D01*
X150383200Y-81570400D01*
G37*
G36*
X140544933Y-81570400D02*
X139854133Y-81570400D01*
X139854133Y-79749600D01*
X140544933Y-79749600D01*
X140544933Y-81570400D01*
X140544933Y-81570400D01*
G37*
G36*
X141814933Y-81570400D02*
X141124133Y-81570400D01*
X141124133Y-79749600D01*
X141814933Y-79749600D01*
X141814933Y-81570400D01*
X141814933Y-81570400D01*
G37*
G36*
X134990800Y-81570400D02*
X134300000Y-81570400D01*
X134300000Y-79749600D01*
X134990800Y-79749600D01*
X134990800Y-81570400D01*
X134990800Y-81570400D01*
G37*
G36*
X154193200Y-81570400D02*
X153502400Y-81570400D01*
X153502400Y-79749600D01*
X154193200Y-79749600D01*
X154193200Y-81570400D01*
X154193200Y-81570400D01*
G37*
G36*
X136260800Y-81570400D02*
X135570000Y-81570400D01*
X135570000Y-79749600D01*
X136260800Y-79749600D01*
X136260800Y-81570400D01*
X136260800Y-81570400D01*
G37*
G36*
X137530800Y-81570400D02*
X136840000Y-81570400D01*
X136840000Y-79749600D01*
X137530800Y-79749600D01*
X137530800Y-81570400D01*
X137530800Y-81570400D01*
G37*
G36*
X143084933Y-81570400D02*
X142394133Y-81570400D01*
X142394133Y-79749600D01*
X143084933Y-79749600D01*
X143084933Y-81570400D01*
X143084933Y-81570400D01*
G37*
G36*
X139274933Y-81570400D02*
X138584133Y-81570400D01*
X138584133Y-79749600D01*
X139274933Y-79749600D01*
X139274933Y-81570400D01*
X139274933Y-81570400D01*
G37*
G36*
X142004600Y-79223200D02*
X141463800Y-79223200D01*
X141463800Y-78612400D01*
X142004600Y-78612400D01*
X142004600Y-79223200D01*
X142004600Y-79223200D01*
G37*
G36*
X142914600Y-79223200D02*
X142373800Y-79223200D01*
X142373800Y-78612400D01*
X142914600Y-78612400D01*
X142914600Y-79223200D01*
X142914600Y-79223200D01*
G37*
G36*
X148350200Y-79223200D02*
X147809400Y-79223200D01*
X147809400Y-78612400D01*
X148350200Y-78612400D01*
X148350200Y-79223200D01*
X148350200Y-79223200D01*
G37*
G36*
X147440200Y-79223200D02*
X146899400Y-79223200D01*
X146899400Y-78612400D01*
X147440200Y-78612400D01*
X147440200Y-79223200D01*
X147440200Y-79223200D01*
G37*
G36*
X133927400Y-79197800D02*
X133386600Y-79197800D01*
X133386600Y-78587000D01*
X133927400Y-78587000D01*
X133927400Y-79197800D01*
X133927400Y-79197800D01*
G37*
G36*
X134837400Y-79197800D02*
X134296600Y-79197800D01*
X134296600Y-78587000D01*
X134837400Y-78587000D01*
X134837400Y-79197800D01*
X134837400Y-79197800D01*
G37*
G36*
X153053600Y-79147000D02*
X152512800Y-79147000D01*
X152512800Y-78536200D01*
X153053600Y-78536200D01*
X153053600Y-79147000D01*
X153053600Y-79147000D01*
G37*
G36*
X153963600Y-79147000D02*
X153422800Y-79147000D01*
X153422800Y-78536200D01*
X153963600Y-78536200D01*
X153963600Y-79147000D01*
X153963600Y-79147000D01*
G37*
G36*
X125404752Y-72624945D02*
X125906077Y-72724664D01*
X126456664Y-72952725D01*
X126952180Y-73283818D01*
X127373582Y-73705220D01*
X127704675Y-74200736D01*
X127932736Y-74751323D01*
X128049000Y-75335824D01*
X128049000Y-75931776D01*
X127932736Y-76516277D01*
X127704675Y-77066864D01*
X127373582Y-77562380D01*
X126952180Y-77983782D01*
X126456664Y-78314875D01*
X125906077Y-78542936D01*
X125404752Y-78642655D01*
X125321577Y-78659200D01*
X124725623Y-78659200D01*
X124642448Y-78642655D01*
X124141123Y-78542936D01*
X123590536Y-78314875D01*
X123095020Y-77983782D01*
X122673618Y-77562380D01*
X122342525Y-77066864D01*
X122114464Y-76516277D01*
X121998200Y-75931776D01*
X121998200Y-75335824D01*
X122114464Y-74751323D01*
X122342525Y-74200736D01*
X122673618Y-73705220D01*
X123095020Y-73283818D01*
X123590536Y-72952725D01*
X124141123Y-72724664D01*
X124642448Y-72624945D01*
X124725623Y-72608400D01*
X125321577Y-72608400D01*
X125404752Y-72624945D01*
X125404752Y-72624945D01*
G37*
G36*
X162404752Y-72624945D02*
X162906077Y-72724664D01*
X163456664Y-72952725D01*
X163952180Y-73283818D01*
X164373582Y-73705220D01*
X164704675Y-74200736D01*
X164932736Y-74751323D01*
X165049000Y-75335824D01*
X165049000Y-75931776D01*
X164932736Y-76516277D01*
X164704675Y-77066864D01*
X164373582Y-77562380D01*
X163952180Y-77983782D01*
X163456664Y-78314875D01*
X162906077Y-78542936D01*
X162404752Y-78642655D01*
X162321577Y-78659200D01*
X161725623Y-78659200D01*
X161642448Y-78642655D01*
X161141123Y-78542936D01*
X160590536Y-78314875D01*
X160095020Y-77983782D01*
X159673618Y-77562380D01*
X159342525Y-77066864D01*
X159114464Y-76516277D01*
X158998200Y-75931776D01*
X158998200Y-75335824D01*
X159114464Y-74751323D01*
X159342525Y-74200736D01*
X159673618Y-73705220D01*
X160095020Y-73283818D01*
X160590536Y-72952725D01*
X161141123Y-72724664D01*
X161642448Y-72624945D01*
X161725623Y-72608400D01*
X162321577Y-72608400D01*
X162404752Y-72624945D01*
X162404752Y-72624945D01*
G37*
G36*
X146100300Y-75770200D02*
X142494500Y-75770200D01*
X142494500Y-73678400D01*
X146100300Y-73678400D01*
X146100300Y-75770200D01*
X146100300Y-75770200D01*
G37*
G36*
X140575400Y-75043400D02*
X138824600Y-75043400D01*
X138824600Y-73292600D01*
X140575400Y-73292600D01*
X140575400Y-75043400D01*
X140575400Y-75043400D01*
G37*
M02*
