G04 #@! TF.GenerationSoftware,KiCad,Pcbnew,(5.0.1)-3*
G04 #@! TF.CreationDate,2019-01-05T18:42:13-08:00*
G04 #@! TF.ProjectId,EScope-MSDAQ-2-INTANDAQ,4553636F70652D4D534441512D322D49,rev?*
G04 #@! TF.SameCoordinates,Original*
G04 #@! TF.FileFunction,Paste,Top*
G04 #@! TF.FilePolarity,Positive*
%FSLAX46Y46*%
G04 Gerber Fmt 4.6, Leading zero omitted, Abs format (unit mm)*
G04 Created by KiCad (PCBNEW (5.0.1)-3) date 1/5/2019 6:42:13 PM*
%MOMM*%
%LPD*%
G01*
G04 APERTURE LIST*
%ADD10R,0.490000X0.560000*%
%ADD11C,0.100000*%
%ADD12C,0.875000*%
%ADD13R,0.380000X1.020000*%
%ADD14R,0.380000X0.762000*%
%ADD15R,0.630000X0.580000*%
%ADD16R,0.580000X0.630000*%
%ADD17R,0.890000X0.920000*%
%ADD18R,1.200000X1.400000*%
%ADD19R,1.170000X0.300000*%
%ADD20R,0.300000X1.170000*%
%ADD21R,0.640000X1.770000*%
G04 APERTURE END LIST*
D10*
G04 #@! TO.C,R6*
X162597000Y-98552000D03*
X163507000Y-98552000D03*
G04 #@! TD*
G04 #@! TO.C,R7*
X163507000Y-103632000D03*
X162597000Y-103632000D03*
G04 #@! TD*
G04 #@! TO.C,R8*
X162597000Y-108712000D03*
X163507000Y-108712000D03*
G04 #@! TD*
D11*
G04 #@! TO.C,D2*
G36*
X164079691Y-100618053D02*
X164100926Y-100621203D01*
X164121750Y-100626419D01*
X164141962Y-100633651D01*
X164161368Y-100642830D01*
X164179781Y-100653866D01*
X164197024Y-100666654D01*
X164212930Y-100681070D01*
X164227346Y-100696976D01*
X164240134Y-100714219D01*
X164251170Y-100732632D01*
X164260349Y-100752038D01*
X164267581Y-100772250D01*
X164272797Y-100793074D01*
X164275947Y-100814309D01*
X164277000Y-100835750D01*
X164277000Y-101348250D01*
X164275947Y-101369691D01*
X164272797Y-101390926D01*
X164267581Y-101411750D01*
X164260349Y-101431962D01*
X164251170Y-101451368D01*
X164240134Y-101469781D01*
X164227346Y-101487024D01*
X164212930Y-101502930D01*
X164197024Y-101517346D01*
X164179781Y-101530134D01*
X164161368Y-101541170D01*
X164141962Y-101550349D01*
X164121750Y-101557581D01*
X164100926Y-101562797D01*
X164079691Y-101565947D01*
X164058250Y-101567000D01*
X163620750Y-101567000D01*
X163599309Y-101565947D01*
X163578074Y-101562797D01*
X163557250Y-101557581D01*
X163537038Y-101550349D01*
X163517632Y-101541170D01*
X163499219Y-101530134D01*
X163481976Y-101517346D01*
X163466070Y-101502930D01*
X163451654Y-101487024D01*
X163438866Y-101469781D01*
X163427830Y-101451368D01*
X163418651Y-101431962D01*
X163411419Y-101411750D01*
X163406203Y-101390926D01*
X163403053Y-101369691D01*
X163402000Y-101348250D01*
X163402000Y-100835750D01*
X163403053Y-100814309D01*
X163406203Y-100793074D01*
X163411419Y-100772250D01*
X163418651Y-100752038D01*
X163427830Y-100732632D01*
X163438866Y-100714219D01*
X163451654Y-100696976D01*
X163466070Y-100681070D01*
X163481976Y-100666654D01*
X163499219Y-100653866D01*
X163517632Y-100642830D01*
X163537038Y-100633651D01*
X163557250Y-100626419D01*
X163578074Y-100621203D01*
X163599309Y-100618053D01*
X163620750Y-100617000D01*
X164058250Y-100617000D01*
X164079691Y-100618053D01*
X164079691Y-100618053D01*
G37*
D12*
X163839500Y-101092000D03*
D11*
G36*
X162504691Y-100618053D02*
X162525926Y-100621203D01*
X162546750Y-100626419D01*
X162566962Y-100633651D01*
X162586368Y-100642830D01*
X162604781Y-100653866D01*
X162622024Y-100666654D01*
X162637930Y-100681070D01*
X162652346Y-100696976D01*
X162665134Y-100714219D01*
X162676170Y-100732632D01*
X162685349Y-100752038D01*
X162692581Y-100772250D01*
X162697797Y-100793074D01*
X162700947Y-100814309D01*
X162702000Y-100835750D01*
X162702000Y-101348250D01*
X162700947Y-101369691D01*
X162697797Y-101390926D01*
X162692581Y-101411750D01*
X162685349Y-101431962D01*
X162676170Y-101451368D01*
X162665134Y-101469781D01*
X162652346Y-101487024D01*
X162637930Y-101502930D01*
X162622024Y-101517346D01*
X162604781Y-101530134D01*
X162586368Y-101541170D01*
X162566962Y-101550349D01*
X162546750Y-101557581D01*
X162525926Y-101562797D01*
X162504691Y-101565947D01*
X162483250Y-101567000D01*
X162045750Y-101567000D01*
X162024309Y-101565947D01*
X162003074Y-101562797D01*
X161982250Y-101557581D01*
X161962038Y-101550349D01*
X161942632Y-101541170D01*
X161924219Y-101530134D01*
X161906976Y-101517346D01*
X161891070Y-101502930D01*
X161876654Y-101487024D01*
X161863866Y-101469781D01*
X161852830Y-101451368D01*
X161843651Y-101431962D01*
X161836419Y-101411750D01*
X161831203Y-101390926D01*
X161828053Y-101369691D01*
X161827000Y-101348250D01*
X161827000Y-100835750D01*
X161828053Y-100814309D01*
X161831203Y-100793074D01*
X161836419Y-100772250D01*
X161843651Y-100752038D01*
X161852830Y-100732632D01*
X161863866Y-100714219D01*
X161876654Y-100696976D01*
X161891070Y-100681070D01*
X161906976Y-100666654D01*
X161924219Y-100653866D01*
X161942632Y-100642830D01*
X161962038Y-100633651D01*
X161982250Y-100626419D01*
X162003074Y-100621203D01*
X162024309Y-100618053D01*
X162045750Y-100617000D01*
X162483250Y-100617000D01*
X162504691Y-100618053D01*
X162504691Y-100618053D01*
G37*
D12*
X162264500Y-101092000D03*
G04 #@! TD*
D11*
G04 #@! TO.C,D3*
G36*
X162504691Y-105698053D02*
X162525926Y-105701203D01*
X162546750Y-105706419D01*
X162566962Y-105713651D01*
X162586368Y-105722830D01*
X162604781Y-105733866D01*
X162622024Y-105746654D01*
X162637930Y-105761070D01*
X162652346Y-105776976D01*
X162665134Y-105794219D01*
X162676170Y-105812632D01*
X162685349Y-105832038D01*
X162692581Y-105852250D01*
X162697797Y-105873074D01*
X162700947Y-105894309D01*
X162702000Y-105915750D01*
X162702000Y-106428250D01*
X162700947Y-106449691D01*
X162697797Y-106470926D01*
X162692581Y-106491750D01*
X162685349Y-106511962D01*
X162676170Y-106531368D01*
X162665134Y-106549781D01*
X162652346Y-106567024D01*
X162637930Y-106582930D01*
X162622024Y-106597346D01*
X162604781Y-106610134D01*
X162586368Y-106621170D01*
X162566962Y-106630349D01*
X162546750Y-106637581D01*
X162525926Y-106642797D01*
X162504691Y-106645947D01*
X162483250Y-106647000D01*
X162045750Y-106647000D01*
X162024309Y-106645947D01*
X162003074Y-106642797D01*
X161982250Y-106637581D01*
X161962038Y-106630349D01*
X161942632Y-106621170D01*
X161924219Y-106610134D01*
X161906976Y-106597346D01*
X161891070Y-106582930D01*
X161876654Y-106567024D01*
X161863866Y-106549781D01*
X161852830Y-106531368D01*
X161843651Y-106511962D01*
X161836419Y-106491750D01*
X161831203Y-106470926D01*
X161828053Y-106449691D01*
X161827000Y-106428250D01*
X161827000Y-105915750D01*
X161828053Y-105894309D01*
X161831203Y-105873074D01*
X161836419Y-105852250D01*
X161843651Y-105832038D01*
X161852830Y-105812632D01*
X161863866Y-105794219D01*
X161876654Y-105776976D01*
X161891070Y-105761070D01*
X161906976Y-105746654D01*
X161924219Y-105733866D01*
X161942632Y-105722830D01*
X161962038Y-105713651D01*
X161982250Y-105706419D01*
X162003074Y-105701203D01*
X162024309Y-105698053D01*
X162045750Y-105697000D01*
X162483250Y-105697000D01*
X162504691Y-105698053D01*
X162504691Y-105698053D01*
G37*
D12*
X162264500Y-106172000D03*
D11*
G36*
X164079691Y-105698053D02*
X164100926Y-105701203D01*
X164121750Y-105706419D01*
X164141962Y-105713651D01*
X164161368Y-105722830D01*
X164179781Y-105733866D01*
X164197024Y-105746654D01*
X164212930Y-105761070D01*
X164227346Y-105776976D01*
X164240134Y-105794219D01*
X164251170Y-105812632D01*
X164260349Y-105832038D01*
X164267581Y-105852250D01*
X164272797Y-105873074D01*
X164275947Y-105894309D01*
X164277000Y-105915750D01*
X164277000Y-106428250D01*
X164275947Y-106449691D01*
X164272797Y-106470926D01*
X164267581Y-106491750D01*
X164260349Y-106511962D01*
X164251170Y-106531368D01*
X164240134Y-106549781D01*
X164227346Y-106567024D01*
X164212930Y-106582930D01*
X164197024Y-106597346D01*
X164179781Y-106610134D01*
X164161368Y-106621170D01*
X164141962Y-106630349D01*
X164121750Y-106637581D01*
X164100926Y-106642797D01*
X164079691Y-106645947D01*
X164058250Y-106647000D01*
X163620750Y-106647000D01*
X163599309Y-106645947D01*
X163578074Y-106642797D01*
X163557250Y-106637581D01*
X163537038Y-106630349D01*
X163517632Y-106621170D01*
X163499219Y-106610134D01*
X163481976Y-106597346D01*
X163466070Y-106582930D01*
X163451654Y-106567024D01*
X163438866Y-106549781D01*
X163427830Y-106531368D01*
X163418651Y-106511962D01*
X163411419Y-106491750D01*
X163406203Y-106470926D01*
X163403053Y-106449691D01*
X163402000Y-106428250D01*
X163402000Y-105915750D01*
X163403053Y-105894309D01*
X163406203Y-105873074D01*
X163411419Y-105852250D01*
X163418651Y-105832038D01*
X163427830Y-105812632D01*
X163438866Y-105794219D01*
X163451654Y-105776976D01*
X163466070Y-105761070D01*
X163481976Y-105746654D01*
X163499219Y-105733866D01*
X163517632Y-105722830D01*
X163537038Y-105713651D01*
X163557250Y-105706419D01*
X163578074Y-105701203D01*
X163599309Y-105698053D01*
X163620750Y-105697000D01*
X164058250Y-105697000D01*
X164079691Y-105698053D01*
X164079691Y-105698053D01*
G37*
D12*
X163839500Y-106172000D03*
G04 #@! TD*
D11*
G04 #@! TO.C,D4*
G36*
X164079691Y-110778053D02*
X164100926Y-110781203D01*
X164121750Y-110786419D01*
X164141962Y-110793651D01*
X164161368Y-110802830D01*
X164179781Y-110813866D01*
X164197024Y-110826654D01*
X164212930Y-110841070D01*
X164227346Y-110856976D01*
X164240134Y-110874219D01*
X164251170Y-110892632D01*
X164260349Y-110912038D01*
X164267581Y-110932250D01*
X164272797Y-110953074D01*
X164275947Y-110974309D01*
X164277000Y-110995750D01*
X164277000Y-111508250D01*
X164275947Y-111529691D01*
X164272797Y-111550926D01*
X164267581Y-111571750D01*
X164260349Y-111591962D01*
X164251170Y-111611368D01*
X164240134Y-111629781D01*
X164227346Y-111647024D01*
X164212930Y-111662930D01*
X164197024Y-111677346D01*
X164179781Y-111690134D01*
X164161368Y-111701170D01*
X164141962Y-111710349D01*
X164121750Y-111717581D01*
X164100926Y-111722797D01*
X164079691Y-111725947D01*
X164058250Y-111727000D01*
X163620750Y-111727000D01*
X163599309Y-111725947D01*
X163578074Y-111722797D01*
X163557250Y-111717581D01*
X163537038Y-111710349D01*
X163517632Y-111701170D01*
X163499219Y-111690134D01*
X163481976Y-111677346D01*
X163466070Y-111662930D01*
X163451654Y-111647024D01*
X163438866Y-111629781D01*
X163427830Y-111611368D01*
X163418651Y-111591962D01*
X163411419Y-111571750D01*
X163406203Y-111550926D01*
X163403053Y-111529691D01*
X163402000Y-111508250D01*
X163402000Y-110995750D01*
X163403053Y-110974309D01*
X163406203Y-110953074D01*
X163411419Y-110932250D01*
X163418651Y-110912038D01*
X163427830Y-110892632D01*
X163438866Y-110874219D01*
X163451654Y-110856976D01*
X163466070Y-110841070D01*
X163481976Y-110826654D01*
X163499219Y-110813866D01*
X163517632Y-110802830D01*
X163537038Y-110793651D01*
X163557250Y-110786419D01*
X163578074Y-110781203D01*
X163599309Y-110778053D01*
X163620750Y-110777000D01*
X164058250Y-110777000D01*
X164079691Y-110778053D01*
X164079691Y-110778053D01*
G37*
D12*
X163839500Y-111252000D03*
D11*
G36*
X162504691Y-110778053D02*
X162525926Y-110781203D01*
X162546750Y-110786419D01*
X162566962Y-110793651D01*
X162586368Y-110802830D01*
X162604781Y-110813866D01*
X162622024Y-110826654D01*
X162637930Y-110841070D01*
X162652346Y-110856976D01*
X162665134Y-110874219D01*
X162676170Y-110892632D01*
X162685349Y-110912038D01*
X162692581Y-110932250D01*
X162697797Y-110953074D01*
X162700947Y-110974309D01*
X162702000Y-110995750D01*
X162702000Y-111508250D01*
X162700947Y-111529691D01*
X162697797Y-111550926D01*
X162692581Y-111571750D01*
X162685349Y-111591962D01*
X162676170Y-111611368D01*
X162665134Y-111629781D01*
X162652346Y-111647024D01*
X162637930Y-111662930D01*
X162622024Y-111677346D01*
X162604781Y-111690134D01*
X162586368Y-111701170D01*
X162566962Y-111710349D01*
X162546750Y-111717581D01*
X162525926Y-111722797D01*
X162504691Y-111725947D01*
X162483250Y-111727000D01*
X162045750Y-111727000D01*
X162024309Y-111725947D01*
X162003074Y-111722797D01*
X161982250Y-111717581D01*
X161962038Y-111710349D01*
X161942632Y-111701170D01*
X161924219Y-111690134D01*
X161906976Y-111677346D01*
X161891070Y-111662930D01*
X161876654Y-111647024D01*
X161863866Y-111629781D01*
X161852830Y-111611368D01*
X161843651Y-111591962D01*
X161836419Y-111571750D01*
X161831203Y-111550926D01*
X161828053Y-111529691D01*
X161827000Y-111508250D01*
X161827000Y-110995750D01*
X161828053Y-110974309D01*
X161831203Y-110953074D01*
X161836419Y-110932250D01*
X161843651Y-110912038D01*
X161852830Y-110892632D01*
X161863866Y-110874219D01*
X161876654Y-110856976D01*
X161891070Y-110841070D01*
X161906976Y-110826654D01*
X161924219Y-110813866D01*
X161942632Y-110802830D01*
X161962038Y-110793651D01*
X161982250Y-110786419D01*
X162003074Y-110781203D01*
X162024309Y-110778053D01*
X162045750Y-110777000D01*
X162483250Y-110777000D01*
X162504691Y-110778053D01*
X162504691Y-110778053D01*
G37*
D12*
X162264500Y-111252000D03*
G04 #@! TD*
D13*
G04 #@! TO.C,J4*
X145884900Y-75234800D03*
X145249900Y-75234800D03*
X144614900Y-75234800D03*
X143979900Y-75234800D03*
X143344900Y-75234800D03*
X142709900Y-75234800D03*
D14*
X145884900Y-74084800D03*
X145249900Y-74084800D03*
X144614900Y-74084800D03*
X143979900Y-74084800D03*
X143344900Y-74084800D03*
X142709900Y-74084800D03*
G04 #@! TD*
D10*
G04 #@! TO.C,R2*
X147169800Y-78917800D03*
X148079800Y-78917800D03*
G04 #@! TD*
G04 #@! TO.C,R3*
X153693200Y-78841600D03*
X152783200Y-78841600D03*
G04 #@! TD*
G04 #@! TO.C,R4*
X141734200Y-78917800D03*
X142644200Y-78917800D03*
G04 #@! TD*
G04 #@! TO.C,R5*
X134567000Y-78892400D03*
X133657000Y-78892400D03*
G04 #@! TD*
D15*
G04 #@! TO.C,C6*
X155371800Y-94627200D03*
X155371800Y-95517200D03*
G04 #@! TD*
D16*
G04 #@! TO.C,C19*
X134657600Y-91186000D03*
X135547600Y-91186000D03*
G04 #@! TD*
D15*
G04 #@! TO.C,C7*
X155346400Y-111988600D03*
X155346400Y-111098600D03*
G04 #@! TD*
G04 #@! TO.C,C8*
X131267200Y-106185200D03*
X131267200Y-105295200D03*
G04 #@! TD*
G04 #@! TO.C,C9*
X131267200Y-99696000D03*
X131267200Y-98806000D03*
G04 #@! TD*
D16*
G04 #@! TO.C,C10*
X141516600Y-115316000D03*
X140626600Y-115316000D03*
G04 #@! TD*
G04 #@! TO.C,C1*
X136816600Y-116636800D03*
X137706600Y-116636800D03*
G04 #@! TD*
D15*
G04 #@! TO.C,C12*
X155371800Y-109817400D03*
X155371800Y-108927400D03*
G04 #@! TD*
G04 #@! TO.C,C13*
X155371800Y-99327200D03*
X155371800Y-98437200D03*
G04 #@! TD*
G04 #@! TO.C,C14*
X155371800Y-97422200D03*
X155371800Y-96532200D03*
G04 #@! TD*
G04 #@! TO.C,C15*
X131241800Y-110527600D03*
X131241800Y-111417600D03*
G04 #@! TD*
D16*
G04 #@! TO.C,C16*
X151802600Y-115265200D03*
X152692600Y-115265200D03*
G04 #@! TD*
G04 #@! TO.C,C17*
X155841200Y-119735600D03*
X156731200Y-119735600D03*
G04 #@! TD*
G04 #@! TO.C,C18*
X149238200Y-91109800D03*
X148348200Y-91109800D03*
G04 #@! TD*
G04 #@! TO.C,C28*
X149174700Y-87477600D03*
X148284700Y-87477600D03*
G04 #@! TD*
G04 #@! TO.C,C27*
X153860000Y-87477600D03*
X154750000Y-87477600D03*
G04 #@! TD*
G04 #@! TO.C,C26*
X143660360Y-88554560D03*
X142770360Y-88554560D03*
G04 #@! TD*
G04 #@! TO.C,C25*
X134242040Y-88554560D03*
X133352040Y-88554560D03*
G04 #@! TD*
G04 #@! TO.C,C24*
X149227540Y-88554560D03*
X148337540Y-88554560D03*
G04 #@! TD*
G04 #@! TO.C,C23*
X153875240Y-88554560D03*
X154765240Y-88554560D03*
G04 #@! TD*
G04 #@! TO.C,C22*
X143645120Y-87477600D03*
X142755120Y-87477600D03*
G04 #@! TD*
G04 #@! TO.C,C21*
X134252200Y-87477600D03*
X133362200Y-87477600D03*
G04 #@! TD*
G04 #@! TO.C,C11*
X148729200Y-115366800D03*
X149619200Y-115366800D03*
G04 #@! TD*
D15*
G04 #@! TO.C,C2*
X131267200Y-97727000D03*
X131267200Y-96837000D03*
G04 #@! TD*
D16*
G04 #@! TO.C,C3*
X146520400Y-91135200D03*
X145630400Y-91135200D03*
G04 #@! TD*
D15*
G04 #@! TO.C,C4*
X156337000Y-111086400D03*
X156337000Y-111976400D03*
G04 #@! TD*
G04 #@! TO.C,C20*
X153644600Y-117310400D03*
X153644600Y-116420400D03*
G04 #@! TD*
D16*
G04 #@! TO.C,C5*
X146900400Y-115392200D03*
X147790400Y-115392200D03*
G04 #@! TD*
D17*
G04 #@! TO.C,L2*
X148331400Y-116713000D03*
X149661400Y-116713000D03*
G04 #@! TD*
G04 #@! TO.C,L1*
X141406400Y-116687600D03*
X140076400Y-116687600D03*
G04 #@! TD*
D18*
G04 #@! TO.C,Y1*
X156958400Y-117889200D03*
X156958400Y-115689200D03*
X155258400Y-115689200D03*
X155258400Y-117889200D03*
G04 #@! TD*
D10*
G04 #@! TO.C,R1*
X162597000Y-93472000D03*
X163507000Y-93472000D03*
G04 #@! TD*
D11*
G04 #@! TO.C,D1*
G36*
X164079691Y-95538053D02*
X164100926Y-95541203D01*
X164121750Y-95546419D01*
X164141962Y-95553651D01*
X164161368Y-95562830D01*
X164179781Y-95573866D01*
X164197024Y-95586654D01*
X164212930Y-95601070D01*
X164227346Y-95616976D01*
X164240134Y-95634219D01*
X164251170Y-95652632D01*
X164260349Y-95672038D01*
X164267581Y-95692250D01*
X164272797Y-95713074D01*
X164275947Y-95734309D01*
X164277000Y-95755750D01*
X164277000Y-96268250D01*
X164275947Y-96289691D01*
X164272797Y-96310926D01*
X164267581Y-96331750D01*
X164260349Y-96351962D01*
X164251170Y-96371368D01*
X164240134Y-96389781D01*
X164227346Y-96407024D01*
X164212930Y-96422930D01*
X164197024Y-96437346D01*
X164179781Y-96450134D01*
X164161368Y-96461170D01*
X164141962Y-96470349D01*
X164121750Y-96477581D01*
X164100926Y-96482797D01*
X164079691Y-96485947D01*
X164058250Y-96487000D01*
X163620750Y-96487000D01*
X163599309Y-96485947D01*
X163578074Y-96482797D01*
X163557250Y-96477581D01*
X163537038Y-96470349D01*
X163517632Y-96461170D01*
X163499219Y-96450134D01*
X163481976Y-96437346D01*
X163466070Y-96422930D01*
X163451654Y-96407024D01*
X163438866Y-96389781D01*
X163427830Y-96371368D01*
X163418651Y-96351962D01*
X163411419Y-96331750D01*
X163406203Y-96310926D01*
X163403053Y-96289691D01*
X163402000Y-96268250D01*
X163402000Y-95755750D01*
X163403053Y-95734309D01*
X163406203Y-95713074D01*
X163411419Y-95692250D01*
X163418651Y-95672038D01*
X163427830Y-95652632D01*
X163438866Y-95634219D01*
X163451654Y-95616976D01*
X163466070Y-95601070D01*
X163481976Y-95586654D01*
X163499219Y-95573866D01*
X163517632Y-95562830D01*
X163537038Y-95553651D01*
X163557250Y-95546419D01*
X163578074Y-95541203D01*
X163599309Y-95538053D01*
X163620750Y-95537000D01*
X164058250Y-95537000D01*
X164079691Y-95538053D01*
X164079691Y-95538053D01*
G37*
D12*
X163839500Y-96012000D03*
D11*
G36*
X162504691Y-95538053D02*
X162525926Y-95541203D01*
X162546750Y-95546419D01*
X162566962Y-95553651D01*
X162586368Y-95562830D01*
X162604781Y-95573866D01*
X162622024Y-95586654D01*
X162637930Y-95601070D01*
X162652346Y-95616976D01*
X162665134Y-95634219D01*
X162676170Y-95652632D01*
X162685349Y-95672038D01*
X162692581Y-95692250D01*
X162697797Y-95713074D01*
X162700947Y-95734309D01*
X162702000Y-95755750D01*
X162702000Y-96268250D01*
X162700947Y-96289691D01*
X162697797Y-96310926D01*
X162692581Y-96331750D01*
X162685349Y-96351962D01*
X162676170Y-96371368D01*
X162665134Y-96389781D01*
X162652346Y-96407024D01*
X162637930Y-96422930D01*
X162622024Y-96437346D01*
X162604781Y-96450134D01*
X162586368Y-96461170D01*
X162566962Y-96470349D01*
X162546750Y-96477581D01*
X162525926Y-96482797D01*
X162504691Y-96485947D01*
X162483250Y-96487000D01*
X162045750Y-96487000D01*
X162024309Y-96485947D01*
X162003074Y-96482797D01*
X161982250Y-96477581D01*
X161962038Y-96470349D01*
X161942632Y-96461170D01*
X161924219Y-96450134D01*
X161906976Y-96437346D01*
X161891070Y-96422930D01*
X161876654Y-96407024D01*
X161863866Y-96389781D01*
X161852830Y-96371368D01*
X161843651Y-96351962D01*
X161836419Y-96331750D01*
X161831203Y-96310926D01*
X161828053Y-96289691D01*
X161827000Y-96268250D01*
X161827000Y-95755750D01*
X161828053Y-95734309D01*
X161831203Y-95713074D01*
X161836419Y-95692250D01*
X161843651Y-95672038D01*
X161852830Y-95652632D01*
X161863866Y-95634219D01*
X161876654Y-95616976D01*
X161891070Y-95601070D01*
X161906976Y-95586654D01*
X161924219Y-95573866D01*
X161942632Y-95562830D01*
X161962038Y-95553651D01*
X161982250Y-95546419D01*
X162003074Y-95541203D01*
X162024309Y-95538053D01*
X162045750Y-95537000D01*
X162483250Y-95537000D01*
X162504691Y-95538053D01*
X162504691Y-95538053D01*
G37*
D12*
X162264500Y-96012000D03*
G04 #@! TD*
D19*
G04 #@! TO.C,U1*
X153926800Y-112001000D03*
X153926800Y-111501000D03*
X153926800Y-111001000D03*
X153926800Y-110501000D03*
X153926800Y-110001000D03*
X153926800Y-109501000D03*
X153926800Y-109001000D03*
X153926800Y-108501000D03*
X153926800Y-108001000D03*
X153926800Y-107501000D03*
X153926800Y-107001000D03*
X153926800Y-106501000D03*
X153926800Y-106001000D03*
X153926800Y-105501000D03*
X153926800Y-105001000D03*
X153926800Y-104501000D03*
X153926800Y-104001000D03*
X153926800Y-103501000D03*
X153926800Y-103001000D03*
X153926800Y-102501000D03*
X153926800Y-102001000D03*
X153926800Y-101501000D03*
X153926800Y-101001000D03*
X153926800Y-100501000D03*
X153926800Y-100001000D03*
X153926800Y-99501000D03*
X153926800Y-99001000D03*
X153926800Y-98501000D03*
X153926800Y-98001000D03*
X153926800Y-97501000D03*
X153926800Y-97001000D03*
X153926800Y-96501000D03*
X153926800Y-96001000D03*
X153926800Y-95501000D03*
X153926800Y-95001000D03*
X153926800Y-94501000D03*
D20*
X152056800Y-92631000D03*
X151556800Y-92631000D03*
X151056800Y-92631000D03*
X150556800Y-92631000D03*
X150056800Y-92631000D03*
X149556800Y-92631000D03*
X149056800Y-92631000D03*
X148556800Y-92631000D03*
X148056800Y-92631000D03*
X147556800Y-92631000D03*
X147056800Y-92631000D03*
X146556800Y-92631000D03*
X146056800Y-92631000D03*
X145556800Y-92631000D03*
X145056800Y-92631000D03*
X144556800Y-92631000D03*
X144056800Y-92631000D03*
X143556800Y-92631000D03*
X143056800Y-92631000D03*
X142556800Y-92631000D03*
X142056800Y-92631000D03*
X141556800Y-92631000D03*
X141056800Y-92631000D03*
X140556800Y-92631000D03*
X140056800Y-92631000D03*
X139556800Y-92631000D03*
X139056800Y-92631000D03*
X138556800Y-92631000D03*
X138056800Y-92631000D03*
X137556800Y-92631000D03*
X137056800Y-92631000D03*
X136556800Y-92631000D03*
X136056800Y-92631000D03*
X135556800Y-92631000D03*
X135056800Y-92631000D03*
X134556800Y-92631000D03*
D19*
X132686800Y-94501000D03*
X132686800Y-95001000D03*
X132686800Y-95501000D03*
X132686800Y-96001000D03*
X132686800Y-96501000D03*
X132686800Y-97001000D03*
X132686800Y-97501000D03*
X132686800Y-98001000D03*
X132686800Y-98501000D03*
X132686800Y-99001000D03*
X132686800Y-99501000D03*
X132686800Y-100001000D03*
X132686800Y-100501000D03*
X132686800Y-101001000D03*
X132686800Y-101501000D03*
X132686800Y-102001000D03*
X132686800Y-102501000D03*
X132686800Y-103001000D03*
X132686800Y-103501000D03*
X132686800Y-104001000D03*
X132686800Y-104501000D03*
X132686800Y-105001000D03*
X132686800Y-105501000D03*
X132686800Y-106001000D03*
X132686800Y-106501000D03*
X132686800Y-107001000D03*
X132686800Y-107501000D03*
X132686800Y-108001000D03*
X132686800Y-108501000D03*
X132686800Y-109001000D03*
X132686800Y-109501000D03*
X132686800Y-110001000D03*
X132686800Y-110501000D03*
X132686800Y-111001000D03*
X132686800Y-111501000D03*
X132686800Y-112001000D03*
D20*
X134556800Y-113871000D03*
X135056800Y-113871000D03*
X135556800Y-113871000D03*
X136056800Y-113871000D03*
X136556800Y-113871000D03*
X137056800Y-113871000D03*
X137556800Y-113871000D03*
X138056800Y-113871000D03*
X138556800Y-113871000D03*
X139056800Y-113871000D03*
X139556800Y-113871000D03*
X140056800Y-113871000D03*
X140556800Y-113871000D03*
X141056800Y-113871000D03*
X141556800Y-113871000D03*
X142056800Y-113871000D03*
X142556800Y-113871000D03*
X143056800Y-113871000D03*
X143556800Y-113871000D03*
X144056800Y-113871000D03*
X144556800Y-113871000D03*
X145056800Y-113871000D03*
X145556800Y-113871000D03*
X146056800Y-113871000D03*
X146556800Y-113871000D03*
X147056800Y-113871000D03*
X147556800Y-113871000D03*
X148056800Y-113871000D03*
X148556800Y-113871000D03*
X149056800Y-113871000D03*
X149556800Y-113871000D03*
X150056800Y-113871000D03*
X150556800Y-113871000D03*
X151056800Y-113871000D03*
X151556800Y-113871000D03*
X152056800Y-113871000D03*
G04 #@! TD*
D21*
G04 #@! TO.C,U5*
X148293666Y-85710000D03*
X147023666Y-85710000D03*
X145753666Y-85710000D03*
X144483666Y-85710000D03*
X144483666Y-80660000D03*
X145753666Y-80660000D03*
X147023666Y-80660000D03*
X148293666Y-80660000D03*
G04 #@! TD*
G04 #@! TO.C,U4*
X153847800Y-80660000D03*
X152577800Y-80660000D03*
X151307800Y-80660000D03*
X150037800Y-80660000D03*
X150037800Y-85710000D03*
X151307800Y-85710000D03*
X152577800Y-85710000D03*
X153847800Y-85710000D03*
G04 #@! TD*
G04 #@! TO.C,U3*
X142739533Y-85710000D03*
X141469533Y-85710000D03*
X140199533Y-85710000D03*
X138929533Y-85710000D03*
X138929533Y-80660000D03*
X140199533Y-80660000D03*
X141469533Y-80660000D03*
X142739533Y-80660000D03*
G04 #@! TD*
G04 #@! TO.C,U2*
X133375400Y-85710000D03*
X134645400Y-85710000D03*
X135915400Y-85710000D03*
X137185400Y-85710000D03*
X137185400Y-80660000D03*
X135915400Y-80660000D03*
X134645400Y-80660000D03*
X133375400Y-80660000D03*
G04 #@! TD*
M02*
