G04 #@! TF.GenerationSoftware,KiCad,Pcbnew,(5.0.1)-3*
G04 #@! TF.CreationDate,2019-01-05T18:42:13-08:00*
G04 #@! TF.ProjectId,EScope-MSDAQ-2-INTANDAQ,4553636F70652D4D534441512D322D49,rev?*
G04 #@! TF.SameCoordinates,Original*
G04 #@! TF.FileFunction,Copper,L4,Bot,Signal*
G04 #@! TF.FilePolarity,Positive*
%FSLAX46Y46*%
G04 Gerber Fmt 4.6, Leading zero omitted, Abs format (unit mm)*
G04 Created by KiCad (PCBNEW (5.0.1)-3) date 1/5/2019 6:42:13 PM*
%MOMM*%
%LPD*%
G01*
G04 APERTURE LIST*
G04 #@! TA.AperFunction,ComponentPad*
%ADD10C,6.000000*%
G04 #@! TD*
G04 #@! TA.AperFunction,ComponentPad*
%ADD11R,1.700000X1.700000*%
G04 #@! TD*
G04 #@! TA.AperFunction,ComponentPad*
%ADD12O,1.700000X1.700000*%
G04 #@! TD*
G04 #@! TA.AperFunction,ViaPad*
%ADD13C,0.450000*%
G04 #@! TD*
G04 #@! TA.AperFunction,Conductor*
%ADD14C,0.203200*%
G04 #@! TD*
G04 #@! TA.AperFunction,Conductor*
%ADD15C,0.635000*%
G04 #@! TD*
G04 #@! TA.AperFunction,Conductor*
%ADD16C,0.152400*%
G04 #@! TD*
G04 APERTURE END LIST*
D10*
G04 #@! TO.P,H1,1*
G04 #@! TO.N,GND*
X162023600Y-122633800D03*
G04 #@! TD*
G04 #@! TO.P,H3,1*
G04 #@! TO.N,GND*
X125023600Y-122633800D03*
G04 #@! TD*
G04 #@! TO.P,H4,1*
G04 #@! TO.N,GND*
X162023600Y-75633800D03*
G04 #@! TD*
G04 #@! TO.P,H2,1*
G04 #@! TO.N,GND*
X125023600Y-75633800D03*
G04 #@! TD*
D11*
G04 #@! TO.P,J13,1*
G04 #@! TO.N,GND*
X159588200Y-90779600D03*
G04 #@! TD*
G04 #@! TO.P,J12,1*
G04 #@! TO.N,+3V3*
X159562800Y-96037400D03*
G04 #@! TD*
G04 #@! TO.P,J10,1*
G04 #@! TO.N,/LED2*
X159664400Y-106095800D03*
G04 #@! TD*
G04 #@! TO.P,J9,1*
G04 #@! TO.N,/LED1*
X159639000Y-101092000D03*
G04 #@! TD*
G04 #@! TO.P,J11,1*
G04 #@! TO.N,/LED3*
X159486600Y-111277400D03*
G04 #@! TD*
G04 #@! TO.P,J8,1*
G04 #@! TO.N,/MCU_SPI_MISO*
X136613900Y-88757760D03*
G04 #@! TD*
G04 #@! TO.P,J7,1*
G04 #@! TO.N,/MCU_SPI_SPCK*
X145961100Y-88831420D03*
G04 #@! TD*
G04 #@! TO.P,J6,1*
G04 #@! TO.N,/MCU_SPI_NPCS*
X151521160Y-88773000D03*
G04 #@! TD*
G04 #@! TO.P,J5,1*
G04 #@! TO.N,/MCU_SPI_MOSI*
X140416280Y-88745060D03*
G04 #@! TD*
G04 #@! TO.P,J3,1*
G04 #@! TO.N,Net-(J3-Pad1)*
X139700000Y-74168000D03*
G04 #@! TD*
G04 #@! TO.P,J1,1*
G04 #@! TO.N,+3V3*
X121248201Y-100148401D03*
D12*
G04 #@! TO.P,J1,2*
G04 #@! TO.N,/SWDIO*
X121248201Y-102688401D03*
G04 #@! TO.P,J1,3*
G04 #@! TO.N,/SWCLK*
X121248201Y-105228401D03*
G04 #@! TO.P,J1,4*
G04 #@! TO.N,GND*
X121248201Y-107768401D03*
G04 #@! TD*
D11*
G04 #@! TO.P,J2,1*
G04 #@! TO.N,+3V3*
X139115800Y-124155200D03*
D12*
G04 #@! TO.P,J2,2*
G04 #@! TO.N,/RD*
X141655800Y-124155200D03*
G04 #@! TO.P,J2,3*
G04 #@! TO.N,/RF*
X144195800Y-124155200D03*
G04 #@! TO.P,J2,4*
G04 #@! TO.N,/RK*
X146735800Y-124155200D03*
G04 #@! TO.P,J2,5*
G04 #@! TO.N,GND*
X149275800Y-124155200D03*
G04 #@! TD*
D13*
G04 #@! TO.N,+3V3*
X130187200Y-97727000D03*
X130276600Y-106197400D03*
X145872200Y-115392200D03*
X151536400Y-112623600D03*
X156502600Y-109817400D03*
X156400000Y-97422200D03*
X150571200Y-91109800D03*
X133807200Y-91186000D03*
X133350000Y-89611200D03*
X142773400Y-89560400D03*
X148337540Y-89558860D03*
X153875240Y-89611200D03*
G04 #@! TO.N,GND*
X136906000Y-91160600D03*
X140055600Y-91160600D03*
X131267200Y-95199200D03*
X131267200Y-101244400D03*
X131267200Y-104114600D03*
X131241800Y-109474000D03*
X139395200Y-115316000D03*
X135788400Y-116636800D03*
X153720800Y-115265200D03*
X156972000Y-114071400D03*
X156337000Y-113131600D03*
X154992400Y-119380000D03*
X156514800Y-96520000D03*
X156337000Y-94627200D03*
X147447000Y-91135200D03*
X149072600Y-112649000D03*
X147556800Y-112657200D03*
X160909000Y-108712000D03*
X161391600Y-103581200D03*
X160909000Y-98552000D03*
X134242040Y-89662000D03*
X138049000Y-85710000D03*
X143662400Y-89611200D03*
X149227540Y-89608660D03*
X154762200Y-89585800D03*
X142709900Y-73240900D03*
X156260806Y-99618800D03*
X137566400Y-112420400D03*
X156549649Y-108981951D03*
G04 #@! TO.N,/SCLK-*
X146177000Y-76531800D03*
X145262600Y-73152000D03*
G04 #@! TO.N,/MOSI-*
X144361800Y-77165200D03*
X144627600Y-72644000D03*
G04 #@! TO.N,/MISO-*
X142290800Y-76758800D03*
X143934194Y-73152120D03*
G04 #@! TO.N,/VDDCORE*
X138938000Y-116687600D03*
X147294600Y-116713000D03*
X130251200Y-111429800D03*
X156350200Y-98437200D03*
X156274000Y-95517200D03*
X144475200Y-91135200D03*
X151815800Y-110972600D03*
X134188200Y-98526600D03*
G04 #@! TO.N,/RK*
X147023604Y-99633800D03*
G04 #@! TO.N,/RF*
X143052800Y-93903800D03*
G04 #@! TO.N,/RD*
X137556800Y-93903800D03*
G04 #@! TO.N,/SWDIO*
X133943800Y-97501000D03*
G04 #@! TO.N,/LED3*
X150394400Y-94081600D03*
X155702000Y-106248200D03*
G04 #@! TO.N,/LED2*
X151434800Y-93853000D03*
X157276800Y-104012996D03*
G04 #@! TD*
D14*
G04 #@! TO.N,/SCLK-*
X145249900Y-73164700D02*
X145262600Y-73152000D01*
X145249900Y-75628500D02*
X145249900Y-73164700D01*
X146177000Y-76531800D02*
X146153200Y-76531800D01*
X146153200Y-76531800D02*
X145249900Y-75628500D01*
G04 #@! TO.N,/MOSI-*
X144627600Y-76899400D02*
X144627600Y-72962198D01*
X144361800Y-77165200D02*
X144627600Y-76899400D01*
X144627600Y-72962198D02*
X144627600Y-72644000D01*
G04 #@! TO.N,/MISO-*
X143979900Y-73197826D02*
X143934194Y-73152120D01*
X143979900Y-75044300D02*
X143979900Y-73197826D01*
X142290800Y-76758800D02*
X142290800Y-76733400D01*
X142290800Y-76733400D02*
X143979900Y-75044300D01*
D15*
G04 #@! TO.N,/VDDCORE*
X147294600Y-115697000D02*
X147294600Y-116713000D01*
X151815800Y-110972600D02*
X151815800Y-111175800D01*
X151815800Y-111175800D02*
X147294600Y-115697000D01*
X133680200Y-111429800D02*
X130251200Y-111429800D01*
X138938000Y-116687600D02*
X133680200Y-111429800D01*
X156049001Y-95742199D02*
X156274000Y-95517200D01*
X155676600Y-96114600D02*
X156049001Y-95742199D01*
X156350200Y-98437200D02*
X155676600Y-97763600D01*
X155676600Y-97763600D02*
X155676600Y-96114600D01*
X156049001Y-95292201D02*
X156274000Y-95517200D01*
X153940299Y-93183499D02*
X156049001Y-95292201D01*
X146523499Y-93183499D02*
X153940299Y-93183499D01*
X144475200Y-91135200D02*
X146523499Y-93183499D01*
X134188200Y-99593400D02*
X134188200Y-98526600D01*
X129260600Y-104521000D02*
X134188200Y-99593400D01*
X130251200Y-111429800D02*
X129260600Y-110439200D01*
X129260600Y-110439200D02*
X129260600Y-104521000D01*
X156575199Y-98662199D02*
X156350200Y-98437200D01*
X158064200Y-100151200D02*
X156575199Y-98662199D01*
X158064200Y-105664000D02*
X158064200Y-100151200D01*
X152980599Y-110747601D02*
X158064200Y-105664000D01*
X151815800Y-110972600D02*
X152040799Y-110747601D01*
X152040799Y-110747601D02*
X152980599Y-110747601D01*
D14*
G04 #@! TO.N,/RK*
X146798605Y-99858799D02*
X147023604Y-99633800D01*
X146735800Y-124155200D02*
X146735800Y-99921604D01*
X146735800Y-99921604D02*
X146798605Y-99858799D01*
G04 #@! TO.N,/RF*
X144195800Y-95046800D02*
X143052800Y-93903800D01*
X144195800Y-124155200D02*
X144195800Y-95046800D01*
G04 #@! TO.N,/RD*
X141655800Y-98002800D02*
X137556800Y-93903800D01*
X141655800Y-124155200D02*
X141655800Y-98002800D01*
D16*
G04 #@! TO.N,/SWDIO*
X133718801Y-97725999D02*
X133943800Y-97501000D01*
X129606398Y-101838402D02*
X133718801Y-97725999D01*
X122098200Y-101838402D02*
X129606398Y-101838402D01*
X121248201Y-102688401D02*
X122098200Y-101838402D01*
D14*
G04 #@! TO.N,/LED3*
X155477001Y-106023201D02*
X155702000Y-106248200D01*
X150394400Y-94081600D02*
X150394400Y-100940600D01*
X150394400Y-100940600D02*
X155477001Y-106023201D01*
G04 #@! TO.N,/LED2*
X157051801Y-103787997D02*
X157276800Y-104012996D01*
X151434800Y-93853000D02*
X151434800Y-98170996D01*
X151434800Y-98170996D02*
X157051801Y-103787997D01*
G04 #@! TD*
M02*
