G04 #@! TF.GenerationSoftware,KiCad,Pcbnew,(5.0.1)-3*
G04 #@! TF.CreationDate,2019-01-05T18:42:13-08:00*
G04 #@! TF.ProjectId,EScope-MSDAQ-2-INTANDAQ,4553636F70652D4D534441512D322D49,rev?*
G04 #@! TF.SameCoordinates,Original*
G04 #@! TF.FileFunction,Copper,L1,Top,Signal*
G04 #@! TF.FilePolarity,Positive*
%FSLAX46Y46*%
G04 Gerber Fmt 4.6, Leading zero omitted, Abs format (unit mm)*
G04 Created by KiCad (PCBNEW (5.0.1)-3) date 1/5/2019 6:42:13 PM*
%MOMM*%
%LPD*%
G01*
G04 APERTURE LIST*
G04 #@! TA.AperFunction,ComponentPad*
%ADD10C,6.000000*%
G04 #@! TD*
G04 #@! TA.AperFunction,ComponentPad*
%ADD11R,1.700000X1.700000*%
G04 #@! TD*
G04 #@! TA.AperFunction,SMDPad,CuDef*
%ADD12R,0.490000X0.560000*%
G04 #@! TD*
G04 #@! TA.AperFunction,Conductor*
%ADD13C,0.100000*%
G04 #@! TD*
G04 #@! TA.AperFunction,SMDPad,CuDef*
%ADD14C,0.875000*%
G04 #@! TD*
G04 #@! TA.AperFunction,SMDPad,CuDef*
%ADD15R,0.380000X1.020000*%
G04 #@! TD*
G04 #@! TA.AperFunction,SMDPad,CuDef*
%ADD16R,0.380000X0.762000*%
G04 #@! TD*
G04 #@! TA.AperFunction,ComponentPad*
%ADD17O,1.700000X1.700000*%
G04 #@! TD*
G04 #@! TA.AperFunction,SMDPad,CuDef*
%ADD18R,0.630000X0.580000*%
G04 #@! TD*
G04 #@! TA.AperFunction,SMDPad,CuDef*
%ADD19R,0.580000X0.630000*%
G04 #@! TD*
G04 #@! TA.AperFunction,SMDPad,CuDef*
%ADD20R,0.890000X0.920000*%
G04 #@! TD*
G04 #@! TA.AperFunction,SMDPad,CuDef*
%ADD21R,1.200000X1.400000*%
G04 #@! TD*
G04 #@! TA.AperFunction,SMDPad,CuDef*
%ADD22R,1.170000X0.300000*%
G04 #@! TD*
G04 #@! TA.AperFunction,SMDPad,CuDef*
%ADD23R,0.300000X1.170000*%
G04 #@! TD*
G04 #@! TA.AperFunction,BGAPad,CuDef*
%ADD24C,0.750000*%
G04 #@! TD*
G04 #@! TA.AperFunction,SMDPad,CuDef*
%ADD25R,0.640000X1.770000*%
G04 #@! TD*
G04 #@! TA.AperFunction,ViaPad*
%ADD26C,0.450000*%
G04 #@! TD*
G04 #@! TA.AperFunction,Conductor*
%ADD27C,0.203200*%
G04 #@! TD*
G04 #@! TA.AperFunction,Conductor*
%ADD28C,0.304800*%
G04 #@! TD*
G04 #@! TA.AperFunction,Conductor*
%ADD29C,0.635000*%
G04 #@! TD*
G04 APERTURE END LIST*
D10*
G04 #@! TO.P,H1,1*
G04 #@! TO.N,GND*
X162023600Y-122633800D03*
G04 #@! TD*
G04 #@! TO.P,H3,1*
G04 #@! TO.N,GND*
X125023600Y-122633800D03*
G04 #@! TD*
G04 #@! TO.P,H4,1*
G04 #@! TO.N,GND*
X162023600Y-75633800D03*
G04 #@! TD*
G04 #@! TO.P,H2,1*
G04 #@! TO.N,GND*
X125023600Y-75633800D03*
G04 #@! TD*
D11*
G04 #@! TO.P,J13,1*
G04 #@! TO.N,GND*
X159588200Y-90779600D03*
G04 #@! TD*
G04 #@! TO.P,J12,1*
G04 #@! TO.N,+3V3*
X159562800Y-96037400D03*
G04 #@! TD*
G04 #@! TO.P,J10,1*
G04 #@! TO.N,/LED2*
X159664400Y-106095800D03*
G04 #@! TD*
G04 #@! TO.P,J9,1*
G04 #@! TO.N,/LED1*
X159639000Y-101092000D03*
G04 #@! TD*
G04 #@! TO.P,J11,1*
G04 #@! TO.N,/LED3*
X159486600Y-111277400D03*
G04 #@! TD*
G04 #@! TO.P,J8,1*
G04 #@! TO.N,/MCU_SPI_MISO*
X136613900Y-88757760D03*
G04 #@! TD*
G04 #@! TO.P,J7,1*
G04 #@! TO.N,/MCU_SPI_SPCK*
X145961100Y-88831420D03*
G04 #@! TD*
G04 #@! TO.P,J6,1*
G04 #@! TO.N,/MCU_SPI_NPCS*
X151521160Y-88773000D03*
G04 #@! TD*
G04 #@! TO.P,J5,1*
G04 #@! TO.N,/MCU_SPI_MOSI*
X140416280Y-88745060D03*
G04 #@! TD*
D12*
G04 #@! TO.P,R6,1*
G04 #@! TO.N,GND*
X162597000Y-98552000D03*
G04 #@! TO.P,R6,2*
G04 #@! TO.N,Net-(D2-Pad1)*
X163507000Y-98552000D03*
G04 #@! TD*
G04 #@! TO.P,R7,2*
G04 #@! TO.N,Net-(D3-Pad1)*
X163507000Y-103632000D03*
G04 #@! TO.P,R7,1*
G04 #@! TO.N,GND*
X162597000Y-103632000D03*
G04 #@! TD*
G04 #@! TO.P,R8,1*
G04 #@! TO.N,GND*
X162597000Y-108712000D03*
G04 #@! TO.P,R8,2*
G04 #@! TO.N,Net-(D4-Pad1)*
X163507000Y-108712000D03*
G04 #@! TD*
D13*
G04 #@! TO.N,Net-(D2-Pad1)*
G04 #@! TO.C,D2*
G36*
X164079691Y-100618053D02*
X164100926Y-100621203D01*
X164121750Y-100626419D01*
X164141962Y-100633651D01*
X164161368Y-100642830D01*
X164179781Y-100653866D01*
X164197024Y-100666654D01*
X164212930Y-100681070D01*
X164227346Y-100696976D01*
X164240134Y-100714219D01*
X164251170Y-100732632D01*
X164260349Y-100752038D01*
X164267581Y-100772250D01*
X164272797Y-100793074D01*
X164275947Y-100814309D01*
X164277000Y-100835750D01*
X164277000Y-101348250D01*
X164275947Y-101369691D01*
X164272797Y-101390926D01*
X164267581Y-101411750D01*
X164260349Y-101431962D01*
X164251170Y-101451368D01*
X164240134Y-101469781D01*
X164227346Y-101487024D01*
X164212930Y-101502930D01*
X164197024Y-101517346D01*
X164179781Y-101530134D01*
X164161368Y-101541170D01*
X164141962Y-101550349D01*
X164121750Y-101557581D01*
X164100926Y-101562797D01*
X164079691Y-101565947D01*
X164058250Y-101567000D01*
X163620750Y-101567000D01*
X163599309Y-101565947D01*
X163578074Y-101562797D01*
X163557250Y-101557581D01*
X163537038Y-101550349D01*
X163517632Y-101541170D01*
X163499219Y-101530134D01*
X163481976Y-101517346D01*
X163466070Y-101502930D01*
X163451654Y-101487024D01*
X163438866Y-101469781D01*
X163427830Y-101451368D01*
X163418651Y-101431962D01*
X163411419Y-101411750D01*
X163406203Y-101390926D01*
X163403053Y-101369691D01*
X163402000Y-101348250D01*
X163402000Y-100835750D01*
X163403053Y-100814309D01*
X163406203Y-100793074D01*
X163411419Y-100772250D01*
X163418651Y-100752038D01*
X163427830Y-100732632D01*
X163438866Y-100714219D01*
X163451654Y-100696976D01*
X163466070Y-100681070D01*
X163481976Y-100666654D01*
X163499219Y-100653866D01*
X163517632Y-100642830D01*
X163537038Y-100633651D01*
X163557250Y-100626419D01*
X163578074Y-100621203D01*
X163599309Y-100618053D01*
X163620750Y-100617000D01*
X164058250Y-100617000D01*
X164079691Y-100618053D01*
X164079691Y-100618053D01*
G37*
D14*
G04 #@! TD*
G04 #@! TO.P,D2,1*
G04 #@! TO.N,Net-(D2-Pad1)*
X163839500Y-101092000D03*
D13*
G04 #@! TO.N,/LED1*
G04 #@! TO.C,D2*
G36*
X162504691Y-100618053D02*
X162525926Y-100621203D01*
X162546750Y-100626419D01*
X162566962Y-100633651D01*
X162586368Y-100642830D01*
X162604781Y-100653866D01*
X162622024Y-100666654D01*
X162637930Y-100681070D01*
X162652346Y-100696976D01*
X162665134Y-100714219D01*
X162676170Y-100732632D01*
X162685349Y-100752038D01*
X162692581Y-100772250D01*
X162697797Y-100793074D01*
X162700947Y-100814309D01*
X162702000Y-100835750D01*
X162702000Y-101348250D01*
X162700947Y-101369691D01*
X162697797Y-101390926D01*
X162692581Y-101411750D01*
X162685349Y-101431962D01*
X162676170Y-101451368D01*
X162665134Y-101469781D01*
X162652346Y-101487024D01*
X162637930Y-101502930D01*
X162622024Y-101517346D01*
X162604781Y-101530134D01*
X162586368Y-101541170D01*
X162566962Y-101550349D01*
X162546750Y-101557581D01*
X162525926Y-101562797D01*
X162504691Y-101565947D01*
X162483250Y-101567000D01*
X162045750Y-101567000D01*
X162024309Y-101565947D01*
X162003074Y-101562797D01*
X161982250Y-101557581D01*
X161962038Y-101550349D01*
X161942632Y-101541170D01*
X161924219Y-101530134D01*
X161906976Y-101517346D01*
X161891070Y-101502930D01*
X161876654Y-101487024D01*
X161863866Y-101469781D01*
X161852830Y-101451368D01*
X161843651Y-101431962D01*
X161836419Y-101411750D01*
X161831203Y-101390926D01*
X161828053Y-101369691D01*
X161827000Y-101348250D01*
X161827000Y-100835750D01*
X161828053Y-100814309D01*
X161831203Y-100793074D01*
X161836419Y-100772250D01*
X161843651Y-100752038D01*
X161852830Y-100732632D01*
X161863866Y-100714219D01*
X161876654Y-100696976D01*
X161891070Y-100681070D01*
X161906976Y-100666654D01*
X161924219Y-100653866D01*
X161942632Y-100642830D01*
X161962038Y-100633651D01*
X161982250Y-100626419D01*
X162003074Y-100621203D01*
X162024309Y-100618053D01*
X162045750Y-100617000D01*
X162483250Y-100617000D01*
X162504691Y-100618053D01*
X162504691Y-100618053D01*
G37*
D14*
G04 #@! TD*
G04 #@! TO.P,D2,2*
G04 #@! TO.N,/LED1*
X162264500Y-101092000D03*
D13*
G04 #@! TO.N,/LED2*
G04 #@! TO.C,D3*
G36*
X162504691Y-105698053D02*
X162525926Y-105701203D01*
X162546750Y-105706419D01*
X162566962Y-105713651D01*
X162586368Y-105722830D01*
X162604781Y-105733866D01*
X162622024Y-105746654D01*
X162637930Y-105761070D01*
X162652346Y-105776976D01*
X162665134Y-105794219D01*
X162676170Y-105812632D01*
X162685349Y-105832038D01*
X162692581Y-105852250D01*
X162697797Y-105873074D01*
X162700947Y-105894309D01*
X162702000Y-105915750D01*
X162702000Y-106428250D01*
X162700947Y-106449691D01*
X162697797Y-106470926D01*
X162692581Y-106491750D01*
X162685349Y-106511962D01*
X162676170Y-106531368D01*
X162665134Y-106549781D01*
X162652346Y-106567024D01*
X162637930Y-106582930D01*
X162622024Y-106597346D01*
X162604781Y-106610134D01*
X162586368Y-106621170D01*
X162566962Y-106630349D01*
X162546750Y-106637581D01*
X162525926Y-106642797D01*
X162504691Y-106645947D01*
X162483250Y-106647000D01*
X162045750Y-106647000D01*
X162024309Y-106645947D01*
X162003074Y-106642797D01*
X161982250Y-106637581D01*
X161962038Y-106630349D01*
X161942632Y-106621170D01*
X161924219Y-106610134D01*
X161906976Y-106597346D01*
X161891070Y-106582930D01*
X161876654Y-106567024D01*
X161863866Y-106549781D01*
X161852830Y-106531368D01*
X161843651Y-106511962D01*
X161836419Y-106491750D01*
X161831203Y-106470926D01*
X161828053Y-106449691D01*
X161827000Y-106428250D01*
X161827000Y-105915750D01*
X161828053Y-105894309D01*
X161831203Y-105873074D01*
X161836419Y-105852250D01*
X161843651Y-105832038D01*
X161852830Y-105812632D01*
X161863866Y-105794219D01*
X161876654Y-105776976D01*
X161891070Y-105761070D01*
X161906976Y-105746654D01*
X161924219Y-105733866D01*
X161942632Y-105722830D01*
X161962038Y-105713651D01*
X161982250Y-105706419D01*
X162003074Y-105701203D01*
X162024309Y-105698053D01*
X162045750Y-105697000D01*
X162483250Y-105697000D01*
X162504691Y-105698053D01*
X162504691Y-105698053D01*
G37*
D14*
G04 #@! TD*
G04 #@! TO.P,D3,2*
G04 #@! TO.N,/LED2*
X162264500Y-106172000D03*
D13*
G04 #@! TO.N,Net-(D3-Pad1)*
G04 #@! TO.C,D3*
G36*
X164079691Y-105698053D02*
X164100926Y-105701203D01*
X164121750Y-105706419D01*
X164141962Y-105713651D01*
X164161368Y-105722830D01*
X164179781Y-105733866D01*
X164197024Y-105746654D01*
X164212930Y-105761070D01*
X164227346Y-105776976D01*
X164240134Y-105794219D01*
X164251170Y-105812632D01*
X164260349Y-105832038D01*
X164267581Y-105852250D01*
X164272797Y-105873074D01*
X164275947Y-105894309D01*
X164277000Y-105915750D01*
X164277000Y-106428250D01*
X164275947Y-106449691D01*
X164272797Y-106470926D01*
X164267581Y-106491750D01*
X164260349Y-106511962D01*
X164251170Y-106531368D01*
X164240134Y-106549781D01*
X164227346Y-106567024D01*
X164212930Y-106582930D01*
X164197024Y-106597346D01*
X164179781Y-106610134D01*
X164161368Y-106621170D01*
X164141962Y-106630349D01*
X164121750Y-106637581D01*
X164100926Y-106642797D01*
X164079691Y-106645947D01*
X164058250Y-106647000D01*
X163620750Y-106647000D01*
X163599309Y-106645947D01*
X163578074Y-106642797D01*
X163557250Y-106637581D01*
X163537038Y-106630349D01*
X163517632Y-106621170D01*
X163499219Y-106610134D01*
X163481976Y-106597346D01*
X163466070Y-106582930D01*
X163451654Y-106567024D01*
X163438866Y-106549781D01*
X163427830Y-106531368D01*
X163418651Y-106511962D01*
X163411419Y-106491750D01*
X163406203Y-106470926D01*
X163403053Y-106449691D01*
X163402000Y-106428250D01*
X163402000Y-105915750D01*
X163403053Y-105894309D01*
X163406203Y-105873074D01*
X163411419Y-105852250D01*
X163418651Y-105832038D01*
X163427830Y-105812632D01*
X163438866Y-105794219D01*
X163451654Y-105776976D01*
X163466070Y-105761070D01*
X163481976Y-105746654D01*
X163499219Y-105733866D01*
X163517632Y-105722830D01*
X163537038Y-105713651D01*
X163557250Y-105706419D01*
X163578074Y-105701203D01*
X163599309Y-105698053D01*
X163620750Y-105697000D01*
X164058250Y-105697000D01*
X164079691Y-105698053D01*
X164079691Y-105698053D01*
G37*
D14*
G04 #@! TD*
G04 #@! TO.P,D3,1*
G04 #@! TO.N,Net-(D3-Pad1)*
X163839500Y-106172000D03*
D13*
G04 #@! TO.N,Net-(D4-Pad1)*
G04 #@! TO.C,D4*
G36*
X164079691Y-110778053D02*
X164100926Y-110781203D01*
X164121750Y-110786419D01*
X164141962Y-110793651D01*
X164161368Y-110802830D01*
X164179781Y-110813866D01*
X164197024Y-110826654D01*
X164212930Y-110841070D01*
X164227346Y-110856976D01*
X164240134Y-110874219D01*
X164251170Y-110892632D01*
X164260349Y-110912038D01*
X164267581Y-110932250D01*
X164272797Y-110953074D01*
X164275947Y-110974309D01*
X164277000Y-110995750D01*
X164277000Y-111508250D01*
X164275947Y-111529691D01*
X164272797Y-111550926D01*
X164267581Y-111571750D01*
X164260349Y-111591962D01*
X164251170Y-111611368D01*
X164240134Y-111629781D01*
X164227346Y-111647024D01*
X164212930Y-111662930D01*
X164197024Y-111677346D01*
X164179781Y-111690134D01*
X164161368Y-111701170D01*
X164141962Y-111710349D01*
X164121750Y-111717581D01*
X164100926Y-111722797D01*
X164079691Y-111725947D01*
X164058250Y-111727000D01*
X163620750Y-111727000D01*
X163599309Y-111725947D01*
X163578074Y-111722797D01*
X163557250Y-111717581D01*
X163537038Y-111710349D01*
X163517632Y-111701170D01*
X163499219Y-111690134D01*
X163481976Y-111677346D01*
X163466070Y-111662930D01*
X163451654Y-111647024D01*
X163438866Y-111629781D01*
X163427830Y-111611368D01*
X163418651Y-111591962D01*
X163411419Y-111571750D01*
X163406203Y-111550926D01*
X163403053Y-111529691D01*
X163402000Y-111508250D01*
X163402000Y-110995750D01*
X163403053Y-110974309D01*
X163406203Y-110953074D01*
X163411419Y-110932250D01*
X163418651Y-110912038D01*
X163427830Y-110892632D01*
X163438866Y-110874219D01*
X163451654Y-110856976D01*
X163466070Y-110841070D01*
X163481976Y-110826654D01*
X163499219Y-110813866D01*
X163517632Y-110802830D01*
X163537038Y-110793651D01*
X163557250Y-110786419D01*
X163578074Y-110781203D01*
X163599309Y-110778053D01*
X163620750Y-110777000D01*
X164058250Y-110777000D01*
X164079691Y-110778053D01*
X164079691Y-110778053D01*
G37*
D14*
G04 #@! TD*
G04 #@! TO.P,D4,1*
G04 #@! TO.N,Net-(D4-Pad1)*
X163839500Y-111252000D03*
D13*
G04 #@! TO.N,/LED3*
G04 #@! TO.C,D4*
G36*
X162504691Y-110778053D02*
X162525926Y-110781203D01*
X162546750Y-110786419D01*
X162566962Y-110793651D01*
X162586368Y-110802830D01*
X162604781Y-110813866D01*
X162622024Y-110826654D01*
X162637930Y-110841070D01*
X162652346Y-110856976D01*
X162665134Y-110874219D01*
X162676170Y-110892632D01*
X162685349Y-110912038D01*
X162692581Y-110932250D01*
X162697797Y-110953074D01*
X162700947Y-110974309D01*
X162702000Y-110995750D01*
X162702000Y-111508250D01*
X162700947Y-111529691D01*
X162697797Y-111550926D01*
X162692581Y-111571750D01*
X162685349Y-111591962D01*
X162676170Y-111611368D01*
X162665134Y-111629781D01*
X162652346Y-111647024D01*
X162637930Y-111662930D01*
X162622024Y-111677346D01*
X162604781Y-111690134D01*
X162586368Y-111701170D01*
X162566962Y-111710349D01*
X162546750Y-111717581D01*
X162525926Y-111722797D01*
X162504691Y-111725947D01*
X162483250Y-111727000D01*
X162045750Y-111727000D01*
X162024309Y-111725947D01*
X162003074Y-111722797D01*
X161982250Y-111717581D01*
X161962038Y-111710349D01*
X161942632Y-111701170D01*
X161924219Y-111690134D01*
X161906976Y-111677346D01*
X161891070Y-111662930D01*
X161876654Y-111647024D01*
X161863866Y-111629781D01*
X161852830Y-111611368D01*
X161843651Y-111591962D01*
X161836419Y-111571750D01*
X161831203Y-111550926D01*
X161828053Y-111529691D01*
X161827000Y-111508250D01*
X161827000Y-110995750D01*
X161828053Y-110974309D01*
X161831203Y-110953074D01*
X161836419Y-110932250D01*
X161843651Y-110912038D01*
X161852830Y-110892632D01*
X161863866Y-110874219D01*
X161876654Y-110856976D01*
X161891070Y-110841070D01*
X161906976Y-110826654D01*
X161924219Y-110813866D01*
X161942632Y-110802830D01*
X161962038Y-110793651D01*
X161982250Y-110786419D01*
X162003074Y-110781203D01*
X162024309Y-110778053D01*
X162045750Y-110777000D01*
X162483250Y-110777000D01*
X162504691Y-110778053D01*
X162504691Y-110778053D01*
G37*
D14*
G04 #@! TD*
G04 #@! TO.P,D4,2*
G04 #@! TO.N,/LED3*
X162264500Y-111252000D03*
D15*
G04 #@! TO.P,J4,1*
G04 #@! TO.N,/nCS+*
X145884900Y-75234800D03*
G04 #@! TO.P,J4,3*
G04 #@! TO.N,/SCLK+*
X145249900Y-75234800D03*
G04 #@! TO.P,J4,5*
G04 #@! TO.N,/MOSI+*
X144614900Y-75234800D03*
G04 #@! TO.P,J4,7*
G04 #@! TO.N,/MISO+*
X143979900Y-75234800D03*
G04 #@! TO.P,J4,9*
G04 #@! TO.N,Net-(J4-Pad9)*
X143344900Y-75234800D03*
G04 #@! TO.P,J4,11*
G04 #@! TO.N,Net-(J3-Pad1)*
X142709900Y-75234800D03*
D16*
G04 #@! TO.P,J4,2*
G04 #@! TO.N,/nCS-*
X145884900Y-74084800D03*
G04 #@! TO.P,J4,4*
G04 #@! TO.N,/SCLK-*
X145249900Y-74084800D03*
G04 #@! TO.P,J4,6*
G04 #@! TO.N,/MOSI-*
X144614900Y-74084800D03*
G04 #@! TO.P,J4,8*
G04 #@! TO.N,/MISO-*
X143979900Y-74084800D03*
G04 #@! TO.P,J4,10*
G04 #@! TO.N,Net-(J4-Pad10)*
X143344900Y-74084800D03*
G04 #@! TO.P,J4,12*
G04 #@! TO.N,GND*
X142709900Y-74084800D03*
G04 #@! TD*
D12*
G04 #@! TO.P,R2,2*
G04 #@! TO.N,/SCLK+*
X147169800Y-78917800D03*
G04 #@! TO.P,R2,1*
G04 #@! TO.N,/SCLK-*
X148079800Y-78917800D03*
G04 #@! TD*
G04 #@! TO.P,R3,1*
G04 #@! TO.N,/nCS-*
X153693200Y-78841600D03*
G04 #@! TO.P,R3,2*
G04 #@! TO.N,/nCS+*
X152783200Y-78841600D03*
G04 #@! TD*
G04 #@! TO.P,R4,2*
G04 #@! TO.N,/MOSI+*
X141734200Y-78917800D03*
G04 #@! TO.P,R4,1*
G04 #@! TO.N,/MOSI-*
X142644200Y-78917800D03*
G04 #@! TD*
G04 #@! TO.P,R5,1*
G04 #@! TO.N,/MISO+*
X134567000Y-78892400D03*
G04 #@! TO.P,R5,2*
G04 #@! TO.N,/MISO-*
X133657000Y-78892400D03*
G04 #@! TD*
D11*
G04 #@! TO.P,J3,1*
G04 #@! TO.N,Net-(J3-Pad1)*
X139700000Y-74168000D03*
G04 #@! TD*
G04 #@! TO.P,J1,1*
G04 #@! TO.N,+3V3*
X121248201Y-100148401D03*
D17*
G04 #@! TO.P,J1,2*
G04 #@! TO.N,/SWDIO*
X121248201Y-102688401D03*
G04 #@! TO.P,J1,3*
G04 #@! TO.N,/SWCLK*
X121248201Y-105228401D03*
G04 #@! TO.P,J1,4*
G04 #@! TO.N,GND*
X121248201Y-107768401D03*
G04 #@! TD*
D11*
G04 #@! TO.P,J2,1*
G04 #@! TO.N,+3V3*
X139115800Y-124155200D03*
D17*
G04 #@! TO.P,J2,2*
G04 #@! TO.N,/RD*
X141655800Y-124155200D03*
G04 #@! TO.P,J2,3*
G04 #@! TO.N,/RF*
X144195800Y-124155200D03*
G04 #@! TO.P,J2,4*
G04 #@! TO.N,/RK*
X146735800Y-124155200D03*
G04 #@! TO.P,J2,5*
G04 #@! TO.N,GND*
X149275800Y-124155200D03*
G04 #@! TD*
D18*
G04 #@! TO.P,C6,2*
G04 #@! TO.N,GND*
X155371800Y-94627200D03*
G04 #@! TO.P,C6,1*
G04 #@! TO.N,/VDDCORE*
X155371800Y-95517200D03*
G04 #@! TD*
D19*
G04 #@! TO.P,C19,1*
G04 #@! TO.N,+3V3*
X134657600Y-91186000D03*
G04 #@! TO.P,C19,2*
G04 #@! TO.N,GND*
X135547600Y-91186000D03*
G04 #@! TD*
D18*
G04 #@! TO.P,C7,2*
G04 #@! TO.N,GND*
X155346400Y-111988600D03*
G04 #@! TO.P,C7,1*
G04 #@! TO.N,/VDDCORE*
X155346400Y-111098600D03*
G04 #@! TD*
G04 #@! TO.P,C8,1*
G04 #@! TO.N,+3V3*
X131267200Y-106185200D03*
G04 #@! TO.P,C8,2*
G04 #@! TO.N,GND*
X131267200Y-105295200D03*
G04 #@! TD*
G04 #@! TO.P,C9,2*
G04 #@! TO.N,GND*
X131267200Y-99696000D03*
G04 #@! TO.P,C9,1*
G04 #@! TO.N,/VDDCORE*
X131267200Y-98806000D03*
G04 #@! TD*
D19*
G04 #@! TO.P,C10,1*
G04 #@! TO.N,/VDDPLL*
X141516600Y-115316000D03*
G04 #@! TO.P,C10,2*
G04 #@! TO.N,GND*
X140626600Y-115316000D03*
G04 #@! TD*
G04 #@! TO.P,C1,2*
G04 #@! TO.N,GND*
X136816600Y-116636800D03*
G04 #@! TO.P,C1,1*
G04 #@! TO.N,+3V3*
X137706600Y-116636800D03*
G04 #@! TD*
D18*
G04 #@! TO.P,C12,1*
G04 #@! TO.N,+3V3*
X155371800Y-109817400D03*
G04 #@! TO.P,C12,2*
G04 #@! TO.N,GND*
X155371800Y-108927400D03*
G04 #@! TD*
G04 #@! TO.P,C13,2*
G04 #@! TO.N,GND*
X155371800Y-99327200D03*
G04 #@! TO.P,C13,1*
G04 #@! TO.N,/VDDCORE*
X155371800Y-98437200D03*
G04 #@! TD*
G04 #@! TO.P,C14,1*
G04 #@! TO.N,+3V3*
X155371800Y-97422200D03*
G04 #@! TO.P,C14,2*
G04 #@! TO.N,GND*
X155371800Y-96532200D03*
G04 #@! TD*
G04 #@! TO.P,C15,2*
G04 #@! TO.N,GND*
X131241800Y-110527600D03*
G04 #@! TO.P,C15,1*
G04 #@! TO.N,/VDDCORE*
X131241800Y-111417600D03*
G04 #@! TD*
D19*
G04 #@! TO.P,C16,1*
G04 #@! TO.N,+3V3*
X151802600Y-115265200D03*
G04 #@! TO.P,C16,2*
G04 #@! TO.N,GND*
X152692600Y-115265200D03*
G04 #@! TD*
G04 #@! TO.P,C17,2*
G04 #@! TO.N,GND*
X155841200Y-119735600D03*
G04 #@! TO.P,C17,1*
G04 #@! TO.N,/XIN*
X156731200Y-119735600D03*
G04 #@! TD*
G04 #@! TO.P,C18,1*
G04 #@! TO.N,+3V3*
X149238200Y-91109800D03*
G04 #@! TO.P,C18,2*
G04 #@! TO.N,GND*
X148348200Y-91109800D03*
G04 #@! TD*
G04 #@! TO.P,C28,2*
G04 #@! TO.N,GND*
X149174700Y-87477600D03*
G04 #@! TO.P,C28,1*
G04 #@! TO.N,+3V3*
X148284700Y-87477600D03*
G04 #@! TD*
G04 #@! TO.P,C27,1*
G04 #@! TO.N,+3V3*
X153860000Y-87477600D03*
G04 #@! TO.P,C27,2*
G04 #@! TO.N,GND*
X154750000Y-87477600D03*
G04 #@! TD*
G04 #@! TO.P,C26,2*
G04 #@! TO.N,GND*
X143660360Y-88554560D03*
G04 #@! TO.P,C26,1*
G04 #@! TO.N,+3V3*
X142770360Y-88554560D03*
G04 #@! TD*
G04 #@! TO.P,C25,1*
G04 #@! TO.N,GND*
X134242040Y-88554560D03*
G04 #@! TO.P,C25,2*
G04 #@! TO.N,+3V3*
X133352040Y-88554560D03*
G04 #@! TD*
G04 #@! TO.P,C24,2*
G04 #@! TO.N,GND*
X149227540Y-88554560D03*
G04 #@! TO.P,C24,1*
G04 #@! TO.N,+3V3*
X148337540Y-88554560D03*
G04 #@! TD*
G04 #@! TO.P,C23,1*
G04 #@! TO.N,+3V3*
X153875240Y-88554560D03*
G04 #@! TO.P,C23,2*
G04 #@! TO.N,GND*
X154765240Y-88554560D03*
G04 #@! TD*
G04 #@! TO.P,C22,2*
G04 #@! TO.N,GND*
X143645120Y-87477600D03*
G04 #@! TO.P,C22,1*
G04 #@! TO.N,+3V3*
X142755120Y-87477600D03*
G04 #@! TD*
G04 #@! TO.P,C21,1*
G04 #@! TO.N,GND*
X134252200Y-87477600D03*
G04 #@! TO.P,C21,2*
G04 #@! TO.N,+3V3*
X133362200Y-87477600D03*
G04 #@! TD*
G04 #@! TO.P,C11,2*
G04 #@! TO.N,GND*
X148729200Y-115366800D03*
G04 #@! TO.P,C11,1*
G04 #@! TO.N,/VDDUTMIC*
X149619200Y-115366800D03*
G04 #@! TD*
D18*
G04 #@! TO.P,C2,1*
G04 #@! TO.N,+3V3*
X131267200Y-97727000D03*
G04 #@! TO.P,C2,2*
G04 #@! TO.N,GND*
X131267200Y-96837000D03*
G04 #@! TD*
D19*
G04 #@! TO.P,C3,2*
G04 #@! TO.N,GND*
X146520400Y-91135200D03*
G04 #@! TO.P,C3,1*
G04 #@! TO.N,/VDDCORE*
X145630400Y-91135200D03*
G04 #@! TD*
D18*
G04 #@! TO.P,C4,1*
G04 #@! TO.N,/VDDCORE*
X156337000Y-111086400D03*
G04 #@! TO.P,C4,2*
G04 #@! TO.N,GND*
X156337000Y-111976400D03*
G04 #@! TD*
G04 #@! TO.P,C20,2*
G04 #@! TO.N,GND*
X153644600Y-117310400D03*
G04 #@! TO.P,C20,1*
G04 #@! TO.N,/XOUT*
X153644600Y-116420400D03*
G04 #@! TD*
D19*
G04 #@! TO.P,C5,1*
G04 #@! TO.N,+3V3*
X146900400Y-115392200D03*
G04 #@! TO.P,C5,2*
G04 #@! TO.N,GND*
X147790400Y-115392200D03*
G04 #@! TD*
D20*
G04 #@! TO.P,L2,2*
G04 #@! TO.N,/VDDCORE*
X148331400Y-116713000D03*
G04 #@! TO.P,L2,1*
G04 #@! TO.N,/VDDUTMIC*
X149661400Y-116713000D03*
G04 #@! TD*
G04 #@! TO.P,L1,1*
G04 #@! TO.N,/VDDPLL*
X141406400Y-116687600D03*
G04 #@! TO.P,L1,2*
G04 #@! TO.N,/VDDCORE*
X140076400Y-116687600D03*
G04 #@! TD*
D21*
G04 #@! TO.P,Y1,1*
G04 #@! TO.N,/XIN*
X156958400Y-117889200D03*
G04 #@! TO.P,Y1,2*
G04 #@! TO.N,GND*
X156958400Y-115689200D03*
G04 #@! TO.P,Y1,3*
G04 #@! TO.N,/XOUT*
X155258400Y-115689200D03*
G04 #@! TO.P,Y1,4*
G04 #@! TO.N,GND*
X155258400Y-117889200D03*
G04 #@! TD*
D12*
G04 #@! TO.P,R1,1*
G04 #@! TO.N,GND*
X162597000Y-93472000D03*
G04 #@! TO.P,R1,2*
G04 #@! TO.N,Net-(D1-Pad1)*
X163507000Y-93472000D03*
G04 #@! TD*
D13*
G04 #@! TO.N,Net-(D1-Pad1)*
G04 #@! TO.C,D1*
G36*
X164079691Y-95538053D02*
X164100926Y-95541203D01*
X164121750Y-95546419D01*
X164141962Y-95553651D01*
X164161368Y-95562830D01*
X164179781Y-95573866D01*
X164197024Y-95586654D01*
X164212930Y-95601070D01*
X164227346Y-95616976D01*
X164240134Y-95634219D01*
X164251170Y-95652632D01*
X164260349Y-95672038D01*
X164267581Y-95692250D01*
X164272797Y-95713074D01*
X164275947Y-95734309D01*
X164277000Y-95755750D01*
X164277000Y-96268250D01*
X164275947Y-96289691D01*
X164272797Y-96310926D01*
X164267581Y-96331750D01*
X164260349Y-96351962D01*
X164251170Y-96371368D01*
X164240134Y-96389781D01*
X164227346Y-96407024D01*
X164212930Y-96422930D01*
X164197024Y-96437346D01*
X164179781Y-96450134D01*
X164161368Y-96461170D01*
X164141962Y-96470349D01*
X164121750Y-96477581D01*
X164100926Y-96482797D01*
X164079691Y-96485947D01*
X164058250Y-96487000D01*
X163620750Y-96487000D01*
X163599309Y-96485947D01*
X163578074Y-96482797D01*
X163557250Y-96477581D01*
X163537038Y-96470349D01*
X163517632Y-96461170D01*
X163499219Y-96450134D01*
X163481976Y-96437346D01*
X163466070Y-96422930D01*
X163451654Y-96407024D01*
X163438866Y-96389781D01*
X163427830Y-96371368D01*
X163418651Y-96351962D01*
X163411419Y-96331750D01*
X163406203Y-96310926D01*
X163403053Y-96289691D01*
X163402000Y-96268250D01*
X163402000Y-95755750D01*
X163403053Y-95734309D01*
X163406203Y-95713074D01*
X163411419Y-95692250D01*
X163418651Y-95672038D01*
X163427830Y-95652632D01*
X163438866Y-95634219D01*
X163451654Y-95616976D01*
X163466070Y-95601070D01*
X163481976Y-95586654D01*
X163499219Y-95573866D01*
X163517632Y-95562830D01*
X163537038Y-95553651D01*
X163557250Y-95546419D01*
X163578074Y-95541203D01*
X163599309Y-95538053D01*
X163620750Y-95537000D01*
X164058250Y-95537000D01*
X164079691Y-95538053D01*
X164079691Y-95538053D01*
G37*
D14*
G04 #@! TD*
G04 #@! TO.P,D1,1*
G04 #@! TO.N,Net-(D1-Pad1)*
X163839500Y-96012000D03*
D13*
G04 #@! TO.N,+3V3*
G04 #@! TO.C,D1*
G36*
X162504691Y-95538053D02*
X162525926Y-95541203D01*
X162546750Y-95546419D01*
X162566962Y-95553651D01*
X162586368Y-95562830D01*
X162604781Y-95573866D01*
X162622024Y-95586654D01*
X162637930Y-95601070D01*
X162652346Y-95616976D01*
X162665134Y-95634219D01*
X162676170Y-95652632D01*
X162685349Y-95672038D01*
X162692581Y-95692250D01*
X162697797Y-95713074D01*
X162700947Y-95734309D01*
X162702000Y-95755750D01*
X162702000Y-96268250D01*
X162700947Y-96289691D01*
X162697797Y-96310926D01*
X162692581Y-96331750D01*
X162685349Y-96351962D01*
X162676170Y-96371368D01*
X162665134Y-96389781D01*
X162652346Y-96407024D01*
X162637930Y-96422930D01*
X162622024Y-96437346D01*
X162604781Y-96450134D01*
X162586368Y-96461170D01*
X162566962Y-96470349D01*
X162546750Y-96477581D01*
X162525926Y-96482797D01*
X162504691Y-96485947D01*
X162483250Y-96487000D01*
X162045750Y-96487000D01*
X162024309Y-96485947D01*
X162003074Y-96482797D01*
X161982250Y-96477581D01*
X161962038Y-96470349D01*
X161942632Y-96461170D01*
X161924219Y-96450134D01*
X161906976Y-96437346D01*
X161891070Y-96422930D01*
X161876654Y-96407024D01*
X161863866Y-96389781D01*
X161852830Y-96371368D01*
X161843651Y-96351962D01*
X161836419Y-96331750D01*
X161831203Y-96310926D01*
X161828053Y-96289691D01*
X161827000Y-96268250D01*
X161827000Y-95755750D01*
X161828053Y-95734309D01*
X161831203Y-95713074D01*
X161836419Y-95692250D01*
X161843651Y-95672038D01*
X161852830Y-95652632D01*
X161863866Y-95634219D01*
X161876654Y-95616976D01*
X161891070Y-95601070D01*
X161906976Y-95586654D01*
X161924219Y-95573866D01*
X161942632Y-95562830D01*
X161962038Y-95553651D01*
X161982250Y-95546419D01*
X162003074Y-95541203D01*
X162024309Y-95538053D01*
X162045750Y-95537000D01*
X162483250Y-95537000D01*
X162504691Y-95538053D01*
X162504691Y-95538053D01*
G37*
D14*
G04 #@! TD*
G04 #@! TO.P,D1,2*
G04 #@! TO.N,+3V3*
X162264500Y-96012000D03*
D22*
G04 #@! TO.P,U1,1*
G04 #@! TO.N,/LINE_VALID*
X153926800Y-112001000D03*
G04 #@! TO.P,U1,2*
G04 #@! TO.N,Net-(U1-Pad2)*
X153926800Y-111501000D03*
G04 #@! TO.P,U1,3*
G04 #@! TO.N,/VDDCORE*
X153926800Y-111001000D03*
G04 #@! TO.P,U1,4*
G04 #@! TO.N,Net-(U1-Pad4)*
X153926800Y-110501000D03*
G04 #@! TO.P,U1,5*
G04 #@! TO.N,+3V3*
X153926800Y-110001000D03*
G04 #@! TO.P,U1,6*
G04 #@! TO.N,Net-(U1-Pad6)*
X153926800Y-109501000D03*
G04 #@! TO.P,U1,7*
G04 #@! TO.N,Net-(U1-Pad7)*
X153926800Y-109001000D03*
G04 #@! TO.P,U1,8*
G04 #@! TO.N,GND*
X153926800Y-108501000D03*
G04 #@! TO.P,U1,9*
X153926800Y-108001000D03*
G04 #@! TO.P,U1,10*
G04 #@! TO.N,Net-(U1-Pad10)*
X153926800Y-107501000D03*
G04 #@! TO.P,U1,11*
G04 #@! TO.N,/LED1*
X153926800Y-107001000D03*
G04 #@! TO.P,U1,12*
G04 #@! TO.N,Net-(U1-Pad12)*
X153926800Y-106501000D03*
G04 #@! TO.P,U1,13*
G04 #@! TO.N,Net-(U1-Pad13)*
X153926800Y-106001000D03*
G04 #@! TO.P,U1,14*
G04 #@! TO.N,Net-(U1-Pad14)*
X153926800Y-105501000D03*
G04 #@! TO.P,U1,15*
G04 #@! TO.N,Net-(U1-Pad15)*
X153926800Y-105001000D03*
G04 #@! TO.P,U1,16*
G04 #@! TO.N,Net-(U1-Pad16)*
X153926800Y-104501000D03*
G04 #@! TO.P,U1,17*
G04 #@! TO.N,Net-(U1-Pad17)*
X153926800Y-104001000D03*
G04 #@! TO.P,U1,18*
G04 #@! TO.N,Net-(U1-Pad18)*
X153926800Y-103501000D03*
G04 #@! TO.P,U1,19*
G04 #@! TO.N,Net-(U1-Pad19)*
X153926800Y-103001000D03*
G04 #@! TO.P,U1,20*
G04 #@! TO.N,/TK*
X153926800Y-102501000D03*
G04 #@! TO.P,U1,21*
G04 #@! TO.N,/TF*
X153926800Y-102001000D03*
G04 #@! TO.P,U1,22*
G04 #@! TO.N,Net-(U1-Pad22)*
X153926800Y-101501000D03*
G04 #@! TO.P,U1,23*
G04 #@! TO.N,Net-(U1-Pad23)*
X153926800Y-101001000D03*
G04 #@! TO.P,U1,24*
G04 #@! TO.N,Net-(U1-Pad24)*
X153926800Y-100501000D03*
G04 #@! TO.P,U1,25*
G04 #@! TO.N,Net-(U1-Pad25)*
X153926800Y-100001000D03*
G04 #@! TO.P,U1,26*
G04 #@! TO.N,/MCU_SPI_NPCS*
X153926800Y-99501000D03*
G04 #@! TO.P,U1,27*
G04 #@! TO.N,Net-(U1-Pad27)*
X153926800Y-99001000D03*
G04 #@! TO.P,U1,28*
G04 #@! TO.N,Net-(U1-Pad28)*
X153926800Y-98501000D03*
G04 #@! TO.P,U1,29*
G04 #@! TO.N,/VDDCORE*
X153926800Y-98001000D03*
G04 #@! TO.P,U1,30*
G04 #@! TO.N,+3V3*
X153926800Y-97501000D03*
G04 #@! TO.P,U1,31*
G04 #@! TO.N,Net-(U1-Pad31)*
X153926800Y-97001000D03*
G04 #@! TO.P,U1,32*
G04 #@! TO.N,Net-(U1-Pad32)*
X153926800Y-96501000D03*
G04 #@! TO.P,U1,33*
G04 #@! TO.N,/VDDCORE*
X153926800Y-96001000D03*
G04 #@! TO.P,U1,34*
G04 #@! TO.N,Net-(U1-Pad34)*
X153926800Y-95501000D03*
G04 #@! TO.P,U1,35*
G04 #@! TO.N,Net-(U1-Pad35)*
X153926800Y-95001000D03*
G04 #@! TO.P,U1,36*
G04 #@! TO.N,Net-(U1-Pad36)*
X153926800Y-94501000D03*
D23*
G04 #@! TO.P,U1,37*
G04 #@! TO.N,/RK*
X152056800Y-92631000D03*
G04 #@! TO.P,U1,38*
G04 #@! TO.N,/LED2*
X151556800Y-92631000D03*
G04 #@! TO.P,U1,39*
G04 #@! TO.N,/LED3*
X151056800Y-92631000D03*
G04 #@! TO.P,U1,40*
G04 #@! TO.N,Net-(U1-Pad40)*
X150556800Y-92631000D03*
G04 #@! TO.P,U1,41*
G04 #@! TO.N,Net-(U1-Pad41)*
X150056800Y-92631000D03*
G04 #@! TO.P,U1,42*
G04 #@! TO.N,Net-(U1-Pad42)*
X149556800Y-92631000D03*
G04 #@! TO.P,U1,43*
G04 #@! TO.N,+3V3*
X149056800Y-92631000D03*
G04 #@! TO.P,U1,44*
G04 #@! TO.N,GND*
X148556800Y-92631000D03*
G04 #@! TO.P,U1,45*
G04 #@! TO.N,Net-(U1-Pad45)*
X148056800Y-92631000D03*
G04 #@! TO.P,U1,46*
G04 #@! TO.N,Net-(U1-Pad46)*
X147556800Y-92631000D03*
G04 #@! TO.P,U1,47*
G04 #@! TO.N,Net-(U1-Pad47)*
X147056800Y-92631000D03*
G04 #@! TO.P,U1,48*
G04 #@! TO.N,Net-(U1-Pad48)*
X146556800Y-92631000D03*
G04 #@! TO.P,U1,49*
G04 #@! TO.N,Net-(U1-Pad49)*
X146056800Y-92631000D03*
G04 #@! TO.P,U1,50*
G04 #@! TO.N,/VDDCORE*
X145556800Y-92631000D03*
G04 #@! TO.P,U1,51*
G04 #@! TO.N,Net-(U1-Pad51)*
X145056800Y-92631000D03*
G04 #@! TO.P,U1,52*
G04 #@! TO.N,Net-(U1-Pad52)*
X144556800Y-92631000D03*
G04 #@! TO.P,U1,53*
G04 #@! TO.N,Net-(U1-Pad53)*
X144056800Y-92631000D03*
G04 #@! TO.P,U1,54*
G04 #@! TO.N,Net-(U1-Pad54)*
X143556800Y-92631000D03*
G04 #@! TO.P,U1,55*
G04 #@! TO.N,/RF*
X143056800Y-92631000D03*
G04 #@! TO.P,U1,56*
G04 #@! TO.N,Net-(U1-Pad56)*
X142556800Y-92631000D03*
G04 #@! TO.P,U1,57*
G04 #@! TO.N,Net-(U1-Pad57)*
X142056800Y-92631000D03*
G04 #@! TO.P,U1,58*
G04 #@! TO.N,Net-(U1-Pad58)*
X141556800Y-92631000D03*
G04 #@! TO.P,U1,59*
G04 #@! TO.N,Net-(U1-Pad59)*
X141056800Y-92631000D03*
G04 #@! TO.P,U1,60*
G04 #@! TO.N,/MCU_SPI_SPCK*
X140556800Y-92631000D03*
G04 #@! TO.P,U1,61*
G04 #@! TO.N,GND*
X140056800Y-92631000D03*
G04 #@! TO.P,U1,62*
G04 #@! TO.N,Net-(U1-Pad62)*
X139556800Y-92631000D03*
G04 #@! TO.P,U1,63*
G04 #@! TO.N,/MCU_SPI_MOSI*
X139056800Y-92631000D03*
G04 #@! TO.P,U1,64*
G04 #@! TO.N,Net-(U1-Pad64)*
X138556800Y-92631000D03*
G04 #@! TO.P,U1,65*
G04 #@! TO.N,/MCU_SPI_MISO*
X138056800Y-92631000D03*
G04 #@! TO.P,U1,66*
G04 #@! TO.N,/RD*
X137556800Y-92631000D03*
G04 #@! TO.P,U1,67*
G04 #@! TO.N,Net-(U1-Pad67)*
X137056800Y-92631000D03*
G04 #@! TO.P,U1,68*
G04 #@! TO.N,Net-(U1-Pad68)*
X136556800Y-92631000D03*
G04 #@! TO.P,U1,69*
G04 #@! TO.N,Net-(U1-Pad69)*
X136056800Y-92631000D03*
G04 #@! TO.P,U1,70*
G04 #@! TO.N,Net-(U1-Pad70)*
X135556800Y-92631000D03*
G04 #@! TO.P,U1,71*
G04 #@! TO.N,Net-(U1-Pad71)*
X135056800Y-92631000D03*
G04 #@! TO.P,U1,72*
G04 #@! TO.N,+3V3*
X134556800Y-92631000D03*
D22*
G04 #@! TO.P,U1,73*
G04 #@! TO.N,Net-(U1-Pad73)*
X132686800Y-94501000D03*
G04 #@! TO.P,U1,74*
G04 #@! TO.N,Net-(U1-Pad74)*
X132686800Y-95001000D03*
G04 #@! TO.P,U1,75*
G04 #@! TO.N,Net-(U1-Pad75)*
X132686800Y-95501000D03*
G04 #@! TO.P,U1,76*
G04 #@! TO.N,Net-(U1-Pad76)*
X132686800Y-96001000D03*
G04 #@! TO.P,U1,77*
G04 #@! TO.N,Net-(U1-Pad77)*
X132686800Y-96501000D03*
G04 #@! TO.P,U1,78*
G04 #@! TO.N,Net-(U1-Pad78)*
X132686800Y-97001000D03*
G04 #@! TO.P,U1,79*
G04 #@! TO.N,/SWDIO*
X132686800Y-97501000D03*
G04 #@! TO.P,U1,80*
G04 #@! TO.N,+3V3*
X132686800Y-98001000D03*
G04 #@! TO.P,U1,81*
G04 #@! TO.N,/VDDCORE*
X132686800Y-98501000D03*
G04 #@! TO.P,U1,82*
G04 #@! TO.N,Net-(U1-Pad82)*
X132686800Y-99001000D03*
G04 #@! TO.P,U1,83*
G04 #@! TO.N,Net-(U1-Pad83)*
X132686800Y-99501000D03*
G04 #@! TO.P,U1,84*
G04 #@! TO.N,Net-(U1-Pad84)*
X132686800Y-100001000D03*
G04 #@! TO.P,U1,85*
G04 #@! TO.N,Net-(U1-Pad85)*
X132686800Y-100501000D03*
G04 #@! TO.P,U1,86*
G04 #@! TO.N,Net-(U1-Pad86)*
X132686800Y-101001000D03*
G04 #@! TO.P,U1,87*
G04 #@! TO.N,Net-(U1-Pad87)*
X132686800Y-101501000D03*
G04 #@! TO.P,U1,88*
G04 #@! TO.N,Net-(U1-Pad88)*
X132686800Y-102001000D03*
G04 #@! TO.P,U1,89*
G04 #@! TO.N,/SWCLK*
X132686800Y-102501000D03*
G04 #@! TO.P,U1,90*
G04 #@! TO.N,Net-(U1-Pad90)*
X132686800Y-103001000D03*
G04 #@! TO.P,U1,91*
G04 #@! TO.N,Net-(U1-Pad91)*
X132686800Y-103501000D03*
G04 #@! TO.P,U1,92*
G04 #@! TO.N,Net-(U1-Pad92)*
X132686800Y-104001000D03*
G04 #@! TO.P,U1,93*
G04 #@! TO.N,Net-(U1-Pad93)*
X132686800Y-104501000D03*
G04 #@! TO.P,U1,94*
G04 #@! TO.N,Net-(U1-Pad94)*
X132686800Y-105001000D03*
G04 #@! TO.P,U1,95*
G04 #@! TO.N,GND*
X132686800Y-105501000D03*
G04 #@! TO.P,U1,96*
G04 #@! TO.N,+3V3*
X132686800Y-106001000D03*
G04 #@! TO.P,U1,97*
G04 #@! TO.N,Net-(U1-Pad97)*
X132686800Y-106501000D03*
G04 #@! TO.P,U1,98*
G04 #@! TO.N,Net-(U1-Pad98)*
X132686800Y-107001000D03*
G04 #@! TO.P,U1,99*
G04 #@! TO.N,Net-(U1-Pad99)*
X132686800Y-107501000D03*
G04 #@! TO.P,U1,100*
G04 #@! TO.N,Net-(U1-Pad100)*
X132686800Y-108001000D03*
G04 #@! TO.P,U1,101*
G04 #@! TO.N,/TD*
X132686800Y-108501000D03*
G04 #@! TO.P,U1,102*
G04 #@! TO.N,Net-(U1-Pad102)*
X132686800Y-109001000D03*
G04 #@! TO.P,U1,103*
G04 #@! TO.N,Net-(U1-Pad103)*
X132686800Y-109501000D03*
G04 #@! TO.P,U1,104*
G04 #@! TO.N,Net-(U1-Pad104)*
X132686800Y-110001000D03*
G04 #@! TO.P,U1,105*
G04 #@! TO.N,/TWD*
X132686800Y-110501000D03*
G04 #@! TO.P,U1,106*
G04 #@! TO.N,Net-(U1-Pad106)*
X132686800Y-111001000D03*
G04 #@! TO.P,U1,107*
G04 #@! TO.N,/VDDCORE*
X132686800Y-111501000D03*
G04 #@! TO.P,U1,108*
G04 #@! TO.N,Net-(U1-Pad108)*
X132686800Y-112001000D03*
D23*
G04 #@! TO.P,U1,109*
G04 #@! TO.N,/TWCK*
X134556800Y-113871000D03*
G04 #@! TO.P,U1,110*
G04 #@! TO.N,Net-(U1-Pad110)*
X135056800Y-113871000D03*
G04 #@! TO.P,U1,111*
G04 #@! TO.N,Net-(U1-Pad111)*
X135556800Y-113871000D03*
G04 #@! TO.P,U1,112*
G04 #@! TO.N,/LED*
X136056800Y-113871000D03*
G04 #@! TO.P,U1,113*
G04 #@! TO.N,Net-(U1-Pad113)*
X136556800Y-113871000D03*
G04 #@! TO.P,U1,114*
G04 #@! TO.N,Net-(U1-Pad114)*
X137056800Y-113871000D03*
G04 #@! TO.P,U1,115*
G04 #@! TO.N,GND*
X137556800Y-113871000D03*
G04 #@! TO.P,U1,116*
G04 #@! TO.N,Net-(U1-Pad116)*
X138056800Y-113871000D03*
G04 #@! TO.P,U1,117*
G04 #@! TO.N,Net-(U1-Pad117)*
X138556800Y-113871000D03*
G04 #@! TO.P,U1,118*
G04 #@! TO.N,Net-(U1-Pad118)*
X139056800Y-113871000D03*
G04 #@! TO.P,U1,119*
G04 #@! TO.N,Net-(U1-Pad119)*
X139556800Y-113871000D03*
G04 #@! TO.P,U1,120*
G04 #@! TO.N,Net-(U1-Pad120)*
X140056800Y-113871000D03*
G04 #@! TO.P,U1,121*
G04 #@! TO.N,Net-(U1-Pad121)*
X140556800Y-113871000D03*
G04 #@! TO.P,U1,122*
G04 #@! TO.N,Net-(U1-Pad122)*
X141056800Y-113871000D03*
G04 #@! TO.P,U1,123*
G04 #@! TO.N,/VDDPLL*
X141556800Y-113871000D03*
G04 #@! TO.P,U1,124*
G04 #@! TO.N,Net-(U1-Pad124)*
X142056800Y-113871000D03*
G04 #@! TO.P,U1,125*
G04 #@! TO.N,Net-(U1-Pad125)*
X142556800Y-113871000D03*
G04 #@! TO.P,U1,126*
G04 #@! TO.N,Net-(U1-Pad126)*
X143056800Y-113871000D03*
G04 #@! TO.P,U1,127*
G04 #@! TO.N,Net-(U1-Pad127)*
X143556800Y-113871000D03*
G04 #@! TO.P,U1,128*
G04 #@! TO.N,Net-(U1-Pad128)*
X144056800Y-113871000D03*
G04 #@! TO.P,U1,129*
G04 #@! TO.N,Net-(U1-Pad129)*
X144556800Y-113871000D03*
G04 #@! TO.P,U1,130*
G04 #@! TO.N,Net-(U1-Pad130)*
X145056800Y-113871000D03*
G04 #@! TO.P,U1,131*
G04 #@! TO.N,Net-(U1-Pad131)*
X145556800Y-113871000D03*
G04 #@! TO.P,U1,132*
G04 #@! TO.N,Net-(U1-Pad132)*
X146056800Y-113871000D03*
G04 #@! TO.P,U1,133*
G04 #@! TO.N,Net-(U1-Pad133)*
X146556800Y-113871000D03*
G04 #@! TO.P,U1,134*
G04 #@! TO.N,+3V3*
X147056800Y-113871000D03*
G04 #@! TO.P,U1,135*
G04 #@! TO.N,GND*
X147556800Y-113871000D03*
G04 #@! TO.P,U1,136*
G04 #@! TO.N,Net-(U1-Pad136)*
X148056800Y-113871000D03*
G04 #@! TO.P,U1,137*
G04 #@! TO.N,Net-(U1-Pad137)*
X148556800Y-113871000D03*
G04 #@! TO.P,U1,138*
G04 #@! TO.N,GND*
X149056800Y-113871000D03*
G04 #@! TO.P,U1,139*
G04 #@! TO.N,/VDDUTMIC*
X149556800Y-113871000D03*
G04 #@! TO.P,U1,140*
G04 #@! TO.N,Net-(U1-Pad140)*
X150056800Y-113871000D03*
G04 #@! TO.P,U1,141*
G04 #@! TO.N,/XIN*
X150556800Y-113871000D03*
G04 #@! TO.P,U1,142*
G04 #@! TO.N,/XOUT*
X151056800Y-113871000D03*
G04 #@! TO.P,U1,143*
G04 #@! TO.N,+3V3*
X151556800Y-113871000D03*
G04 #@! TO.P,U1,144*
G04 #@! TO.N,Net-(U1-Pad144)*
X152056800Y-113871000D03*
D24*
G04 #@! TO.P,U1,FID1*
G04 #@! TO.N,N/C*
X153926800Y-92631000D03*
G04 #@! TO.P,U1,FID2*
X132686800Y-113871000D03*
G04 #@! TD*
D25*
G04 #@! TO.P,U5,8*
G04 #@! TO.N,+3V3*
X148293666Y-85710000D03*
G04 #@! TO.P,U5,7*
G04 #@! TO.N,/MCU_SPI_SPCK*
X147023666Y-85710000D03*
G04 #@! TO.P,U5,6*
G04 #@! TO.N,Net-(U5-Pad6)*
X145753666Y-85710000D03*
G04 #@! TO.P,U5,5*
G04 #@! TO.N,GND*
X144483666Y-85710000D03*
G04 #@! TO.P,U5,4*
G04 #@! TO.N,Net-(U5-Pad4)*
X144483666Y-80660000D03*
G04 #@! TO.P,U5,3*
G04 #@! TO.N,Net-(U5-Pad3)*
X145753666Y-80660000D03*
G04 #@! TO.P,U5,2*
G04 #@! TO.N,/SCLK+*
X147023666Y-80660000D03*
G04 #@! TO.P,U5,1*
G04 #@! TO.N,/SCLK-*
X148293666Y-80660000D03*
G04 #@! TD*
G04 #@! TO.P,U4,1*
G04 #@! TO.N,/nCS-*
X153847800Y-80660000D03*
G04 #@! TO.P,U4,2*
G04 #@! TO.N,/nCS+*
X152577800Y-80660000D03*
G04 #@! TO.P,U4,3*
G04 #@! TO.N,Net-(U4-Pad3)*
X151307800Y-80660000D03*
G04 #@! TO.P,U4,4*
G04 #@! TO.N,Net-(U4-Pad4)*
X150037800Y-80660000D03*
G04 #@! TO.P,U4,5*
G04 #@! TO.N,GND*
X150037800Y-85710000D03*
G04 #@! TO.P,U4,6*
G04 #@! TO.N,Net-(U4-Pad6)*
X151307800Y-85710000D03*
G04 #@! TO.P,U4,7*
G04 #@! TO.N,/MCU_SPI_NPCS*
X152577800Y-85710000D03*
G04 #@! TO.P,U4,8*
G04 #@! TO.N,+3V3*
X153847800Y-85710000D03*
G04 #@! TD*
G04 #@! TO.P,U3,8*
G04 #@! TO.N,+3V3*
X142739533Y-85710000D03*
G04 #@! TO.P,U3,7*
G04 #@! TO.N,/MCU_SPI_MOSI*
X141469533Y-85710000D03*
G04 #@! TO.P,U3,6*
G04 #@! TO.N,Net-(U3-Pad6)*
X140199533Y-85710000D03*
G04 #@! TO.P,U3,5*
G04 #@! TO.N,GND*
X138929533Y-85710000D03*
G04 #@! TO.P,U3,4*
G04 #@! TO.N,Net-(U3-Pad4)*
X138929533Y-80660000D03*
G04 #@! TO.P,U3,3*
G04 #@! TO.N,Net-(U3-Pad3)*
X140199533Y-80660000D03*
G04 #@! TO.P,U3,2*
G04 #@! TO.N,/MOSI+*
X141469533Y-80660000D03*
G04 #@! TO.P,U3,1*
G04 #@! TO.N,/MOSI-*
X142739533Y-80660000D03*
G04 #@! TD*
G04 #@! TO.P,U2,1*
G04 #@! TO.N,+3V3*
X133375400Y-85710000D03*
G04 #@! TO.P,U2,2*
G04 #@! TO.N,/MCU_SPI_MISO*
X134645400Y-85710000D03*
G04 #@! TO.P,U2,3*
G04 #@! TO.N,Net-(U2-Pad3)*
X135915400Y-85710000D03*
G04 #@! TO.P,U2,4*
G04 #@! TO.N,GND*
X137185400Y-85710000D03*
G04 #@! TO.P,U2,5*
G04 #@! TO.N,Net-(U2-Pad5)*
X137185400Y-80660000D03*
G04 #@! TO.P,U2,6*
G04 #@! TO.N,Net-(U2-Pad6)*
X135915400Y-80660000D03*
G04 #@! TO.P,U2,7*
G04 #@! TO.N,/MISO+*
X134645400Y-80660000D03*
G04 #@! TO.P,U2,8*
G04 #@! TO.N,/MISO-*
X133375400Y-80660000D03*
G04 #@! TD*
D26*
G04 #@! TO.N,+3V3*
X130187200Y-97727000D03*
X130276600Y-106197400D03*
X145872200Y-115392200D03*
X151536400Y-112623600D03*
X156502600Y-109817400D03*
X156400000Y-97422200D03*
X150571200Y-91109800D03*
X133807200Y-91186000D03*
X133350000Y-89611200D03*
X142773400Y-89560400D03*
X148337540Y-89558860D03*
X153875240Y-89611200D03*
G04 #@! TO.N,GND*
X136906000Y-91160600D03*
X140055600Y-91160600D03*
X131267200Y-95199200D03*
X131267200Y-101244400D03*
X131267200Y-104114600D03*
X131241800Y-109474000D03*
X139395200Y-115316000D03*
X135788400Y-116636800D03*
X153720800Y-115265200D03*
X156972000Y-114071400D03*
X156337000Y-113131600D03*
X154992400Y-119380000D03*
X156514800Y-96520000D03*
X156337000Y-94627200D03*
X147447000Y-91135200D03*
X149072600Y-112649000D03*
X147556800Y-112657200D03*
X160909000Y-108712000D03*
X161391600Y-103581200D03*
X160909000Y-98552000D03*
X134242040Y-89662000D03*
X138049000Y-85710000D03*
X143662400Y-89611200D03*
X149227540Y-89608660D03*
X154762200Y-89585800D03*
X142709900Y-73240900D03*
X156260806Y-99618800D03*
X137566400Y-112420400D03*
X156549649Y-108981951D03*
G04 #@! TO.N,/SCLK-*
X146177000Y-76531800D03*
X145262600Y-73152000D03*
G04 #@! TO.N,/MOSI-*
X144361800Y-77165200D03*
X144627600Y-72644000D03*
G04 #@! TO.N,/MISO-*
X142290800Y-76758800D03*
X143934194Y-73152120D03*
G04 #@! TO.N,/VDDCORE*
X138938000Y-116687600D03*
X147294600Y-116713000D03*
X130251200Y-111429800D03*
X156350200Y-98437200D03*
X156274000Y-95517200D03*
X144475200Y-91135200D03*
X151815800Y-110972600D03*
X134188200Y-98526600D03*
G04 #@! TO.N,/RK*
X147023604Y-99633800D03*
G04 #@! TO.N,/RF*
X143052800Y-93903800D03*
G04 #@! TO.N,/RD*
X137556800Y-93903800D03*
G04 #@! TO.N,/SWDIO*
X133943800Y-97501000D03*
G04 #@! TO.N,/LED3*
X150394400Y-94081600D03*
X155702000Y-106248200D03*
G04 #@! TO.N,/LED2*
X151434800Y-93853000D03*
X157276800Y-104012996D03*
G04 #@! TD*
D27*
G04 #@! TO.N,Net-(D1-Pad1)*
X163839500Y-93804500D02*
X163507000Y-93472000D01*
X163839500Y-96012000D02*
X163839500Y-93804500D01*
G04 #@! TO.N,+3V3*
X147056800Y-115235800D02*
X146900400Y-115392200D01*
X147056800Y-113871000D02*
X147056800Y-115235800D01*
X151556800Y-115019400D02*
X151802600Y-115265200D01*
X151556800Y-113871000D02*
X151556800Y-115019400D01*
X155188200Y-110001000D02*
X155371800Y-109817400D01*
X153926800Y-110001000D02*
X155188200Y-110001000D01*
X155293000Y-97501000D02*
X155371800Y-97422200D01*
X153926800Y-97501000D02*
X155293000Y-97501000D01*
X149056800Y-91291200D02*
X149238200Y-91109800D01*
X149056800Y-92631000D02*
X149056800Y-91291200D01*
X134556800Y-91286800D02*
X134657600Y-91186000D01*
X134556800Y-92631000D02*
X134556800Y-91286800D01*
X131541200Y-98001000D02*
X131267200Y-97727000D01*
X132686800Y-98001000D02*
X131541200Y-98001000D01*
X131451400Y-106001000D02*
X131267200Y-106185200D01*
X132686800Y-106001000D02*
X131451400Y-106001000D01*
X131267200Y-97727000D02*
X130187200Y-97727000D01*
X130187200Y-97727000D02*
X130187200Y-97727000D01*
X131267200Y-106185200D02*
X130276600Y-106197400D01*
X130276600Y-106197400D02*
X130288800Y-106185200D01*
X146900400Y-115392200D02*
X145872200Y-115392200D01*
X145872200Y-115392200D02*
X145796000Y-115392200D01*
X151556800Y-113082800D02*
X151536400Y-113062400D01*
X151556800Y-113871000D02*
X151556800Y-113082800D01*
X151536400Y-113062400D02*
X151536400Y-112623600D01*
X151536400Y-112623600D02*
X151536400Y-112623600D01*
X155371800Y-109817400D02*
X156502600Y-109817400D01*
X156502600Y-109817400D02*
X156502600Y-109817400D01*
X155371800Y-97422200D02*
X156400000Y-97422200D01*
X156400000Y-97422200D02*
X156400000Y-97422200D01*
X149238200Y-91109800D02*
X150571200Y-91109800D01*
X150571200Y-91109800D02*
X150596600Y-91109800D01*
X134657600Y-91186000D02*
X133807200Y-91186000D01*
X133807200Y-91186000D02*
X133756400Y-91186000D01*
X162264500Y-96012000D02*
X161188400Y-96012000D01*
X161188400Y-96012000D02*
X161188400Y-96012000D01*
X133375400Y-87464400D02*
X133362200Y-87477600D01*
X133375400Y-85710000D02*
X133375400Y-87464400D01*
X133362200Y-88544400D02*
X133352040Y-88554560D01*
X133362200Y-87477600D02*
X133362200Y-88544400D01*
X133352040Y-88554560D02*
X133350000Y-89611200D01*
X133350000Y-89611200D02*
X133352040Y-89609160D01*
X142722600Y-87445080D02*
X142755120Y-87477600D01*
X142722600Y-85750400D02*
X142722600Y-87445080D01*
X142755120Y-88539320D02*
X142770360Y-88554560D01*
X142755120Y-87477600D02*
X142755120Y-88539320D01*
X142770360Y-89072760D02*
X142773400Y-89075800D01*
X142770360Y-88554560D02*
X142770360Y-89072760D01*
X142773400Y-89075800D02*
X142773400Y-89560400D01*
X142773400Y-89560400D02*
X142773400Y-89560400D01*
X148209000Y-87401900D02*
X148284700Y-87477600D01*
X148209000Y-85735400D02*
X148209000Y-87401900D01*
X148284700Y-88501720D02*
X148337540Y-88554560D01*
X148284700Y-87477600D02*
X148284700Y-88501720D01*
X148337540Y-88554560D02*
X148337540Y-89558860D01*
X148337540Y-89558860D02*
X148337540Y-89558860D01*
X153847800Y-87465400D02*
X153860000Y-87477600D01*
X153847800Y-85710000D02*
X153847800Y-87465400D01*
X153860000Y-88539320D02*
X153875240Y-88554560D01*
X153860000Y-87477600D02*
X153860000Y-88539320D01*
X153875240Y-88554560D02*
X153875240Y-89611200D01*
X153875240Y-89611200D02*
X153875240Y-89659960D01*
D28*
X137706600Y-117513600D02*
X137706600Y-116636800D01*
X139115800Y-124155200D02*
X139115800Y-118922800D01*
X139115800Y-118922800D02*
X137706600Y-117513600D01*
D27*
X161163000Y-96037400D02*
X159562800Y-96037400D01*
X161188400Y-96012000D02*
X161163000Y-96037400D01*
G04 #@! TO.N,/MCU_SPI_SPCK*
X145961100Y-88836500D02*
X145961100Y-88831420D01*
X144043400Y-90754200D02*
X145961100Y-88836500D01*
X141681200Y-90754200D02*
X144043400Y-90754200D01*
X140556800Y-92631000D02*
X140556800Y-91878600D01*
X140556800Y-91878600D02*
X141681200Y-90754200D01*
X146939000Y-87853520D02*
X145961100Y-88831420D01*
X146939000Y-85735400D02*
X146939000Y-87853520D01*
G04 #@! TO.N,GND*
X140626600Y-115316000D02*
X140133400Y-115316000D01*
X140133400Y-115316000D02*
X139395200Y-115316000D01*
X147556800Y-115158600D02*
X147790400Y-115392200D01*
X147556800Y-113871000D02*
X147556800Y-115158600D01*
X148767800Y-115328200D02*
X148729200Y-115366800D01*
X148767800Y-115036600D02*
X148767800Y-115328200D01*
X149056800Y-113871000D02*
X149056800Y-114747600D01*
X149056800Y-114747600D02*
X148767800Y-115036600D01*
X154679600Y-117310400D02*
X155258400Y-117889200D01*
X153644600Y-117310400D02*
X154679600Y-117310400D01*
X155841200Y-118472000D02*
X155258400Y-117889200D01*
X155841200Y-119735600D02*
X155841200Y-118472000D01*
X156324800Y-111988600D02*
X156337000Y-111976400D01*
X155346400Y-111988600D02*
X156324800Y-111988600D01*
X154945400Y-108501000D02*
X155371800Y-108927400D01*
X153926800Y-108501000D02*
X154945400Y-108501000D01*
X155890000Y-96532200D02*
X155902200Y-96520000D01*
X155371800Y-96532200D02*
X155890000Y-96532200D01*
X155902200Y-96520000D02*
X156514800Y-96520000D01*
X155371800Y-94627200D02*
X156337000Y-94627200D01*
X148556800Y-91318400D02*
X148348200Y-91109800D01*
X148556800Y-92631000D02*
X148556800Y-91318400D01*
X148322800Y-91135200D02*
X148348200Y-91109800D01*
X146520400Y-91135200D02*
X147447000Y-91135200D01*
X140056800Y-91842800D02*
X140055600Y-91841600D01*
X140056800Y-92631000D02*
X140056800Y-91842800D01*
X140055600Y-91841600D02*
X140055600Y-91160600D01*
X131267200Y-96837000D02*
X131267200Y-96343800D01*
X131267200Y-96343800D02*
X131267200Y-95199200D01*
X131267200Y-99696000D02*
X131267200Y-101244400D01*
X131473000Y-105501000D02*
X131267200Y-105295200D01*
X132686800Y-105501000D02*
X131473000Y-105501000D01*
X131267200Y-105295200D02*
X131267200Y-104802000D01*
X131267200Y-104802000D02*
X131267200Y-104114600D01*
X131241800Y-110527600D02*
X131241800Y-109474000D01*
X136816600Y-116636800D02*
X135788400Y-116636800D01*
X156958400Y-114786000D02*
X156972000Y-114772400D01*
X156958400Y-115689200D02*
X156958400Y-114786000D01*
X156972000Y-114772400D02*
X156972000Y-114071400D01*
X155348000Y-119735600D02*
X154992400Y-119380000D01*
X155841200Y-119735600D02*
X155348000Y-119735600D01*
X152692600Y-115265200D02*
X153720800Y-115265200D01*
X156337000Y-111976400D02*
X156337000Y-113131600D01*
X136040800Y-91186000D02*
X136066200Y-91160600D01*
X135547600Y-91186000D02*
X136040800Y-91186000D01*
X136066200Y-91160600D02*
X136906000Y-91160600D01*
X136906000Y-91160600D02*
X136906000Y-91160600D01*
X140055600Y-91160600D02*
X140055600Y-91160600D01*
X131267200Y-95199200D02*
X131267200Y-95173800D01*
X131267200Y-101244400D02*
X131267200Y-101269800D01*
X131267200Y-104114600D02*
X131267200Y-104114600D01*
X131241800Y-109474000D02*
X131241800Y-109423200D01*
X139395200Y-115316000D02*
X139395200Y-115316000D01*
X135788400Y-116636800D02*
X135788400Y-116636800D01*
X153720800Y-115265200D02*
X153720800Y-115265200D01*
X156972000Y-114071400D02*
X156972000Y-114071400D01*
X156337000Y-113131600D02*
X156337000Y-113131600D01*
X154992400Y-119380000D02*
X154992400Y-119380000D01*
X156616400Y-108915200D02*
X156616400Y-108915200D01*
X156514800Y-96520000D02*
X156514800Y-96520000D01*
X156337000Y-94627200D02*
X156349200Y-94627200D01*
X147447000Y-91135200D02*
X148322800Y-91135200D01*
X149056800Y-113082800D02*
X149072600Y-113067000D01*
X149056800Y-113871000D02*
X149056800Y-113082800D01*
X149072600Y-113067000D02*
X149072600Y-112649000D01*
X147556800Y-113871000D02*
X147556800Y-112657200D01*
X149072600Y-112649000D02*
X149072600Y-112649000D01*
X147556800Y-112657200D02*
X147556800Y-112657200D01*
X162597000Y-98552000D02*
X160909000Y-98552000D01*
X162148800Y-103632000D02*
X162098000Y-103581200D01*
X162597000Y-103632000D02*
X162148800Y-103632000D01*
X162098000Y-103581200D02*
X161391600Y-103581200D01*
X162597000Y-108712000D02*
X160909000Y-108712000D01*
X160909000Y-108712000D02*
X160756600Y-108712000D01*
X161391600Y-103581200D02*
X161340800Y-103581200D01*
X160909000Y-98552000D02*
X160756600Y-98552000D01*
X134252200Y-88544400D02*
X134242040Y-88554560D01*
X134252200Y-87477600D02*
X134252200Y-88544400D01*
X134242040Y-88554560D02*
X134242040Y-89662000D01*
X134242040Y-89662000D02*
X134242040Y-89709760D01*
X138872200Y-85710000D02*
X138912600Y-85750400D01*
X137185400Y-85710000D02*
X138049000Y-85710000D01*
X138049000Y-85710000D02*
X138872200Y-85710000D01*
X143645120Y-87452600D02*
X143645120Y-87477600D01*
X144399000Y-86698720D02*
X143645120Y-87452600D01*
X144399000Y-85735400D02*
X144399000Y-86698720D01*
X143645120Y-88539320D02*
X143660360Y-88554560D01*
X143645120Y-87477600D02*
X143645120Y-88539320D01*
X143660360Y-89072760D02*
X143662400Y-89074800D01*
X143660360Y-88554560D02*
X143660360Y-89072760D01*
X143662400Y-89074800D02*
X143662400Y-89611200D01*
X143662400Y-89611200D02*
X143662400Y-89662000D01*
X149174700Y-87138100D02*
X149174700Y-87477600D01*
X150037800Y-86275000D02*
X149174700Y-87138100D01*
X150037800Y-85710000D02*
X150037800Y-86275000D01*
X149174700Y-88501720D02*
X149227540Y-88554560D01*
X149174700Y-87477600D02*
X149174700Y-88501720D01*
X149227540Y-88554560D02*
X149227540Y-89608660D01*
X149227540Y-89608660D02*
X149227540Y-89608660D01*
X154750000Y-88539320D02*
X154765240Y-88554560D01*
X154750000Y-87477600D02*
X154750000Y-88539320D01*
X154765240Y-89072760D02*
X154762200Y-89075800D01*
X154765240Y-88554560D02*
X154765240Y-89072760D01*
X154762200Y-89075800D02*
X154762200Y-89585800D01*
X154762200Y-89585800D02*
X154762200Y-89636600D01*
X142709900Y-74084800D02*
X142709900Y-73240900D01*
X142709900Y-73240900D02*
X142709900Y-73240900D01*
X156035807Y-99393801D02*
X156260806Y-99618800D01*
X155371800Y-99327200D02*
X155969206Y-99327200D01*
X155969206Y-99327200D02*
X156035807Y-99393801D01*
X137556800Y-113082800D02*
X137566400Y-113073200D01*
X137556800Y-113871000D02*
X137556800Y-113082800D01*
X137566400Y-113073200D02*
X137566400Y-112420400D01*
X137566400Y-112420400D02*
X137566400Y-112420400D01*
X159939600Y-90779600D02*
X159588200Y-90779600D01*
X162597000Y-93437000D02*
X159939600Y-90779600D01*
X162597000Y-93472000D02*
X162597000Y-93437000D01*
X155371800Y-108927400D02*
X156495098Y-108927400D01*
X156495098Y-108927400D02*
X156549649Y-108981951D01*
X153926800Y-108501000D02*
X153926800Y-108001000D01*
G04 #@! TO.N,/SCLK+*
X145249900Y-75948000D02*
X145249900Y-75234800D01*
X145249900Y-76514700D02*
X145249900Y-75948000D01*
X147169800Y-78434600D02*
X145249900Y-76514700D01*
X147169800Y-78917800D02*
X147169800Y-78434600D01*
X146939000Y-79148600D02*
X147169800Y-78917800D01*
X146939000Y-80685400D02*
X146939000Y-79148600D01*
G04 #@! TO.N,/SCLK-*
X148209000Y-79047000D02*
X148079800Y-78917800D01*
X148209000Y-80685400D02*
X148209000Y-79047000D01*
X148079800Y-78434600D02*
X146177000Y-76531800D01*
X148079800Y-78917800D02*
X148079800Y-78434600D01*
X146177000Y-76531800D02*
X146177000Y-76531800D01*
X145249900Y-74084800D02*
X145249900Y-73164700D01*
X145249900Y-73164700D02*
X145262600Y-73152000D01*
G04 #@! TO.N,/nCS-*
X153693200Y-78358400D02*
X153693200Y-78841600D01*
X149419600Y-74084800D02*
X153693200Y-78358400D01*
X145884900Y-74084800D02*
X149419600Y-74084800D01*
X153693200Y-80505400D02*
X153847800Y-80660000D01*
X153693200Y-78841600D02*
X153693200Y-80505400D01*
G04 #@! TO.N,/nCS+*
X152577800Y-79047000D02*
X152783200Y-78841600D01*
X152577800Y-80660000D02*
X152577800Y-79047000D01*
X146278100Y-75234800D02*
X145884900Y-75234800D01*
X149659600Y-75234800D02*
X146278100Y-75234800D01*
X152783200Y-78358400D02*
X149659600Y-75234800D01*
X152783200Y-78841600D02*
X152783200Y-78358400D01*
G04 #@! TO.N,/MCU_SPI_NPCS*
X152577800Y-87716360D02*
X152577800Y-85710000D01*
X151521160Y-88773000D02*
X152577800Y-87716360D01*
X153138600Y-99501000D02*
X153926800Y-99501000D01*
X152603200Y-98965600D02*
X153138600Y-99501000D01*
X152603200Y-90908240D02*
X152603200Y-98965600D01*
X151521160Y-88773000D02*
X151521160Y-89826200D01*
X151521160Y-89826200D02*
X152603200Y-90908240D01*
G04 #@! TO.N,/MCU_SPI_MOSI*
X141452600Y-87708740D02*
X140416280Y-88745060D01*
X141452600Y-85750400D02*
X141452600Y-87708740D01*
X140413740Y-88745060D02*
X140416280Y-88745060D01*
X139056800Y-92631000D02*
X139056800Y-90102000D01*
X139056800Y-90102000D02*
X140413740Y-88745060D01*
G04 #@! TO.N,/MOSI+*
X141734200Y-78882800D02*
X141734200Y-78917800D01*
X142182400Y-78434600D02*
X141734200Y-78882800D01*
X142217400Y-78434600D02*
X142182400Y-78434600D01*
X144614900Y-76037100D02*
X142217400Y-78434600D01*
X144614900Y-75234800D02*
X144614900Y-76037100D01*
X141734200Y-80418800D02*
X141452600Y-80700400D01*
X141734200Y-78917800D02*
X141734200Y-80418800D01*
G04 #@! TO.N,/MOSI-*
X142722600Y-78996200D02*
X142644200Y-78917800D01*
X142722600Y-80700400D02*
X142722600Y-78996200D01*
X142644200Y-78882800D02*
X144361800Y-77165200D01*
X142644200Y-78917800D02*
X142644200Y-78882800D01*
X144361800Y-77165200D02*
X144399000Y-77128000D01*
X144614900Y-74084800D02*
X144614900Y-72834500D01*
X144614900Y-73037700D02*
X144614900Y-72834500D01*
X144614900Y-72656700D02*
X144627600Y-72644000D01*
X144614900Y-72834500D02*
X144614900Y-72656700D01*
G04 #@! TO.N,/MCU_SPI_MISO*
X136613900Y-88243500D02*
X136613900Y-88757760D01*
X134645400Y-86275000D02*
X136613900Y-88243500D01*
X134645400Y-85710000D02*
X134645400Y-86275000D01*
X136613900Y-88760300D02*
X136613900Y-88757760D01*
X138056800Y-92631000D02*
X138056800Y-90203200D01*
X138056800Y-90203200D02*
X136613900Y-88760300D01*
G04 #@! TO.N,/MISO+*
X134645400Y-78970800D02*
X134567000Y-78892400D01*
X134645400Y-80660000D02*
X134645400Y-78970800D01*
X143979900Y-75722572D02*
X143979900Y-75234800D01*
X141038672Y-78663800D02*
X143979900Y-75722572D01*
X134567000Y-78892400D02*
X134795600Y-78663800D01*
X134795600Y-78663800D02*
X141038672Y-78663800D01*
G04 #@! TO.N,/MISO-*
X133375400Y-79174000D02*
X133657000Y-78892400D01*
X133375400Y-80660000D02*
X133375400Y-79174000D01*
X133657000Y-78857400D02*
X134434800Y-78079600D01*
X133657000Y-78892400D02*
X133657000Y-78857400D01*
X134434800Y-78079600D02*
X140970000Y-78079600D01*
X140970000Y-78079600D02*
X142290800Y-76758800D01*
X143979900Y-73164700D02*
X143979900Y-73164700D01*
X142290800Y-76758800D02*
X142392400Y-76657200D01*
X143979900Y-73197826D02*
X143934194Y-73152120D01*
X143979900Y-74084800D02*
X143979900Y-73197826D01*
G04 #@! TO.N,/VDDCORE*
X155248800Y-111001000D02*
X155346400Y-111098600D01*
X153926800Y-111001000D02*
X155248800Y-111001000D01*
X156324800Y-111098600D02*
X156337000Y-111086400D01*
X155346400Y-111098600D02*
X156324800Y-111098600D01*
X140076400Y-116687600D02*
X138938000Y-116687600D01*
X138938000Y-116687600D02*
X138887200Y-116687600D01*
X148331400Y-116713000D02*
X147294600Y-116713000D01*
X147294600Y-116713000D02*
X147294600Y-116713000D01*
X154935600Y-98001000D02*
X155371800Y-98437200D01*
X153926800Y-98001000D02*
X154935600Y-98001000D01*
X154888000Y-96001000D02*
X155371800Y-95517200D01*
X153926800Y-96001000D02*
X154888000Y-96001000D01*
X145556800Y-91208800D02*
X145630400Y-91135200D01*
X145556800Y-92631000D02*
X145556800Y-91208800D01*
X131572200Y-98501000D02*
X131267200Y-98806000D01*
X132686800Y-98501000D02*
X131572200Y-98501000D01*
X131325200Y-111501000D02*
X131241800Y-111417600D01*
X132686800Y-111501000D02*
X131325200Y-111501000D01*
X131241800Y-111417600D02*
X130251200Y-111429800D01*
X130251200Y-111429800D02*
X130263400Y-111417600D01*
X155371800Y-98437200D02*
X156350200Y-98437200D01*
X156350200Y-98437200D02*
X156350200Y-98437200D01*
X155371800Y-95517200D02*
X156274000Y-95517200D01*
X156274000Y-95517200D02*
X156274000Y-95517200D01*
X145630400Y-91135200D02*
X144475200Y-91135200D01*
X144475200Y-91135200D02*
X144475200Y-91135200D01*
X153138600Y-111001000D02*
X153110200Y-110972600D01*
X153926800Y-111001000D02*
X153138600Y-111001000D01*
X153110200Y-110972600D02*
X151815800Y-110972600D01*
X151815800Y-110972600D02*
X151790400Y-110972600D01*
D29*
X138938000Y-117367442D02*
X138938000Y-116687600D01*
X139731358Y-118160800D02*
X138938000Y-117367442D01*
X147294600Y-116713000D02*
X145846800Y-118160800D01*
X145846800Y-118160800D02*
X139731358Y-118160800D01*
D27*
X133475000Y-98501000D02*
X133500600Y-98526600D01*
X132686800Y-98501000D02*
X133475000Y-98501000D01*
X133500600Y-98526600D02*
X134188200Y-98526600D01*
X134188200Y-98526600D02*
X134239000Y-98526600D01*
X134188200Y-98526600D02*
X134188200Y-98526600D01*
G04 #@! TO.N,/RK*
X152056800Y-93967600D02*
X152056800Y-93967600D01*
X152056800Y-92631000D02*
X152056800Y-94600604D01*
X147248603Y-99408801D02*
X147023604Y-99633800D01*
X152056800Y-94600604D02*
X147248603Y-99408801D01*
G04 #@! TO.N,/RF*
X143056800Y-93419200D02*
X143052800Y-93423200D01*
X143056800Y-92631000D02*
X143056800Y-93419200D01*
X143052800Y-93423200D02*
X143052800Y-93903800D01*
X143052800Y-93903800D02*
X143052800Y-94030800D01*
G04 #@! TO.N,/RD*
X137556800Y-92631000D02*
X137556800Y-93903800D01*
X137556800Y-93903800D02*
X137556800Y-93919600D01*
G04 #@! TO.N,/SWDIO*
X132686800Y-97501000D02*
X133943800Y-97501000D01*
X133943800Y-97501000D02*
X133943800Y-97501000D01*
G04 #@! TO.N,/SWCLK*
X123975602Y-102501000D02*
X121248201Y-105228401D01*
X132686800Y-102501000D02*
X123975602Y-102501000D01*
G04 #@! TO.N,/VDDPLL*
X141556800Y-115275800D02*
X141516600Y-115316000D01*
X141556800Y-113871000D02*
X141556800Y-115275800D01*
X141406400Y-115426200D02*
X141516600Y-115316000D01*
X141406400Y-116687600D02*
X141406400Y-115426200D01*
G04 #@! TO.N,/VDDUTMIC*
X149556800Y-115304400D02*
X149619200Y-115366800D01*
X149556800Y-113871000D02*
X149556800Y-115304400D01*
X149661400Y-115409000D02*
X149619200Y-115366800D01*
X149661400Y-116713000D02*
X149661400Y-115409000D01*
G04 #@! TO.N,/XIN*
X156958400Y-119508400D02*
X156731200Y-119735600D01*
X156958400Y-117889200D02*
X156958400Y-119508400D01*
X156731200Y-119951000D02*
X156731200Y-119735600D01*
X156260800Y-120421400D02*
X156731200Y-119951000D01*
X155143200Y-120421400D02*
X156260800Y-120421400D01*
X150556800Y-113871000D02*
X150556800Y-115835000D01*
X150556800Y-115835000D02*
X155143200Y-120421400D01*
G04 #@! TO.N,/XOUT*
X154527200Y-116420400D02*
X155258400Y-115689200D01*
X153644600Y-116420400D02*
X154527200Y-116420400D01*
X151056800Y-113871000D02*
X151056800Y-115776200D01*
X151701000Y-116420400D02*
X153644600Y-116420400D01*
X151056800Y-115776200D02*
X151701000Y-116420400D01*
G04 #@! TO.N,Net-(J3-Pad1)*
X140385800Y-74853800D02*
X139700000Y-74168000D01*
X142709900Y-75234800D02*
X140766800Y-75234800D01*
X140766800Y-75234800D02*
X140385800Y-74853800D01*
G04 #@! TO.N,Net-(D4-Pad1)*
X163839500Y-109044500D02*
X163507000Y-108712000D01*
X163839500Y-111252000D02*
X163839500Y-109044500D01*
G04 #@! TO.N,/LED3*
X151056800Y-93419200D02*
X150394400Y-94081600D01*
X151056800Y-92631000D02*
X151056800Y-93419200D01*
X150394400Y-94081600D02*
X150394400Y-94081600D01*
X159486600Y-110032800D02*
X155702000Y-106248200D01*
X159486600Y-111226600D02*
X159486600Y-110032800D01*
X162264500Y-111252000D02*
X159461200Y-111252000D01*
X159461200Y-111252000D02*
X159486600Y-111226600D01*
G04 #@! TO.N,/LED2*
X151556800Y-93731000D02*
X151434800Y-93853000D01*
X151556800Y-92631000D02*
X151556800Y-93731000D01*
X157594998Y-104012996D02*
X157276800Y-104012996D01*
X157606996Y-104012996D02*
X157594998Y-104012996D01*
X162264500Y-106172000D02*
X159766000Y-106172000D01*
X159766000Y-106172000D02*
X157606996Y-104012996D01*
G04 #@! TO.N,Net-(D3-Pad1)*
X163839500Y-103964500D02*
X163507000Y-103632000D01*
X163839500Y-106172000D02*
X163839500Y-103964500D01*
G04 #@! TO.N,Net-(D2-Pad1)*
X163839500Y-98884500D02*
X163507000Y-98552000D01*
X163839500Y-101092000D02*
X163839500Y-98884500D01*
G04 #@! TO.N,/LED1*
X161727000Y-101092000D02*
X162264500Y-101092000D01*
X158585800Y-101092000D02*
X161727000Y-101092000D01*
X155092400Y-104585400D02*
X158585800Y-101092000D01*
X155092400Y-106623600D02*
X155092400Y-104585400D01*
X154715000Y-107001000D02*
X155092400Y-106623600D01*
X153926800Y-107001000D02*
X154715000Y-107001000D01*
G04 #@! TD*
M02*
