G04 #@! TF.GenerationSoftware,KiCad,Pcbnew,(5.0.1)-3*
G04 #@! TF.CreationDate,2019-01-05T18:42:13-08:00*
G04 #@! TF.ProjectId,EScope-MSDAQ-2-INTANDAQ,4553636F70652D4D534441512D322D49,rev?*
G04 #@! TF.SameCoordinates,Original*
G04 #@! TF.FileFunction,Copper,L3,Inr,Signal*
G04 #@! TF.FilePolarity,Positive*
%FSLAX46Y46*%
G04 Gerber Fmt 4.6, Leading zero omitted, Abs format (unit mm)*
G04 Created by KiCad (PCBNEW (5.0.1)-3) date 1/5/2019 6:42:13 PM*
%MOMM*%
%LPD*%
G01*
G04 APERTURE LIST*
G04 #@! TA.AperFunction,ViaPad*
%ADD10C,6.000000*%
G04 #@! TD*
G04 #@! TA.AperFunction,ViaPad*
%ADD11R,1.700000X1.700000*%
G04 #@! TD*
G04 #@! TA.AperFunction,ViaPad*
%ADD12O,1.700000X1.700000*%
G04 #@! TD*
G04 #@! TA.AperFunction,ViaPad*
%ADD13C,0.450000*%
G04 #@! TD*
G04 #@! TA.AperFunction,Conductor*
%ADD14C,0.254000*%
G04 #@! TD*
G04 APERTURE END LIST*
D10*
G04 #@! TO.N,GND*
G04 #@! TO.C,H1*
X162023600Y-122633800D03*
G04 #@! TD*
G04 #@! TO.N,GND*
G04 #@! TO.C,H3*
X125023600Y-122633800D03*
G04 #@! TD*
G04 #@! TO.N,GND*
G04 #@! TO.C,H4*
X162023600Y-75633800D03*
G04 #@! TD*
G04 #@! TO.N,GND*
G04 #@! TO.C,H2*
X125023600Y-75633800D03*
G04 #@! TD*
D11*
G04 #@! TO.N,GND*
G04 #@! TO.C,J13*
X159588200Y-90779600D03*
G04 #@! TD*
G04 #@! TO.N,+3V3*
G04 #@! TO.C,J12*
X159562800Y-96037400D03*
G04 #@! TD*
G04 #@! TO.N,/LED2*
G04 #@! TO.C,J10*
X159664400Y-106095800D03*
G04 #@! TD*
G04 #@! TO.N,/LED1*
G04 #@! TO.C,J9*
X159639000Y-101092000D03*
G04 #@! TD*
G04 #@! TO.N,/LED3*
G04 #@! TO.C,J11*
X159486600Y-111277400D03*
G04 #@! TD*
G04 #@! TO.N,/MCU_SPI_MISO*
G04 #@! TO.C,J8*
X136613900Y-88757760D03*
G04 #@! TD*
G04 #@! TO.N,/MCU_SPI_SPCK*
G04 #@! TO.C,J7*
X145961100Y-88831420D03*
G04 #@! TD*
G04 #@! TO.N,/MCU_SPI_NPCS*
G04 #@! TO.C,J6*
X151521160Y-88773000D03*
G04 #@! TD*
G04 #@! TO.N,/MCU_SPI_MOSI*
G04 #@! TO.C,J5*
X140416280Y-88745060D03*
G04 #@! TD*
G04 #@! TO.N,Net-(J3-Pad1)*
G04 #@! TO.C,J3*
X139700000Y-74168000D03*
G04 #@! TD*
G04 #@! TO.N,+3V3*
G04 #@! TO.C,J1*
X121248201Y-100148401D03*
D12*
G04 #@! TO.N,/SWDIO*
X121248201Y-102688401D03*
G04 #@! TO.N,/SWCLK*
X121248201Y-105228401D03*
G04 #@! TO.N,GND*
X121248201Y-107768401D03*
G04 #@! TD*
D11*
G04 #@! TO.N,+3V3*
G04 #@! TO.C,J2*
X139115800Y-124155200D03*
D12*
G04 #@! TO.N,/RD*
X141655800Y-124155200D03*
G04 #@! TO.N,/RF*
X144195800Y-124155200D03*
G04 #@! TO.N,/RK*
X146735800Y-124155200D03*
G04 #@! TO.N,GND*
X149275800Y-124155200D03*
G04 #@! TD*
D13*
G04 #@! TO.N,+3V3*
X130187200Y-97727000D03*
X130276600Y-106197400D03*
X145872200Y-115392200D03*
X151536400Y-112623600D03*
X156502600Y-109817400D03*
X156400000Y-97422200D03*
X150571200Y-91109800D03*
X133807200Y-91186000D03*
X133350000Y-89611200D03*
X142773400Y-89560400D03*
X148337540Y-89558860D03*
X153875240Y-89611200D03*
G04 #@! TO.N,GND*
X136906000Y-91160600D03*
X140055600Y-91160600D03*
X131267200Y-95199200D03*
X131267200Y-101244400D03*
X131267200Y-104114600D03*
X131241800Y-109474000D03*
X139395200Y-115316000D03*
X135788400Y-116636800D03*
X153720800Y-115265200D03*
X156972000Y-114071400D03*
X156337000Y-113131600D03*
X154992400Y-119380000D03*
X156514800Y-96520000D03*
X156337000Y-94627200D03*
X147447000Y-91135200D03*
X149072600Y-112649000D03*
X147556800Y-112657200D03*
X160909000Y-108712000D03*
X161391600Y-103581200D03*
X160909000Y-98552000D03*
X134242040Y-89662000D03*
X138049000Y-85710000D03*
X143662400Y-89611200D03*
X149227540Y-89608660D03*
X154762200Y-89585800D03*
X142709900Y-73240900D03*
X156260806Y-99618800D03*
X137566400Y-112420400D03*
X156549649Y-108981951D03*
G04 #@! TO.N,/SCLK-*
X146177000Y-76531800D03*
X145262600Y-73152000D03*
G04 #@! TO.N,/MOSI-*
X144361800Y-77165200D03*
X144627600Y-72644000D03*
G04 #@! TO.N,/MISO-*
X142290800Y-76758800D03*
X143934194Y-73152120D03*
G04 #@! TO.N,/VDDCORE*
X138938000Y-116687600D03*
X147294600Y-116713000D03*
X130251200Y-111429800D03*
X156350200Y-98437200D03*
X156274000Y-95517200D03*
X144475200Y-91135200D03*
X151815800Y-110972600D03*
X134188200Y-98526600D03*
G04 #@! TO.N,/RK*
X147023604Y-99633800D03*
G04 #@! TO.N,/RF*
X143052800Y-93903800D03*
G04 #@! TO.N,/RD*
X137556800Y-93903800D03*
G04 #@! TO.N,/SWDIO*
X133943800Y-97501000D03*
G04 #@! TO.N,/LED3*
X150394400Y-94081600D03*
X155702000Y-106248200D03*
G04 #@! TO.N,/LED2*
X151434800Y-93853000D03*
X157276800Y-104012996D03*
G04 #@! TD*
D14*
G04 #@! TO.N,+3V3*
G36*
X167313600Y-127923800D02*
X119733600Y-127923800D01*
X119733600Y-121910754D01*
X121388600Y-121910754D01*
X121388600Y-123356846D01*
X121941996Y-124692862D01*
X122964538Y-125715404D01*
X124300554Y-126268800D01*
X125746646Y-126268800D01*
X127082662Y-125715404D01*
X128105204Y-124692862D01*
X128209549Y-124440950D01*
X137630800Y-124440950D01*
X137630800Y-125131509D01*
X137727473Y-125364898D01*
X137906101Y-125543527D01*
X138139490Y-125640200D01*
X138830050Y-125640200D01*
X138988800Y-125481450D01*
X138988800Y-124282200D01*
X137789550Y-124282200D01*
X137630800Y-124440950D01*
X128209549Y-124440950D01*
X128658600Y-123356846D01*
X128658600Y-123178891D01*
X137630800Y-123178891D01*
X137630800Y-123869450D01*
X137789550Y-124028200D01*
X138988800Y-124028200D01*
X138988800Y-122828950D01*
X139242800Y-122828950D01*
X139242800Y-124028200D01*
X139262800Y-124028200D01*
X139262800Y-124282200D01*
X139242800Y-124282200D01*
X139242800Y-125481450D01*
X139401550Y-125640200D01*
X140092110Y-125640200D01*
X140325499Y-125543527D01*
X140504127Y-125364898D01*
X140570704Y-125204167D01*
X140585175Y-125225825D01*
X141076382Y-125554039D01*
X141509544Y-125640200D01*
X141802056Y-125640200D01*
X142235218Y-125554039D01*
X142726425Y-125225825D01*
X142925800Y-124927439D01*
X143125175Y-125225825D01*
X143616382Y-125554039D01*
X144049544Y-125640200D01*
X144342056Y-125640200D01*
X144775218Y-125554039D01*
X145266425Y-125225825D01*
X145465800Y-124927439D01*
X145665175Y-125225825D01*
X146156382Y-125554039D01*
X146589544Y-125640200D01*
X146882056Y-125640200D01*
X147315218Y-125554039D01*
X147806425Y-125225825D01*
X148005800Y-124927439D01*
X148205175Y-125225825D01*
X148696382Y-125554039D01*
X149129544Y-125640200D01*
X149422056Y-125640200D01*
X149855218Y-125554039D01*
X150346425Y-125225825D01*
X150674639Y-124734618D01*
X150789892Y-124155200D01*
X150674639Y-123575782D01*
X150346425Y-123084575D01*
X149855218Y-122756361D01*
X149422056Y-122670200D01*
X149129544Y-122670200D01*
X148696382Y-122756361D01*
X148205175Y-123084575D01*
X148005800Y-123382961D01*
X147806425Y-123084575D01*
X147315218Y-122756361D01*
X146882056Y-122670200D01*
X146589544Y-122670200D01*
X146156382Y-122756361D01*
X145665175Y-123084575D01*
X145465800Y-123382961D01*
X145266425Y-123084575D01*
X144775218Y-122756361D01*
X144342056Y-122670200D01*
X144049544Y-122670200D01*
X143616382Y-122756361D01*
X143125175Y-123084575D01*
X142925800Y-123382961D01*
X142726425Y-123084575D01*
X142235218Y-122756361D01*
X141802056Y-122670200D01*
X141509544Y-122670200D01*
X141076382Y-122756361D01*
X140585175Y-123084575D01*
X140570704Y-123106233D01*
X140504127Y-122945502D01*
X140325499Y-122766873D01*
X140092110Y-122670200D01*
X139401550Y-122670200D01*
X139242800Y-122828950D01*
X138988800Y-122828950D01*
X138830050Y-122670200D01*
X138139490Y-122670200D01*
X137906101Y-122766873D01*
X137727473Y-122945502D01*
X137630800Y-123178891D01*
X128658600Y-123178891D01*
X128658600Y-121910754D01*
X158388600Y-121910754D01*
X158388600Y-123356846D01*
X158941996Y-124692862D01*
X159964538Y-125715404D01*
X161300554Y-126268800D01*
X162746646Y-126268800D01*
X164082662Y-125715404D01*
X165105204Y-124692862D01*
X165658600Y-123356846D01*
X165658600Y-121910754D01*
X165105204Y-120574738D01*
X164082662Y-119552196D01*
X162746646Y-118998800D01*
X161300554Y-118998800D01*
X159964538Y-119552196D01*
X158941996Y-120574738D01*
X158388600Y-121910754D01*
X128658600Y-121910754D01*
X128105204Y-120574738D01*
X127082662Y-119552196D01*
X126253957Y-119208935D01*
X154132400Y-119208935D01*
X154132400Y-119551065D01*
X154263328Y-119867151D01*
X154505249Y-120109072D01*
X154821335Y-120240000D01*
X155163465Y-120240000D01*
X155479551Y-120109072D01*
X155721472Y-119867151D01*
X155852400Y-119551065D01*
X155852400Y-119208935D01*
X155721472Y-118892849D01*
X155479551Y-118650928D01*
X155163465Y-118520000D01*
X154821335Y-118520000D01*
X154505249Y-118650928D01*
X154263328Y-118892849D01*
X154132400Y-119208935D01*
X126253957Y-119208935D01*
X125746646Y-118998800D01*
X124300554Y-118998800D01*
X122964538Y-119552196D01*
X121941996Y-120574738D01*
X121388600Y-121910754D01*
X119733600Y-121910754D01*
X119733600Y-116465735D01*
X134928400Y-116465735D01*
X134928400Y-116807865D01*
X135059328Y-117123951D01*
X135301249Y-117365872D01*
X135617335Y-117496800D01*
X135959465Y-117496800D01*
X136275551Y-117365872D01*
X136517472Y-117123951D01*
X136648400Y-116807865D01*
X136648400Y-116516535D01*
X138078000Y-116516535D01*
X138078000Y-116858665D01*
X138208928Y-117174751D01*
X138450849Y-117416672D01*
X138766935Y-117547600D01*
X139109065Y-117547600D01*
X139425151Y-117416672D01*
X139667072Y-117174751D01*
X139798000Y-116858665D01*
X139798000Y-116541935D01*
X146434600Y-116541935D01*
X146434600Y-116884065D01*
X146565528Y-117200151D01*
X146807449Y-117442072D01*
X147123535Y-117573000D01*
X147465665Y-117573000D01*
X147781751Y-117442072D01*
X148023672Y-117200151D01*
X148154600Y-116884065D01*
X148154600Y-116541935D01*
X148023672Y-116225849D01*
X147781751Y-115983928D01*
X147465665Y-115853000D01*
X147123535Y-115853000D01*
X146807449Y-115983928D01*
X146565528Y-116225849D01*
X146434600Y-116541935D01*
X139798000Y-116541935D01*
X139798000Y-116516535D01*
X139667072Y-116200449D01*
X139620258Y-116153635D01*
X139882351Y-116045072D01*
X140124272Y-115803151D01*
X140255200Y-115487065D01*
X140255200Y-115144935D01*
X140234158Y-115094135D01*
X152860800Y-115094135D01*
X152860800Y-115436265D01*
X152991728Y-115752351D01*
X153233649Y-115994272D01*
X153549735Y-116125200D01*
X153891865Y-116125200D01*
X154207951Y-115994272D01*
X154449872Y-115752351D01*
X154580800Y-115436265D01*
X154580800Y-115094135D01*
X154449872Y-114778049D01*
X154207951Y-114536128D01*
X153891865Y-114405200D01*
X153549735Y-114405200D01*
X153233649Y-114536128D01*
X152991728Y-114778049D01*
X152860800Y-115094135D01*
X140234158Y-115094135D01*
X140124272Y-114828849D01*
X139882351Y-114586928D01*
X139566265Y-114456000D01*
X139224135Y-114456000D01*
X138908049Y-114586928D01*
X138666128Y-114828849D01*
X138535200Y-115144935D01*
X138535200Y-115487065D01*
X138666128Y-115803151D01*
X138712942Y-115849965D01*
X138450849Y-115958528D01*
X138208928Y-116200449D01*
X138078000Y-116516535D01*
X136648400Y-116516535D01*
X136648400Y-116465735D01*
X136517472Y-116149649D01*
X136275551Y-115907728D01*
X135959465Y-115776800D01*
X135617335Y-115776800D01*
X135301249Y-115907728D01*
X135059328Y-116149649D01*
X134928400Y-116465735D01*
X119733600Y-116465735D01*
X119733600Y-111258735D01*
X129391200Y-111258735D01*
X129391200Y-111600865D01*
X129522128Y-111916951D01*
X129764049Y-112158872D01*
X130080135Y-112289800D01*
X130422265Y-112289800D01*
X130519955Y-112249335D01*
X136706400Y-112249335D01*
X136706400Y-112591465D01*
X136837328Y-112907551D01*
X137079249Y-113149472D01*
X137395335Y-113280400D01*
X137737465Y-113280400D01*
X138053551Y-113149472D01*
X138295472Y-112907551D01*
X138426400Y-112591465D01*
X138426400Y-112486135D01*
X146696800Y-112486135D01*
X146696800Y-112828265D01*
X146827728Y-113144351D01*
X147069649Y-113386272D01*
X147385735Y-113517200D01*
X147727865Y-113517200D01*
X148043951Y-113386272D01*
X148285872Y-113144351D01*
X148316398Y-113070655D01*
X148343528Y-113136151D01*
X148585449Y-113378072D01*
X148901535Y-113509000D01*
X149243665Y-113509000D01*
X149559751Y-113378072D01*
X149801672Y-113136151D01*
X149874415Y-112960535D01*
X155477000Y-112960535D01*
X155477000Y-113302665D01*
X155607928Y-113618751D01*
X155849849Y-113860672D01*
X156112000Y-113969259D01*
X156112000Y-114242465D01*
X156242928Y-114558551D01*
X156484849Y-114800472D01*
X156800935Y-114931400D01*
X157143065Y-114931400D01*
X157459151Y-114800472D01*
X157701072Y-114558551D01*
X157832000Y-114242465D01*
X157832000Y-113900335D01*
X157701072Y-113584249D01*
X157459151Y-113342328D01*
X157197000Y-113233741D01*
X157197000Y-112960535D01*
X157066072Y-112644449D01*
X156824151Y-112402528D01*
X156508065Y-112271600D01*
X156165935Y-112271600D01*
X155849849Y-112402528D01*
X155607928Y-112644449D01*
X155477000Y-112960535D01*
X149874415Y-112960535D01*
X149932600Y-112820065D01*
X149932600Y-112477935D01*
X149801672Y-112161849D01*
X149559751Y-111919928D01*
X149243665Y-111789000D01*
X148901535Y-111789000D01*
X148585449Y-111919928D01*
X148343528Y-112161849D01*
X148313002Y-112235545D01*
X148285872Y-112170049D01*
X148043951Y-111928128D01*
X147727865Y-111797200D01*
X147385735Y-111797200D01*
X147069649Y-111928128D01*
X146827728Y-112170049D01*
X146696800Y-112486135D01*
X138426400Y-112486135D01*
X138426400Y-112249335D01*
X138295472Y-111933249D01*
X138053551Y-111691328D01*
X137737465Y-111560400D01*
X137395335Y-111560400D01*
X137079249Y-111691328D01*
X136837328Y-111933249D01*
X136706400Y-112249335D01*
X130519955Y-112249335D01*
X130738351Y-112158872D01*
X130980272Y-111916951D01*
X131111200Y-111600865D01*
X131111200Y-111258735D01*
X130980272Y-110942649D01*
X130839158Y-110801535D01*
X150955800Y-110801535D01*
X150955800Y-111143665D01*
X151086728Y-111459751D01*
X151328649Y-111701672D01*
X151644735Y-111832600D01*
X151986865Y-111832600D01*
X152302951Y-111701672D01*
X152544872Y-111459751D01*
X152675800Y-111143665D01*
X152675800Y-110801535D01*
X152544872Y-110485449D01*
X152486823Y-110427400D01*
X157989160Y-110427400D01*
X157989160Y-112127400D01*
X158038443Y-112375165D01*
X158178791Y-112585209D01*
X158388835Y-112725557D01*
X158636600Y-112774840D01*
X160336600Y-112774840D01*
X160584365Y-112725557D01*
X160794409Y-112585209D01*
X160934757Y-112375165D01*
X160984040Y-112127400D01*
X160984040Y-110427400D01*
X160934757Y-110179635D01*
X160794409Y-109969591D01*
X160584365Y-109829243D01*
X160336600Y-109779960D01*
X158636600Y-109779960D01*
X158388835Y-109829243D01*
X158178791Y-109969591D01*
X158038443Y-110179635D01*
X157989160Y-110427400D01*
X152486823Y-110427400D01*
X152302951Y-110243528D01*
X151986865Y-110112600D01*
X151644735Y-110112600D01*
X151328649Y-110243528D01*
X151086728Y-110485449D01*
X150955800Y-110801535D01*
X130839158Y-110801535D01*
X130738351Y-110700728D01*
X130422265Y-110569800D01*
X130080135Y-110569800D01*
X129764049Y-110700728D01*
X129522128Y-110942649D01*
X129391200Y-111258735D01*
X119733600Y-111258735D01*
X119733600Y-109302935D01*
X130381800Y-109302935D01*
X130381800Y-109645065D01*
X130512728Y-109961151D01*
X130754649Y-110203072D01*
X131070735Y-110334000D01*
X131412865Y-110334000D01*
X131728951Y-110203072D01*
X131970872Y-109961151D01*
X132101800Y-109645065D01*
X132101800Y-109302935D01*
X131970872Y-108986849D01*
X131794909Y-108810886D01*
X155689649Y-108810886D01*
X155689649Y-109153016D01*
X155820577Y-109469102D01*
X156062498Y-109711023D01*
X156378584Y-109841951D01*
X156720714Y-109841951D01*
X157036800Y-109711023D01*
X157278721Y-109469102D01*
X157409649Y-109153016D01*
X157409649Y-108810886D01*
X157297831Y-108540935D01*
X160049000Y-108540935D01*
X160049000Y-108883065D01*
X160179928Y-109199151D01*
X160421849Y-109441072D01*
X160737935Y-109572000D01*
X161080065Y-109572000D01*
X161396151Y-109441072D01*
X161638072Y-109199151D01*
X161769000Y-108883065D01*
X161769000Y-108540935D01*
X161638072Y-108224849D01*
X161396151Y-107982928D01*
X161080065Y-107852000D01*
X160737935Y-107852000D01*
X160421849Y-107982928D01*
X160179928Y-108224849D01*
X160049000Y-108540935D01*
X157297831Y-108540935D01*
X157278721Y-108494800D01*
X157036800Y-108252879D01*
X156720714Y-108121951D01*
X156378584Y-108121951D01*
X156062498Y-108252879D01*
X155820577Y-108494800D01*
X155689649Y-108810886D01*
X131794909Y-108810886D01*
X131728951Y-108744928D01*
X131412865Y-108614000D01*
X131070735Y-108614000D01*
X130754649Y-108744928D01*
X130512728Y-108986849D01*
X130381800Y-109302935D01*
X119733600Y-109302935D01*
X119733600Y-102688401D01*
X119734109Y-102688401D01*
X119849362Y-103267819D01*
X120177576Y-103759026D01*
X120475962Y-103958401D01*
X120177576Y-104157776D01*
X119849362Y-104648983D01*
X119734109Y-105228401D01*
X119849362Y-105807819D01*
X120177576Y-106299026D01*
X120475962Y-106498401D01*
X120177576Y-106697776D01*
X119849362Y-107188983D01*
X119734109Y-107768401D01*
X119849362Y-108347819D01*
X120177576Y-108839026D01*
X120668783Y-109167240D01*
X121101945Y-109253401D01*
X121394457Y-109253401D01*
X121827619Y-109167240D01*
X122318826Y-108839026D01*
X122647040Y-108347819D01*
X122762293Y-107768401D01*
X122647040Y-107188983D01*
X122318826Y-106697776D01*
X122020440Y-106498401D01*
X122318826Y-106299026D01*
X122467088Y-106077135D01*
X154842000Y-106077135D01*
X154842000Y-106419265D01*
X154972928Y-106735351D01*
X155214849Y-106977272D01*
X155530935Y-107108200D01*
X155873065Y-107108200D01*
X156189151Y-106977272D01*
X156431072Y-106735351D01*
X156562000Y-106419265D01*
X156562000Y-106077135D01*
X156431072Y-105761049D01*
X156189151Y-105519128D01*
X155873065Y-105388200D01*
X155530935Y-105388200D01*
X155214849Y-105519128D01*
X154972928Y-105761049D01*
X154842000Y-106077135D01*
X122467088Y-106077135D01*
X122647040Y-105807819D01*
X122758832Y-105245800D01*
X158166960Y-105245800D01*
X158166960Y-106945800D01*
X158216243Y-107193565D01*
X158356591Y-107403609D01*
X158566635Y-107543957D01*
X158814400Y-107593240D01*
X160514400Y-107593240D01*
X160762165Y-107543957D01*
X160972209Y-107403609D01*
X161112557Y-107193565D01*
X161161840Y-106945800D01*
X161161840Y-105245800D01*
X161112557Y-104998035D01*
X160972209Y-104787991D01*
X160762165Y-104647643D01*
X160514400Y-104598360D01*
X158814400Y-104598360D01*
X158566635Y-104647643D01*
X158356591Y-104787991D01*
X158216243Y-104998035D01*
X158166960Y-105245800D01*
X122758832Y-105245800D01*
X122762293Y-105228401D01*
X122647040Y-104648983D01*
X122318826Y-104157776D01*
X122020440Y-103958401D01*
X122042688Y-103943535D01*
X130407200Y-103943535D01*
X130407200Y-104285665D01*
X130538128Y-104601751D01*
X130780049Y-104843672D01*
X131096135Y-104974600D01*
X131438265Y-104974600D01*
X131754351Y-104843672D01*
X131996272Y-104601751D01*
X132127200Y-104285665D01*
X132127200Y-103943535D01*
X132085114Y-103841931D01*
X156416800Y-103841931D01*
X156416800Y-104184061D01*
X156547728Y-104500147D01*
X156789649Y-104742068D01*
X157105735Y-104872996D01*
X157447865Y-104872996D01*
X157763951Y-104742068D01*
X158005872Y-104500147D01*
X158136800Y-104184061D01*
X158136800Y-103841931D01*
X158005872Y-103525845D01*
X157890162Y-103410135D01*
X160531600Y-103410135D01*
X160531600Y-103752265D01*
X160662528Y-104068351D01*
X160904449Y-104310272D01*
X161220535Y-104441200D01*
X161562665Y-104441200D01*
X161878751Y-104310272D01*
X162120672Y-104068351D01*
X162251600Y-103752265D01*
X162251600Y-103410135D01*
X162120672Y-103094049D01*
X161878751Y-102852128D01*
X161562665Y-102721200D01*
X161220535Y-102721200D01*
X160904449Y-102852128D01*
X160662528Y-103094049D01*
X160531600Y-103410135D01*
X157890162Y-103410135D01*
X157763951Y-103283924D01*
X157447865Y-103152996D01*
X157105735Y-103152996D01*
X156789649Y-103283924D01*
X156547728Y-103525845D01*
X156416800Y-103841931D01*
X132085114Y-103841931D01*
X131996272Y-103627449D01*
X131754351Y-103385528D01*
X131438265Y-103254600D01*
X131096135Y-103254600D01*
X130780049Y-103385528D01*
X130538128Y-103627449D01*
X130407200Y-103943535D01*
X122042688Y-103943535D01*
X122318826Y-103759026D01*
X122647040Y-103267819D01*
X122762293Y-102688401D01*
X122647040Y-102108983D01*
X122318826Y-101617776D01*
X122297168Y-101603305D01*
X122457899Y-101536728D01*
X122636528Y-101358100D01*
X122733201Y-101124711D01*
X122733201Y-101073335D01*
X130407200Y-101073335D01*
X130407200Y-101415465D01*
X130538128Y-101731551D01*
X130780049Y-101973472D01*
X131096135Y-102104400D01*
X131438265Y-102104400D01*
X131754351Y-101973472D01*
X131996272Y-101731551D01*
X132127200Y-101415465D01*
X132127200Y-101073335D01*
X131996272Y-100757249D01*
X131754351Y-100515328D01*
X131438265Y-100384400D01*
X131096135Y-100384400D01*
X130780049Y-100515328D01*
X130538128Y-100757249D01*
X130407200Y-101073335D01*
X122733201Y-101073335D01*
X122733201Y-100434151D01*
X122574451Y-100275401D01*
X121375201Y-100275401D01*
X121375201Y-100295401D01*
X121121201Y-100295401D01*
X121121201Y-100275401D01*
X119921951Y-100275401D01*
X119763201Y-100434151D01*
X119763201Y-101124711D01*
X119859874Y-101358100D01*
X120038503Y-101536728D01*
X120199234Y-101603305D01*
X120177576Y-101617776D01*
X119849362Y-102108983D01*
X119734109Y-102688401D01*
X119733600Y-102688401D01*
X119733600Y-99172091D01*
X119763201Y-99172091D01*
X119763201Y-99862651D01*
X119921951Y-100021401D01*
X121121201Y-100021401D01*
X121121201Y-98822151D01*
X121375201Y-98822151D01*
X121375201Y-100021401D01*
X122574451Y-100021401D01*
X122733201Y-99862651D01*
X122733201Y-99462735D01*
X146163604Y-99462735D01*
X146163604Y-99804865D01*
X146294532Y-100120951D01*
X146536453Y-100362872D01*
X146852539Y-100493800D01*
X147194669Y-100493800D01*
X147510755Y-100362872D01*
X147752676Y-100120951D01*
X147883604Y-99804865D01*
X147883604Y-99462735D01*
X147877391Y-99447735D01*
X155400806Y-99447735D01*
X155400806Y-99789865D01*
X155531734Y-100105951D01*
X155773655Y-100347872D01*
X156089741Y-100478800D01*
X156431871Y-100478800D01*
X156747957Y-100347872D01*
X156853829Y-100242000D01*
X158141560Y-100242000D01*
X158141560Y-101942000D01*
X158190843Y-102189765D01*
X158331191Y-102399809D01*
X158541235Y-102540157D01*
X158789000Y-102589440D01*
X160489000Y-102589440D01*
X160736765Y-102540157D01*
X160946809Y-102399809D01*
X161087157Y-102189765D01*
X161136440Y-101942000D01*
X161136440Y-100242000D01*
X161087157Y-99994235D01*
X160946809Y-99784191D01*
X160736765Y-99643843D01*
X160489000Y-99594560D01*
X158789000Y-99594560D01*
X158541235Y-99643843D01*
X158331191Y-99784191D01*
X158190843Y-99994235D01*
X158141560Y-100242000D01*
X156853829Y-100242000D01*
X156989878Y-100105951D01*
X157120806Y-99789865D01*
X157120806Y-99447735D01*
X156989878Y-99131649D01*
X156930926Y-99072697D01*
X157079272Y-98924351D01*
X157210200Y-98608265D01*
X157210200Y-98380935D01*
X160049000Y-98380935D01*
X160049000Y-98723065D01*
X160179928Y-99039151D01*
X160421849Y-99281072D01*
X160737935Y-99412000D01*
X161080065Y-99412000D01*
X161396151Y-99281072D01*
X161638072Y-99039151D01*
X161769000Y-98723065D01*
X161769000Y-98380935D01*
X161638072Y-98064849D01*
X161396151Y-97822928D01*
X161080065Y-97692000D01*
X160737935Y-97692000D01*
X160421849Y-97822928D01*
X160179928Y-98064849D01*
X160049000Y-98380935D01*
X157210200Y-98380935D01*
X157210200Y-98266135D01*
X157079272Y-97950049D01*
X156837351Y-97708128D01*
X156521265Y-97577200D01*
X156179135Y-97577200D01*
X155863049Y-97708128D01*
X155621128Y-97950049D01*
X155490200Y-98266135D01*
X155490200Y-98608265D01*
X155621128Y-98924351D01*
X155680080Y-98983303D01*
X155531734Y-99131649D01*
X155400806Y-99447735D01*
X147877391Y-99447735D01*
X147752676Y-99146649D01*
X147510755Y-98904728D01*
X147194669Y-98773800D01*
X146852539Y-98773800D01*
X146536453Y-98904728D01*
X146294532Y-99146649D01*
X146163604Y-99462735D01*
X122733201Y-99462735D01*
X122733201Y-99172091D01*
X122636528Y-98938702D01*
X122457899Y-98760074D01*
X122224510Y-98663401D01*
X121533951Y-98663401D01*
X121375201Y-98822151D01*
X121121201Y-98822151D01*
X120962451Y-98663401D01*
X120271892Y-98663401D01*
X120038503Y-98760074D01*
X119859874Y-98938702D01*
X119763201Y-99172091D01*
X119733600Y-99172091D01*
X119733600Y-97329935D01*
X133083800Y-97329935D01*
X133083800Y-97672065D01*
X133214728Y-97988151D01*
X133402569Y-98175992D01*
X133328200Y-98355535D01*
X133328200Y-98697665D01*
X133459128Y-99013751D01*
X133701049Y-99255672D01*
X134017135Y-99386600D01*
X134359265Y-99386600D01*
X134675351Y-99255672D01*
X134917272Y-99013751D01*
X135048200Y-98697665D01*
X135048200Y-98355535D01*
X134917272Y-98039449D01*
X134729431Y-97851608D01*
X134803800Y-97672065D01*
X134803800Y-97329935D01*
X134672872Y-97013849D01*
X134430951Y-96771928D01*
X134114865Y-96641000D01*
X133772735Y-96641000D01*
X133456649Y-96771928D01*
X133214728Y-97013849D01*
X133083800Y-97329935D01*
X119733600Y-97329935D01*
X119733600Y-95028135D01*
X130407200Y-95028135D01*
X130407200Y-95370265D01*
X130538128Y-95686351D01*
X130780049Y-95928272D01*
X131096135Y-96059200D01*
X131438265Y-96059200D01*
X131754351Y-95928272D01*
X131996272Y-95686351D01*
X132127200Y-95370265D01*
X132127200Y-95346135D01*
X155414000Y-95346135D01*
X155414000Y-95688265D01*
X155544928Y-96004351D01*
X155723546Y-96182969D01*
X155654800Y-96348935D01*
X155654800Y-96691065D01*
X155785728Y-97007151D01*
X156027649Y-97249072D01*
X156343735Y-97380000D01*
X156685865Y-97380000D01*
X157001951Y-97249072D01*
X157243872Y-97007151D01*
X157374800Y-96691065D01*
X157374800Y-96348935D01*
X157364120Y-96323150D01*
X158077800Y-96323150D01*
X158077800Y-97013710D01*
X158174473Y-97247099D01*
X158353102Y-97425727D01*
X158586491Y-97522400D01*
X159277050Y-97522400D01*
X159435800Y-97363650D01*
X159435800Y-96164400D01*
X159689800Y-96164400D01*
X159689800Y-97363650D01*
X159848550Y-97522400D01*
X160539109Y-97522400D01*
X160772498Y-97425727D01*
X160951127Y-97247099D01*
X161047800Y-97013710D01*
X161047800Y-96323150D01*
X160889050Y-96164400D01*
X159689800Y-96164400D01*
X159435800Y-96164400D01*
X158236550Y-96164400D01*
X158077800Y-96323150D01*
X157364120Y-96323150D01*
X157243872Y-96032849D01*
X157065254Y-95854231D01*
X157134000Y-95688265D01*
X157134000Y-95346135D01*
X157046216Y-95134207D01*
X157066072Y-95114351D01*
X157088133Y-95061090D01*
X158077800Y-95061090D01*
X158077800Y-95751650D01*
X158236550Y-95910400D01*
X159435800Y-95910400D01*
X159435800Y-94711150D01*
X159689800Y-94711150D01*
X159689800Y-95910400D01*
X160889050Y-95910400D01*
X161047800Y-95751650D01*
X161047800Y-95061090D01*
X160951127Y-94827701D01*
X160772498Y-94649073D01*
X160539109Y-94552400D01*
X159848550Y-94552400D01*
X159689800Y-94711150D01*
X159435800Y-94711150D01*
X159277050Y-94552400D01*
X158586491Y-94552400D01*
X158353102Y-94649073D01*
X158174473Y-94827701D01*
X158077800Y-95061090D01*
X157088133Y-95061090D01*
X157197000Y-94798265D01*
X157197000Y-94456135D01*
X157066072Y-94140049D01*
X156824151Y-93898128D01*
X156508065Y-93767200D01*
X156165935Y-93767200D01*
X155849849Y-93898128D01*
X155607928Y-94140049D01*
X155477000Y-94456135D01*
X155477000Y-94798265D01*
X155564784Y-95010193D01*
X155544928Y-95030049D01*
X155414000Y-95346135D01*
X132127200Y-95346135D01*
X132127200Y-95028135D01*
X131996272Y-94712049D01*
X131754351Y-94470128D01*
X131438265Y-94339200D01*
X131096135Y-94339200D01*
X130780049Y-94470128D01*
X130538128Y-94712049D01*
X130407200Y-95028135D01*
X119733600Y-95028135D01*
X119733600Y-93732735D01*
X136696800Y-93732735D01*
X136696800Y-94074865D01*
X136827728Y-94390951D01*
X137069649Y-94632872D01*
X137385735Y-94763800D01*
X137727865Y-94763800D01*
X138043951Y-94632872D01*
X138285872Y-94390951D01*
X138416800Y-94074865D01*
X138416800Y-93732735D01*
X142192800Y-93732735D01*
X142192800Y-94074865D01*
X142323728Y-94390951D01*
X142565649Y-94632872D01*
X142881735Y-94763800D01*
X143223865Y-94763800D01*
X143539951Y-94632872D01*
X143781872Y-94390951D01*
X143912800Y-94074865D01*
X143912800Y-93910535D01*
X149534400Y-93910535D01*
X149534400Y-94252665D01*
X149665328Y-94568751D01*
X149907249Y-94810672D01*
X150223335Y-94941600D01*
X150565465Y-94941600D01*
X150881551Y-94810672D01*
X151062555Y-94629668D01*
X151263735Y-94713000D01*
X151605865Y-94713000D01*
X151921951Y-94582072D01*
X152163872Y-94340151D01*
X152294800Y-94024065D01*
X152294800Y-93681935D01*
X152163872Y-93365849D01*
X151921951Y-93123928D01*
X151605865Y-92993000D01*
X151263735Y-92993000D01*
X150947649Y-93123928D01*
X150766645Y-93304932D01*
X150565465Y-93221600D01*
X150223335Y-93221600D01*
X149907249Y-93352528D01*
X149665328Y-93594449D01*
X149534400Y-93910535D01*
X143912800Y-93910535D01*
X143912800Y-93732735D01*
X143781872Y-93416649D01*
X143539951Y-93174728D01*
X143223865Y-93043800D01*
X142881735Y-93043800D01*
X142565649Y-93174728D01*
X142323728Y-93416649D01*
X142192800Y-93732735D01*
X138416800Y-93732735D01*
X138285872Y-93416649D01*
X138043951Y-93174728D01*
X137727865Y-93043800D01*
X137385735Y-93043800D01*
X137069649Y-93174728D01*
X136827728Y-93416649D01*
X136696800Y-93732735D01*
X119733600Y-93732735D01*
X119733600Y-90989535D01*
X136046000Y-90989535D01*
X136046000Y-91331665D01*
X136176928Y-91647751D01*
X136418849Y-91889672D01*
X136734935Y-92020600D01*
X137077065Y-92020600D01*
X137393151Y-91889672D01*
X137635072Y-91647751D01*
X137766000Y-91331665D01*
X137766000Y-90989535D01*
X139195600Y-90989535D01*
X139195600Y-91331665D01*
X139326528Y-91647751D01*
X139568449Y-91889672D01*
X139884535Y-92020600D01*
X140226665Y-92020600D01*
X140542751Y-91889672D01*
X140784672Y-91647751D01*
X140915600Y-91331665D01*
X140915600Y-90989535D01*
X140784672Y-90673449D01*
X140542751Y-90431528D01*
X140226665Y-90300600D01*
X139884535Y-90300600D01*
X139568449Y-90431528D01*
X139326528Y-90673449D01*
X139195600Y-90989535D01*
X137766000Y-90989535D01*
X137635072Y-90673449D01*
X137393151Y-90431528D01*
X137077065Y-90300600D01*
X136734935Y-90300600D01*
X136418849Y-90431528D01*
X136176928Y-90673449D01*
X136046000Y-90989535D01*
X119733600Y-90989535D01*
X119733600Y-89490935D01*
X133382040Y-89490935D01*
X133382040Y-89833065D01*
X133512968Y-90149151D01*
X133754889Y-90391072D01*
X134070975Y-90522000D01*
X134413105Y-90522000D01*
X134729191Y-90391072D01*
X134971112Y-90149151D01*
X135102040Y-89833065D01*
X135102040Y-89490935D01*
X134971112Y-89174849D01*
X134729191Y-88932928D01*
X134413105Y-88802000D01*
X134070975Y-88802000D01*
X133754889Y-88932928D01*
X133512968Y-89174849D01*
X133382040Y-89490935D01*
X119733600Y-89490935D01*
X119733600Y-87907760D01*
X135116460Y-87907760D01*
X135116460Y-89607760D01*
X135165743Y-89855525D01*
X135306091Y-90065569D01*
X135516135Y-90205917D01*
X135763900Y-90255200D01*
X137463900Y-90255200D01*
X137711665Y-90205917D01*
X137921709Y-90065569D01*
X138062057Y-89855525D01*
X138111340Y-89607760D01*
X138111340Y-87907760D01*
X138108814Y-87895060D01*
X138918840Y-87895060D01*
X138918840Y-89595060D01*
X138968123Y-89842825D01*
X139108471Y-90052869D01*
X139318515Y-90193217D01*
X139566280Y-90242500D01*
X141266280Y-90242500D01*
X141514045Y-90193217D01*
X141724089Y-90052869D01*
X141864437Y-89842825D01*
X141913720Y-89595060D01*
X141913720Y-89440135D01*
X142802400Y-89440135D01*
X142802400Y-89782265D01*
X142933328Y-90098351D01*
X143175249Y-90340272D01*
X143491335Y-90471200D01*
X143833465Y-90471200D01*
X143986272Y-90407905D01*
X143746128Y-90648049D01*
X143615200Y-90964135D01*
X143615200Y-91306265D01*
X143746128Y-91622351D01*
X143988049Y-91864272D01*
X144304135Y-91995200D01*
X144646265Y-91995200D01*
X144962351Y-91864272D01*
X145204272Y-91622351D01*
X145335200Y-91306265D01*
X145335200Y-90964135D01*
X146587000Y-90964135D01*
X146587000Y-91306265D01*
X146717928Y-91622351D01*
X146959849Y-91864272D01*
X147275935Y-91995200D01*
X147618065Y-91995200D01*
X147934151Y-91864272D01*
X148176072Y-91622351D01*
X148307000Y-91306265D01*
X148307000Y-90964135D01*
X148176072Y-90648049D01*
X147934151Y-90406128D01*
X147618065Y-90275200D01*
X147275935Y-90275200D01*
X146959849Y-90406128D01*
X146717928Y-90648049D01*
X146587000Y-90964135D01*
X145335200Y-90964135D01*
X145204272Y-90648049D01*
X144962351Y-90406128D01*
X144646265Y-90275200D01*
X144304135Y-90275200D01*
X144151328Y-90338495D01*
X144391472Y-90098351D01*
X144496268Y-89845353D01*
X144512943Y-89929185D01*
X144653291Y-90139229D01*
X144863335Y-90279577D01*
X145111100Y-90328860D01*
X146811100Y-90328860D01*
X147058865Y-90279577D01*
X147268909Y-90139229D01*
X147409257Y-89929185D01*
X147458540Y-89681420D01*
X147458540Y-89437595D01*
X148367540Y-89437595D01*
X148367540Y-89779725D01*
X148498468Y-90095811D01*
X148740389Y-90337732D01*
X149056475Y-90468660D01*
X149398605Y-90468660D01*
X149714691Y-90337732D01*
X149956612Y-90095811D01*
X150065485Y-89832970D01*
X150073003Y-89870765D01*
X150213351Y-90080809D01*
X150423395Y-90221157D01*
X150671160Y-90270440D01*
X152371160Y-90270440D01*
X152618925Y-90221157D01*
X152828969Y-90080809D01*
X152969317Y-89870765D01*
X153018600Y-89623000D01*
X153018600Y-89414735D01*
X153902200Y-89414735D01*
X153902200Y-89756865D01*
X154033128Y-90072951D01*
X154275049Y-90314872D01*
X154591135Y-90445800D01*
X154933265Y-90445800D01*
X155249351Y-90314872D01*
X155491272Y-90072951D01*
X155550650Y-89929600D01*
X158090760Y-89929600D01*
X158090760Y-91629600D01*
X158140043Y-91877365D01*
X158280391Y-92087409D01*
X158490435Y-92227757D01*
X158738200Y-92277040D01*
X160438200Y-92277040D01*
X160685965Y-92227757D01*
X160896009Y-92087409D01*
X161036357Y-91877365D01*
X161085640Y-91629600D01*
X161085640Y-89929600D01*
X161036357Y-89681835D01*
X160896009Y-89471791D01*
X160685965Y-89331443D01*
X160438200Y-89282160D01*
X158738200Y-89282160D01*
X158490435Y-89331443D01*
X158280391Y-89471791D01*
X158140043Y-89681835D01*
X158090760Y-89929600D01*
X155550650Y-89929600D01*
X155622200Y-89756865D01*
X155622200Y-89414735D01*
X155491272Y-89098649D01*
X155249351Y-88856728D01*
X154933265Y-88725800D01*
X154591135Y-88725800D01*
X154275049Y-88856728D01*
X154033128Y-89098649D01*
X153902200Y-89414735D01*
X153018600Y-89414735D01*
X153018600Y-87923000D01*
X152969317Y-87675235D01*
X152828969Y-87465191D01*
X152618925Y-87324843D01*
X152371160Y-87275560D01*
X150671160Y-87275560D01*
X150423395Y-87324843D01*
X150213351Y-87465191D01*
X150073003Y-87675235D01*
X150023720Y-87923000D01*
X150023720Y-89283521D01*
X149956612Y-89121509D01*
X149714691Y-88879588D01*
X149398605Y-88748660D01*
X149056475Y-88748660D01*
X148740389Y-88879588D01*
X148498468Y-89121509D01*
X148367540Y-89437595D01*
X147458540Y-89437595D01*
X147458540Y-87981420D01*
X147409257Y-87733655D01*
X147268909Y-87523611D01*
X147058865Y-87383263D01*
X146811100Y-87333980D01*
X145111100Y-87333980D01*
X144863335Y-87383263D01*
X144653291Y-87523611D01*
X144512943Y-87733655D01*
X144463660Y-87981420D01*
X144463660Y-89298325D01*
X144391472Y-89124049D01*
X144149551Y-88882128D01*
X143833465Y-88751200D01*
X143491335Y-88751200D01*
X143175249Y-88882128D01*
X142933328Y-89124049D01*
X142802400Y-89440135D01*
X141913720Y-89440135D01*
X141913720Y-87895060D01*
X141864437Y-87647295D01*
X141724089Y-87437251D01*
X141514045Y-87296903D01*
X141266280Y-87247620D01*
X139566280Y-87247620D01*
X139318515Y-87296903D01*
X139108471Y-87437251D01*
X138968123Y-87647295D01*
X138918840Y-87895060D01*
X138108814Y-87895060D01*
X138062057Y-87659995D01*
X137921709Y-87449951D01*
X137711665Y-87309603D01*
X137463900Y-87260320D01*
X135763900Y-87260320D01*
X135516135Y-87309603D01*
X135306091Y-87449951D01*
X135165743Y-87659995D01*
X135116460Y-87907760D01*
X119733600Y-87907760D01*
X119733600Y-85538935D01*
X137189000Y-85538935D01*
X137189000Y-85881065D01*
X137319928Y-86197151D01*
X137561849Y-86439072D01*
X137877935Y-86570000D01*
X138220065Y-86570000D01*
X138536151Y-86439072D01*
X138778072Y-86197151D01*
X138909000Y-85881065D01*
X138909000Y-85538935D01*
X138778072Y-85222849D01*
X138536151Y-84980928D01*
X138220065Y-84850000D01*
X137877935Y-84850000D01*
X137561849Y-84980928D01*
X137319928Y-85222849D01*
X137189000Y-85538935D01*
X119733600Y-85538935D01*
X119733600Y-74910754D01*
X121388600Y-74910754D01*
X121388600Y-76356846D01*
X121941996Y-77692862D01*
X122964538Y-78715404D01*
X124300554Y-79268800D01*
X125746646Y-79268800D01*
X127082662Y-78715404D01*
X128105204Y-77692862D01*
X128562962Y-76587735D01*
X141430800Y-76587735D01*
X141430800Y-76929865D01*
X141561728Y-77245951D01*
X141803649Y-77487872D01*
X142119735Y-77618800D01*
X142461865Y-77618800D01*
X142777951Y-77487872D01*
X143019872Y-77245951D01*
X143124178Y-76994135D01*
X143501800Y-76994135D01*
X143501800Y-77336265D01*
X143632728Y-77652351D01*
X143874649Y-77894272D01*
X144190735Y-78025200D01*
X144532865Y-78025200D01*
X144848951Y-77894272D01*
X145090872Y-77652351D01*
X145221800Y-77336265D01*
X145221800Y-76994135D01*
X145090872Y-76678049D01*
X144848951Y-76436128D01*
X144666938Y-76360735D01*
X145317000Y-76360735D01*
X145317000Y-76702865D01*
X145447928Y-77018951D01*
X145689849Y-77260872D01*
X146005935Y-77391800D01*
X146348065Y-77391800D01*
X146664151Y-77260872D01*
X146906072Y-77018951D01*
X147037000Y-76702865D01*
X147037000Y-76360735D01*
X146906072Y-76044649D01*
X146664151Y-75802728D01*
X146348065Y-75671800D01*
X146005935Y-75671800D01*
X145689849Y-75802728D01*
X145447928Y-76044649D01*
X145317000Y-76360735D01*
X144666938Y-76360735D01*
X144532865Y-76305200D01*
X144190735Y-76305200D01*
X143874649Y-76436128D01*
X143632728Y-76678049D01*
X143501800Y-76994135D01*
X143124178Y-76994135D01*
X143150800Y-76929865D01*
X143150800Y-76587735D01*
X143019872Y-76271649D01*
X142777951Y-76029728D01*
X142461865Y-75898800D01*
X142119735Y-75898800D01*
X141803649Y-76029728D01*
X141561728Y-76271649D01*
X141430800Y-76587735D01*
X128562962Y-76587735D01*
X128658600Y-76356846D01*
X128658600Y-74910754D01*
X128105204Y-73574738D01*
X127848466Y-73318000D01*
X138202560Y-73318000D01*
X138202560Y-75018000D01*
X138251843Y-75265765D01*
X138392191Y-75475809D01*
X138602235Y-75616157D01*
X138850000Y-75665440D01*
X140550000Y-75665440D01*
X140797765Y-75616157D01*
X141007809Y-75475809D01*
X141148157Y-75265765D01*
X141197440Y-75018000D01*
X141197440Y-74910754D01*
X158388600Y-74910754D01*
X158388600Y-76356846D01*
X158941996Y-77692862D01*
X159964538Y-78715404D01*
X161300554Y-79268800D01*
X162746646Y-79268800D01*
X164082662Y-78715404D01*
X165105204Y-77692862D01*
X165658600Y-76356846D01*
X165658600Y-74910754D01*
X165105204Y-73574738D01*
X164082662Y-72552196D01*
X162746646Y-71998800D01*
X161300554Y-71998800D01*
X159964538Y-72552196D01*
X158941996Y-73574738D01*
X158388600Y-74910754D01*
X141197440Y-74910754D01*
X141197440Y-73318000D01*
X141148157Y-73070235D01*
X141147890Y-73069835D01*
X141849900Y-73069835D01*
X141849900Y-73411965D01*
X141980828Y-73728051D01*
X142222749Y-73969972D01*
X142538835Y-74100900D01*
X142880965Y-74100900D01*
X143197051Y-73969972D01*
X143366437Y-73800586D01*
X143447043Y-73881192D01*
X143763129Y-74012120D01*
X144105259Y-74012120D01*
X144421345Y-73881192D01*
X144598457Y-73704080D01*
X144775449Y-73881072D01*
X145091535Y-74012000D01*
X145433665Y-74012000D01*
X145749751Y-73881072D01*
X145991672Y-73639151D01*
X146122600Y-73323065D01*
X146122600Y-72980935D01*
X145991672Y-72664849D01*
X145749751Y-72422928D01*
X145433665Y-72292000D01*
X145412654Y-72292000D01*
X145356672Y-72156849D01*
X145114751Y-71914928D01*
X144798665Y-71784000D01*
X144456535Y-71784000D01*
X144140449Y-71914928D01*
X143898528Y-72156849D01*
X143842497Y-72292120D01*
X143763129Y-72292120D01*
X143447043Y-72423048D01*
X143277657Y-72592434D01*
X143197051Y-72511828D01*
X142880965Y-72380900D01*
X142538835Y-72380900D01*
X142222749Y-72511828D01*
X141980828Y-72753749D01*
X141849900Y-73069835D01*
X141147890Y-73069835D01*
X141007809Y-72860191D01*
X140797765Y-72719843D01*
X140550000Y-72670560D01*
X138850000Y-72670560D01*
X138602235Y-72719843D01*
X138392191Y-72860191D01*
X138251843Y-73070235D01*
X138202560Y-73318000D01*
X127848466Y-73318000D01*
X127082662Y-72552196D01*
X125746646Y-71998800D01*
X124300554Y-71998800D01*
X122964538Y-72552196D01*
X121941996Y-73574738D01*
X121388600Y-74910754D01*
X119733600Y-74910754D01*
X119733600Y-70343800D01*
X167313601Y-70343800D01*
X167313600Y-127923800D01*
X167313600Y-127923800D01*
G37*
X167313600Y-127923800D02*
X119733600Y-127923800D01*
X119733600Y-121910754D01*
X121388600Y-121910754D01*
X121388600Y-123356846D01*
X121941996Y-124692862D01*
X122964538Y-125715404D01*
X124300554Y-126268800D01*
X125746646Y-126268800D01*
X127082662Y-125715404D01*
X128105204Y-124692862D01*
X128209549Y-124440950D01*
X137630800Y-124440950D01*
X137630800Y-125131509D01*
X137727473Y-125364898D01*
X137906101Y-125543527D01*
X138139490Y-125640200D01*
X138830050Y-125640200D01*
X138988800Y-125481450D01*
X138988800Y-124282200D01*
X137789550Y-124282200D01*
X137630800Y-124440950D01*
X128209549Y-124440950D01*
X128658600Y-123356846D01*
X128658600Y-123178891D01*
X137630800Y-123178891D01*
X137630800Y-123869450D01*
X137789550Y-124028200D01*
X138988800Y-124028200D01*
X138988800Y-122828950D01*
X139242800Y-122828950D01*
X139242800Y-124028200D01*
X139262800Y-124028200D01*
X139262800Y-124282200D01*
X139242800Y-124282200D01*
X139242800Y-125481450D01*
X139401550Y-125640200D01*
X140092110Y-125640200D01*
X140325499Y-125543527D01*
X140504127Y-125364898D01*
X140570704Y-125204167D01*
X140585175Y-125225825D01*
X141076382Y-125554039D01*
X141509544Y-125640200D01*
X141802056Y-125640200D01*
X142235218Y-125554039D01*
X142726425Y-125225825D01*
X142925800Y-124927439D01*
X143125175Y-125225825D01*
X143616382Y-125554039D01*
X144049544Y-125640200D01*
X144342056Y-125640200D01*
X144775218Y-125554039D01*
X145266425Y-125225825D01*
X145465800Y-124927439D01*
X145665175Y-125225825D01*
X146156382Y-125554039D01*
X146589544Y-125640200D01*
X146882056Y-125640200D01*
X147315218Y-125554039D01*
X147806425Y-125225825D01*
X148005800Y-124927439D01*
X148205175Y-125225825D01*
X148696382Y-125554039D01*
X149129544Y-125640200D01*
X149422056Y-125640200D01*
X149855218Y-125554039D01*
X150346425Y-125225825D01*
X150674639Y-124734618D01*
X150789892Y-124155200D01*
X150674639Y-123575782D01*
X150346425Y-123084575D01*
X149855218Y-122756361D01*
X149422056Y-122670200D01*
X149129544Y-122670200D01*
X148696382Y-122756361D01*
X148205175Y-123084575D01*
X148005800Y-123382961D01*
X147806425Y-123084575D01*
X147315218Y-122756361D01*
X146882056Y-122670200D01*
X146589544Y-122670200D01*
X146156382Y-122756361D01*
X145665175Y-123084575D01*
X145465800Y-123382961D01*
X145266425Y-123084575D01*
X144775218Y-122756361D01*
X144342056Y-122670200D01*
X144049544Y-122670200D01*
X143616382Y-122756361D01*
X143125175Y-123084575D01*
X142925800Y-123382961D01*
X142726425Y-123084575D01*
X142235218Y-122756361D01*
X141802056Y-122670200D01*
X141509544Y-122670200D01*
X141076382Y-122756361D01*
X140585175Y-123084575D01*
X140570704Y-123106233D01*
X140504127Y-122945502D01*
X140325499Y-122766873D01*
X140092110Y-122670200D01*
X139401550Y-122670200D01*
X139242800Y-122828950D01*
X138988800Y-122828950D01*
X138830050Y-122670200D01*
X138139490Y-122670200D01*
X137906101Y-122766873D01*
X137727473Y-122945502D01*
X137630800Y-123178891D01*
X128658600Y-123178891D01*
X128658600Y-121910754D01*
X158388600Y-121910754D01*
X158388600Y-123356846D01*
X158941996Y-124692862D01*
X159964538Y-125715404D01*
X161300554Y-126268800D01*
X162746646Y-126268800D01*
X164082662Y-125715404D01*
X165105204Y-124692862D01*
X165658600Y-123356846D01*
X165658600Y-121910754D01*
X165105204Y-120574738D01*
X164082662Y-119552196D01*
X162746646Y-118998800D01*
X161300554Y-118998800D01*
X159964538Y-119552196D01*
X158941996Y-120574738D01*
X158388600Y-121910754D01*
X128658600Y-121910754D01*
X128105204Y-120574738D01*
X127082662Y-119552196D01*
X126253957Y-119208935D01*
X154132400Y-119208935D01*
X154132400Y-119551065D01*
X154263328Y-119867151D01*
X154505249Y-120109072D01*
X154821335Y-120240000D01*
X155163465Y-120240000D01*
X155479551Y-120109072D01*
X155721472Y-119867151D01*
X155852400Y-119551065D01*
X155852400Y-119208935D01*
X155721472Y-118892849D01*
X155479551Y-118650928D01*
X155163465Y-118520000D01*
X154821335Y-118520000D01*
X154505249Y-118650928D01*
X154263328Y-118892849D01*
X154132400Y-119208935D01*
X126253957Y-119208935D01*
X125746646Y-118998800D01*
X124300554Y-118998800D01*
X122964538Y-119552196D01*
X121941996Y-120574738D01*
X121388600Y-121910754D01*
X119733600Y-121910754D01*
X119733600Y-116465735D01*
X134928400Y-116465735D01*
X134928400Y-116807865D01*
X135059328Y-117123951D01*
X135301249Y-117365872D01*
X135617335Y-117496800D01*
X135959465Y-117496800D01*
X136275551Y-117365872D01*
X136517472Y-117123951D01*
X136648400Y-116807865D01*
X136648400Y-116516535D01*
X138078000Y-116516535D01*
X138078000Y-116858665D01*
X138208928Y-117174751D01*
X138450849Y-117416672D01*
X138766935Y-117547600D01*
X139109065Y-117547600D01*
X139425151Y-117416672D01*
X139667072Y-117174751D01*
X139798000Y-116858665D01*
X139798000Y-116541935D01*
X146434600Y-116541935D01*
X146434600Y-116884065D01*
X146565528Y-117200151D01*
X146807449Y-117442072D01*
X147123535Y-117573000D01*
X147465665Y-117573000D01*
X147781751Y-117442072D01*
X148023672Y-117200151D01*
X148154600Y-116884065D01*
X148154600Y-116541935D01*
X148023672Y-116225849D01*
X147781751Y-115983928D01*
X147465665Y-115853000D01*
X147123535Y-115853000D01*
X146807449Y-115983928D01*
X146565528Y-116225849D01*
X146434600Y-116541935D01*
X139798000Y-116541935D01*
X139798000Y-116516535D01*
X139667072Y-116200449D01*
X139620258Y-116153635D01*
X139882351Y-116045072D01*
X140124272Y-115803151D01*
X140255200Y-115487065D01*
X140255200Y-115144935D01*
X140234158Y-115094135D01*
X152860800Y-115094135D01*
X152860800Y-115436265D01*
X152991728Y-115752351D01*
X153233649Y-115994272D01*
X153549735Y-116125200D01*
X153891865Y-116125200D01*
X154207951Y-115994272D01*
X154449872Y-115752351D01*
X154580800Y-115436265D01*
X154580800Y-115094135D01*
X154449872Y-114778049D01*
X154207951Y-114536128D01*
X153891865Y-114405200D01*
X153549735Y-114405200D01*
X153233649Y-114536128D01*
X152991728Y-114778049D01*
X152860800Y-115094135D01*
X140234158Y-115094135D01*
X140124272Y-114828849D01*
X139882351Y-114586928D01*
X139566265Y-114456000D01*
X139224135Y-114456000D01*
X138908049Y-114586928D01*
X138666128Y-114828849D01*
X138535200Y-115144935D01*
X138535200Y-115487065D01*
X138666128Y-115803151D01*
X138712942Y-115849965D01*
X138450849Y-115958528D01*
X138208928Y-116200449D01*
X138078000Y-116516535D01*
X136648400Y-116516535D01*
X136648400Y-116465735D01*
X136517472Y-116149649D01*
X136275551Y-115907728D01*
X135959465Y-115776800D01*
X135617335Y-115776800D01*
X135301249Y-115907728D01*
X135059328Y-116149649D01*
X134928400Y-116465735D01*
X119733600Y-116465735D01*
X119733600Y-111258735D01*
X129391200Y-111258735D01*
X129391200Y-111600865D01*
X129522128Y-111916951D01*
X129764049Y-112158872D01*
X130080135Y-112289800D01*
X130422265Y-112289800D01*
X130519955Y-112249335D01*
X136706400Y-112249335D01*
X136706400Y-112591465D01*
X136837328Y-112907551D01*
X137079249Y-113149472D01*
X137395335Y-113280400D01*
X137737465Y-113280400D01*
X138053551Y-113149472D01*
X138295472Y-112907551D01*
X138426400Y-112591465D01*
X138426400Y-112486135D01*
X146696800Y-112486135D01*
X146696800Y-112828265D01*
X146827728Y-113144351D01*
X147069649Y-113386272D01*
X147385735Y-113517200D01*
X147727865Y-113517200D01*
X148043951Y-113386272D01*
X148285872Y-113144351D01*
X148316398Y-113070655D01*
X148343528Y-113136151D01*
X148585449Y-113378072D01*
X148901535Y-113509000D01*
X149243665Y-113509000D01*
X149559751Y-113378072D01*
X149801672Y-113136151D01*
X149874415Y-112960535D01*
X155477000Y-112960535D01*
X155477000Y-113302665D01*
X155607928Y-113618751D01*
X155849849Y-113860672D01*
X156112000Y-113969259D01*
X156112000Y-114242465D01*
X156242928Y-114558551D01*
X156484849Y-114800472D01*
X156800935Y-114931400D01*
X157143065Y-114931400D01*
X157459151Y-114800472D01*
X157701072Y-114558551D01*
X157832000Y-114242465D01*
X157832000Y-113900335D01*
X157701072Y-113584249D01*
X157459151Y-113342328D01*
X157197000Y-113233741D01*
X157197000Y-112960535D01*
X157066072Y-112644449D01*
X156824151Y-112402528D01*
X156508065Y-112271600D01*
X156165935Y-112271600D01*
X155849849Y-112402528D01*
X155607928Y-112644449D01*
X155477000Y-112960535D01*
X149874415Y-112960535D01*
X149932600Y-112820065D01*
X149932600Y-112477935D01*
X149801672Y-112161849D01*
X149559751Y-111919928D01*
X149243665Y-111789000D01*
X148901535Y-111789000D01*
X148585449Y-111919928D01*
X148343528Y-112161849D01*
X148313002Y-112235545D01*
X148285872Y-112170049D01*
X148043951Y-111928128D01*
X147727865Y-111797200D01*
X147385735Y-111797200D01*
X147069649Y-111928128D01*
X146827728Y-112170049D01*
X146696800Y-112486135D01*
X138426400Y-112486135D01*
X138426400Y-112249335D01*
X138295472Y-111933249D01*
X138053551Y-111691328D01*
X137737465Y-111560400D01*
X137395335Y-111560400D01*
X137079249Y-111691328D01*
X136837328Y-111933249D01*
X136706400Y-112249335D01*
X130519955Y-112249335D01*
X130738351Y-112158872D01*
X130980272Y-111916951D01*
X131111200Y-111600865D01*
X131111200Y-111258735D01*
X130980272Y-110942649D01*
X130839158Y-110801535D01*
X150955800Y-110801535D01*
X150955800Y-111143665D01*
X151086728Y-111459751D01*
X151328649Y-111701672D01*
X151644735Y-111832600D01*
X151986865Y-111832600D01*
X152302951Y-111701672D01*
X152544872Y-111459751D01*
X152675800Y-111143665D01*
X152675800Y-110801535D01*
X152544872Y-110485449D01*
X152486823Y-110427400D01*
X157989160Y-110427400D01*
X157989160Y-112127400D01*
X158038443Y-112375165D01*
X158178791Y-112585209D01*
X158388835Y-112725557D01*
X158636600Y-112774840D01*
X160336600Y-112774840D01*
X160584365Y-112725557D01*
X160794409Y-112585209D01*
X160934757Y-112375165D01*
X160984040Y-112127400D01*
X160984040Y-110427400D01*
X160934757Y-110179635D01*
X160794409Y-109969591D01*
X160584365Y-109829243D01*
X160336600Y-109779960D01*
X158636600Y-109779960D01*
X158388835Y-109829243D01*
X158178791Y-109969591D01*
X158038443Y-110179635D01*
X157989160Y-110427400D01*
X152486823Y-110427400D01*
X152302951Y-110243528D01*
X151986865Y-110112600D01*
X151644735Y-110112600D01*
X151328649Y-110243528D01*
X151086728Y-110485449D01*
X150955800Y-110801535D01*
X130839158Y-110801535D01*
X130738351Y-110700728D01*
X130422265Y-110569800D01*
X130080135Y-110569800D01*
X129764049Y-110700728D01*
X129522128Y-110942649D01*
X129391200Y-111258735D01*
X119733600Y-111258735D01*
X119733600Y-109302935D01*
X130381800Y-109302935D01*
X130381800Y-109645065D01*
X130512728Y-109961151D01*
X130754649Y-110203072D01*
X131070735Y-110334000D01*
X131412865Y-110334000D01*
X131728951Y-110203072D01*
X131970872Y-109961151D01*
X132101800Y-109645065D01*
X132101800Y-109302935D01*
X131970872Y-108986849D01*
X131794909Y-108810886D01*
X155689649Y-108810886D01*
X155689649Y-109153016D01*
X155820577Y-109469102D01*
X156062498Y-109711023D01*
X156378584Y-109841951D01*
X156720714Y-109841951D01*
X157036800Y-109711023D01*
X157278721Y-109469102D01*
X157409649Y-109153016D01*
X157409649Y-108810886D01*
X157297831Y-108540935D01*
X160049000Y-108540935D01*
X160049000Y-108883065D01*
X160179928Y-109199151D01*
X160421849Y-109441072D01*
X160737935Y-109572000D01*
X161080065Y-109572000D01*
X161396151Y-109441072D01*
X161638072Y-109199151D01*
X161769000Y-108883065D01*
X161769000Y-108540935D01*
X161638072Y-108224849D01*
X161396151Y-107982928D01*
X161080065Y-107852000D01*
X160737935Y-107852000D01*
X160421849Y-107982928D01*
X160179928Y-108224849D01*
X160049000Y-108540935D01*
X157297831Y-108540935D01*
X157278721Y-108494800D01*
X157036800Y-108252879D01*
X156720714Y-108121951D01*
X156378584Y-108121951D01*
X156062498Y-108252879D01*
X155820577Y-108494800D01*
X155689649Y-108810886D01*
X131794909Y-108810886D01*
X131728951Y-108744928D01*
X131412865Y-108614000D01*
X131070735Y-108614000D01*
X130754649Y-108744928D01*
X130512728Y-108986849D01*
X130381800Y-109302935D01*
X119733600Y-109302935D01*
X119733600Y-102688401D01*
X119734109Y-102688401D01*
X119849362Y-103267819D01*
X120177576Y-103759026D01*
X120475962Y-103958401D01*
X120177576Y-104157776D01*
X119849362Y-104648983D01*
X119734109Y-105228401D01*
X119849362Y-105807819D01*
X120177576Y-106299026D01*
X120475962Y-106498401D01*
X120177576Y-106697776D01*
X119849362Y-107188983D01*
X119734109Y-107768401D01*
X119849362Y-108347819D01*
X120177576Y-108839026D01*
X120668783Y-109167240D01*
X121101945Y-109253401D01*
X121394457Y-109253401D01*
X121827619Y-109167240D01*
X122318826Y-108839026D01*
X122647040Y-108347819D01*
X122762293Y-107768401D01*
X122647040Y-107188983D01*
X122318826Y-106697776D01*
X122020440Y-106498401D01*
X122318826Y-106299026D01*
X122467088Y-106077135D01*
X154842000Y-106077135D01*
X154842000Y-106419265D01*
X154972928Y-106735351D01*
X155214849Y-106977272D01*
X155530935Y-107108200D01*
X155873065Y-107108200D01*
X156189151Y-106977272D01*
X156431072Y-106735351D01*
X156562000Y-106419265D01*
X156562000Y-106077135D01*
X156431072Y-105761049D01*
X156189151Y-105519128D01*
X155873065Y-105388200D01*
X155530935Y-105388200D01*
X155214849Y-105519128D01*
X154972928Y-105761049D01*
X154842000Y-106077135D01*
X122467088Y-106077135D01*
X122647040Y-105807819D01*
X122758832Y-105245800D01*
X158166960Y-105245800D01*
X158166960Y-106945800D01*
X158216243Y-107193565D01*
X158356591Y-107403609D01*
X158566635Y-107543957D01*
X158814400Y-107593240D01*
X160514400Y-107593240D01*
X160762165Y-107543957D01*
X160972209Y-107403609D01*
X161112557Y-107193565D01*
X161161840Y-106945800D01*
X161161840Y-105245800D01*
X161112557Y-104998035D01*
X160972209Y-104787991D01*
X160762165Y-104647643D01*
X160514400Y-104598360D01*
X158814400Y-104598360D01*
X158566635Y-104647643D01*
X158356591Y-104787991D01*
X158216243Y-104998035D01*
X158166960Y-105245800D01*
X122758832Y-105245800D01*
X122762293Y-105228401D01*
X122647040Y-104648983D01*
X122318826Y-104157776D01*
X122020440Y-103958401D01*
X122042688Y-103943535D01*
X130407200Y-103943535D01*
X130407200Y-104285665D01*
X130538128Y-104601751D01*
X130780049Y-104843672D01*
X131096135Y-104974600D01*
X131438265Y-104974600D01*
X131754351Y-104843672D01*
X131996272Y-104601751D01*
X132127200Y-104285665D01*
X132127200Y-103943535D01*
X132085114Y-103841931D01*
X156416800Y-103841931D01*
X156416800Y-104184061D01*
X156547728Y-104500147D01*
X156789649Y-104742068D01*
X157105735Y-104872996D01*
X157447865Y-104872996D01*
X157763951Y-104742068D01*
X158005872Y-104500147D01*
X158136800Y-104184061D01*
X158136800Y-103841931D01*
X158005872Y-103525845D01*
X157890162Y-103410135D01*
X160531600Y-103410135D01*
X160531600Y-103752265D01*
X160662528Y-104068351D01*
X160904449Y-104310272D01*
X161220535Y-104441200D01*
X161562665Y-104441200D01*
X161878751Y-104310272D01*
X162120672Y-104068351D01*
X162251600Y-103752265D01*
X162251600Y-103410135D01*
X162120672Y-103094049D01*
X161878751Y-102852128D01*
X161562665Y-102721200D01*
X161220535Y-102721200D01*
X160904449Y-102852128D01*
X160662528Y-103094049D01*
X160531600Y-103410135D01*
X157890162Y-103410135D01*
X157763951Y-103283924D01*
X157447865Y-103152996D01*
X157105735Y-103152996D01*
X156789649Y-103283924D01*
X156547728Y-103525845D01*
X156416800Y-103841931D01*
X132085114Y-103841931D01*
X131996272Y-103627449D01*
X131754351Y-103385528D01*
X131438265Y-103254600D01*
X131096135Y-103254600D01*
X130780049Y-103385528D01*
X130538128Y-103627449D01*
X130407200Y-103943535D01*
X122042688Y-103943535D01*
X122318826Y-103759026D01*
X122647040Y-103267819D01*
X122762293Y-102688401D01*
X122647040Y-102108983D01*
X122318826Y-101617776D01*
X122297168Y-101603305D01*
X122457899Y-101536728D01*
X122636528Y-101358100D01*
X122733201Y-101124711D01*
X122733201Y-101073335D01*
X130407200Y-101073335D01*
X130407200Y-101415465D01*
X130538128Y-101731551D01*
X130780049Y-101973472D01*
X131096135Y-102104400D01*
X131438265Y-102104400D01*
X131754351Y-101973472D01*
X131996272Y-101731551D01*
X132127200Y-101415465D01*
X132127200Y-101073335D01*
X131996272Y-100757249D01*
X131754351Y-100515328D01*
X131438265Y-100384400D01*
X131096135Y-100384400D01*
X130780049Y-100515328D01*
X130538128Y-100757249D01*
X130407200Y-101073335D01*
X122733201Y-101073335D01*
X122733201Y-100434151D01*
X122574451Y-100275401D01*
X121375201Y-100275401D01*
X121375201Y-100295401D01*
X121121201Y-100295401D01*
X121121201Y-100275401D01*
X119921951Y-100275401D01*
X119763201Y-100434151D01*
X119763201Y-101124711D01*
X119859874Y-101358100D01*
X120038503Y-101536728D01*
X120199234Y-101603305D01*
X120177576Y-101617776D01*
X119849362Y-102108983D01*
X119734109Y-102688401D01*
X119733600Y-102688401D01*
X119733600Y-99172091D01*
X119763201Y-99172091D01*
X119763201Y-99862651D01*
X119921951Y-100021401D01*
X121121201Y-100021401D01*
X121121201Y-98822151D01*
X121375201Y-98822151D01*
X121375201Y-100021401D01*
X122574451Y-100021401D01*
X122733201Y-99862651D01*
X122733201Y-99462735D01*
X146163604Y-99462735D01*
X146163604Y-99804865D01*
X146294532Y-100120951D01*
X146536453Y-100362872D01*
X146852539Y-100493800D01*
X147194669Y-100493800D01*
X147510755Y-100362872D01*
X147752676Y-100120951D01*
X147883604Y-99804865D01*
X147883604Y-99462735D01*
X147877391Y-99447735D01*
X155400806Y-99447735D01*
X155400806Y-99789865D01*
X155531734Y-100105951D01*
X155773655Y-100347872D01*
X156089741Y-100478800D01*
X156431871Y-100478800D01*
X156747957Y-100347872D01*
X156853829Y-100242000D01*
X158141560Y-100242000D01*
X158141560Y-101942000D01*
X158190843Y-102189765D01*
X158331191Y-102399809D01*
X158541235Y-102540157D01*
X158789000Y-102589440D01*
X160489000Y-102589440D01*
X160736765Y-102540157D01*
X160946809Y-102399809D01*
X161087157Y-102189765D01*
X161136440Y-101942000D01*
X161136440Y-100242000D01*
X161087157Y-99994235D01*
X160946809Y-99784191D01*
X160736765Y-99643843D01*
X160489000Y-99594560D01*
X158789000Y-99594560D01*
X158541235Y-99643843D01*
X158331191Y-99784191D01*
X158190843Y-99994235D01*
X158141560Y-100242000D01*
X156853829Y-100242000D01*
X156989878Y-100105951D01*
X157120806Y-99789865D01*
X157120806Y-99447735D01*
X156989878Y-99131649D01*
X156930926Y-99072697D01*
X157079272Y-98924351D01*
X157210200Y-98608265D01*
X157210200Y-98380935D01*
X160049000Y-98380935D01*
X160049000Y-98723065D01*
X160179928Y-99039151D01*
X160421849Y-99281072D01*
X160737935Y-99412000D01*
X161080065Y-99412000D01*
X161396151Y-99281072D01*
X161638072Y-99039151D01*
X161769000Y-98723065D01*
X161769000Y-98380935D01*
X161638072Y-98064849D01*
X161396151Y-97822928D01*
X161080065Y-97692000D01*
X160737935Y-97692000D01*
X160421849Y-97822928D01*
X160179928Y-98064849D01*
X160049000Y-98380935D01*
X157210200Y-98380935D01*
X157210200Y-98266135D01*
X157079272Y-97950049D01*
X156837351Y-97708128D01*
X156521265Y-97577200D01*
X156179135Y-97577200D01*
X155863049Y-97708128D01*
X155621128Y-97950049D01*
X155490200Y-98266135D01*
X155490200Y-98608265D01*
X155621128Y-98924351D01*
X155680080Y-98983303D01*
X155531734Y-99131649D01*
X155400806Y-99447735D01*
X147877391Y-99447735D01*
X147752676Y-99146649D01*
X147510755Y-98904728D01*
X147194669Y-98773800D01*
X146852539Y-98773800D01*
X146536453Y-98904728D01*
X146294532Y-99146649D01*
X146163604Y-99462735D01*
X122733201Y-99462735D01*
X122733201Y-99172091D01*
X122636528Y-98938702D01*
X122457899Y-98760074D01*
X122224510Y-98663401D01*
X121533951Y-98663401D01*
X121375201Y-98822151D01*
X121121201Y-98822151D01*
X120962451Y-98663401D01*
X120271892Y-98663401D01*
X120038503Y-98760074D01*
X119859874Y-98938702D01*
X119763201Y-99172091D01*
X119733600Y-99172091D01*
X119733600Y-97329935D01*
X133083800Y-97329935D01*
X133083800Y-97672065D01*
X133214728Y-97988151D01*
X133402569Y-98175992D01*
X133328200Y-98355535D01*
X133328200Y-98697665D01*
X133459128Y-99013751D01*
X133701049Y-99255672D01*
X134017135Y-99386600D01*
X134359265Y-99386600D01*
X134675351Y-99255672D01*
X134917272Y-99013751D01*
X135048200Y-98697665D01*
X135048200Y-98355535D01*
X134917272Y-98039449D01*
X134729431Y-97851608D01*
X134803800Y-97672065D01*
X134803800Y-97329935D01*
X134672872Y-97013849D01*
X134430951Y-96771928D01*
X134114865Y-96641000D01*
X133772735Y-96641000D01*
X133456649Y-96771928D01*
X133214728Y-97013849D01*
X133083800Y-97329935D01*
X119733600Y-97329935D01*
X119733600Y-95028135D01*
X130407200Y-95028135D01*
X130407200Y-95370265D01*
X130538128Y-95686351D01*
X130780049Y-95928272D01*
X131096135Y-96059200D01*
X131438265Y-96059200D01*
X131754351Y-95928272D01*
X131996272Y-95686351D01*
X132127200Y-95370265D01*
X132127200Y-95346135D01*
X155414000Y-95346135D01*
X155414000Y-95688265D01*
X155544928Y-96004351D01*
X155723546Y-96182969D01*
X155654800Y-96348935D01*
X155654800Y-96691065D01*
X155785728Y-97007151D01*
X156027649Y-97249072D01*
X156343735Y-97380000D01*
X156685865Y-97380000D01*
X157001951Y-97249072D01*
X157243872Y-97007151D01*
X157374800Y-96691065D01*
X157374800Y-96348935D01*
X157364120Y-96323150D01*
X158077800Y-96323150D01*
X158077800Y-97013710D01*
X158174473Y-97247099D01*
X158353102Y-97425727D01*
X158586491Y-97522400D01*
X159277050Y-97522400D01*
X159435800Y-97363650D01*
X159435800Y-96164400D01*
X159689800Y-96164400D01*
X159689800Y-97363650D01*
X159848550Y-97522400D01*
X160539109Y-97522400D01*
X160772498Y-97425727D01*
X160951127Y-97247099D01*
X161047800Y-97013710D01*
X161047800Y-96323150D01*
X160889050Y-96164400D01*
X159689800Y-96164400D01*
X159435800Y-96164400D01*
X158236550Y-96164400D01*
X158077800Y-96323150D01*
X157364120Y-96323150D01*
X157243872Y-96032849D01*
X157065254Y-95854231D01*
X157134000Y-95688265D01*
X157134000Y-95346135D01*
X157046216Y-95134207D01*
X157066072Y-95114351D01*
X157088133Y-95061090D01*
X158077800Y-95061090D01*
X158077800Y-95751650D01*
X158236550Y-95910400D01*
X159435800Y-95910400D01*
X159435800Y-94711150D01*
X159689800Y-94711150D01*
X159689800Y-95910400D01*
X160889050Y-95910400D01*
X161047800Y-95751650D01*
X161047800Y-95061090D01*
X160951127Y-94827701D01*
X160772498Y-94649073D01*
X160539109Y-94552400D01*
X159848550Y-94552400D01*
X159689800Y-94711150D01*
X159435800Y-94711150D01*
X159277050Y-94552400D01*
X158586491Y-94552400D01*
X158353102Y-94649073D01*
X158174473Y-94827701D01*
X158077800Y-95061090D01*
X157088133Y-95061090D01*
X157197000Y-94798265D01*
X157197000Y-94456135D01*
X157066072Y-94140049D01*
X156824151Y-93898128D01*
X156508065Y-93767200D01*
X156165935Y-93767200D01*
X155849849Y-93898128D01*
X155607928Y-94140049D01*
X155477000Y-94456135D01*
X155477000Y-94798265D01*
X155564784Y-95010193D01*
X155544928Y-95030049D01*
X155414000Y-95346135D01*
X132127200Y-95346135D01*
X132127200Y-95028135D01*
X131996272Y-94712049D01*
X131754351Y-94470128D01*
X131438265Y-94339200D01*
X131096135Y-94339200D01*
X130780049Y-94470128D01*
X130538128Y-94712049D01*
X130407200Y-95028135D01*
X119733600Y-95028135D01*
X119733600Y-93732735D01*
X136696800Y-93732735D01*
X136696800Y-94074865D01*
X136827728Y-94390951D01*
X137069649Y-94632872D01*
X137385735Y-94763800D01*
X137727865Y-94763800D01*
X138043951Y-94632872D01*
X138285872Y-94390951D01*
X138416800Y-94074865D01*
X138416800Y-93732735D01*
X142192800Y-93732735D01*
X142192800Y-94074865D01*
X142323728Y-94390951D01*
X142565649Y-94632872D01*
X142881735Y-94763800D01*
X143223865Y-94763800D01*
X143539951Y-94632872D01*
X143781872Y-94390951D01*
X143912800Y-94074865D01*
X143912800Y-93910535D01*
X149534400Y-93910535D01*
X149534400Y-94252665D01*
X149665328Y-94568751D01*
X149907249Y-94810672D01*
X150223335Y-94941600D01*
X150565465Y-94941600D01*
X150881551Y-94810672D01*
X151062555Y-94629668D01*
X151263735Y-94713000D01*
X151605865Y-94713000D01*
X151921951Y-94582072D01*
X152163872Y-94340151D01*
X152294800Y-94024065D01*
X152294800Y-93681935D01*
X152163872Y-93365849D01*
X151921951Y-93123928D01*
X151605865Y-92993000D01*
X151263735Y-92993000D01*
X150947649Y-93123928D01*
X150766645Y-93304932D01*
X150565465Y-93221600D01*
X150223335Y-93221600D01*
X149907249Y-93352528D01*
X149665328Y-93594449D01*
X149534400Y-93910535D01*
X143912800Y-93910535D01*
X143912800Y-93732735D01*
X143781872Y-93416649D01*
X143539951Y-93174728D01*
X143223865Y-93043800D01*
X142881735Y-93043800D01*
X142565649Y-93174728D01*
X142323728Y-93416649D01*
X142192800Y-93732735D01*
X138416800Y-93732735D01*
X138285872Y-93416649D01*
X138043951Y-93174728D01*
X137727865Y-93043800D01*
X137385735Y-93043800D01*
X137069649Y-93174728D01*
X136827728Y-93416649D01*
X136696800Y-93732735D01*
X119733600Y-93732735D01*
X119733600Y-90989535D01*
X136046000Y-90989535D01*
X136046000Y-91331665D01*
X136176928Y-91647751D01*
X136418849Y-91889672D01*
X136734935Y-92020600D01*
X137077065Y-92020600D01*
X137393151Y-91889672D01*
X137635072Y-91647751D01*
X137766000Y-91331665D01*
X137766000Y-90989535D01*
X139195600Y-90989535D01*
X139195600Y-91331665D01*
X139326528Y-91647751D01*
X139568449Y-91889672D01*
X139884535Y-92020600D01*
X140226665Y-92020600D01*
X140542751Y-91889672D01*
X140784672Y-91647751D01*
X140915600Y-91331665D01*
X140915600Y-90989535D01*
X140784672Y-90673449D01*
X140542751Y-90431528D01*
X140226665Y-90300600D01*
X139884535Y-90300600D01*
X139568449Y-90431528D01*
X139326528Y-90673449D01*
X139195600Y-90989535D01*
X137766000Y-90989535D01*
X137635072Y-90673449D01*
X137393151Y-90431528D01*
X137077065Y-90300600D01*
X136734935Y-90300600D01*
X136418849Y-90431528D01*
X136176928Y-90673449D01*
X136046000Y-90989535D01*
X119733600Y-90989535D01*
X119733600Y-89490935D01*
X133382040Y-89490935D01*
X133382040Y-89833065D01*
X133512968Y-90149151D01*
X133754889Y-90391072D01*
X134070975Y-90522000D01*
X134413105Y-90522000D01*
X134729191Y-90391072D01*
X134971112Y-90149151D01*
X135102040Y-89833065D01*
X135102040Y-89490935D01*
X134971112Y-89174849D01*
X134729191Y-88932928D01*
X134413105Y-88802000D01*
X134070975Y-88802000D01*
X133754889Y-88932928D01*
X133512968Y-89174849D01*
X133382040Y-89490935D01*
X119733600Y-89490935D01*
X119733600Y-87907760D01*
X135116460Y-87907760D01*
X135116460Y-89607760D01*
X135165743Y-89855525D01*
X135306091Y-90065569D01*
X135516135Y-90205917D01*
X135763900Y-90255200D01*
X137463900Y-90255200D01*
X137711665Y-90205917D01*
X137921709Y-90065569D01*
X138062057Y-89855525D01*
X138111340Y-89607760D01*
X138111340Y-87907760D01*
X138108814Y-87895060D01*
X138918840Y-87895060D01*
X138918840Y-89595060D01*
X138968123Y-89842825D01*
X139108471Y-90052869D01*
X139318515Y-90193217D01*
X139566280Y-90242500D01*
X141266280Y-90242500D01*
X141514045Y-90193217D01*
X141724089Y-90052869D01*
X141864437Y-89842825D01*
X141913720Y-89595060D01*
X141913720Y-89440135D01*
X142802400Y-89440135D01*
X142802400Y-89782265D01*
X142933328Y-90098351D01*
X143175249Y-90340272D01*
X143491335Y-90471200D01*
X143833465Y-90471200D01*
X143986272Y-90407905D01*
X143746128Y-90648049D01*
X143615200Y-90964135D01*
X143615200Y-91306265D01*
X143746128Y-91622351D01*
X143988049Y-91864272D01*
X144304135Y-91995200D01*
X144646265Y-91995200D01*
X144962351Y-91864272D01*
X145204272Y-91622351D01*
X145335200Y-91306265D01*
X145335200Y-90964135D01*
X146587000Y-90964135D01*
X146587000Y-91306265D01*
X146717928Y-91622351D01*
X146959849Y-91864272D01*
X147275935Y-91995200D01*
X147618065Y-91995200D01*
X147934151Y-91864272D01*
X148176072Y-91622351D01*
X148307000Y-91306265D01*
X148307000Y-90964135D01*
X148176072Y-90648049D01*
X147934151Y-90406128D01*
X147618065Y-90275200D01*
X147275935Y-90275200D01*
X146959849Y-90406128D01*
X146717928Y-90648049D01*
X146587000Y-90964135D01*
X145335200Y-90964135D01*
X145204272Y-90648049D01*
X144962351Y-90406128D01*
X144646265Y-90275200D01*
X144304135Y-90275200D01*
X144151328Y-90338495D01*
X144391472Y-90098351D01*
X144496268Y-89845353D01*
X144512943Y-89929185D01*
X144653291Y-90139229D01*
X144863335Y-90279577D01*
X145111100Y-90328860D01*
X146811100Y-90328860D01*
X147058865Y-90279577D01*
X147268909Y-90139229D01*
X147409257Y-89929185D01*
X147458540Y-89681420D01*
X147458540Y-89437595D01*
X148367540Y-89437595D01*
X148367540Y-89779725D01*
X148498468Y-90095811D01*
X148740389Y-90337732D01*
X149056475Y-90468660D01*
X149398605Y-90468660D01*
X149714691Y-90337732D01*
X149956612Y-90095811D01*
X150065485Y-89832970D01*
X150073003Y-89870765D01*
X150213351Y-90080809D01*
X150423395Y-90221157D01*
X150671160Y-90270440D01*
X152371160Y-90270440D01*
X152618925Y-90221157D01*
X152828969Y-90080809D01*
X152969317Y-89870765D01*
X153018600Y-89623000D01*
X153018600Y-89414735D01*
X153902200Y-89414735D01*
X153902200Y-89756865D01*
X154033128Y-90072951D01*
X154275049Y-90314872D01*
X154591135Y-90445800D01*
X154933265Y-90445800D01*
X155249351Y-90314872D01*
X155491272Y-90072951D01*
X155550650Y-89929600D01*
X158090760Y-89929600D01*
X158090760Y-91629600D01*
X158140043Y-91877365D01*
X158280391Y-92087409D01*
X158490435Y-92227757D01*
X158738200Y-92277040D01*
X160438200Y-92277040D01*
X160685965Y-92227757D01*
X160896009Y-92087409D01*
X161036357Y-91877365D01*
X161085640Y-91629600D01*
X161085640Y-89929600D01*
X161036357Y-89681835D01*
X160896009Y-89471791D01*
X160685965Y-89331443D01*
X160438200Y-89282160D01*
X158738200Y-89282160D01*
X158490435Y-89331443D01*
X158280391Y-89471791D01*
X158140043Y-89681835D01*
X158090760Y-89929600D01*
X155550650Y-89929600D01*
X155622200Y-89756865D01*
X155622200Y-89414735D01*
X155491272Y-89098649D01*
X155249351Y-88856728D01*
X154933265Y-88725800D01*
X154591135Y-88725800D01*
X154275049Y-88856728D01*
X154033128Y-89098649D01*
X153902200Y-89414735D01*
X153018600Y-89414735D01*
X153018600Y-87923000D01*
X152969317Y-87675235D01*
X152828969Y-87465191D01*
X152618925Y-87324843D01*
X152371160Y-87275560D01*
X150671160Y-87275560D01*
X150423395Y-87324843D01*
X150213351Y-87465191D01*
X150073003Y-87675235D01*
X150023720Y-87923000D01*
X150023720Y-89283521D01*
X149956612Y-89121509D01*
X149714691Y-88879588D01*
X149398605Y-88748660D01*
X149056475Y-88748660D01*
X148740389Y-88879588D01*
X148498468Y-89121509D01*
X148367540Y-89437595D01*
X147458540Y-89437595D01*
X147458540Y-87981420D01*
X147409257Y-87733655D01*
X147268909Y-87523611D01*
X147058865Y-87383263D01*
X146811100Y-87333980D01*
X145111100Y-87333980D01*
X144863335Y-87383263D01*
X144653291Y-87523611D01*
X144512943Y-87733655D01*
X144463660Y-87981420D01*
X144463660Y-89298325D01*
X144391472Y-89124049D01*
X144149551Y-88882128D01*
X143833465Y-88751200D01*
X143491335Y-88751200D01*
X143175249Y-88882128D01*
X142933328Y-89124049D01*
X142802400Y-89440135D01*
X141913720Y-89440135D01*
X141913720Y-87895060D01*
X141864437Y-87647295D01*
X141724089Y-87437251D01*
X141514045Y-87296903D01*
X141266280Y-87247620D01*
X139566280Y-87247620D01*
X139318515Y-87296903D01*
X139108471Y-87437251D01*
X138968123Y-87647295D01*
X138918840Y-87895060D01*
X138108814Y-87895060D01*
X138062057Y-87659995D01*
X137921709Y-87449951D01*
X137711665Y-87309603D01*
X137463900Y-87260320D01*
X135763900Y-87260320D01*
X135516135Y-87309603D01*
X135306091Y-87449951D01*
X135165743Y-87659995D01*
X135116460Y-87907760D01*
X119733600Y-87907760D01*
X119733600Y-85538935D01*
X137189000Y-85538935D01*
X137189000Y-85881065D01*
X137319928Y-86197151D01*
X137561849Y-86439072D01*
X137877935Y-86570000D01*
X138220065Y-86570000D01*
X138536151Y-86439072D01*
X138778072Y-86197151D01*
X138909000Y-85881065D01*
X138909000Y-85538935D01*
X138778072Y-85222849D01*
X138536151Y-84980928D01*
X138220065Y-84850000D01*
X137877935Y-84850000D01*
X137561849Y-84980928D01*
X137319928Y-85222849D01*
X137189000Y-85538935D01*
X119733600Y-85538935D01*
X119733600Y-74910754D01*
X121388600Y-74910754D01*
X121388600Y-76356846D01*
X121941996Y-77692862D01*
X122964538Y-78715404D01*
X124300554Y-79268800D01*
X125746646Y-79268800D01*
X127082662Y-78715404D01*
X128105204Y-77692862D01*
X128562962Y-76587735D01*
X141430800Y-76587735D01*
X141430800Y-76929865D01*
X141561728Y-77245951D01*
X141803649Y-77487872D01*
X142119735Y-77618800D01*
X142461865Y-77618800D01*
X142777951Y-77487872D01*
X143019872Y-77245951D01*
X143124178Y-76994135D01*
X143501800Y-76994135D01*
X143501800Y-77336265D01*
X143632728Y-77652351D01*
X143874649Y-77894272D01*
X144190735Y-78025200D01*
X144532865Y-78025200D01*
X144848951Y-77894272D01*
X145090872Y-77652351D01*
X145221800Y-77336265D01*
X145221800Y-76994135D01*
X145090872Y-76678049D01*
X144848951Y-76436128D01*
X144666938Y-76360735D01*
X145317000Y-76360735D01*
X145317000Y-76702865D01*
X145447928Y-77018951D01*
X145689849Y-77260872D01*
X146005935Y-77391800D01*
X146348065Y-77391800D01*
X146664151Y-77260872D01*
X146906072Y-77018951D01*
X147037000Y-76702865D01*
X147037000Y-76360735D01*
X146906072Y-76044649D01*
X146664151Y-75802728D01*
X146348065Y-75671800D01*
X146005935Y-75671800D01*
X145689849Y-75802728D01*
X145447928Y-76044649D01*
X145317000Y-76360735D01*
X144666938Y-76360735D01*
X144532865Y-76305200D01*
X144190735Y-76305200D01*
X143874649Y-76436128D01*
X143632728Y-76678049D01*
X143501800Y-76994135D01*
X143124178Y-76994135D01*
X143150800Y-76929865D01*
X143150800Y-76587735D01*
X143019872Y-76271649D01*
X142777951Y-76029728D01*
X142461865Y-75898800D01*
X142119735Y-75898800D01*
X141803649Y-76029728D01*
X141561728Y-76271649D01*
X141430800Y-76587735D01*
X128562962Y-76587735D01*
X128658600Y-76356846D01*
X128658600Y-74910754D01*
X128105204Y-73574738D01*
X127848466Y-73318000D01*
X138202560Y-73318000D01*
X138202560Y-75018000D01*
X138251843Y-75265765D01*
X138392191Y-75475809D01*
X138602235Y-75616157D01*
X138850000Y-75665440D01*
X140550000Y-75665440D01*
X140797765Y-75616157D01*
X141007809Y-75475809D01*
X141148157Y-75265765D01*
X141197440Y-75018000D01*
X141197440Y-74910754D01*
X158388600Y-74910754D01*
X158388600Y-76356846D01*
X158941996Y-77692862D01*
X159964538Y-78715404D01*
X161300554Y-79268800D01*
X162746646Y-79268800D01*
X164082662Y-78715404D01*
X165105204Y-77692862D01*
X165658600Y-76356846D01*
X165658600Y-74910754D01*
X165105204Y-73574738D01*
X164082662Y-72552196D01*
X162746646Y-71998800D01*
X161300554Y-71998800D01*
X159964538Y-72552196D01*
X158941996Y-73574738D01*
X158388600Y-74910754D01*
X141197440Y-74910754D01*
X141197440Y-73318000D01*
X141148157Y-73070235D01*
X141147890Y-73069835D01*
X141849900Y-73069835D01*
X141849900Y-73411965D01*
X141980828Y-73728051D01*
X142222749Y-73969972D01*
X142538835Y-74100900D01*
X142880965Y-74100900D01*
X143197051Y-73969972D01*
X143366437Y-73800586D01*
X143447043Y-73881192D01*
X143763129Y-74012120D01*
X144105259Y-74012120D01*
X144421345Y-73881192D01*
X144598457Y-73704080D01*
X144775449Y-73881072D01*
X145091535Y-74012000D01*
X145433665Y-74012000D01*
X145749751Y-73881072D01*
X145991672Y-73639151D01*
X146122600Y-73323065D01*
X146122600Y-72980935D01*
X145991672Y-72664849D01*
X145749751Y-72422928D01*
X145433665Y-72292000D01*
X145412654Y-72292000D01*
X145356672Y-72156849D01*
X145114751Y-71914928D01*
X144798665Y-71784000D01*
X144456535Y-71784000D01*
X144140449Y-71914928D01*
X143898528Y-72156849D01*
X143842497Y-72292120D01*
X143763129Y-72292120D01*
X143447043Y-72423048D01*
X143277657Y-72592434D01*
X143197051Y-72511828D01*
X142880965Y-72380900D01*
X142538835Y-72380900D01*
X142222749Y-72511828D01*
X141980828Y-72753749D01*
X141849900Y-73069835D01*
X141147890Y-73069835D01*
X141007809Y-72860191D01*
X140797765Y-72719843D01*
X140550000Y-72670560D01*
X138850000Y-72670560D01*
X138602235Y-72719843D01*
X138392191Y-72860191D01*
X138251843Y-73070235D01*
X138202560Y-73318000D01*
X127848466Y-73318000D01*
X127082662Y-72552196D01*
X125746646Y-71998800D01*
X124300554Y-71998800D01*
X122964538Y-72552196D01*
X121941996Y-73574738D01*
X121388600Y-74910754D01*
X119733600Y-74910754D01*
X119733600Y-70343800D01*
X167313601Y-70343800D01*
X167313600Y-127923800D01*
G04 #@! TD*
M02*
